<svg width="691" height="134" viewBox="0 0 691 134" fill="none" xmlns="http://www.w3.org/2000/svg">
<path d="M58.957 8.90234C59.1719 9.47526 59.2793 9.90495 59.2793 10.1914C59.2793 10.7643 58.9928 11.2656 58.4199 11.6953C57.9186 12.0534 57.2741 12.3398 56.4863 12.5547C55.7702 12.7695 55.0182 12.9486 54.2305 13.0918C53.4427 13.1634 52.7982 13.1992 52.2969 13.1992C51.7956 13.1992 51.2943 13.1992 50.793 13.1992C50.3633 13.1276 49.9336 13.0918 49.5039 13.0918C48 13.0918 46.8184 13.4499 45.959 14.166C45.1712 14.8822 44.5267 15.9564 44.0254 17.3887C43.5957 18.7493 43.2376 20.4681 42.9512 22.5449C42.7363 24.6217 42.4499 27.0208 42.0918 29.7422C41.877 31.3893 41.6263 33.1081 41.3398 34.8984C41.0534 36.6172 40.7669 38.3001 40.4805 39.9473C40.2656 41.5944 40.0508 43.2057 39.8359 44.7812C39.6927 46.2852 39.6211 47.6816 39.6211 48.9707C39.6211 50.0449 39.6569 51.1191 39.7285 52.1934C39.8001 53.196 39.8359 54.1986 39.8359 55.2012C39.8359 57.4212 39.4779 59.6055 38.7617 61.7539C38.1172 63.9023 37.6159 66.0508 37.2578 68.1992C37.043 70.1328 36.7565 72.1022 36.3984 74.1074C36.112 76.1126 35.8971 77.903 35.7539 79.4785C35.4674 82.4147 35.2526 85.2077 35.1094 87.8574C34.9661 90.5072 34.7871 93.0137 34.5723 95.377C34.429 97.7402 34.1784 99.9961 33.8203 102.145C33.5339 104.293 33.0684 106.37 32.4238 108.375V108.59C32.4238 108.733 32.4238 108.912 32.4238 109.127C32.4954 109.27 32.5312 109.413 32.5312 109.557C32.5312 110.058 32.2448 110.595 31.6719 111.168C31.1706 111.741 30.9199 112.529 30.9199 113.531C30.9199 114.176 31.0632 115.25 31.3496 116.754C31.7077 118.186 31.8867 119.583 31.8867 120.943C31.8867 121.445 31.8151 122.053 31.6719 122.77C32.0299 122.841 32.3522 122.913 32.6387 122.984C32.9251 122.984 33.2474 122.984 33.6055 122.984C35.0378 122.984 36.3984 122.805 37.6875 122.447C38.9766 122.089 40.2298 121.91 41.4473 121.91C42.0202 121.91 42.7005 122.053 43.4883 122.34C44.3477 122.555 44.7773 123.092 44.7773 123.951C44.7773 124.309 43.8105 124.775 41.877 125.348C40.015 125.921 37.8665 126.493 35.4316 127.066C32.9967 127.639 30.6335 128.212 28.3418 128.785C26.0501 129.286 24.5104 129.716 23.7227 130.074C23.3646 130.146 23.0423 130.182 22.7559 130.182C22.541 130.253 22.2904 130.289 22.0039 130.289C21.431 130.289 20.8581 130.253 20.2852 130.182C19.7122 130.11 18.9961 130.074 18.1367 130.074C17.1341 130.074 16.0241 130.182 14.8066 130.396C13.5892 130.683 12.3359 130.934 11.0469 131.148C9.75781 131.435 8.50456 131.686 7.28711 131.9C6.06966 132.187 4.95964 132.33 3.95703 132.33C2.8112 132.33 1.91602 132.115 1.27148 131.686C0.698568 131.256 0.412109 130.432 0.412109 129.215C0.412109 128.355 0.770182 127.711 1.48633 127.281C2.20247 126.852 3.09766 126.529 4.17188 126.314C5.24609 126.1 6.39193 125.921 7.60938 125.777C8.82682 125.634 9.90104 125.455 10.832 125.24C11.0469 125.169 11.2617 125.025 11.4766 124.811C11.763 124.596 12.1927 124.488 12.7656 124.488H14.4844C14.6992 124.488 14.9499 123.844 15.2363 122.555C15.5228 121.266 15.8092 119.618 16.0957 117.613C16.3822 115.608 16.6686 113.388 16.9551 110.953C17.2415 108.518 17.4922 106.191 17.707 103.971C17.9935 101.679 18.2083 99.638 18.3516 97.8477C18.5664 95.9857 18.7454 94.6966 18.8887 93.9805C19.0319 93.1927 19.2826 92.3333 19.6406 91.4023C19.9987 90.4714 20.2493 89.4688 20.3926 88.3945C20.7507 85.4583 21.0013 82.4147 21.1445 79.2637C21.2878 76.1126 21.61 72.9974 22.1113 69.918C22.1829 69.2018 22.3262 68.5573 22.541 67.9844C22.7559 67.3398 22.9349 66.7311 23.0781 66.1582C23.293 65.5853 23.472 64.9766 23.6152 64.332C23.7585 63.6159 23.8301 62.7923 23.8301 61.8613C23.8301 60.7155 23.7943 59.6055 23.7227 58.5312C23.651 57.457 23.6152 56.3828 23.6152 55.3086C23.6152 53.6615 23.8301 52.1934 24.2598 50.9043C24.7611 49.5436 25.0833 48.1113 25.2266 46.6074C25.3698 44.9603 25.4414 43.5638 25.4414 42.418C25.513 41.2005 25.7279 39.9115 26.0859 38.5508C26.2292 37.9779 26.4798 37.2617 26.8379 36.4023C27.2676 35.543 27.554 34.6836 27.6973 33.8242C27.9121 32.2487 28.0195 30.709 28.0195 29.2051C28.0911 27.6296 28.127 26.1257 28.127 24.6934C28.1986 23.1895 28.306 21.7572 28.4492 20.3965C28.5924 18.9642 28.8789 17.5677 29.3086 16.207C28.7357 15.9206 28.0911 15.7773 27.375 15.7773C26.0859 15.7773 24.7611 16.0996 23.4004 16.7441C22.1113 17.3887 20.8581 17.7109 19.6406 17.7109C19.1393 17.6393 18.5664 17.3529 17.9219 16.8516C17.349 16.3503 17.0625 15.7057 17.0625 14.918C17.0625 13.5573 17.528 12.7337 18.459 12.4473C19.4616 12.0892 20.7148 11.9102 22.2188 11.9102H25.7637C26.623 11.9102 27.4824 11.8743 28.3418 11.8027C29.2012 11.7311 30.0605 11.5879 30.9199 11.373C31.5645 11.2298 32.2448 10.9076 32.9609 10.4062C33.7487 9.83333 34.5365 9.29622 35.3242 8.79492C36.1836 8.22201 37.043 7.7207 37.9023 7.29102C38.7617 6.86133 39.6927 6.64648 40.6953 6.64648C41.3398 6.64648 41.9486 6.82552 42.5215 7.18359C43.0944 7.47005 43.5957 7.82812 44.0254 8.25781C44.5267 8.61589 44.9564 8.97396 45.3145 9.33203C45.6725 9.61849 45.959 9.76172 46.1738 9.76172C46.3887 9.76172 46.8184 9.6543 47.4629 9.43945C48.179 9.22461 48.9668 9.00977 49.8262 8.79492C50.7572 8.58008 51.724 8.36523 52.7266 8.15039C53.7292 7.93555 54.696 7.82812 55.627 7.82812C57.1309 7.82812 58.2409 8.1862 58.957 8.90234ZM168.742 58.9609C168.527 60.25 168.133 61.2884 167.561 62.0762C166.988 62.8639 166.379 63.5801 165.734 64.2246C165.09 64.7975 164.445 65.4062 163.801 66.0508C163.156 66.6953 162.655 67.5547 162.297 68.6289C162.154 68.987 162.046 69.5599 161.975 70.3477C161.975 71.1354 161.975 72.0306 161.975 73.0332C161.975 73.9642 161.939 74.8952 161.867 75.8262C161.867 76.7572 161.76 77.5449 161.545 78.1895C161.545 78.2611 161.438 78.3685 161.223 78.5117C161.008 78.5833 160.865 78.7266 160.793 78.9414C160.65 79.6576 160.542 80.7676 160.471 82.2715C160.399 83.7754 160.22 85.1003 159.934 86.2461C159.647 87.3919 159.289 88.3945 158.859 89.2539C158.501 90.1133 158.322 91.0801 158.322 92.1543C158.322 92.5124 158.322 92.9062 158.322 93.3359C158.394 93.7656 158.43 94.1953 158.43 94.625C158.43 95.556 158.286 96.2005 158 96.5586C157.714 96.8451 157.57 97.3822 157.57 98.1699C157.57 98.9577 157.606 99.8529 157.678 100.855C157.821 101.786 157.893 102.753 157.893 103.756C157.893 105.403 157.57 106.799 156.926 107.945C156.281 109.02 155.279 110.094 153.918 111.168C152.557 112.171 150.839 113.316 148.762 114.605C146.757 115.823 144.357 117.327 141.564 119.117C140.992 119.475 140.419 119.618 139.846 119.547C139.344 119.475 138.807 119.583 138.234 119.869C138.02 120.012 137.805 120.263 137.59 120.621C137.375 120.979 137.089 121.266 136.73 121.48C135.871 122.053 134.94 122.662 133.938 123.307C132.935 123.951 131.968 124.703 131.037 125.562C130.894 125.706 130.393 125.992 129.533 126.422C128.745 126.78 127.886 127.21 126.955 127.711C126.024 128.141 125.165 128.57 124.377 129C123.661 129.358 123.303 129.573 123.303 129.645C123.088 129.645 122.873 129.609 122.658 129.537C122.443 129.537 122.229 129.537 122.014 129.537C121.226 129.537 119.758 129.931 117.609 130.719C115.533 131.507 113.348 132.187 111.057 132.76H110.305C109.302 132.76 108.156 132.617 106.867 132.33C105.578 132.044 104.289 131.9 103 131.9C102.141 131.9 101.281 131.936 100.422 132.008C99.5625 132.079 98.7389 132.115 97.9512 132.115C96.8053 132.115 95.9102 131.829 95.2656 131.256C94.6211 130.683 94.0124 130.396 93.4395 130.396C92.6517 130.182 91.9714 130.003 91.3984 129.859C90.8971 129.788 90.4316 129.68 90.002 129.537C89.5723 129.394 89.1426 129.215 88.7129 129C88.2832 128.714 87.7103 128.355 86.9941 127.926C86.6361 127.711 86.2422 127.389 85.8125 126.959C85.3828 126.529 84.9531 126.314 84.5234 126.314C84.237 126.314 83.7357 126.1 83.0195 125.67C82.3034 125.24 81.5872 124.775 80.8711 124.273C80.1549 123.772 79.5104 123.342 78.9375 122.984C78.3646 122.555 78.0781 122.34 78.0781 122.34C77.7917 121.982 77.6842 121.588 77.7559 121.158C77.8275 120.657 77.6842 120.227 77.3262 119.869C77.1829 119.654 76.8607 119.547 76.3594 119.547C75.8581 119.475 75.6074 119.26 75.6074 118.902C75.6074 118.759 75.6074 118.58 75.6074 118.365C75.679 118.079 75.7148 117.864 75.7148 117.721C75.7148 117.792 75.5 117.506 75.0703 116.861C74.7122 116.217 74.2467 115.429 73.6738 114.498C73.1725 113.495 72.6354 112.493 72.0625 111.49C71.5612 110.416 71.1673 109.485 70.8809 108.697C69.5202 105.117 68.446 101.357 67.6582 97.418C66.9421 93.4792 66.6198 89.1107 66.6914 84.3125C66.6914 83.2383 66.6914 82.1283 66.6914 80.9824C66.763 79.8366 66.8346 78.6549 66.9062 77.4375C66.9062 76.8646 67.0495 76.1842 67.3359 75.3965C67.6224 74.6087 67.7656 73.9284 67.7656 73.3555C67.7656 72.4245 67.6224 71.4935 67.3359 70.5625C67.0495 69.5599 66.9062 68.5573 66.9062 67.5547C66.9062 67.3398 67.0137 66.9102 67.2285 66.2656C67.4434 65.6211 67.694 64.9049 67.9805 64.1172C68.2669 63.2578 68.5534 62.3984 68.8398 61.5391C69.1263 60.6081 69.3053 59.7487 69.377 58.9609C69.377 58.6745 69.4128 57.9941 69.4844 56.9199C69.556 55.7741 69.7708 54.8431 70.1289 54.127C70.3438 53.7689 70.7734 53.3034 71.418 52.7305C72.0625 52.1576 72.7428 51.5488 73.459 50.9043C74.2467 50.2598 74.9271 49.6152 75.5 48.9707C76.1445 48.2546 76.5026 47.5742 76.5742 46.9297C76.5742 46.3568 76.8249 45.9629 77.3262 45.748C77.8991 45.5332 78.4362 45.1393 78.9375 44.5664C79.224 44.2083 79.4746 43.5996 79.6895 42.7402C79.9759 41.8092 80.334 41.3438 80.7637 41.3438C80.9069 41.3438 81.0859 41.3796 81.3008 41.4512C81.5872 41.4512 81.8021 41.4512 81.9453 41.4512C82.0169 41.4512 82.0885 41.4154 82.1602 41.3438C83.8073 39.3385 85.7409 37.0111 87.9609 34.3613C90.181 31.7116 92.5085 29.4915 94.9434 27.7012C95.1582 27.5579 95.4805 27.3431 95.9102 27.0566C96.3398 26.7702 96.7695 26.4479 97.1992 26.0898C97.7005 25.7318 98.1302 25.3379 98.4883 24.9082C98.8464 24.4785 99.0254 24.0488 99.0254 23.6191C99.0254 23.2611 99.276 22.7956 99.7773 22.2227C100.279 21.6497 100.816 21.3275 101.389 21.2559C101.747 21.2559 102.141 21.041 102.57 20.6113C103.072 20.1816 103.537 19.7161 103.967 19.2148C104.396 18.6419 104.79 18.1048 105.148 17.6035C105.578 17.0306 105.936 16.6367 106.223 16.4219C106.724 16.0638 107.368 15.849 108.156 15.7773C108.944 15.6341 109.66 15.3477 110.305 14.918C110.878 14.5599 111.271 14.1302 111.486 13.6289C111.701 13.056 112.095 12.6621 112.668 12.4473C113.957 11.6595 115.21 11.0866 116.428 10.7285C117.717 10.2988 118.863 9.79753 119.865 9.22461C121.441 8.36523 122.658 7.82812 123.518 7.61328C124.449 7.32682 125.63 7.18359 127.062 7.18359C129.211 7.18359 131.359 7.36263 133.508 7.7207C135.728 8.07878 137.912 8.50846 140.061 9.00977C142.281 9.51107 144.501 10.0124 146.721 10.5137C148.941 10.9434 151.232 11.3014 153.596 11.5879C154.813 11.7311 155.887 11.8027 156.818 11.8027C157.821 11.8027 158.645 11.8385 159.289 11.9102C159.934 11.9818 160.435 12.1966 160.793 12.5547C161.151 12.8411 161.33 13.4141 161.33 14.2734C161.33 15.276 160.936 16.207 160.148 17.0664C159.361 17.8542 158.788 18.4271 158.43 18.7852C157.785 19.5729 157.248 20.3965 156.818 21.2559C156.389 22.1152 155.923 22.903 155.422 23.6191C154.992 24.3353 154.455 24.944 153.811 25.4453C153.166 25.875 152.342 26.0898 151.34 26.0898C150.624 26.0898 149.764 26.0182 148.762 25.875C147.831 25.6602 146.864 25.4095 145.861 25.123C144.859 24.8366 143.82 24.5501 142.746 24.2637C141.743 23.9772 140.812 23.7624 139.953 23.6191C138.592 23.4043 137.232 23.2969 135.871 23.2969C134.51 23.2969 133.186 23.1536 131.896 22.8672C130.393 22.5807 128.352 22.1868 125.773 21.6855C123.267 21.1842 120.76 20.9336 118.254 20.9336C115.604 20.9336 113.456 21.3275 111.809 22.1152C110.233 22.903 108.801 23.6549 107.512 24.3711C106.294 25.0156 105.077 25.7318 103.859 26.5195C102.642 27.3073 101.389 28.2383 100.1 29.3125C98.8105 30.3867 97.3783 31.7116 95.8027 33.2871C94.9434 34.0749 94.1556 34.791 93.4395 35.4355C92.7233 36.0801 92.043 36.7246 91.3984 37.3691C90.7539 38.0137 90.1452 38.7298 89.5723 39.5176C88.9993 40.2337 88.3906 41.0931 87.7461 42.0957C87.4596 42.5254 87.3164 42.9551 87.3164 43.3848C87.388 43.7428 87.2806 44.1367 86.9941 44.5664C86.7793 44.8529 86.4928 45.3184 86.1348 45.9629C85.7767 46.5358 85.4186 47.2161 85.0605 48.0039C84.7025 48.7201 84.3802 49.5078 84.0938 50.3672C83.8789 51.1549 83.7715 51.9785 83.7715 52.8379C83.7715 53.1243 83.7715 53.4108 83.7715 53.6973C83.8431 53.9121 83.8789 54.127 83.8789 54.3418C83.8789 54.2702 83.7715 54.485 83.5566 54.9863C83.4134 55.4876 83.1986 56.0964 82.9121 56.8125C82.6973 57.5286 82.4824 58.2806 82.2676 59.0684C82.1243 59.8561 82.0527 60.5007 82.0527 61.002C82.0527 61.8613 82.0527 62.7923 82.0527 63.7949C82.1243 64.7975 82.1602 65.8001 82.1602 66.8027C82.1602 67.0176 82.1243 67.3398 82.0527 67.7695C82.0527 68.1992 82.0169 68.6647 81.9453 69.166C81.9453 69.6673 81.8737 70.097 81.7305 70.4551C81.6589 70.8132 81.5514 70.9922 81.4082 70.9922C81.4798 71.9948 81.7305 72.8542 82.1602 73.5703C82.6615 74.2148 82.9121 74.9668 82.9121 75.8262C82.9121 77.0436 82.6615 78.3685 82.1602 79.8008C81.6589 81.1615 81.4082 82.2357 81.4082 83.0234C81.4082 83.8112 81.6589 84.6706 82.1602 85.6016C82.7331 86.5326 83.0195 87.6784 83.0195 89.0391C83.0195 89.612 82.9837 90.1849 82.9121 90.7578C82.8405 91.2591 82.8047 91.7962 82.8047 92.3691C82.8047 93.6582 83.2344 95.2337 84.0938 97.0957C84.9531 98.9577 85.6693 100.676 86.2422 102.252C86.8151 103.827 87.2806 105.152 87.6387 106.227C87.9967 107.229 88.3906 108.16 88.8203 109.02C89.25 109.807 89.7871 110.559 90.4316 111.275C91.1478 111.92 92.1504 112.672 93.4395 113.531C93.9408 113.889 94.6211 114.391 95.4805 115.035C96.3398 115.68 97.2708 116.324 98.2734 116.969C99.276 117.542 100.279 118.043 101.281 118.473C102.284 118.902 103.215 119.117 104.074 119.117C104.217 119.117 104.361 119.117 104.504 119.117C104.719 119.046 104.898 119.01 105.041 119.01C105.399 119.01 105.721 119.26 106.008 119.762C106.366 120.263 106.688 120.585 106.975 120.729C107.691 120.943 108.479 121.122 109.338 121.266C110.269 121.409 111.164 121.552 112.023 121.695C112.954 121.767 113.85 121.839 114.709 121.91C115.568 121.91 116.32 121.91 116.965 121.91C117.967 121.91 119.006 121.839 120.08 121.695C121.154 121.552 122.479 121.48 124.055 121.48C124.699 121.48 125.272 121.516 125.773 121.588C126.346 121.66 126.883 121.695 127.385 121.695C127.958 121.695 128.674 121.516 129.533 121.158C130.464 120.729 131.395 120.263 132.326 119.762C133.329 119.189 134.224 118.652 135.012 118.15C135.799 117.577 136.372 117.112 136.73 116.754C137.017 116.467 137.411 115.93 137.912 115.143C138.485 114.283 139.022 113.424 139.523 112.564C140.096 111.705 140.562 110.953 140.92 110.309C141.35 109.592 141.564 109.234 141.564 109.234C141.564 108.948 141.529 108.626 141.457 108.268C141.385 107.838 141.35 107.444 141.35 107.086C141.35 106.656 141.421 106.406 141.564 106.334C142.066 105.761 142.281 104.758 142.209 103.326C142.137 101.822 142.173 100.139 142.316 98.2773C142.46 95.2695 142.818 92.2975 143.391 89.3613C143.964 86.3535 144.25 83.3457 144.25 80.3379C144.25 79.1204 144.143 78.4401 143.928 78.2969C143.785 78.082 143.247 77.9746 142.316 77.9746C141.099 77.9746 139.344 78.1178 137.053 78.4043C134.833 78.6191 132.577 78.8698 130.285 79.1562C127.993 79.4427 125.917 79.765 124.055 80.123C122.193 80.4095 121.047 80.5885 120.617 80.6602C119.615 80.9466 118.218 81.4837 116.428 82.2715C114.637 83.0592 113.098 83.847 111.809 84.6348C111.379 84.8496 110.985 85.1719 110.627 85.6016C110.34 86.0312 110.018 86.4609 109.66 86.8906C109.374 87.2487 109.016 87.571 108.586 87.8574C108.156 88.1439 107.691 88.2871 107.189 88.2871C106.688 88.2871 106.187 88.1797 105.686 87.9648C105.256 87.75 105.041 87.2487 105.041 86.4609C105.041 85.6016 105.399 84.8496 106.115 84.2051C106.831 83.4889 107.583 82.8086 108.371 82.1641C109.23 81.5195 110.018 80.875 110.734 80.2305C111.451 79.5859 111.809 78.9056 111.809 78.1895C111.809 77.8314 111.952 77.4733 112.238 77.1152C112.596 76.6855 112.954 76.3275 113.312 76.041C113.742 75.6829 114.1 75.3965 114.387 75.1816C114.745 74.9668 114.96 74.8594 115.031 74.8594C115.461 74.8594 115.891 74.8952 116.32 74.9668C116.822 75.0384 117.215 75.0742 117.502 75.0742C117.717 75.0026 117.932 74.7878 118.146 74.4297C118.433 74.0716 118.719 73.7135 119.006 73.3555C119.364 72.9258 119.686 72.5677 119.973 72.2812C120.259 71.9232 120.51 71.7441 120.725 71.7441C120.868 71.7441 121.047 71.7799 121.262 71.8516C121.477 71.8516 121.691 71.8516 121.906 71.8516C122.193 71.8516 122.622 71.7441 123.195 71.5293C123.84 71.2428 124.735 70.9564 125.881 70.6699C127.098 70.3118 128.602 70.0254 130.393 69.8105C132.183 69.5241 134.367 69.3809 136.945 69.3809C137.733 69.3809 138.306 69.5241 138.664 69.8105C139.094 70.097 139.846 70.2402 140.92 70.2402C143.713 70.2402 146.255 69.6673 148.547 68.5215C150.91 67.304 153.13 65.9792 155.207 64.5469C157.284 63.043 159.289 61.7181 161.223 60.5723C163.156 59.3548 165.126 58.7461 167.131 58.7461C167.489 58.7461 168.026 58.8177 168.742 58.9609ZM305.705 8.90234C305.132 9.54688 304.559 9.97656 303.986 10.1914C303.413 10.3346 302.84 10.4062 302.268 10.4062C301.91 10.4062 301.587 10.4062 301.301 10.4062C301.014 10.3346 300.692 10.2988 300.334 10.2988C299.689 10.2988 299.224 10.3704 298.938 10.5137C298.723 10.5853 298.042 10.8717 296.896 11.373H296.789C296.574 11.373 296.109 11.4089 295.393 11.4805C294.748 11.5521 294.032 11.6595 293.244 11.8027C292.385 11.946 291.454 12.0534 290.451 12.125C290.165 12.4115 289.878 13.0918 289.592 14.166C289.305 15.2402 289.019 16.5651 288.732 18.1406C288.518 19.6445 288.267 21.3275 287.98 23.1895C287.694 24.9798 287.443 26.7344 287.229 28.4531C287.085 30.1003 286.942 31.64 286.799 33.0723C286.656 34.4329 286.548 35.4714 286.477 36.1875C286.118 39.8398 285.868 43.5638 285.725 47.3594C285.581 51.0833 285.295 54.8431 284.865 58.6387C284.722 60.071 284.471 61.5391 284.113 63.043C283.827 64.5469 283.54 66.2656 283.254 68.1992C283.111 68.987 282.788 69.8464 282.287 70.7773C281.857 71.6367 281.643 72.5677 281.643 73.5703C281.643 74.3581 281.75 75.3607 281.965 76.5781C282.251 77.7956 282.395 78.7624 282.395 79.4785C282.251 79.5501 282.072 79.8724 281.857 80.4453C281.714 80.9466 281.643 81.2689 281.643 81.4121C281.643 81.6986 281.643 81.985 281.643 82.2715C281.714 82.4863 281.75 82.7012 281.75 82.916C281.75 83.2741 281.464 83.8828 280.891 84.7422C280.318 85.5299 280.031 86.0671 280.031 86.3535C280.031 86.8548 280.139 87.2845 280.354 87.6426C280.64 88.0007 280.783 88.502 280.783 89.1465C280.783 89.9342 280.64 90.543 280.354 90.9727C280.139 91.3307 280.031 91.9036 280.031 92.6914C280.031 92.9062 280.031 93.1569 280.031 93.4434C280.103 93.6582 280.139 93.873 280.139 94.0879C280.139 94.446 279.888 94.9115 279.387 95.4844C278.957 96.0573 278.635 96.8809 278.42 97.9551C278.133 99.3874 278.026 100.641 278.098 101.715C278.169 102.789 278.026 103.935 277.668 105.152C277.382 106.083 277.095 107.337 276.809 108.912C276.594 110.488 276.307 112.206 275.949 114.068C275.663 115.93 275.269 117.828 274.768 119.762C274.338 121.624 273.837 123.342 273.264 124.918C272.691 126.422 272.046 127.675 271.33 128.678C270.614 129.609 269.755 130.074 268.752 130.074C268.107 130.074 267.32 129.609 266.389 128.678C265.529 127.675 264.598 126.493 263.596 125.133C262.665 123.772 261.734 122.376 260.803 120.943C259.872 119.439 259.048 118.186 258.332 117.184C256.184 114.104 254.25 111.454 252.531 109.234C250.884 106.943 249.309 104.83 247.805 102.896C246.372 100.963 244.94 99.1009 243.508 97.3105C242.147 95.5202 240.679 93.5866 239.104 91.5098L234.27 85.0645C233.339 83.9902 232.336 83.0234 231.262 82.1641C230.188 81.2331 229.328 80.3379 228.684 79.4785C228.326 78.9772 228.182 78.4401 228.254 77.8672C228.326 77.2943 228.182 76.793 227.824 76.3633C227.538 75.862 227.036 75.2174 226.32 74.4297C225.676 73.6419 224.995 72.8542 224.279 72.0664C223.563 71.2786 222.919 70.5267 222.346 69.8105C221.773 69.0944 221.486 68.5573 221.486 68.1992C221.2 67.9128 221.057 67.5547 221.057 67.125C221.057 66.6237 220.913 66.194 220.627 65.8359C220.555 65.6927 220.305 65.5853 219.875 65.5137C219.445 65.3704 219.195 65.2272 219.123 65.084C218.693 64.2246 218.228 63.3652 217.727 62.5059C217.225 61.6465 216.617 60.6081 215.9 59.3906C215.256 58.1732 214.396 56.7051 213.322 54.9863C212.32 53.196 211.031 50.9401 209.455 48.2188C209.097 47.5026 208.775 46.7148 208.488 45.8555C208.273 44.9961 207.736 44.5664 206.877 44.5664C206.662 44.5664 206.34 44.7096 205.91 44.9961C205.552 45.2109 205.373 45.6764 205.373 46.3926C205.373 46.5358 205.373 46.7148 205.373 46.9297C205.445 47.1445 205.48 47.3236 205.48 47.4668C205.122 48.6842 204.729 50.2956 204.299 52.3008C203.941 54.2344 203.583 56.2754 203.225 58.4238C202.938 60.5007 202.652 62.5059 202.365 64.4395C202.15 66.373 202.043 67.9128 202.043 69.0586V71.0996C202.043 71.8874 202.007 72.7109 201.936 73.5703C201.864 74.4297 201.685 75.3607 201.398 76.3633C201.327 76.6497 201.184 76.9004 200.969 77.1152C200.754 77.3301 200.646 77.724 200.646 78.2969C200.646 78.6549 200.646 79.0846 200.646 79.5859C200.718 80.0156 200.754 80.4453 200.754 80.875C200.754 81.3047 200.503 81.9134 200.002 82.7012C199.501 83.4173 199.178 84.4915 199.035 85.9238C198.892 87.2845 198.713 88.9674 198.498 90.9727C198.283 92.9062 198.068 94.9115 197.854 96.9883C197.639 98.9935 197.46 100.963 197.316 102.896C197.173 104.83 197.102 106.441 197.102 107.73C197.102 107.874 197.137 108.124 197.209 108.482C197.352 108.769 197.424 109.199 197.424 109.771C197.424 110.416 197.352 111.275 197.209 112.35C197.137 113.424 196.994 114.605 196.779 115.895C196.636 117.112 196.493 118.329 196.35 119.547C196.278 120.764 196.242 121.803 196.242 122.662C196.242 123.951 196.529 124.775 197.102 125.133C197.746 125.419 198.391 125.562 199.035 125.562C200.038 125.562 201.076 125.383 202.15 125.025C203.296 124.596 204.37 124.381 205.373 124.381C206.519 124.381 207.342 124.918 207.844 125.992C207.486 127.568 206.698 128.606 205.48 129.107C204.335 129.68 202.974 130.038 201.398 130.182C199.895 130.325 198.283 130.361 196.564 130.289C194.846 130.289 193.234 130.468 191.73 130.826C191.158 130.969 190.764 131.256 190.549 131.686C190.334 132.187 189.618 132.438 188.4 132.438C187.756 132.438 187.04 132.294 186.252 132.008C185.536 131.793 184.712 131.686 183.781 131.686C183.065 131.686 182.134 131.721 180.988 131.793C179.842 131.865 178.625 132.079 177.336 132.438C176.978 132.509 176.727 132.652 176.584 132.867C176.441 133.082 176.19 133.189 175.832 133.189C174.185 133.046 172.788 132.724 171.643 132.223C170.568 131.721 170.031 130.969 170.031 129.967C170.031 129.179 170.425 128.678 171.213 128.463C172.001 128.176 172.967 127.89 174.113 127.604C175.331 127.317 176.441 127.174 177.443 127.174C178.518 127.174 179.484 126.923 180.344 126.422C181.275 125.849 182.134 124.846 182.922 123.414C183.781 121.91 184.605 119.547 185.393 116.324C185.536 115.966 185.679 115.787 185.822 115.787C186.037 115.787 186.145 115.715 186.145 115.572C187.505 111.061 188.687 106.298 189.689 101.285C190.764 96.2721 192.017 90.8652 193.449 85.0645C194.022 82.6296 194.523 79.944 194.953 77.0078C195.454 74 195.884 70.9206 196.242 67.7695C196.6 64.6185 196.923 61.4316 197.209 58.209C197.567 54.9863 197.889 51.9069 198.176 48.9707C198.319 47.7533 198.498 46.6432 198.713 45.6406C198.928 44.638 199.035 43.6354 199.035 42.6328C199.035 42.2031 199.143 41.9883 199.357 41.9883C199.644 41.9883 199.823 41.9167 199.895 41.7734C199.895 41.5586 199.751 41.1289 199.465 40.4844C199.178 39.8398 199.035 38.9447 199.035 37.7988C199.035 36.5814 199.178 35.6146 199.465 34.8984C199.751 34.1107 199.895 33.1797 199.895 32.1055C199.895 30.3151 199.787 28.4173 199.572 26.4121C199.429 24.4069 199.357 22.5091 199.357 20.7188C199.357 19.6445 199.393 18.7493 199.465 18.0332C199.536 17.2454 199.751 16.4935 200.109 15.7773C200.467 15.0612 201.076 14.3092 201.936 13.5215C202.795 12.6621 203.977 11.6595 205.48 10.5137C205.624 10.3704 205.731 9.94076 205.803 9.22461C205.874 8.43685 206.053 8.04297 206.34 8.04297C206.483 8.04297 206.662 8.07878 206.877 8.15039C207.092 8.22201 207.271 8.25781 207.414 8.25781C207.342 8.25781 207.772 7.97135 208.703 7.39844C209.634 6.82552 210.601 6.53906 211.604 6.53906C212.033 6.53906 212.463 7.2194 212.893 8.58008C213.394 9.94076 213.895 11.5879 214.396 13.5215C214.898 15.3835 215.399 17.3171 215.9 19.3223C216.402 21.2559 216.939 22.8672 217.512 24.1562C217.512 24.2995 217.583 24.3711 217.727 24.3711C217.941 24.3711 218.12 24.5501 218.264 24.9082C218.479 25.696 218.729 26.3763 219.016 26.9492C219.374 27.5221 219.66 28.2025 219.875 28.9902C220.018 29.4915 220.197 30.0286 220.412 30.6016C220.699 31.1745 220.985 31.7116 221.271 32.2129C221.558 32.7142 221.773 33.1797 221.916 33.6094C222.131 33.9674 222.238 34.1823 222.238 34.2539C222.238 34.5404 222.202 34.8268 222.131 35.1133C222.131 35.3281 222.131 35.543 222.131 35.7578C222.131 36.4023 222.453 37.0469 223.098 37.6914C223.814 38.2643 224.351 38.8372 224.709 39.4102C225.497 40.8424 226.034 42.2389 226.32 43.5996C226.678 44.9603 227.18 46.2493 227.824 47.4668C228.397 48.2546 228.898 48.7559 229.328 48.9707C229.829 49.1855 230.259 49.4362 230.617 49.7227C230.975 49.9375 231.226 50.3314 231.369 50.9043C231.584 51.4772 231.691 52.4798 231.691 53.9121C231.691 54.6283 231.835 55.237 232.121 55.7383C232.479 56.2396 232.873 56.7409 233.303 57.2422C233.732 57.7435 234.198 58.2448 234.699 58.7461C235.201 59.1758 235.63 59.6771 235.988 60.25C236.561 61.2526 237.421 62.3984 238.566 63.6875C239.712 64.9766 240.715 66.2298 241.574 67.4473C242.004 68.0202 242.29 68.7005 242.434 69.4883C242.577 70.276 242.827 70.9564 243.186 71.5293C243.973 72.8184 245.119 74.1074 246.623 75.3965C248.127 76.6855 249.38 78.0462 250.383 79.4785C250.669 79.8366 250.777 80.2663 250.705 80.7676C250.705 81.1973 250.848 81.5911 251.135 81.9492C251.278 82.0924 251.529 82.2357 251.887 82.3789C252.316 82.4505 252.603 82.5579 252.746 82.7012C253.104 83.2025 253.355 83.8828 253.498 84.7422C253.713 85.5299 253.999 86.1745 254.357 86.6758C255.074 87.5352 256.005 88.5736 257.15 89.791C258.296 91.0085 259.764 92.9421 261.555 95.5918C261.913 96.0931 262.307 96.487 262.736 96.7734C263.238 97.0599 263.632 97.4538 263.918 97.9551C264.204 98.3132 264.348 98.7428 264.348 99.2441C264.419 99.6738 264.562 100.068 264.777 100.426C264.921 100.569 265.171 100.855 265.529 101.285C265.959 101.643 266.389 102.037 266.818 102.467C267.32 102.968 267.893 103.505 268.537 104.078C269.038 104.078 269.396 103.505 269.611 102.359C269.826 101.142 270.077 99.9245 270.363 98.707C270.435 98.5638 270.578 98.3848 270.793 98.1699C271.079 97.8835 271.223 97.5254 271.223 97.0957C271.223 96.8092 271.187 96.4154 271.115 95.9141C271.044 95.3411 271.008 94.7324 271.008 94.0879C271.008 93.4434 271.079 92.9421 271.223 92.584C271.366 92.2259 271.509 91.9753 271.652 91.832C271.867 91.6172 272.082 91.474 272.297 91.4023C272.512 91.2591 272.691 91.0443 272.834 90.7578L275.949 79.4785C276.092 78.834 276.236 77.9746 276.379 76.9004C276.522 75.7546 276.665 74.5371 276.809 73.248C276.952 71.8874 277.131 70.4909 277.346 69.0586C277.632 67.6263 277.99 66.3014 278.42 65.084C278.42 64.4395 278.277 63.974 277.99 63.6875C277.775 63.3294 277.668 62.8639 277.668 62.291C277.668 61.002 277.883 59.8561 278.312 58.8535C278.814 57.7793 279.136 56.6335 279.279 55.416C279.637 52.9095 279.852 50.3672 279.924 47.7891C279.995 45.1393 280.031 42.3822 280.031 39.5176C280.031 38.515 279.995 37.5124 279.924 36.5098C279.924 35.4355 279.924 34.3971 279.924 33.3945C279.924 30.888 280.031 28.3457 280.246 25.7676C280.533 23.1178 280.676 20.7188 280.676 18.5703C280.676 17.138 280.389 15.9564 279.816 15.0254C279.243 14.0944 278.026 13.6289 276.164 13.6289C275.161 13.6289 274.302 13.7721 273.586 14.0586C272.941 14.3451 272.297 14.4883 271.652 14.4883H271.223C270.793 14.4883 270.292 14.4883 269.719 14.4883C269.146 14.4883 268.609 14.3809 268.107 14.166C267.678 13.9512 267.284 13.6289 266.926 13.1992C266.639 12.6979 266.496 11.946 266.496 10.9434C266.496 9.79753 266.783 9.11719 267.355 8.90234C267.928 8.61589 268.788 8.47266 269.934 8.47266C270.721 8.47266 271.617 8.50846 272.619 8.58008C273.622 8.58008 274.624 8.58008 275.627 8.58008C276.63 8.58008 277.561 8.47266 278.42 8.25781C279.351 7.97135 280.425 7.11198 281.643 5.67969C282.215 5.03516 282.753 4.53385 283.254 4.17578C283.755 3.74609 284.292 3.53125 284.865 3.53125C285.438 3.53125 285.975 3.71029 286.477 4.06836C286.978 4.35482 287.479 4.71289 287.98 5.14258C288.482 5.50065 289.019 5.85872 289.592 6.2168C290.165 6.50326 290.845 6.64648 291.633 6.64648C293.065 6.64648 294.605 6.50326 296.252 6.2168C297.899 5.85872 299.439 5.67969 300.871 5.67969C302.089 5.67969 303.091 5.89453 303.879 6.32422C304.738 6.75391 305.347 7.61328 305.705 8.90234ZM427.307 6.86133C427.307 7.7207 427.056 8.32943 426.555 8.6875C426.053 9.04557 425.48 9.33203 424.836 9.54688C424.191 9.6901 423.475 9.79753 422.688 9.86914C421.971 9.86914 421.363 9.97656 420.861 10.1914C420.933 10.1914 420.467 10.5137 419.465 11.1582C418.462 11.8027 417.316 12.2682 416.027 12.5547C415.526 12.6979 415.061 12.7695 414.631 12.7695C414.273 12.7695 413.951 12.877 413.664 13.0918C413.378 13.3066 413.163 13.7005 413.02 14.2734C412.876 14.8464 412.805 15.7773 412.805 17.0664V18.8926C412.59 20.9694 412.268 23.2969 411.838 25.875C411.408 28.3815 410.979 30.9954 410.549 33.7168C410.191 36.4382 409.833 39.1595 409.475 41.8809C409.117 44.5306 408.902 47.0371 408.83 49.4004V51.1191C408.83 51.6204 408.758 52.0501 408.615 52.4082C408.544 52.6947 408.508 52.9453 408.508 53.1602C408.508 53.4466 408.544 53.7689 408.615 54.127C408.687 54.4134 408.758 54.9863 408.83 55.8457C408.83 56.2038 408.687 56.4544 408.4 56.5977C408.114 56.7409 407.971 57.0273 407.971 57.457C407.971 57.6719 408.078 57.8867 408.293 58.1016C408.508 58.2448 408.687 58.3164 408.83 58.3164C408.687 59.319 408.4 60.3932 407.971 61.5391C407.541 62.6133 407.255 63.6517 407.111 64.6543C406.896 65.8717 406.789 67.0892 406.789 68.3066C406.789 69.4525 406.646 70.6341 406.359 71.8516C405.786 74.3581 405.106 76.9362 404.318 79.5859C403.602 82.1641 402.958 84.957 402.385 87.9648C402.242 88.3229 401.919 88.681 401.418 89.0391C400.917 89.3255 400.666 89.6478 400.666 90.0059C400.666 90.1491 400.666 90.2923 400.666 90.4355C400.738 90.5788 400.773 90.722 400.773 90.8652C400.773 91.2233 400.702 91.474 400.559 91.6172C400.487 91.6888 400.38 91.7604 400.236 91.832C400.165 91.9036 400.057 92.0111 399.914 92.1543C399.842 92.2259 399.807 92.4408 399.807 92.7988C399.807 93.3717 399.842 93.9447 399.914 94.5176C400.057 95.0905 400.129 95.6634 400.129 96.2363C400.129 96.8092 400.021 97.2389 399.807 97.5254C399.592 97.8118 399.305 98.0983 398.947 98.3848C398.661 98.5996 398.303 98.8861 397.873 99.2441C397.515 99.6022 397.157 100.104 396.799 100.748C396.369 101.464 396.047 102.216 395.832 103.004C395.617 103.792 395.367 104.365 395.08 104.723C394.364 105.654 393.469 106.37 392.395 106.871C391.32 107.372 390.354 108.017 389.494 108.805C388.993 109.306 388.706 109.879 388.635 110.523C388.563 111.096 388.312 111.598 387.883 112.027C387.453 112.457 386.916 112.743 386.271 112.887C385.699 112.958 385.197 113.209 384.768 113.639C383.908 114.355 383.12 115.143 382.404 116.002C381.688 116.861 380.865 117.685 379.934 118.473C379.576 118.759 379.038 119.01 378.322 119.225C377.606 119.368 377.069 119.618 376.711 119.977C376.353 120.335 376.031 120.836 375.744 121.48C375.458 122.125 375.135 122.447 374.777 122.447C374.634 122.447 374.455 122.447 374.24 122.447C374.025 122.376 373.846 122.34 373.703 122.34H373.488C372.414 123.629 370.839 124.882 368.762 126.1C366.757 127.317 364.572 128.355 362.209 129.215C359.846 130.146 357.482 130.862 355.119 131.363C352.827 131.936 350.894 132.223 349.318 132.223C347.671 132.223 346.49 131.829 345.773 131.041C345.057 130.325 344.413 129.859 343.84 129.645C342.98 129.286 342.121 129.143 341.262 129.215C340.474 129.358 339.722 129.215 339.006 128.785C338.576 128.57 338.218 128.212 337.932 127.711C337.645 127.21 337.215 126.78 336.643 126.422C334.995 125.419 333.312 124.202 331.594 122.77C329.947 121.266 328.407 119.547 326.975 117.613C326.402 116.826 326.008 115.823 325.793 114.605C325.578 113.316 325.184 112.171 324.611 111.168C324.182 110.452 323.501 109.771 322.57 109.127C321.639 108.482 320.959 107.587 320.529 106.441C319.956 105.009 319.527 103.434 319.24 101.715C319.025 99.9961 318.918 98.5996 318.918 97.5254C318.918 96.7376 319.061 95.9141 319.348 95.0547C319.634 94.1237 319.777 93.3359 319.777 92.6914C319.777 91.832 319.634 90.9368 319.348 90.0059C319.133 89.0033 319.025 88.0365 319.025 87.1055C319.097 82.8802 319.491 78.082 320.207 72.7109C320.923 67.2682 321.675 61.5391 322.463 55.5234C323.322 49.5078 324.11 43.3132 324.826 36.9395C325.614 30.5658 326.079 24.2995 326.223 18.1406C325.936 17.8542 325.542 17.7109 325.041 17.7109C324.54 17.7109 323.931 17.8542 323.215 18.1406C322.499 18.4271 321.747 18.7493 320.959 19.1074C320.243 19.4655 319.491 19.7878 318.703 20.0742C317.915 20.3607 317.199 20.5039 316.555 20.5039C316.555 20.0742 316.232 19.6803 315.588 19.3223C315.015 18.9642 314.729 18.4987 314.729 17.9258C314.729 16.8516 315.087 16.0638 315.803 15.5625C316.59 15.0612 317.557 14.7031 318.703 14.4883C319.849 14.2018 321.066 14.0228 322.355 13.9512C323.716 13.8079 325.005 13.5931 326.223 13.3066C326.509 13.235 326.652 13.0918 326.652 12.877C326.724 12.6621 326.831 12.5547 326.975 12.5547C327.834 12.3398 328.514 12.2324 329.016 12.2324C329.589 12.1608 330.126 12.0534 330.627 11.9102C331.128 11.7669 331.701 11.5163 332.346 11.1582C332.99 10.8001 333.85 10.1914 334.924 9.33203C335.568 8.83073 336.213 8.29362 336.857 7.7207C337.502 7.14779 338.075 6.86133 338.576 6.86133C339.292 6.86133 339.973 7.14779 340.617 7.7207C341.262 8.22201 342.121 8.47266 343.195 8.47266C343.768 8.47266 344.52 8.22201 345.451 7.7207C346.454 7.14779 347.6 6.86133 348.889 6.86133C349.462 6.86133 350.035 6.89714 350.607 6.96875C351.18 6.96875 351.753 6.96875 352.326 6.96875C352.827 6.96875 353.221 6.89714 353.508 6.75391C353.794 6.53906 354.009 6.32422 354.152 6.10938C354.367 5.89453 354.582 5.71549 354.797 5.57227C355.012 5.35742 355.37 5.25 355.871 5.25C356.372 5.25 356.945 5.32161 357.59 5.46484C358.234 5.60807 358.7 5.82292 358.986 6.10938C358.628 7.25521 358.199 8.11458 357.697 8.6875C357.196 9.26042 356.587 9.6901 355.871 9.97656C355.155 10.263 354.331 10.4421 353.4 10.5137C352.469 10.5853 351.431 10.7285 350.285 10.9434C349.855 11.015 349.283 11.1224 348.566 11.2656C347.85 11.3372 347.313 11.4805 346.955 11.6953C346.382 12.2682 345.809 13.3783 345.236 15.0254C344.735 16.6725 344.234 18.6061 343.732 20.8262C343.303 23.0462 342.801 25.4095 342.229 27.916C341.727 30.3509 341.19 32.7142 340.617 35.0059C340.546 35.2923 340.474 35.6146 340.402 35.9727C340.402 36.2591 340.402 36.6172 340.402 37.0469C340.402 37.6198 340.402 38.2285 340.402 38.873C340.474 39.446 340.51 40.1263 340.51 40.9141C340.51 41.9167 340.474 42.9551 340.402 44.0293C340.331 45.0319 340.116 46.0345 339.758 47.0371C339.615 47.8965 339.4 49.293 339.113 51.2266C338.898 53.1602 338.612 55.4518 338.254 58.1016C337.967 60.6797 337.681 63.5801 337.395 66.8027C337.108 69.9538 336.857 73.248 336.643 76.6855C336.571 77.4733 336.392 78.1895 336.105 78.834C335.891 79.4785 335.783 80.0872 335.783 80.6602C335.783 80.9466 335.926 81.1615 336.213 81.3047L336.643 81.5195C336.428 83.7396 336.07 85.7448 335.568 87.5352C335.139 89.2539 334.924 90.9727 334.924 92.6914C335.139 95.6992 335.819 98.528 336.965 101.178C338.111 103.827 339.328 106.083 340.617 107.945C340.832 108.232 341.262 108.84 341.906 109.771C342.551 110.631 343.267 111.526 344.055 112.457C344.842 113.388 345.594 114.247 346.311 115.035C347.098 115.751 347.707 116.109 348.137 116.109C348.28 116.109 348.459 116.109 348.674 116.109C348.889 116.038 349.068 116.002 349.211 116.002H349.426C350.142 116.861 351.145 117.542 352.434 118.043C353.723 118.544 355.119 119.189 356.623 119.977C357.124 120.263 357.554 120.514 357.912 120.729C358.342 120.943 358.736 121.158 359.094 121.373C359.523 121.516 359.953 121.66 360.383 121.803C360.884 121.874 361.493 121.91 362.209 121.91C363.785 121.91 365.002 121.803 365.861 121.588C366.792 121.301 367.616 120.943 368.332 120.514C369.048 120.012 369.764 119.475 370.48 118.902C371.268 118.258 372.271 117.542 373.488 116.754C374.133 116.324 374.921 115.751 375.852 115.035C376.854 114.247 377.857 113.424 378.859 112.564C379.934 111.633 380.9 110.702 381.76 109.771C382.691 108.84 383.407 107.981 383.908 107.193C384.195 106.835 384.445 106.155 384.66 105.152C384.875 104.078 385.161 103.147 385.52 102.359C385.949 101.572 386.307 100.927 386.594 100.426C386.88 99.8529 387.131 99.2799 387.346 98.707C387.632 98.1341 387.883 97.4538 388.098 96.666C388.312 95.8783 388.527 94.8398 388.742 93.5508C388.957 92.6198 389.136 91.5456 389.279 90.3281C389.494 89.0391 389.709 87.75 389.924 86.4609C390.139 85.1719 390.389 83.9544 390.676 82.8086C391.034 81.5911 391.464 80.5527 391.965 79.6934C391.965 79.0488 391.822 78.6549 391.535 78.5117C391.32 78.2969 391.213 77.8314 391.213 77.1152C391.213 76.3991 391.285 75.3249 391.428 73.8926C391.571 72.3887 391.75 71.207 391.965 70.3477C392.18 69.6315 392.395 69.0586 392.609 68.6289C392.896 68.1276 393.182 67.6621 393.469 67.2324C393.755 66.8027 393.97 66.3372 394.113 65.8359C394.328 65.263 394.436 64.4753 394.436 63.4727C394.436 62.4701 394.364 61.7539 394.221 61.3242C394.149 60.8229 394.042 60.5007 393.898 60.3574C393.827 60.1426 393.755 59.9635 393.684 59.8203C393.612 59.6771 393.576 59.4264 393.576 59.0684C394.149 56.7051 394.829 54.0195 395.617 51.0117C396.477 48.0039 397.121 44.8171 397.551 41.4512V40.6992C397.551 40.1263 397.515 39.4818 397.443 38.7656C397.443 37.9779 397.443 37.1901 397.443 36.4023C397.443 35.3997 397.515 34.3613 397.658 33.2871C397.873 32.1413 398.088 31.0312 398.303 29.957C398.518 28.8828 398.697 27.8802 398.84 26.9492C399.055 25.9466 399.162 25.0872 399.162 24.3711C399.162 23.5833 399.019 22.8672 398.732 22.2227C398.518 21.5781 398.41 20.9336 398.41 20.2891C398.41 19.2865 398.553 18.6061 398.84 18.248C399.198 17.8184 399.377 17.4245 399.377 17.0664C399.377 16.7083 399.198 16.4577 398.84 16.3145C398.553 16.1712 398.231 16.0996 397.873 16.0996C397.085 16.0996 396.083 16.3503 394.865 16.8516C393.719 17.3529 392.538 17.6035 391.32 17.6035C390.676 17.6035 390.067 17.4961 389.494 17.2812C388.921 16.9948 388.384 16.4935 387.883 15.7773C388.169 14.7747 388.993 13.9512 390.354 13.3066C391.714 12.6621 393.218 12.125 394.865 11.6953C396.584 11.194 398.231 10.8001 399.807 10.5137C401.454 10.1556 402.6 9.76172 403.244 9.33203C403.602 9.04557 403.781 8.65169 403.781 8.15039C403.853 7.57747 404.39 7.29102 405.393 7.29102C406.109 7.29102 406.861 7.50586 407.648 7.93555C408.508 8.29362 409.546 8.47266 410.764 8.47266C412.482 8.47266 414.201 8.1862 415.92 7.61328C417.71 6.96875 419.608 6.46745 421.613 6.10938C421.828 6.10938 422.15 5.96615 422.58 5.67969C423.01 5.39323 423.69 5.25 424.621 5.25C425.194 5.25 425.767 5.35742 426.34 5.57227C426.913 5.78711 427.235 6.2168 427.307 6.86133ZM505.51 0.845703C506.083 1.77669 506.369 2.52865 506.369 3.10156C506.369 3.74609 506.19 4.35482 505.832 4.92773C505.474 5.50065 505.008 6.07357 504.436 6.64648C503.934 7.14779 503.397 7.64909 502.824 8.15039C502.251 8.65169 501.786 9.1888 501.428 9.76172C500.783 10.7643 500.21 11.7669 499.709 12.7695C499.279 13.7005 498.778 14.5599 498.205 15.3477C497.704 16.1354 497.095 16.7799 496.379 17.2812C495.734 17.7826 494.875 18.0332 493.801 18.0332C493.443 18.0332 493.013 17.9616 492.512 17.8184C492.082 17.6751 491.652 17.6035 491.223 17.6035C490.435 17.6035 489.719 17.8542 489.074 18.3555C488.501 18.7852 487.821 19.1074 487.033 19.3223C486.031 19.6087 485.135 19.8594 484.348 20.0742C483.632 20.2891 482.665 20.5755 481.447 20.9336H480.158C479.37 20.9336 478.583 21.1484 477.795 21.5781C477.079 22.0078 475.897 22.6165 474.25 23.4043C473.391 23.6908 472.245 23.7982 470.812 23.7266C469.452 23.6549 467.912 23.7982 466.193 24.1562C465.979 24.2279 465.692 24.5143 465.334 25.0156C464.976 25.4453 464.725 25.696 464.582 25.7676C463.579 26.054 462.434 26.3047 461.145 26.5195C459.855 26.6628 458.638 26.9492 457.492 27.3789C456.418 27.737 455.487 28.3099 454.699 29.0977C453.983 29.8854 453.625 31.0312 453.625 32.5352C453.625 33.681 453.911 35.0775 454.484 36.7246C455.057 38.3001 455.666 39.8757 456.311 41.4512C457.027 42.9551 457.707 44.2799 458.352 45.4258C459.068 46.5716 459.533 47.252 459.748 47.4668C460.393 48.1829 460.965 48.9707 461.467 49.8301C461.968 50.6178 462.469 51.513 462.971 52.5156C463.544 53.4466 464.117 54.4492 464.689 55.5234C465.334 56.526 466.122 57.5645 467.053 58.6387C467.626 59.3548 468.27 60.0352 468.986 60.6797C469.702 61.3242 470.383 61.9329 471.027 62.5059C471.672 63.0788 472.209 63.6517 472.639 64.2246C473.14 64.7975 473.391 65.3346 473.391 65.8359C473.677 66.6953 474.608 67.7695 476.184 69.0586C477.759 70.3477 479.227 71.959 480.588 73.8926C480.731 74.1074 481.018 74.4297 481.447 74.8594C481.877 75.2174 482.307 75.6113 482.736 76.041C483.238 76.4707 483.667 76.9362 484.025 77.4375C484.455 77.8672 484.67 78.2969 484.67 78.7266C484.67 79.2995 484.956 79.6934 485.529 79.9082C486.102 80.123 486.604 80.5169 487.033 81.0898C487.391 81.5195 487.642 82.0208 487.785 82.5938C487.928 83.1667 488.215 83.7396 488.645 84.3125C489.504 85.6016 490.507 86.998 491.652 88.502C492.87 89.9342 493.479 91.7246 493.479 93.873C493.479 95.2337 493.192 96.5944 492.619 97.9551C492.476 98.3132 492.189 98.528 491.76 98.5996C491.402 98.6712 491.187 98.9935 491.115 99.5664C490.829 100.569 490.542 101.536 490.256 102.467C489.969 103.326 489.432 104.221 488.645 105.152C487.857 106.083 486.962 106.943 485.959 107.73C484.956 108.518 483.954 109.521 482.951 110.738C482.235 111.669 481.483 112.493 480.695 113.209C479.908 113.925 479.012 114.677 478.01 115.465C477.079 116.253 475.969 117.148 474.68 118.15C473.391 119.153 471.887 120.442 470.168 122.018C469.595 122.59 468.843 123.271 467.912 124.059C466.981 124.775 465.585 125.419 463.723 125.992C462.72 126.35 461.359 126.637 459.641 126.852C457.922 127.066 455.988 127.281 453.84 127.496C451.691 127.639 449.4 127.783 446.965 127.926C444.53 128.069 442.095 128.212 439.66 128.355C437.87 128.57 436.044 128.785 434.182 129C432.32 129.143 430.422 129.215 428.488 129.215C425.48 129.215 423.153 129.036 421.506 128.678C419.93 128.248 419.143 127.21 419.143 125.562C419.143 124.846 419.286 124.202 419.572 123.629C419.93 122.984 420.36 122.411 420.861 121.91C421.363 121.337 421.864 120.8 422.365 120.299C422.867 119.798 423.296 119.296 423.654 118.795C424.37 117.721 425.015 116.79 425.588 116.002C426.161 115.143 426.734 114.426 427.307 113.854C427.951 113.281 428.596 112.851 429.24 112.564C429.885 112.278 430.673 112.135 431.604 112.135C432.606 112.135 433.68 112.242 434.826 112.457C435.972 112.6 437.082 112.815 438.156 113.102C439.302 113.316 440.34 113.531 441.271 113.746C442.202 113.889 442.954 113.961 443.527 113.961C444.458 113.961 445.354 113.854 446.213 113.639C447.144 113.352 448.182 113.209 449.328 113.209C450.546 113.209 451.87 113.352 453.303 113.639C454.807 113.854 456.167 113.961 457.385 113.961C459.175 113.961 461.252 113.854 463.615 113.639C465.979 113.352 468.234 112.923 470.383 112.35C472.531 111.777 474.322 111.061 475.754 110.201C477.258 109.27 478.01 108.196 478.01 106.979C478.01 106.334 477.759 105.439 477.258 104.293C476.757 103.147 476.112 101.894 475.324 100.533C474.608 99.1725 473.785 97.776 472.854 96.3438C471.923 94.9115 471.027 93.5508 470.168 92.2617C469.738 91.6888 469.201 91.1875 468.557 90.7578C467.912 90.2565 467.411 89.7194 467.053 89.1465C466.623 88.502 466.337 87.8216 466.193 87.1055C466.05 86.3177 465.764 85.6374 465.334 85.0645C464.546 83.9902 463.579 83.0234 462.434 82.1641C461.359 81.2331 460.464 80.3379 459.748 79.4785C458.531 78.0462 457.385 76.3991 456.311 74.5371C455.236 72.6751 453.983 70.849 452.551 69.0586C452.121 68.5573 451.799 68.1992 451.584 67.9844C451.369 67.7695 450.904 67.0534 450.188 65.8359C449.4 64.8333 448.433 63.9023 447.287 63.043C446.213 62.1836 445.282 61.2526 444.494 60.25C444.208 59.8919 444.064 59.498 444.064 59.0684C444.136 58.5671 444.029 58.1732 443.742 57.8867C442.883 57.0273 441.916 56.1322 440.842 55.2012C439.768 54.1986 439.23 52.9095 439.23 51.334C439.23 50.2598 438.908 48.8991 438.264 47.252C437.691 45.6048 437.404 43.7428 437.404 41.666C437.404 40.2337 437.727 39.0879 438.371 38.2285C439.016 37.3691 439.445 36.4382 439.66 35.4355C439.947 34.8626 440.09 34.3255 440.09 33.8242C440.09 33.2513 440.233 32.6784 440.52 32.1055C440.663 31.9622 440.949 31.8548 441.379 31.7832C441.809 31.64 442.059 31.4967 442.131 31.3535C442.417 30.709 442.704 30.2077 442.99 29.8496C443.348 29.4199 443.778 28.9902 444.279 28.5605C444.781 28.0592 445.425 27.4863 446.213 26.8418C447.001 26.1973 448.039 25.3021 449.328 24.1562C449.543 24.013 449.686 23.7624 449.758 23.4043C449.829 22.9746 449.973 22.6882 450.188 22.5449C450.689 22.1152 451.226 21.8288 451.799 21.6855C452.372 21.5423 452.873 21.2917 453.303 20.9336C455.236 19.6445 456.919 18.5345 458.352 17.6035C459.855 16.6725 461.252 15.849 462.541 15.1328C463.83 14.3451 465.119 13.6647 466.408 13.0918C467.697 12.5189 469.201 11.946 470.92 11.373L485.422 6.53906C486.21 5.7513 487.248 5.32161 488.537 5.25C489.826 5.10677 491.187 4.7487 492.619 4.17578C494.051 3.38802 495.878 2.74349 498.098 2.24219C500.318 1.66927 502.788 1.20378 505.51 0.845703ZM534.836 31.7832C534.693 32.7858 534.442 34.0033 534.084 35.4355C533.798 36.8678 533.475 38.3359 533.117 39.8398C533.046 40.0547 532.831 40.4844 532.473 41.1289C532.115 41.7734 531.721 42.4538 531.291 43.1699C530.933 43.8145 530.575 44.459 530.217 45.1035C529.859 45.6764 529.644 46.0703 529.572 46.2852C529.286 47.431 528.964 48.2546 528.605 48.7559C528.319 49.2572 527.997 49.651 527.639 49.9375C527.281 50.224 526.851 50.5462 526.35 50.9043C525.92 51.2624 525.383 51.8711 524.738 52.7305C524.667 52.8021 524.631 52.8737 524.631 52.9453C524.631 53.0885 524.631 53.2676 524.631 53.4824C524.702 53.6973 524.738 53.8763 524.738 54.0195C524.738 54.0911 524.595 54.306 524.309 54.6641C524.094 54.9505 523.771 55.3086 523.342 55.7383C522.912 56.0964 522.447 56.4544 521.945 56.8125C521.516 57.1706 521.086 57.3854 520.656 57.457C520.441 57.457 519.904 57.2422 519.045 56.8125C518.257 56.3828 517.863 55.9889 517.863 55.6309C517.863 54.5566 518.15 53.4108 518.723 52.1934C519.367 50.9759 520.012 49.8301 520.656 48.7559C521.372 47.6816 522.017 46.7507 522.59 45.9629C523.234 45.1035 523.557 44.5306 523.557 44.2441C523.557 43.6712 523.413 43.1341 523.127 42.6328C522.912 42.1315 522.805 41.487 522.805 40.6992C522.805 40.556 522.912 40.2337 523.127 39.7324C523.413 39.1595 523.557 38.5508 523.557 37.9062C523.557 37.0469 523.306 36.3665 522.805 35.8652C522.375 35.2923 522.089 34.7552 521.945 34.2539C521.73 33.5378 521.516 32.7142 521.301 31.7832C521.086 30.7806 520.907 29.8138 520.764 28.8828C520.62 27.8802 520.477 26.9492 520.334 26.0898C520.262 25.1589 520.227 24.3711 520.227 23.7266C520.227 22.9388 520.406 22.1868 520.764 21.4707C521.193 20.7546 521.695 20.11 522.268 19.5371C522.912 18.9642 523.557 18.4987 524.201 18.1406C524.846 17.7826 525.419 17.5319 525.92 17.3887H525.812C525.812 17.3171 526.206 17.138 526.994 16.8516C527.854 16.5651 528.677 16.4219 529.465 16.4219C529.751 16.4219 530.181 16.4935 530.754 16.6367H530.539C530.539 16.7083 530.682 16.8874 530.969 17.1738C531.255 17.3887 531.542 17.6393 531.828 17.9258C532.186 18.2122 532.508 18.4987 532.795 18.7852C533.081 19.0716 533.225 19.3223 533.225 19.5371C533.225 19.752 533.189 20.0026 533.117 20.2891C533.046 20.5039 533.01 20.7546 533.01 21.041C533.01 20.8978 533.225 21.4707 533.654 22.7598C534.084 24.0488 534.478 25.7318 534.836 27.8086L534.729 27.7012C534.585 27.7012 534.406 27.8444 534.191 28.1309C534.048 28.3457 533.977 28.5247 533.977 28.668C533.977 29.026 534.12 29.4557 534.406 29.957C534.693 30.4583 534.836 31.0671 534.836 31.7832ZM610.246 42.9551C610.246 43.0983 610.103 43.3132 609.816 43.5996C609.602 43.8861 609.494 44.2083 609.494 44.5664C609.423 45.2109 609.351 45.8197 609.279 46.3926C609.208 46.9655 608.993 47.6816 608.635 48.541C608.42 49.0423 607.954 49.5436 607.238 50.0449C606.594 50.5462 605.985 51.1191 605.412 51.7637C605.126 52.1217 604.982 52.5514 604.982 53.0527C605.054 53.4824 604.947 53.8405 604.66 54.127C602.368 56.5618 599.79 59.2116 596.926 62.0762C594.061 64.9408 591.018 67.6621 587.795 70.2402C587.222 70.6699 586.649 71.0638 586.076 71.4219C585.575 71.7083 585.074 72.1022 584.572 72.6035C583.14 74.0358 581.851 75.6829 580.705 77.5449C579.559 79.3353 577.912 81.1615 575.764 83.0234C574.475 84.1693 573.221 85.3151 572.004 86.4609C570.858 87.5352 569.712 88.86 568.566 90.4355C567.492 92.0111 566.346 93.9447 565.129 96.2363C563.983 98.4564 562.73 101.285 561.369 104.723C561.083 105.439 560.76 106.191 560.402 106.979C560.044 107.766 559.686 108.554 559.328 109.342C558.97 110.13 558.648 110.846 558.361 111.49C558.146 112.135 558.039 112.672 558.039 113.102C558.039 113.674 558.433 114.14 559.221 114.498C560.08 114.785 561.047 115.035 562.121 115.25C563.195 115.393 564.27 115.501 565.344 115.572C566.418 115.644 567.242 115.751 567.814 115.895C568.387 116.109 569.175 116.467 570.178 116.969C571.252 117.398 572.326 117.613 573.4 117.613C574.117 117.613 575.083 117.542 576.301 117.398C577.518 117.184 578.771 116.969 580.061 116.754C581.421 116.467 582.639 116.181 583.713 115.895C584.859 115.608 585.682 115.357 586.184 115.143C587.688 114.355 589.012 113.066 590.158 111.275C591.376 109.413 592.486 107.551 593.488 105.689C594.562 103.827 595.565 102.18 596.496 100.748C597.499 99.3158 598.537 98.5996 599.611 98.5996C600.113 98.5996 600.614 98.7786 601.115 99.1367C601.688 99.4948 602.046 100.283 602.189 101.5C602.189 101.93 601.975 102.359 601.545 102.789C601.115 103.219 600.65 103.648 600.148 104.078C599.647 104.508 599.182 104.973 598.752 105.475C598.322 105.976 598.107 106.477 598.107 106.979C598.107 107.337 598.143 107.695 598.215 108.053C598.286 108.339 598.322 108.626 598.322 108.912C598.322 109.199 598.143 109.485 597.785 109.771C597.427 110.058 597.033 110.38 596.604 110.738C596.174 111.025 595.78 111.383 595.422 111.812C595.064 112.171 594.885 112.564 594.885 112.994C594.885 113.137 594.921 113.316 594.992 113.531C595.064 113.746 595.1 113.925 595.1 114.068C595.1 114.068 594.992 114.212 594.777 114.498C594.634 114.713 594.455 114.999 594.24 115.357C594.025 115.644 593.811 115.966 593.596 116.324C593.452 116.682 593.381 116.897 593.381 116.969C593.381 117.112 593.381 117.291 593.381 117.506C593.452 117.721 593.488 117.9 593.488 118.043C593.488 118.115 593.452 118.15 593.381 118.15C593.381 118.15 593.381 118.186 593.381 118.258V118.365C593.094 118.58 592.808 119.01 592.521 119.654C592.235 120.227 591.913 120.908 591.555 121.695C591.197 122.411 590.839 123.128 590.48 123.844C590.122 124.56 589.729 125.133 589.299 125.562C588.726 126.207 588.26 126.708 587.902 127.066C587.616 127.353 587.222 127.568 586.721 127.711C586.291 127.854 585.718 127.997 585.002 128.141C584.286 128.284 583.319 128.499 582.102 128.785C581.171 129 580.311 129.215 579.523 129.43C578.736 129.645 577.84 129.752 576.838 129.752C575.764 129.752 574.904 129.573 574.26 129.215C573.615 128.928 573.042 128.785 572.541 128.785C571.252 128.785 570.07 128.928 568.996 129.215C567.922 129.501 566.955 129.645 566.096 129.645C564.377 129.501 562.408 129.179 560.188 128.678C557.967 128.105 555.604 127.818 553.098 127.818C551.522 127.818 550.018 128.033 548.586 128.463C547.225 128.893 545.936 129.358 544.719 129.859C543.501 130.361 542.355 130.826 541.281 131.256C540.207 131.686 539.24 131.9 538.381 131.9C537.951 131.9 537.342 131.721 536.555 131.363C535.767 131.005 535.373 130.361 535.373 129.43C535.373 128.857 535.516 128.176 535.803 127.389C536.089 126.529 536.447 125.67 536.877 124.811C537.307 123.951 537.772 123.092 538.273 122.232C538.775 121.373 539.24 120.621 539.67 119.977C540.028 119.475 540.422 119.081 540.852 118.795C541.353 118.437 541.747 118.043 542.033 117.613C542.535 116.826 542.857 116.109 543 115.465C543.143 114.749 543.394 114.104 543.752 113.531C544.11 112.958 544.504 112.529 544.934 112.242C545.363 111.956 545.757 111.598 546.115 111.168C546.402 110.738 546.509 110.309 546.438 109.879C546.438 109.449 546.581 109.055 546.867 108.697C547.368 108.196 548.085 107.48 549.016 106.549C550.018 105.618 550.913 104.723 551.701 103.863C551.916 103.577 552.167 103.147 552.453 102.574C552.811 102.001 553.169 101.357 553.527 100.641C553.957 99.9245 554.351 99.2083 554.709 98.4922C555.067 97.776 555.425 97.1673 555.783 96.666C556.356 95.8783 557.108 95.1263 558.039 94.4102C558.97 93.694 559.794 92.8346 560.51 91.832C560.725 91.5456 560.832 91.1875 560.832 90.7578C560.904 90.2565 561.083 89.8268 561.369 89.4688C562.3 88.2513 563.339 87.2129 564.484 86.3535C565.63 85.4941 566.74 84.3841 567.814 83.0234C568.244 82.4505 568.602 81.8418 568.889 81.1973C569.175 80.5527 569.605 79.8366 570.178 79.0488C570.393 78.6908 570.643 78.4401 570.93 78.2969C571.216 78.082 571.467 77.7956 571.682 77.4375C571.896 77.0794 572.04 76.6855 572.111 76.2559C572.183 75.7546 572.326 75.3607 572.541 75.0742C572.971 74.5013 573.615 73.821 574.475 73.0332C575.334 72.1738 576.229 71.3503 577.16 70.5625C578.234 69.6315 579.38 68.6647 580.598 67.6621C580.598 67.5189 580.562 67.3398 580.49 67.125C580.49 66.9102 580.49 66.7311 580.49 66.5879C580.49 66.373 580.526 66.2298 580.598 66.1582C582.03 64.5111 583.498 63.0788 585.002 61.8613C586.506 60.5723 587.688 59.1042 588.547 57.457C588.977 56.5977 589.227 55.5951 589.299 54.4492C589.442 53.2318 589.729 52.0859 590.158 51.0117C590.301 50.582 590.552 50.1882 590.91 49.8301C591.34 49.472 591.626 49.0423 591.77 48.541C592.701 46.3926 593.166 43.6712 593.166 40.377C593.166 38.0853 592.915 35.5072 592.414 32.6426C591.913 29.778 591.268 27.0924 590.48 24.5859C589.764 22.0078 589.012 19.8594 588.225 18.1406C587.437 16.4219 586.757 15.5625 586.184 15.5625C585.611 15.5625 585.217 15.8132 585.002 16.3145C584.787 16.8158 584.357 17.138 583.713 17.2812C582.782 17.4961 581.994 17.7826 581.35 18.1406C580.705 18.4987 580.132 18.9284 579.631 19.4297C579.13 19.931 578.628 20.5397 578.127 21.2559C577.697 21.972 577.16 22.7956 576.516 23.7266C575.656 25.0156 575.048 25.9824 574.689 26.627C574.403 27.2715 574.188 27.8444 574.045 28.3457C573.973 28.7754 573.902 29.2409 573.83 29.7422C573.83 30.1719 573.687 30.8164 573.4 31.6758C573.329 31.819 573.15 31.8906 572.863 31.8906C572.648 31.8906 572.541 32.1055 572.541 32.5352C572.469 33.3229 572.29 34.5046 572.004 36.0801C571.789 37.584 571.682 39.1953 571.682 40.9141C571.682 41.5586 571.825 42.5612 572.111 43.9219C572.398 45.2109 572.541 46.321 572.541 47.252C572.541 48.1113 572.326 48.8633 571.896 49.5078C571.467 50.0807 570.894 50.6536 570.178 51.2266C569.462 51.7995 568.602 52.3724 567.6 52.9453C566.597 53.5182 565.559 54.1986 564.484 54.9863C564.413 55.0579 564.019 55.416 563.303 56.0605C562.658 56.6335 561.906 57.278 561.047 57.9941C560.188 58.6387 559.292 59.2474 558.361 59.8203C557.502 60.3932 556.786 60.6797 556.213 60.6797C555.354 60.6797 554.709 59.9635 554.279 58.5312C553.921 57.0273 553.742 55.3444 553.742 53.4824C553.742 49.7585 554.172 46.2135 555.031 42.8477C555.962 39.4818 557.251 36.3307 558.898 33.3945C559.4 32.6068 559.686 31.7116 559.758 30.709C559.901 29.7064 560.152 28.9902 560.51 28.5605C560.939 27.9876 561.62 27.2357 562.551 26.3047C563.553 25.3737 564.592 24.4069 565.666 23.4043C566.812 22.3301 567.922 21.3275 568.996 20.3965C570.142 19.3939 571.037 18.6061 571.682 18.0332C572.255 17.5319 572.827 16.9948 573.4 16.4219C573.973 15.7773 574.51 15.276 575.012 14.918C575.441 14.5599 575.943 14.4167 576.516 14.4883C577.089 14.4883 577.626 14.3451 578.127 14.0586C578.7 13.7721 579.201 13.3066 579.631 12.6621C580.132 12.0176 580.705 11.4089 581.35 10.8359C581.708 10.5495 582.102 10.4421 582.531 10.5137C582.961 10.5137 583.355 10.3704 583.713 10.084C583.928 9.94076 584.071 9.6543 584.143 9.22461C584.286 8.79492 584.429 8.54427 584.572 8.47266C585.145 8.25781 585.611 8.04297 585.969 7.82812C586.398 7.54167 587.007 7.2194 587.795 6.86133C588.654 6.36003 589.478 6.07357 590.266 6.00195C591.125 5.85872 591.913 5.60807 592.629 5.25C593.059 5.03516 593.417 4.60547 593.703 3.96094C594.061 3.24479 594.491 2.88672 594.992 2.88672C595.35 2.88672 595.959 3.02995 596.818 3.31641C597.678 3.53125 598.394 3.63867 598.967 3.63867C599.253 3.63867 599.611 3.49544 600.041 3.20898C600.471 2.92253 600.936 2.7793 601.438 2.7793C601.438 2.7793 601.688 3.02995 602.189 3.53125C602.691 4.03255 603.228 4.7487 603.801 5.67969C604.445 6.53906 605.018 7.61328 605.52 8.90234C606.021 10.1198 606.271 11.5163 606.271 13.0918C606.271 13.3066 606.236 13.5573 606.164 13.8438C606.164 14.0586 606.164 14.3092 606.164 14.5957C606.164 15.0254 606.271 15.3118 606.486 15.4551C606.773 15.5267 606.952 15.5983 607.023 15.6699C607.811 18.5345 608.599 21.793 609.387 25.4453C610.246 29.026 610.676 32.8216 610.676 36.832C610.676 37.8346 610.64 38.873 610.568 39.9473C610.497 40.9499 610.389 41.9525 610.246 42.9551ZM690.49 13.1992C689.488 14.0586 688.413 14.5241 687.268 14.5957C686.193 14.6673 685.119 15.0254 684.045 15.6699C683.902 15.8132 683.758 16.0996 683.615 16.5293C683.544 16.8874 683.436 17.138 683.293 17.2812C682.863 17.5677 682.255 17.7826 681.467 17.9258C680.679 18.069 679.927 18.3913 679.211 18.8926C678.853 19.1074 678.602 19.3581 678.459 19.6445C678.387 19.931 678.28 20.1816 678.137 20.3965C677.993 20.6113 677.707 20.7904 677.277 20.9336C676.848 21.0768 676.167 21.1484 675.236 21.1484H673.088C672.085 21.1484 671.154 21.2559 670.295 21.4707C669.507 21.6139 668.719 21.8288 667.932 22.1152C667.144 22.3301 666.285 22.5807 665.354 22.8672C664.494 23.1536 663.527 23.4401 662.453 23.7266C660.018 24.2995 657.834 24.5501 655.9 24.4785C653.967 24.4069 652.678 24.6576 652.033 25.2305C651.818 25.4453 651.604 25.9824 651.389 26.8418C651.174 27.7012 650.923 28.7038 650.637 29.8496C650.422 30.9954 650.207 32.1055 649.992 33.1797C649.777 34.2539 649.634 35.1133 649.562 35.7578C649.491 36.1875 649.348 36.8678 649.133 37.7988C648.99 38.7298 648.811 39.7324 648.596 40.8066C648.452 41.8092 648.309 42.8118 648.166 43.8145C648.023 44.7454 647.951 45.4616 647.951 45.9629C647.951 46.679 648.094 47.2878 648.381 47.7891C648.739 48.2904 649.419 48.7917 650.422 49.293C650.995 49.651 651.532 49.8301 652.033 49.8301C652.535 49.7585 653.072 49.8659 653.645 50.1523C655.005 51.0833 656.366 52.1217 657.727 53.2676C659.159 54.4134 661.271 55.8099 664.064 57.457C664.924 57.9583 665.676 58.4238 666.32 58.8535C666.965 59.2832 667.574 59.7129 668.146 60.1426C668.791 60.5723 669.4 61.0736 669.973 61.6465C670.617 62.2194 671.298 62.9355 672.014 63.7949C672.372 64.2962 672.945 65.0482 673.732 66.0508C674.52 67.0534 675.308 68.056 676.096 69.0586C676.955 69.9896 677.671 70.849 678.244 71.6367C678.889 72.3529 679.211 72.6751 679.211 72.6035C679.426 73.1048 679.533 73.9642 679.533 75.1816C679.605 76.3275 679.784 77.3301 680.07 78.1895C680.214 78.6908 680.5 79.0846 680.93 79.3711C681.431 79.5859 681.682 79.9082 681.682 80.3379C681.682 80.6243 681.646 80.875 681.574 81.0898C681.574 81.3047 681.574 81.5553 681.574 81.8418C681.574 82.0566 681.61 82.1999 681.682 82.2715C682.04 83.847 682.362 85.2793 682.648 86.5684C682.935 87.8574 683.078 89.1107 683.078 90.3281C683.078 93.0495 682.219 95.9141 680.5 98.9219C678.781 101.93 676.776 105.188 674.484 108.697C674.341 108.912 674.162 108.984 673.947 108.912C673.804 108.84 673.697 109.02 673.625 109.449C673.625 110.094 673.339 110.523 672.766 110.738C672.193 110.953 671.691 111.347 671.262 111.92C670.904 112.421 670.76 112.958 670.832 113.531C670.904 114.104 670.796 114.641 670.51 115.143C670.223 115.501 669.794 115.787 669.221 116.002C668.719 116.145 668.326 116.396 668.039 116.754C667.609 117.255 667.323 117.828 667.18 118.473C667.036 119.117 666.786 119.618 666.428 119.977C665.712 120.836 664.745 121.731 663.527 122.662C662.382 123.593 661.2 124.56 659.982 125.562C659.624 125.921 659.23 126.35 658.801 126.852C658.371 127.353 657.977 127.711 657.619 127.926C657.118 128.284 656.581 128.427 656.008 128.355C655.507 128.284 654.969 128.427 654.396 128.785C653.465 129.358 652.642 129.931 651.926 130.504C651.21 131.148 650.422 131.65 649.562 132.008C646.841 132.939 644.156 133.404 641.506 133.404C639.715 133.404 637.854 133.189 635.92 132.76C635.92 132.545 635.741 132.33 635.383 132.115C635.096 131.972 634.774 131.9 634.416 131.9C634.058 131.9 633.664 131.936 633.234 132.008C632.805 132.079 632.411 132.115 632.053 132.115C631.122 132.115 630.227 131.65 629.367 130.719C628.508 129.788 627.219 128.606 625.5 127.174C625.142 126.887 624.462 126.458 623.459 125.885C622.528 125.312 621.561 124.703 620.559 124.059C619.556 123.342 618.661 122.59 617.873 121.803C617.085 121.015 616.691 120.299 616.691 119.654C616.691 119.01 616.799 118.473 617.014 118.043C617.3 117.613 617.622 117.219 617.98 116.861C618.339 116.503 618.768 116.145 619.27 115.787C619.771 115.357 620.272 114.856 620.773 114.283C621.848 113.066 622.85 111.705 623.781 110.201C624.712 108.626 625.643 107.086 626.574 105.582C627.505 104.007 628.472 102.538 629.475 101.178C630.477 99.7454 631.587 98.4922 632.805 97.418C633.234 98.4206 633.449 99.2083 633.449 99.7812C633.449 100.354 633.27 100.927 632.912 101.5C632.626 102.073 632.268 102.682 631.838 103.326C631.48 103.899 631.122 104.508 630.764 105.152C630.477 105.797 630.334 106.441 630.334 107.086C630.406 107.587 630.477 107.945 630.549 108.16C630.692 108.375 630.835 108.554 630.979 108.697C631.122 108.769 631.265 108.876 631.408 109.02C631.623 109.091 631.802 109.234 631.945 109.449C632.16 109.807 632.268 110.237 632.268 110.738C632.339 111.168 632.518 111.562 632.805 111.92C633.306 112.564 634.309 113.424 635.812 114.498C637.316 115.572 638.999 116.646 640.861 117.721C642.723 118.723 644.621 119.618 646.555 120.406C648.488 121.122 650.1 121.48 651.389 121.48C654.755 121.48 658.443 119.368 662.453 115.143C662.883 114.641 663.241 114.033 663.527 113.316C663.814 112.529 664.243 111.812 664.816 111.168C665.533 110.309 666.249 109.7 666.965 109.342C667.681 108.984 668.039 108.411 668.039 107.623C668.039 107.265 668.003 106.907 667.932 106.549C667.86 106.119 667.824 105.725 667.824 105.367C667.824 105.009 668.003 104.436 668.361 103.648C668.791 102.789 669.006 101.643 669.006 100.211C669.006 98.9219 668.898 97.4896 668.684 95.9141C668.54 94.3385 668.326 92.8346 668.039 91.4023C667.753 89.8984 667.466 88.5378 667.18 87.3203C666.893 86.1029 666.643 85.2077 666.428 84.6348C666.285 84.3483 665.998 83.9544 665.568 83.4531C665.139 82.8802 664.673 82.3073 664.172 81.7344C663.671 81.1615 663.241 80.6243 662.883 80.123C662.525 79.5501 662.346 79.0846 662.346 78.7266C662.346 78.5833 662.346 78.4043 662.346 78.1895C662.417 77.9746 662.453 77.7956 662.453 77.6523C662.453 77.0078 661.988 76.2917 661.057 75.5039C660.126 74.6445 658.908 73.7493 657.404 72.8184C655.972 71.8158 654.325 70.8132 652.463 69.8105C650.673 68.8079 648.918 67.877 647.199 67.0176C646.626 66.8743 646.125 66.8027 645.695 66.8027C645.266 66.8027 644.836 66.8027 644.406 66.8027C643.977 66.8027 643.547 66.7669 643.117 66.6953C642.688 66.6237 642.186 66.4447 641.613 66.1582C641.04 65.9434 640.646 65.6211 640.432 65.1914C640.217 64.7617 639.787 64.5469 639.143 64.5469C638.426 64.5469 637.854 64.7259 637.424 65.084C636.994 65.3704 636.35 65.5137 635.49 65.5137C634.058 65.5137 632.769 65.1198 631.623 64.332C630.549 63.5443 630.012 62.6849 630.012 61.7539C630.012 61.181 630.155 60.5723 630.441 59.9277C630.728 59.2116 631.05 58.4954 631.408 57.7793C631.766 57.0632 632.089 56.347 632.375 55.6309C632.661 54.9147 632.805 54.1986 632.805 53.4824C632.805 53.196 632.769 52.9095 632.697 52.623C632.697 52.3366 632.697 52.0143 632.697 51.6562C632.697 50.5104 632.876 49.7227 633.234 49.293C633.664 48.7917 634.058 48.0039 634.416 46.9297C635.061 45.1393 635.526 42.8477 635.812 40.0547C636.171 37.2617 636.457 34.4329 636.672 31.5684C636.887 28.6322 637.102 25.9466 637.316 23.5117C637.603 21.0052 637.961 19.179 638.391 18.0332C638.534 17.6751 638.892 17.3887 639.465 17.1738C640.109 16.959 640.826 16.4577 641.613 15.6699C642.329 14.9538 642.795 14.4525 643.01 14.166C643.296 13.8079 643.511 13.5573 643.654 13.4141C643.869 13.2708 644.156 13.1634 644.514 13.0918C644.872 12.9486 645.516 12.7337 646.447 12.4473C647.808 12.0176 650.028 11.7669 653.107 11.6953C656.258 11.6237 659.66 11.5879 663.312 11.5879C667.036 11.5163 670.689 11.4089 674.27 11.2656C677.922 11.0508 680.93 10.6569 683.293 10.084C683.579 10.0124 683.938 9.94076 684.367 9.86914C684.868 9.79753 685.406 9.76172 685.979 9.76172C686.981 9.76172 687.984 9.97656 688.986 10.4062C689.989 10.8359 690.49 11.7669 690.49 13.1992Z" fill="#A32929"/>
</svg>
