<svg width="116" height="95" viewBox="0 0 116 95" fill="none" xmlns="http://www.w3.org/2000/svg">
<path d="M45.6277 11.0897C47.6966 12.7763 50.4169 13.4339 53.0347 12.9172C55.4982 12.4331 57.9529 12.2873 60.6742 14.0493C65.3447 17.0706 69.7841 27.5547 76.5245 25.1074C83.0043 22.7533 85.4157 17.3173 88.7481 8.18596C88.9923 7.5139 88.9393 6.7725 88.6175 6.13169C88.392 5.68109 88.1439 5.09967 87.9798 4.45702C87.5842 2.91474 88.7519 1.41994 90.3408 1.37166C91.5427 1.33446 93.0096 1.40613 94.1853 1.82658C96.6118 2.69247 97.8247 -0.252345 101.742 0.87424C105.66 2.00253 112.882 2.84377 110.96 6.63381C109.037 10.4256 98.8763 8.44999 97.432 12.1107C95.9877 15.7732 94.0143 27.992 87.5226 32.1801C82.5148 35.4133 76.758 36.7276 72.3552 37.065C70.0583 37.2433 67.9849 38.4863 66.7458 40.4292C63.335 45.7781 56.9045 55.9843 56.0899 58.1284C54.9744 61.0662 53.5701 65.2032 53.7665 69.6926C53.9611 74.1804 52.9558 85.1401 54.8409 86.5436C56.726 87.947 60.9562 90.4181 55.3841 90.5113C49.8085 90.6048 49.2072 90.4614 49.3985 84.7637C49.5882 79.0662 48.4629 66.1386 49.2865 63.2256C49.9293 60.952 51.4395 53.5145 52.2843 48.532C52.5271 47.0882 51.1131 45.9246 49.7404 46.4412C46.4204 47.6895 40.9305 49.1468 35.9799 47.6382C28.233 45.2756 24.9974 43.7992 23.7641 46.8394C17.62 62.0137 9.54989 63.5518 8.64963 67.8411C7.74947 72.132 14.5675 88.5784 17.6272 89.977C20.6885 91.3756 23.4053 92.2169 22.0961 92.9203C20.7852 93.6221 12.3294 94.3565 12.5279 93.2616C12.7264 92.1667 3.7904 72.7708 3.49283 69.3692C3.19678 65.964 10.2419 58.0066 9.46256 46.8109C8.68495 35.6152 6.14428 32.31 8.86496 27.5686C11.5874 22.8272 17.0383 20.1972 23.2254 17.0138C29.4124 13.8304 30.0159 8.39125 38.2748 8.74992C41.9899 8.91183 44.2557 9.97182 45.6277 11.0897Z" fill="#C8483E"/>
<path d="M66.876 40.2334C66.876 40.2334 63.9472 59.5023 64.7 61.3954C65.4528 63.2884 66.3827 64.9709 66.1036 68.521C65.8245 72.0711 66.8908 82.0658 68.3318 83.998C69.7744 85.9284 77.4192 87.1236 74.4648 88.0671C71.5103 89.0088 67.4029 89.0726 66.1174 87.8144C64.8319 86.5546 62.1309 72.3917 61.3327 68.8376C60.5328 65.2836 60.5821 61.362 60.4768 59.0199C60.3715 56.6779 57.919 43.4754 57.919 43.4754L66.876 40.2334Z" fill="#C8483E"/>
<path d="M23.0879 43.5685C23.0879 43.5685 22.7899 50.2547 21.1043 59.0207C19.4187 67.785 20.3829 72.1086 22.5678 75.8365C24.7545 79.5643 33.4431 89.3851 35.2349 89.7184C37.0266 90.0517 39.2517 91.9886 36.6246 92.1816C33.9974 92.373 30.8664 93.1616 30.1369 92.2809C29.4074 91.4002 15.6201 74.7777 15.1718 71.8766C14.7236 68.9772 12.177 48.7294 12.177 48.7294L23.0879 43.5685Z" fill="#C8483E"/>
<path d="M9.65214 26.3572C9.65214 26.3572 4.82088 30.0232 5.54828 38.3833C6.27567 46.7434 6.68035 49.7241 5.39547 51.8308C4.10889 53.9376 4.01256 56.1999 4.8617 55.8305C5.71093 55.463 7.00797 54.6642 7.23206 51.0193C7.45635 47.3779 6.44546 38.9151 6.62206 36.6775C6.82088 34.1592 9.16477 29.8931 9.16477 29.8931L9.65214 26.3572Z" fill="#C8483E"/>
</svg>
