<svg width="93" height="80" viewBox="0 0 93 80" fill="none" xmlns="http://www.w3.org/2000/svg">
<path d="M40.2095 10.2721C41.6587 11.7856 43.7132 12.5566 45.8008 12.4048C47.7635 12.2624 49.6888 12.3837 51.6385 14.014C54.9853 16.8111 57.439 25.3973 62.9181 24.1362C68.1873 22.9224 70.5832 18.9211 74.0499 12.1343C74.3048 11.6328 74.3336 11.0513 74.1449 10.5234C74.0123 10.1497 73.8754 9.67278 73.8076 9.15823C73.6476 7.91967 74.6986 6.86724 75.9412 6.98024C76.8785 7.06593 78.0139 7.2643 78.8892 7.70173C80.6954 8.60838 81.9208 6.43064 84.8625 7.68265C87.8041 8.93641 93.3448 10.2801 91.4861 13.0472C89.6274 15.8144 81.9068 13.3055 80.4321 16.0189C78.9575 18.7306 76.255 28.0509 70.8038 30.692C66.5963 32.7292 61.989 33.2023 58.5305 33.0448C56.7254 32.9632 54.9913 33.7347 53.8425 35.1266C50.676 38.966 44.6951 46.2942 43.8566 47.8855C42.7072 50.0652 41.2216 53.1529 40.9436 56.6654C40.6674 60.1781 38.8372 68.6114 40.1697 69.8819C41.5037 71.1543 44.5606 73.483 40.2121 73.023C35.8636 72.563 35.4106 72.3941 36.1022 67.9774C36.7954 63.5626 37.1536 53.3905 38.0737 51.2032C38.7924 49.4942 40.679 43.8511 41.8126 40.0536C42.1389 38.9516 41.1493 37.9102 40.0328 38.1828C37.329 38.8371 32.9158 39.4473 29.2081 37.7984C23.4026 35.2204 21.0258 33.7619 19.776 36.0099C13.5426 47.2336 7.11618 47.661 6.00436 50.9135C4.89429 54.1662 8.62996 67.6191 10.8778 68.9998C13.1255 70.3822 15.1593 71.2964 14.0747 71.7171C12.9865 72.1393 6.33472 71.9026 6.59281 71.0703C6.85266 70.2382 1.75118 54.2848 1.8449 51.6098C1.94053 48.9333 8.1849 43.4112 8.64852 34.623C9.11232 25.833 7.45063 23.0192 10.0205 19.5886C12.5923 16.1564 17.0874 14.6317 22.2082 12.7451C27.3273 10.8585 28.3181 6.68268 34.7101 7.75152C37.5855 8.23065 39.2496 9.2725 40.2095 10.2721Z" fill="#C8483E"/>
<path d="M53.961 34.9887C53.961 34.9887 49.84 49.7064 50.2452 51.2516C50.6503 52.7985 51.2132 54.1941 50.6568 56.9312C50.1005 59.6683 49.9765 67.5506 50.9143 69.1925C51.8504 70.8325 57.6867 72.493 55.2981 72.9436C52.9093 73.3959 49.7039 73.0535 48.8247 71.95C47.9454 70.8466 47.1963 59.5652 46.913 56.7216C46.6311 53.8816 47.0455 50.8318 47.1862 49.0005C47.327 47.1691 46.68 36.6553 46.68 36.6553L53.961 34.9887Z" fill="#C8483E"/>
<path d="M19.5617 33.3999C19.5617 33.3999 18.6899 38.5767 16.5401 45.2375C14.3902 51.9 14.7285 55.3561 16.0733 58.4672C17.4183 61.5766 23.2432 70.0502 24.606 70.481C25.9688 70.9135 27.517 72.633 25.4536 72.5304C23.3884 72.4293 20.8763 72.7442 20.3942 71.9883C19.9099 71.2358 10.7677 56.9776 10.6946 54.678C10.6232 52.3786 10.5753 36.3752 10.5753 36.3752L19.5617 33.3999Z" fill="#C8483E"/>
<path d="M10.7481 18.7198C10.7481 18.7198 6.63773 21.1131 6.40449 27.6891C6.17302 34.2652 6.2033 36.6244 5.00025 38.1404C3.79879 39.6582 3.5082 41.408 4.20397 41.2034C4.89991 40.9971 5.98452 40.502 6.50767 37.6855C7.03065 34.8709 7.05256 28.1898 7.40462 26.4636C7.8002 24.522 10.0319 21.4257 10.0319 21.4257L10.7481 18.7198Z" fill="#C8483E"/>
</svg>
