<svg width="774" height="109" viewBox="0 0 774 109" fill="none" xmlns="http://www.w3.org/2000/svg">
<path d="M38.5078 0.398438C41.2422 0.398438 43.7031 0.867188 45.8906 1.80469C48.1562 2.66406 50.2266 3.64062 52.1016 4.73438C54.0547 5.82813 55.8906 6.84375 57.6094 7.78125C59.3281 8.64063 61.0859 9.07031 62.8828 9.07031C64.2891 8.99219 65.8906 8.79687 67.6875 8.48438C69.25 8.17188 71.0469 7.70313 73.0781 7.07812C75.1875 6.375 77.5312 5.35938 80.1094 4.03125C77.5312 6.53125 75.4219 8.64063 73.7812 10.3594C72.2188 12 71.0078 13.3672 70.1484 14.4609C69.1328 15.7109 68.3906 16.6875 67.9219 17.3906C67.4531 18.25 66.75 19.5391 65.8125 21.2578C64.9531 22.8203 63.7812 24.9297 62.2969 27.5859C60.8125 30.1641 58.9375 33.5625 56.6719 37.7812C56.6719 32.3906 56.125 28.2109 55.0312 25.2422C54.0156 22.2734 52.8828 20.0078 51.6328 18.4453C50.1484 16.6484 48.4688 15.5156 46.5938 15.0469C44.875 14.8125 43.1562 15.125 41.4375 15.9844C39.7188 16.7656 38 17.9375 36.2812 19.5C34.6406 21.0625 33.0391 22.9375 31.4766 25.125C29.9922 27.2344 28.625 29.4609 27.375 31.8047C26.2031 34.1484 25.2266 36.5312 24.4453 38.9531C23.6641 41.2969 23.1562 43.4844 22.9219 45.5156C22.6875 47.3125 22.6484 49.4219 22.8047 51.8438C22.9609 54.1875 23.3125 56.6094 23.8594 59.1094C24.4062 61.5312 25.1094 63.9141 25.9688 66.2578C26.8281 68.6016 27.8828 70.7109 29.1328 72.5859C30.4609 74.3828 31.9453 75.8672 33.5859 77.0391C35.2266 78.1328 37.1016 78.6406 39.2109 78.5625C41.5547 78.4062 43.8594 77.7031 46.125 76.4531C48.0781 75.4375 50.0703 73.875 52.1016 71.7656C54.1328 69.5781 55.8906 66.4922 57.375 62.5078L74.7188 65.6719C69.7188 71.7656 64.8359 76.3359 60.0703 79.3828C55.3828 82.4297 51.1641 84.5781 47.4141 85.8281C43.0391 87.2344 38.8984 87.8984 34.9922 87.8203C30.0703 87.2734 25.4609 85.7891 21.1641 83.3672C16.8672 80.9453 13.1562 78.0156 10.0312 74.5781C6.98438 71.0625 4.60156 67.2344 2.88281 63.0938C1.16406 58.9531 0.421875 54.8906 0.65625 50.9062C0.8125 48.25 1.35938 45.1641 2.29688 41.6484C3.23438 38.0547 4.48438 34.3828 6.04688 30.6328C7.6875 26.8828 9.64062 23.2109 11.9062 19.6172C14.1719 16.0234 16.6719 12.8203 19.4062 10.0078C22.1406 7.11719 25.1094 4.8125 28.3125 3.09375C31.5938 1.29687 34.9922 0.398438 38.5078 0.398438ZM104.953 34.5C106.984 34.5 109.094 34.8906 111.281 35.6719C113.469 36.375 115.578 37.3125 117.609 38.4844C119.641 39.5781 121.477 40.7891 123.117 42.1172C124.836 43.3672 126.242 44.5781 127.336 45.75C129.289 47.8594 130.617 50.7109 131.32 54.3047C132.102 57.8203 132.258 61.4531 131.789 65.2031C131.32 68.875 130.227 72.3516 128.508 75.6328C126.789 78.9141 124.406 81.3359 121.359 82.8984C119.172 83.9922 117.023 84.8516 114.914 85.4766C112.805 86.1016 110.773 86.5703 108.82 86.8828C106.867 87.1953 105.031 87.3516 103.312 87.3516C101.594 87.3516 100.109 87.3125 98.8594 87.2344C96.5156 87.0781 94.0547 86.2578 91.4766 84.7734C88.9766 83.2891 86.5938 81.4531 84.3281 79.2656C82.1406 77.0781 80.2656 74.6953 78.7031 72.1172C77.1406 69.4609 76.2031 66.9609 75.8906 64.6172C75.4219 61.4141 75.3438 58.0547 75.6562 54.5391C75.9688 51.0234 77.1016 47.7812 79.0547 44.8125C81.0859 41.8438 84.1328 39.3828 88.1953 37.4297C92.3359 35.4766 97.9219 34.5 104.953 34.5ZM101.086 79.9688C101.945 80.125 103.117 79.9297 104.602 79.3828C106.086 78.7578 107.531 77.7812 108.938 76.4531C110.422 75.125 111.711 73.4453 112.805 71.4141C113.977 69.3047 114.68 66.7656 114.914 63.7969C115.148 60.9062 115.148 58.25 114.914 55.8281C114.758 53.4062 114.406 51.2969 113.859 49.5C113.312 47.625 112.688 46.1016 111.984 44.9297C111.281 43.7578 110.539 42.9375 109.758 42.4688C108.43 41.7656 106.828 41.2188 104.953 40.8281C103.078 40.3594 101.477 40.4375 100.148 41.0625C99.5234 41.375 98.7422 42.0391 97.8047 43.0547C96.8672 44.0703 95.9297 45.3594 94.9922 46.9219C94.0547 48.4062 93.1953 50.125 92.4141 52.0781C91.7109 54.0312 91.2031 56.0625 90.8906 58.1719C90.5781 60.2812 90.5 62.5469 90.6562 64.9688C90.8906 67.3906 91.3984 69.6953 92.1797 71.8828C92.9609 73.9922 94.0547 75.8281 95.4609 77.3906C96.9453 78.875 98.8203 79.7344 101.086 79.9688ZM136.828 31.4531C138.625 31.2969 140.148 31.1406 141.398 30.9844C142.727 30.8281 143.82 30.6719 144.68 30.5156C145.695 30.3594 146.555 30.2031 147.258 30.0469C147.961 29.9688 148.742 29.8125 149.602 29.5781C150.383 29.4219 151.242 29.2266 152.18 28.9922C153.195 28.6797 154.289 28.3281 155.461 27.9375L154.758 42.8203C156.477 40.0859 158.469 38.0156 160.734 36.6094C163 35.125 165.148 34.0312 167.18 33.3281C169.602 32.4688 172.023 31.9609 174.445 31.8047C176.945 31.8828 179.25 32.2734 181.359 32.9766C183.156 33.6016 184.953 34.5781 186.75 35.9062C188.625 37.2344 190.07 39.1875 191.086 41.7656C193.742 39.0312 196.359 36.9219 198.938 35.4375C201.594 33.875 203.938 32.7031 205.969 31.9219C208.391 31.0625 210.656 30.5547 212.766 30.3984C215.578 30.3203 218.156 30.7891 220.5 31.8047C222.922 32.8203 225.031 34.1094 226.828 35.6719C228.625 37.1562 230.07 38.7578 231.164 40.4766C232.258 42.1172 232.883 43.5625 233.039 44.8125C233.273 46.5312 233.156 48.7578 232.688 51.4922C232.219 54.1484 231.672 56.8828 231.047 59.6953C230.422 62.4297 229.836 64.9688 229.289 67.3125C228.82 69.5781 228.625 71.1797 228.703 72.1172C228.938 72.8984 229.484 73.8359 230.344 74.9297C231.125 75.8672 232.258 77.0391 233.742 78.4453C235.305 79.7734 237.531 81.3359 240.422 83.1328C237.922 83.0547 235.695 82.9766 233.742 82.8984C231.867 82.8203 230.266 82.7031 228.938 82.5469C227.375 82.3906 226.008 82.2734 224.836 82.1953C223.898 82.1953 222.766 82.1172 221.438 81.9609C220.344 81.8828 218.898 81.7656 217.102 81.6094C215.383 81.4531 213.391 81.2969 211.125 81.1406C211.984 80.9062 212.688 80.4766 213.234 79.8516C213.781 79.1484 214.25 78.4844 214.641 77.8594C215.031 77.0781 215.344 76.2188 215.578 75.2812C215.734 74.5 215.891 73.25 216.047 71.5312C216.203 69.8125 216.32 67.8594 216.398 65.6719C216.555 63.4844 216.633 61.1797 216.633 58.7578C216.711 56.3359 216.711 54.0312 216.633 51.8438C216.555 49.6562 216.398 47.6641 216.164 45.8672C215.93 44.0703 215.617 42.7031 215.227 41.7656C214.914 41.0625 214.367 40.5156 213.586 40.125C212.805 39.6562 211.906 39.3828 210.891 39.3047C209.875 39.1484 208.859 39.1875 207.844 39.4219C206.828 39.5781 205.93 39.8906 205.148 40.3594C204.445 40.9062 203.508 41.6484 202.336 42.5859C201.32 43.4453 199.992 44.6172 198.352 46.1016C196.711 47.5859 194.641 49.4609 192.141 51.7266C191.906 56.6484 191.711 60.6328 191.555 63.6797C191.477 66.6484 191.398 68.9141 191.32 70.4766C191.242 72.3516 191.203 73.6406 191.203 74.3438C191.125 74.9688 191.164 75.5547 191.32 76.1016C191.477 77.2734 191.945 78.3672 192.727 79.3828C191.789 79.1484 190.773 78.9922 189.68 78.9141C188.664 78.8359 187.727 78.7578 186.867 78.6797C185.852 78.6016 184.836 78.5625 183.82 78.5625C182.961 78.5625 182.023 78.6016 181.008 78.6797C180.148 78.7578 179.094 78.875 177.844 79.0312C176.594 79.1094 175.227 79.2266 173.742 79.3828C174.367 78.9922 174.875 78.5234 175.266 77.9766C175.656 77.4297 175.969 76.9219 176.203 76.4531C176.516 75.9062 176.75 75.3984 176.906 74.9297C176.984 74.4609 177.141 73.3281 177.375 71.5312C177.609 69.6562 177.766 67.4688 177.844 64.9688C177.922 62.4688 177.922 59.8516 177.844 57.1172C177.766 54.3047 177.492 51.7656 177.023 49.5C176.555 47.1562 175.812 45.2422 174.797 43.7578C173.859 42.2734 172.609 41.6094 171.047 41.7656C169.172 41.9219 167.258 42.3906 165.305 43.1719C163.664 43.7969 161.906 44.7344 160.031 45.9844C158.156 47.2344 156.398 48.9141 154.758 51.0234C154.445 56.8828 154.25 61.5312 154.172 64.9688C154.172 68.4062 154.211 71.0234 154.289 72.8203C154.367 74.9297 154.445 76.375 154.523 77.1562C154.602 77.7031 154.797 78.25 155.109 78.7969C155.344 79.2656 155.617 79.8125 155.93 80.4375C156.32 81.0625 156.75 81.6484 157.219 82.1953L138.586 81.2578C139.211 80.9453 139.758 80.5547 140.227 80.0859C140.695 79.5391 141.086 78.9922 141.398 78.4453C141.711 77.8203 142.023 77.1953 142.336 76.5703C142.57 76.0234 142.766 74.7344 142.922 72.7031C143.156 70.6719 143.352 68.2891 143.508 65.5547C143.664 62.7422 143.781 59.8125 143.859 56.7656C144.016 53.6406 144.094 50.75 144.094 48.0938C144.172 45.3594 144.211 43.0547 144.211 41.1797C144.211 39.2266 144.172 38.0547 144.094 37.6641C143.859 36.8828 143.43 36.0625 142.805 35.2031C142.258 34.5781 141.516 33.9141 140.578 33.2109C139.641 32.4297 138.391 31.8438 136.828 31.4531ZM241.008 34.6172L262.57 34.8516C261.32 39.6172 260.383 43.6797 259.758 47.0391C259.211 50.3984 258.859 53.2109 258.703 55.4766C258.391 58.0547 258.312 60.2422 258.469 62.0391C258.703 63.6797 259.094 65.4375 259.641 67.3125C260.109 68.875 260.812 70.6719 261.75 72.7031C262.688 74.7344 263.938 76.7656 265.5 78.7969C264.562 78.4844 263.547 78.25 262.453 78.0938C261.359 77.9375 260.344 77.8203 259.406 77.7422C258.312 77.6641 257.219 77.6641 256.125 77.7422C255.031 77.8203 253.82 77.9375 252.492 78.0938C251.398 78.25 250.07 78.4453 248.508 78.6797C246.945 78.9141 245.305 79.2266 243.586 79.6172C244.758 76.1016 245.656 73.0547 246.281 70.4766C246.984 67.8984 247.492 65.75 247.805 64.0312C248.117 62 248.312 60.3594 248.391 59.1094C248.391 57.5469 248.391 55.7891 248.391 53.8359C248.391 51.8047 248.391 49.8516 248.391 47.9766C248.391 46.1016 248.352 44.4609 248.273 43.0547C248.195 41.5703 248.039 40.6328 247.805 40.2422L246.633 39.0703C246.164 38.6797 245.461 38.1328 244.523 37.4297C243.664 36.6484 242.492 35.7109 241.008 34.6172ZM249.328 16.5703C250.969 15.7109 252.609 15.4766 254.25 15.8672C255.969 16.2578 257.297 17 258.234 18.0938C259.172 19.1875 259.484 20.4766 259.172 21.9609C258.938 23.4453 257.688 24.8906 255.422 26.2969C253.156 27.625 251.164 28.0938 249.445 27.7031C247.727 27.3125 246.516 26.4922 245.812 25.2422C245.109 23.9922 244.992 22.5469 245.461 20.9062C245.93 19.1875 247.219 17.7422 249.328 16.5703ZM273.352 74.1094C273.898 71.5312 274.289 69.2656 274.523 67.3125C274.836 65.2812 275.07 63.6016 275.227 62.2734C275.383 60.7109 275.461 59.3828 275.461 58.2891C275.383 56.9609 275.305 55.3984 275.227 53.6016C275.227 51.7266 275.148 49.8906 274.992 48.0938C274.914 46.2188 274.797 44.5781 274.641 43.1719C274.484 41.6875 274.289 40.6328 274.055 40.0078C273.742 39.3828 273.312 38.7188 272.766 38.0156C271.672 36.6875 270.07 35.3984 267.961 34.1484C269.758 33.7578 271.281 33.4453 272.531 33.2109C273.859 32.8984 274.953 32.625 275.812 32.3906C276.75 32.0781 277.57 31.8047 278.273 31.5703C278.898 31.3359 279.641 31.1016 280.5 30.8672C281.203 30.7109 282.062 30.5156 283.078 30.2812C284.094 30.0469 285.266 29.7734 286.594 29.4609L286.242 40.125C288.742 37.1562 291.281 34.9297 293.859 33.4453C296.438 31.9609 298.859 30.9062 301.125 30.2812C303.703 29.5 306.242 29.1094 308.742 29.1094C311.867 29.2656 314.758 29.7734 317.414 30.6328C320.148 31.4922 322.492 32.5078 324.445 33.6797C326.477 34.7734 328.117 35.9453 329.367 37.1953C330.617 38.4453 331.359 39.5391 331.594 40.4766C332.531 43.5234 332.766 46.3359 332.297 48.9141C331.828 51.4141 331.203 53.875 330.422 56.2969C329.719 58.6406 329.094 60.9844 328.547 63.3281C328.078 65.6719 328.273 68.2109 329.133 70.9453C329.445 71.6484 329.758 72.3516 330.07 73.0547C330.383 73.6797 330.773 74.3047 331.242 74.9297C331.711 75.5547 332.258 76.0625 332.883 76.4531C332.023 76.375 331.164 76.3359 330.305 76.3359C329.445 76.2578 328.664 76.1797 327.961 76.1016C327.102 76.0234 326.32 75.9453 325.617 75.8672C324.836 75.7891 323.781 75.75 322.453 75.75C320.188 75.75 316.672 75.8672 311.906 76.1016C312.609 74.4609 313.156 73.0938 313.547 72C314.016 70.8281 314.406 69.8906 314.719 69.1875C315.031 68.3281 315.266 67.6641 315.422 67.1953C316.359 64.9297 316.906 62.3516 317.062 59.4609C317.297 56.5703 317.102 53.6406 316.477 50.6719C316.242 49.6562 315.852 48.4453 315.305 47.0391C314.758 45.6328 314.016 44.2656 313.078 42.9375C312.219 41.6094 311.164 40.4766 309.914 39.5391C308.742 38.6016 307.375 38.0547 305.812 37.8984C304.25 37.7422 302.492 38.1328 300.539 39.0703C298.664 40.0078 296.633 41.7266 294.445 44.2266C292.805 46.3359 291.516 48.9141 290.578 51.9609C289.719 54.5391 289.133 57.7812 288.82 61.6875C288.508 65.5156 288.977 70.0078 290.227 75.1641C289.133 75.0078 288.117 74.9297 287.18 74.9297C286.242 74.8516 285.461 74.7734 284.836 74.6953C284.055 74.6172 283.352 74.5391 282.727 74.4609C282.023 74.4609 281.242 74.4219 280.383 74.3438C279.602 74.3438 278.625 74.3438 277.453 74.3438C276.281 74.2656 274.914 74.1875 273.352 74.1094ZM395.344 37.3125C395.109 35.75 394.914 34.4609 394.758 33.4453C394.602 32.3516 394.445 31.4922 394.289 30.8672C394.133 30.0859 394.016 29.5 393.938 29.1094C393.781 28.7188 393.586 28.2891 393.352 27.8203C393.195 27.4297 392.922 26.9609 392.531 26.4141C392.219 25.8672 391.828 25.2422 391.359 24.5391C392.375 24.8516 393.391 25.0469 394.406 25.125C395.5 25.2031 396.516 25.2813 397.453 25.3594C398.469 25.4375 399.523 25.4375 400.617 25.3594C401.711 25.3594 402.961 25.3203 404.367 25.2422C405.617 25.1641 407.102 25.125 408.82 25.125C410.617 25.0469 412.648 24.9297 414.914 24.7734C413.586 25.0859 412.453 25.6328 411.516 26.4141C410.656 27.1172 409.914 27.8984 409.289 28.7578C408.586 29.6953 408 30.7109 407.531 31.8047C407.141 32.8203 406.906 34.7734 406.828 37.6641C406.75 40.4766 406.75 43.8359 406.828 47.7422C406.906 51.5703 406.984 55.7109 407.062 60.1641C407.219 64.6172 407.297 68.875 407.297 72.9375C407.375 77 407.375 80.7109 407.297 84.0703C407.219 87.3516 407.023 89.7734 406.711 91.3359C405.617 96.2578 403.586 100.242 400.617 103.289C397.648 106.414 393.742 108.094 388.898 108.328C383.039 108.562 378.391 108.016 374.953 106.688C371.594 105.359 368.977 103.719 367.102 101.766C365.227 99.8906 363.82 97.9766 362.883 96.0234C361.945 94.0703 360.969 92.5859 359.953 91.5703C359.016 90.7109 358.078 89.8906 357.141 89.1094C356.281 88.4844 355.383 87.8594 354.445 87.2344C353.586 86.6094 352.727 86.2188 351.867 86.0625C354.133 86.1406 356.164 86.1797 357.961 86.1797C359.758 86.1797 361.281 86.1797 362.531 86.1797C363.938 86.1797 365.188 86.1406 366.281 86.0625H370.031H380.695C379.133 86.5312 377.961 87.0391 377.18 87.5859C376.398 88.2109 375.852 88.8359 375.539 89.4609C375.227 90.1641 375.07 90.8672 375.07 91.5703C375.383 93.4453 376.398 94.8125 378.117 95.6719C379.836 96.5312 382.18 97.0391 385.148 97.1953C388.039 97.3516 390.031 97.2734 391.125 96.9609C392.219 96.7266 393.078 96.2578 393.703 95.5547C394.953 93.6797 396.008 91.2578 396.867 88.2891C397.492 85.7891 397.922 82.5469 398.156 78.5625C398.469 74.5 398.117 69.5391 397.102 63.6797C394.602 67.1172 391.711 69.6953 388.43 71.4141C385.148 73.1328 382.023 74.3828 379.055 75.1641C375.539 76.0234 371.984 76.4531 368.391 76.4531C358.938 76.0625 351.867 73.875 347.18 69.8906C342.492 65.9062 340.344 60.5547 340.734 53.8359C340.969 50.4766 341.984 47.1172 343.781 43.7578C345.656 40.3984 348.078 37.3906 351.047 34.7344C354.094 32.0781 357.57 29.9688 361.477 28.4062C365.383 26.8437 369.445 26.1797 373.664 26.4141C376.867 26.7266 379.875 27.3125 382.688 28.1719C385.109 28.9531 387.492 30.0469 389.836 31.4531C392.258 32.8594 394.094 34.8125 395.344 37.3125ZM358.078 49.0312C357.609 52.0781 357.805 54.9297 358.664 57.5859C359.602 60.2422 360.891 62.5469 362.531 64.5C364.172 66.375 366.008 67.8594 368.039 68.9531C370.07 69.9688 371.984 70.4375 373.781 70.3594C377.531 70.2812 380.773 68.6016 383.508 65.3203C386.242 61.9609 387.883 56.9609 388.43 50.3203C388.664 47.0391 388.234 44.2266 387.141 41.8828C386.125 39.4609 384.836 37.5078 383.273 36.0234C381.711 34.5391 380.07 33.4844 378.352 32.8594C376.633 32.2344 375.266 31.9609 374.25 32.0391C372.844 32.1953 371.281 32.625 369.562 33.3281C367.922 33.9531 366.32 34.9297 364.758 36.2578C363.195 37.5078 361.789 39.1875 360.539 41.2969C359.367 43.4062 358.547 45.9844 358.078 49.0312ZM528.586 1.21875C527.492 3.71875 526.516 5.90625 525.656 7.78125C524.797 9.65625 524.055 11.2578 523.43 12.5859C522.727 14.0703 522.141 15.3984 521.672 16.5703C521.281 17.4297 520.773 18.6016 520.148 20.0859C519.523 21.4141 518.742 23.1719 517.805 25.3594C516.945 27.4688 515.812 30.2031 514.406 33.5625C513.703 30.6719 512.844 28.1328 511.828 25.9453C510.812 23.7578 509.719 21.8438 508.547 20.2031C507.375 18.5625 506.125 17.2344 504.797 16.2188C503.547 15.125 502.297 14.2266 501.047 13.5234C498.156 11.9609 495.109 11.1016 491.906 10.9453C487.688 11.1797 484.367 11.8828 481.945 13.0547C479.602 14.1484 477.883 15.4375 476.789 16.9219C475.695 18.3281 475.109 19.8125 475.031 21.375C474.953 22.8594 475.148 24.1094 475.617 25.125C476.008 26.0625 477.375 27.1562 479.719 28.4062C482.141 29.6562 485.031 31.1016 488.391 32.7422C491.828 34.3047 495.5 36.1016 499.406 38.1328C503.312 40.0859 506.906 42.2734 510.188 44.6953C513.547 47.0391 516.359 49.6172 518.625 52.4297C520.969 55.1641 522.258 58.0938 522.492 61.2188C522.727 65.2031 522.688 68.7969 522.375 72C522.062 75.2031 520.969 77.9375 519.094 80.2031C517.219 82.4688 514.289 84.2656 510.305 85.5938C506.398 86.9219 500.969 87.7422 494.016 88.0547C486.828 88.3672 480.93 87.9766 476.32 86.8828C471.711 85.7891 467.961 84.3047 465.07 82.4297C462.258 80.5547 460.148 78.4844 458.742 76.2188C457.414 73.9531 456.438 71.8047 455.812 69.7734C455.188 67.6641 454.758 65.8672 454.523 64.3828C454.289 62.8203 453.898 61.8828 453.352 61.5703C452.727 61.1797 452.102 60.8281 451.477 60.5156C450.93 60.2031 450.344 59.9297 449.719 59.6953C449.094 59.3828 448.469 59.1094 447.844 58.875L481.945 53.3672C479.992 54.9297 478.469 56.375 477.375 57.7031C476.359 59.0312 475.578 60.2031 475.031 61.2188C474.406 62.3906 473.977 63.4844 473.742 64.5C473.586 65.5938 473.938 66.9609 474.797 68.6016C475.656 70.2422 476.828 71.8438 478.312 73.4062C479.875 74.8906 481.672 76.1406 483.703 77.1562C485.734 78.1719 487.844 78.6016 490.031 78.4453C492.766 78.2109 494.992 77.5469 496.711 76.4531C498.43 75.2812 499.719 73.8359 500.578 72.1172C501.516 70.3984 502.062 68.5234 502.219 66.4922C502.375 64.4609 502.18 62.4688 501.633 60.5156C501.164 58.4844 500.383 56.6094 499.289 54.8906C498.195 53.0938 496.906 51.6094 495.422 50.4375C494.094 49.5 492.023 48.6016 489.211 47.7422C486.477 46.8828 483.391 45.9453 479.953 44.9297C476.594 43.9141 473.117 42.7422 469.523 41.4141C466.008 40.0859 462.805 38.4453 459.914 36.4922C457.102 34.5391 454.836 32.2344 453.117 29.5781C451.477 26.9219 450.852 23.7188 451.242 19.9688C451.555 16.7656 452.57 14.1094 454.289 12C456.086 9.8125 458.312 8.09375 460.969 6.84375C463.703 5.51562 466.711 4.53906 469.992 3.91406C473.352 3.28906 476.75 2.9375 480.188 2.85938C483.703 2.70312 487.141 2.74219 490.5 2.97656C493.938 3.21094 497.023 3.48438 499.758 3.79688C502.492 4.10937 504.797 4.42188 506.672 4.73438C508.625 4.96875 509.836 5.125 510.305 5.20312C512.336 5.35938 514.367 5.32031 516.398 5.08594C518.195 4.92969 520.148 4.57812 522.258 4.03125C524.445 3.40625 526.555 2.46875 528.586 1.21875ZM559.992 34.5C562.023 34.5 564.133 34.8906 566.32 35.6719C568.508 36.375 570.617 37.3125 572.648 38.4844C574.68 39.5781 576.516 40.7891 578.156 42.1172C579.875 43.3672 581.281 44.5781 582.375 45.75C584.328 47.8594 585.656 50.7109 586.359 54.3047C587.141 57.8203 587.297 61.4531 586.828 65.2031C586.359 68.875 585.266 72.3516 583.547 75.6328C581.828 78.9141 579.445 81.3359 576.398 82.8984C574.211 83.9922 572.062 84.8516 569.953 85.4766C567.844 86.1016 565.812 86.5703 563.859 86.8828C561.906 87.1953 560.07 87.3516 558.352 87.3516C556.633 87.3516 555.148 87.3125 553.898 87.2344C551.555 87.0781 549.094 86.2578 546.516 84.7734C544.016 83.2891 541.633 81.4531 539.367 79.2656C537.18 77.0781 535.305 74.6953 533.742 72.1172C532.18 69.4609 531.242 66.9609 530.93 64.6172C530.461 61.4141 530.383 58.0547 530.695 54.5391C531.008 51.0234 532.141 47.7812 534.094 44.8125C536.125 41.8438 539.172 39.3828 543.234 37.4297C547.375 35.4766 552.961 34.5 559.992 34.5ZM556.125 79.9688C556.984 80.125 558.156 79.9297 559.641 79.3828C561.125 78.7578 562.57 77.7812 563.977 76.4531C565.461 75.125 566.75 73.4453 567.844 71.4141C569.016 69.3047 569.719 66.7656 569.953 63.7969C570.188 60.9062 570.188 58.25 569.953 55.8281C569.797 53.4062 569.445 51.2969 568.898 49.5C568.352 47.625 567.727 46.1016 567.023 44.9297C566.32 43.7578 565.578 42.9375 564.797 42.4688C563.469 41.7656 561.867 41.2188 559.992 40.8281C558.117 40.3594 556.516 40.4375 555.188 41.0625C554.562 41.375 553.781 42.0391 552.844 43.0547C551.906 44.0703 550.969 45.3594 550.031 46.9219C549.094 48.4062 548.234 50.125 547.453 52.0781C546.75 54.0312 546.242 56.0625 545.93 58.1719C545.617 60.2812 545.539 62.5469 545.695 64.9688C545.93 67.3906 546.438 69.6953 547.219 71.8828C548 73.9922 549.094 75.8281 550.5 77.3906C551.984 78.875 553.859 79.7344 556.125 79.9688ZM623.859 34.5C625.891 34.5 628 34.8906 630.188 35.6719C632.375 36.375 634.484 37.3125 636.516 38.4844C638.547 39.5781 640.383 40.7891 642.023 42.1172C643.742 43.3672 645.148 44.5781 646.242 45.75C648.195 47.8594 649.523 50.7109 650.227 54.3047C651.008 57.8203 651.164 61.4531 650.695 65.2031C650.227 68.875 649.133 72.3516 647.414 75.6328C645.695 78.9141 643.312 81.3359 640.266 82.8984C638.078 83.9922 635.93 84.8516 633.82 85.4766C631.711 86.1016 629.68 86.5703 627.727 86.8828C625.773 87.1953 623.938 87.3516 622.219 87.3516C620.5 87.3516 619.016 87.3125 617.766 87.2344C615.422 87.0781 612.961 86.2578 610.383 84.7734C607.883 83.2891 605.5 81.4531 603.234 79.2656C601.047 77.0781 599.172 74.6953 597.609 72.1172C596.047 69.4609 595.109 66.9609 594.797 64.6172C594.328 61.4141 594.25 58.0547 594.562 54.5391C594.875 51.0234 596.008 47.7812 597.961 44.8125C599.992 41.8438 603.039 39.3828 607.102 37.4297C611.242 35.4766 616.828 34.5 623.859 34.5ZM619.992 79.9688C620.852 80.125 622.023 79.9297 623.508 79.3828C624.992 78.7578 626.438 77.7812 627.844 76.4531C629.328 75.125 630.617 73.4453 631.711 71.4141C632.883 69.3047 633.586 66.7656 633.82 63.7969C634.055 60.9062 634.055 58.25 633.82 55.8281C633.664 53.4062 633.312 51.2969 632.766 49.5C632.219 47.625 631.594 46.1016 630.891 44.9297C630.188 43.7578 629.445 42.9375 628.664 42.4688C627.336 41.7656 625.734 41.2188 623.859 40.8281C621.984 40.3594 620.383 40.4375 619.055 41.0625C618.43 41.375 617.648 42.0391 616.711 43.0547C615.773 44.0703 614.836 45.3594 613.898 46.9219C612.961 48.4062 612.102 50.125 611.32 52.0781C610.617 54.0312 610.109 56.0625 609.797 58.1719C609.484 60.2812 609.406 62.5469 609.562 64.9688C609.797 67.3906 610.305 69.6953 611.086 71.8828C611.867 73.9922 612.961 75.8281 614.367 77.3906C615.852 78.875 617.727 79.7344 619.992 79.9688ZM659.953 74.1094C660.5 71.5312 660.891 69.2656 661.125 67.3125C661.438 65.2812 661.672 63.6016 661.828 62.2734C661.984 60.7109 662.062 59.3828 662.062 58.2891C661.984 56.9609 661.906 55.3984 661.828 53.6016C661.828 51.7266 661.75 49.8906 661.594 48.0938C661.516 46.2188 661.398 44.5781 661.242 43.1719C661.086 41.6875 660.891 40.6328 660.656 40.0078C660.344 39.3828 659.914 38.7188 659.367 38.0156C658.273 36.6875 656.672 35.3984 654.562 34.1484C656.359 33.7578 657.883 33.4453 659.133 33.2109C660.461 32.8984 661.555 32.625 662.414 32.3906C663.352 32.0781 664.172 31.8047 664.875 31.5703C665.5 31.3359 666.242 31.1016 667.102 30.8672C667.805 30.7109 668.664 30.5156 669.68 30.2812C670.695 30.0469 671.867 29.7734 673.195 29.4609L672.844 40.125C675.344 37.1562 677.883 34.9297 680.461 33.4453C683.039 31.9609 685.461 30.9062 687.727 30.2812C690.305 29.5 692.844 29.1094 695.344 29.1094C698.469 29.2656 701.359 29.7734 704.016 30.6328C706.75 31.4922 709.094 32.5078 711.047 33.6797C713.078 34.7734 714.719 35.9453 715.969 37.1953C717.219 38.4453 717.961 39.5391 718.195 40.4766C719.133 43.5234 719.367 46.3359 718.898 48.9141C718.43 51.4141 717.805 53.875 717.023 56.2969C716.32 58.6406 715.695 60.9844 715.148 63.3281C714.68 65.6719 714.875 68.2109 715.734 70.9453C716.047 71.6484 716.359 72.3516 716.672 73.0547C716.984 73.6797 717.375 74.3047 717.844 74.9297C718.312 75.5547 718.859 76.0625 719.484 76.4531C718.625 76.375 717.766 76.3359 716.906 76.3359C716.047 76.2578 715.266 76.1797 714.562 76.1016C713.703 76.0234 712.922 75.9453 712.219 75.8672C711.438 75.7891 710.383 75.75 709.055 75.75C706.789 75.75 703.273 75.8672 698.508 76.1016C699.211 74.4609 699.758 73.0938 700.148 72C700.617 70.8281 701.008 69.8906 701.32 69.1875C701.633 68.3281 701.867 67.6641 702.023 67.1953C702.961 64.9297 703.508 62.3516 703.664 59.4609C703.898 56.5703 703.703 53.6406 703.078 50.6719C702.844 49.6562 702.453 48.4453 701.906 47.0391C701.359 45.6328 700.617 44.2656 699.68 42.9375C698.82 41.6094 697.766 40.4766 696.516 39.5391C695.344 38.6016 693.977 38.0547 692.414 37.8984C690.852 37.7422 689.094 38.1328 687.141 39.0703C685.266 40.0078 683.234 41.7266 681.047 44.2266C679.406 46.3359 678.117 48.9141 677.18 51.9609C676.32 54.5391 675.734 57.7812 675.422 61.6875C675.109 65.5156 675.578 70.0078 676.828 75.1641C675.734 75.0078 674.719 74.9297 673.781 74.9297C672.844 74.8516 672.062 74.7734 671.438 74.6953C670.656 74.6172 669.953 74.5391 669.328 74.4609C668.625 74.4609 667.844 74.4219 666.984 74.3438C666.203 74.3438 665.227 74.3438 664.055 74.3438C662.883 74.2656 661.516 74.1875 659.953 74.1094ZM737.648 74.1094C740.461 73.7188 742.648 74.1875 744.211 75.5156C745.852 76.8438 746.633 78.6797 746.555 81.0234C746.477 82.1953 746.242 83.1328 745.852 83.8359C745.461 84.5391 744.914 85.0859 744.211 85.4766C743.586 85.7891 742.805 86.0625 741.867 86.2969C741.008 86.4531 739.992 86.6094 738.82 86.7656C737.648 87 736.516 86.9609 735.422 86.6484C734.328 86.2578 733.352 85.7109 732.492 85.0078C731.633 84.3047 730.93 83.5234 730.383 82.6641C729.914 81.8047 729.68 80.9453 729.68 80.0859C729.68 79.1484 729.914 78.3672 730.383 77.7422C730.93 77.0391 731.594 76.4531 732.375 75.9844C733.234 75.4375 734.094 75.0469 734.953 74.8125C735.891 74.5 736.789 74.2656 737.648 74.1094ZM764.133 74.1094C766.945 73.7188 769.133 74.1875 770.695 75.5156C772.336 76.8438 773.117 78.6797 773.039 81.0234C772.961 82.1953 772.727 83.1328 772.336 83.8359C771.945 84.5391 771.398 85.0859 770.695 85.4766C770.07 85.7891 769.289 86.0625 768.352 86.2969C767.492 86.4531 766.477 86.6094 765.305 86.7656C764.133 87 763 86.9609 761.906 86.6484C760.812 86.2578 759.836 85.7109 758.977 85.0078C758.117 84.3047 757.414 83.5234 756.867 82.6641C756.398 81.8047 756.164 80.9453 756.164 80.0859C756.164 79.1484 756.398 78.3672 756.867 77.7422C757.414 77.0391 758.078 76.4531 758.859 75.9844C759.719 75.4375 760.578 75.0469 761.438 74.8125C762.375 74.5 763.273 74.2656 764.133 74.1094Z" fill="white"/>
</svg>
