<svg width="538" height="40" viewBox="0 0 538 40" fill="none" xmlns="http://www.w3.org/2000/svg">
<path opacity="0.6" d="M16.2734 2.79688C17.9401 2.77083 19.3073 3.07031 20.375 3.69531C21.4688 4.32031 22.3542 5.0625 23.0312 5.92188C23.7083 6.78125 24.2292 7.65365 24.5938 8.53906C24.9583 9.39844 25.2448 10.0755 25.4531 10.5703C25.5052 10.7005 25.6094 10.8698 25.7656 11.0781C25.8958 11.2604 26.0781 11.4818 26.3125 11.7422C26.5729 11.9766 26.8984 12.25 27.2891 12.5625C26.4818 12.5885 25.7656 12.6146 25.1406 12.6406C24.5156 12.6406 23.9818 12.6536 23.5391 12.6797C23.0443 12.7057 22.6016 12.7318 22.2109 12.7578C21.8203 12.7839 21.3385 12.8229 20.7656 12.875C20.2448 12.9271 19.6068 12.9792 18.8516 13.0312C18.0964 13.0833 17.1719 13.1615 16.0781 13.2656C16.7292 12.4844 17.237 11.7943 17.6016 11.1953C17.9922 10.5703 18.2786 10.0234 18.4609 9.55469C18.6693 9.0599 18.7865 8.63021 18.8125 8.26562C18.8646 7.90104 18.8516 7.58854 18.7734 7.32812C18.6172 6.72917 18.2135 6.29948 17.5625 6.03906C15.6875 5.51823 14.0469 5.9349 12.6406 7.28906C11.2604 8.61719 10.2708 10.8047 9.67188 13.8516C9.38542 15.362 9.11198 16.9375 8.85156 18.5781C8.61719 20.1927 8.52604 21.6771 8.57812 23.0312C8.63021 24.3594 8.89062 25.4401 9.35938 26.2734C9.82812 27.1068 10.6354 27.4974 11.7812 27.4453C12.901 27.3932 13.8516 27.2109 14.6328 26.8984C15.4141 26.5599 16.0391 26.1693 16.5078 25.7266C16.9766 25.2578 17.3021 24.763 17.4844 24.2422C17.6927 23.6953 17.7708 23.1875 17.7188 22.7188C17.6146 22.3542 17.3411 21.9635 16.8984 21.5469C16.5078 21.1823 15.9219 20.7786 15.1406 20.3359C14.3594 19.8672 13.2396 19.3854 11.7812 18.8906C13.1615 18.8125 14.2943 18.7604 15.1797 18.7344C16.0911 18.6823 16.8073 18.6302 17.3281 18.5781C17.9531 18.526 18.4349 18.487 18.7734 18.4609C19.0859 18.4349 19.5417 18.4089 20.1406 18.3828C20.6615 18.3568 21.3255 18.3438 22.1328 18.3438C22.9661 18.3438 24.0078 18.3307 25.2578 18.3047C24.7891 18.7734 24.4245 19.2031 24.1641 19.5938C24.0339 19.8021 23.9167 19.9844 23.8125 20.1406C23.7083 20.401 23.6693 20.9349 23.6953 21.7422C23.6953 22.4193 23.7474 23.4219 23.8516 24.75C23.9557 26.0521 24.151 27.8359 24.4375 30.1016L19.2422 30.8047L19.4766 25.5312C18.8776 26.9635 18.1224 28.0312 17.2109 28.7344C16.3255 29.4375 15.4792 29.9323 14.6719 30.2188C13.7083 30.5573 12.7057 30.7135 11.6641 30.6875C10.3099 30.5573 8.95573 30.2448 7.60156 29.75C6.2474 29.2552 5.04948 28.5 4.00781 27.4844C2.96615 26.4427 2.15885 25.1016 1.58594 23.4609C1.03906 21.8203 0.869792 19.7891 1.07812 17.3672C1.3125 14.9453 1.88542 12.8359 2.79688 11.0391C3.73438 9.21615 4.89323 7.70573 6.27344 6.50781C7.65365 5.3099 9.20312 4.41146 10.9219 3.8125C12.6667 3.1875 14.4505 2.84896 16.2734 2.79688ZM36.6641 24.7109C37.3932 24.7109 38.0703 24.6328 38.6953 24.4766C39.2161 24.3464 39.7109 24.138 40.1797 23.8516C40.6745 23.5391 41 23.0833 41.1562 22.4844C41.6771 22.5885 42.1198 22.6797 42.4844 22.7578C42.849 22.8099 43.1615 22.862 43.4219 22.9141C43.7083 22.9922 43.9557 23.0443 44.1641 23.0703C44.3724 23.1224 44.6198 23.1745 44.9062 23.2266C45.1667 23.2786 45.4792 23.3438 45.8438 23.4219C46.2344 23.474 46.6901 23.5521 47.2109 23.6562C46.8203 23.6042 46.4167 23.6432 46 23.7734C45.6094 23.9036 45.2318 24.0469 44.8672 24.2031C44.4505 24.3854 44.0599 24.6068 43.6953 24.8672C43.4609 25.0234 43.1875 25.2578 42.875 25.5703C42.5885 25.8828 42.1719 26.1823 41.625 26.4688C41.0781 26.7552 40.349 27.0026 39.4375 27.2109C38.5521 27.3932 37.4062 27.4583 36 27.4062C34.3073 27.3542 32.888 27.0547 31.7422 26.5078C30.5964 25.9349 29.6719 25.2448 28.9688 24.4375C28.2656 23.6042 27.7578 22.7057 27.4453 21.7422C27.1328 20.7786 26.9635 19.8802 26.9375 19.0469C26.9115 18.2135 27.1589 17.3411 27.6797 16.4297C28.2005 15.5182 28.9297 14.6849 29.8672 13.9297C30.8307 13.1745 31.9896 12.5625 33.3438 12.0938C34.6979 11.599 36.1823 11.3516 37.7969 11.3516C38.7344 11.3516 39.5938 11.4688 40.375 11.7031C41.1823 11.9115 41.9115 12.1979 42.5625 12.5625C43.2396 12.9271 43.8255 13.3438 44.3203 13.8125C44.8151 14.2552 45.2318 14.7109 45.5703 15.1797C45.9089 15.6745 46.1953 16.1953 46.4297 16.7422C46.638 17.2109 46.8073 17.7448 46.9375 18.3438C47.0677 18.9427 47.1068 19.5547 47.0547 20.1797C45.0755 20.2318 43.474 20.2708 42.25 20.2969C41.0521 20.3229 40.1146 20.3359 39.4375 20.3359H37.6797H36.3516C35.8828 20.3359 35.2708 20.349 34.5156 20.375C33.7604 20.401 32.8359 20.4401 31.7422 20.4922C31.8724 21.5339 32.1979 22.3411 32.7188 22.9141C33.2656 23.4609 33.8385 23.8776 34.4375 24.1641C35.1146 24.4766 35.8568 24.6589 36.6641 24.7109ZM33.1484 17.6797C33.9818 17.7318 34.6719 17.7708 35.2188 17.7969C35.7917 17.8229 36.2604 17.849 36.625 17.875C37.0156 17.901 37.3281 17.9141 37.5625 17.9141H38.5391C39.1901 17.9141 40.401 17.875 42.1719 17.7969C42.0938 16.651 41.8464 15.7786 41.4297 15.1797C41.0391 14.5807 40.6224 14.138 40.1797 13.8516C39.6589 13.5391 39.0859 13.3568 38.4609 13.3047C36.7682 13.3307 35.5052 13.6823 34.6719 14.3594C33.8646 15.0365 33.3568 16.1432 33.1484 17.6797ZM48.1484 6.39062C48.9297 6.46875 49.5807 6.53385 50.1016 6.58594C50.6484 6.63802 51.0911 6.67708 51.4297 6.70312C51.8203 6.72917 52.1328 6.74219 52.3672 6.74219C52.6016 6.76823 52.9141 6.76823 53.3047 6.74219C53.6432 6.71615 54.0859 6.6901 54.6328 6.66406C55.1797 6.61198 55.8698 6.53385 56.7031 6.42969C56.5208 6.6901 56.3776 6.92448 56.2734 7.13281C56.1693 7.3151 56.0781 7.48438 56 7.64062L55.7656 8.10938C55.7135 8.26562 55.6615 8.42188 55.6094 8.57812C55.5573 8.70833 55.5052 8.86458 55.4531 9.04688C55.4271 9.22917 55.401 9.42448 55.375 9.63281H61.3906L60.8438 12.7969L55.3359 12.4844C55.2057 13.8125 55.1146 14.8411 55.0625 15.5703C55.0104 16.2995 54.9583 16.8333 54.9062 17.1719L54.8281 17.875C54.75 18.8646 54.6719 19.9453 54.5938 21.1172C54.5156 22.263 54.4896 23.3307 54.5156 24.3203C54.5417 25.3099 54.6328 26.1432 54.7891 26.8203C54.9453 27.4714 55.2188 27.7969 55.6094 27.7969C56 27.7969 56.3646 27.6927 56.7031 27.4844C57.0417 27.276 57.3281 27.0286 57.5625 26.7422C57.8229 26.4557 58.0182 26.1693 58.1484 25.8828C58.2786 25.5703 58.3438 25.3359 58.3438 25.1797C58.3438 25.0234 58.3047 24.8411 58.2266 24.6328C58.0964 24.2422 57.862 23.7474 57.5234 23.1484C58.2786 23.3307 58.9427 23.513 59.5156 23.6953C59.8021 23.7995 60.0625 23.9036 60.2969 24.0078C60.5573 24.112 60.8568 24.2292 61.1953 24.3594C61.4818 24.4896 61.8464 24.6458 62.2891 24.8281C62.7318 25.0104 63.2526 25.2318 63.8516 25.4922C63.2786 25.5964 62.862 25.7656 62.6016 26C62.4453 26.1042 62.3281 26.2214 62.25 26.3516C62.0677 26.638 61.8594 27.0286 61.625 27.5234C61.3906 27.9922 61.0391 28.4609 60.5703 28.9297C60.1016 29.3984 59.4635 29.8151 58.6562 30.1797C57.875 30.5443 56.8203 30.7526 55.4922 30.8047C54.112 30.8568 53.0573 30.6224 52.3281 30.1016C51.625 29.5807 51.1042 28.9818 50.7656 28.3047C50.4531 27.6016 50.2708 26.9115 50.2188 26.2344C50.1667 25.5573 50.1276 25.1016 50.1016 24.8672C50.0755 24.6328 50.0755 24.0469 50.1016 23.1094C50.1276 22.1719 50.1667 21.1432 50.2188 20.0234C50.2708 18.8776 50.3229 17.7839 50.375 16.7422C50.4271 15.6745 50.4531 14.8932 50.4531 14.3984C50.4531 14.138 50.4661 13.8646 50.4922 13.5781C50.4922 13.3438 50.4922 13.0964 50.4922 12.8359C50.5182 12.5495 50.5312 12.276 50.5312 12.0156L44.8672 11.9766L44.6328 9.75L50.3359 9.90625C50.2839 9.61979 50.2188 9.35938 50.1406 9.125C50.0885 8.86458 50.0365 8.65625 49.9844 8.5C49.9062 8.31771 49.8281 8.16146 49.75 8.03125C49.6458 7.90104 49.5286 7.75781 49.3984 7.60156C49.2682 7.47135 49.099 7.30208 48.8906 7.09375C48.6823 6.88542 48.4349 6.65104 48.1484 6.39062ZM73.0703 2.48438C73.9036 2.61458 74.6589 2.73177 75.3359 2.83594C76.013 2.91406 76.599 2.97917 77.0938 3.03125C77.6667 3.10938 78.1745 3.17448 78.6172 3.22656C79.1641 3.30469 79.9844 3.21354 81.0781 2.95312C82.1719 2.66667 83.3698 2.40625 84.6719 2.17188C86 1.91146 87.3542 1.76823 88.7344 1.74219C90.1146 1.6901 91.3776 1.9375 92.5234 2.48438C93.6693 3.03125 94.6068 3.57812 95.3359 4.125C96.0651 4.67188 96.638 5.25781 97.0547 5.88281C97.4974 6.48177 97.8099 7.11979 97.9922 7.79688C98.1745 8.47396 98.2786 9.21615 98.3047 10.0234C98.2786 11.2214 97.9922 12.3802 97.4453 13.5C97.2109 13.9688 96.8984 14.4635 96.5078 14.9844C96.1432 15.4792 95.6875 15.9609 95.1406 16.4297C94.5938 16.8984 93.9427 17.3411 93.1875 17.7578C92.4583 18.1745 91.599 18.5391 90.6094 18.8516C91.5729 19.138 92.3672 19.4766 92.9922 19.8672C93.6432 20.2578 94.1641 20.6224 94.5547 20.9609C95.0234 21.3776 95.375 21.7812 95.6094 22.1719C95.8958 22.7188 96.0911 23.1875 96.1953 23.5781C96.2995 23.9688 96.3646 24.3464 96.3906 24.7109C96.4427 25.0495 96.5078 25.401 96.5859 25.7656C96.6641 26.1302 96.8333 26.5469 97.0938 27.0156C97.3021 27.3802 97.5495 27.7578 97.8359 28.1484C98.0964 28.487 98.3958 28.8516 98.7344 29.2422C99.099 29.6328 99.5417 30.0104 100.062 30.375C99.3333 30.401 98.6562 30.4141 98.0312 30.4141C97.4323 30.4141 96.9115 30.4141 96.4688 30.4141C95.9479 30.4141 95.4531 30.401 94.9844 30.375C94.5156 30.349 93.9297 30.3359 93.2266 30.3359C92.6276 30.3359 91.8594 30.3359 90.9219 30.3359C90.0104 30.3359 88.9036 30.349 87.6016 30.375C88.1745 29.9323 88.6432 29.4896 89.0078 29.0469C89.3724 28.6042 89.6589 28.2005 89.8672 27.8359C90.1016 27.4193 90.2708 27.0156 90.375 26.625C90.5052 25.9219 90.5182 25.1927 90.4141 24.4375C90.3359 23.7865 90.1276 23.0703 89.7891 22.2891C89.4505 21.4818 88.9036 20.6745 88.1484 19.8672C87.3932 19.9974 86.7552 20.1016 86.2344 20.1797C85.7396 20.2318 85.3099 20.2839 84.9453 20.3359C84.5286 20.388 84.1901 20.4271 83.9297 20.4531C83.6953 20.4792 83.4349 20.5052 83.1484 20.5312C82.9141 20.5573 82.6536 20.5964 82.3672 20.6484C82.1068 20.6745 81.8594 20.7135 81.625 20.7656C81.5729 21.8854 81.5729 22.862 81.625 23.6953C81.6771 24.5026 81.7422 25.1797 81.8203 25.7266C81.9245 26.3776 82.0417 26.9375 82.1719 27.4062C82.3021 27.875 82.4844 28.3307 82.7188 28.7734C82.901 29.138 83.1354 29.5286 83.4219 29.9453C83.7083 30.3359 84.0339 30.6615 84.3984 30.9219C83.7214 30.9219 83.0703 30.9219 82.4453 30.9219C81.8464 30.9219 81.2995 30.9089 80.8047 30.8828C80.2318 30.8828 79.6849 30.8698 79.1641 30.8438C78.6432 30.8177 78.0573 30.8047 77.4062 30.8047C76.8594 30.8047 76.2083 30.8047 75.4531 30.8047C74.724 30.8047 73.9297 30.8177 73.0703 30.8438C73.7474 30.1406 74.2812 29.5417 74.6719 29.0469C75.0625 28.5521 75.362 28.1354 75.5703 27.7969C75.8047 27.4323 75.9479 27.1198 76 26.8594C76.0521 26.4427 76.0911 25.7005 76.1172 24.6328C76.1693 23.5391 76.2083 22.2891 76.2344 20.8828C76.2604 19.4766 76.2734 18.0052 76.2734 16.4688C76.2734 14.9323 76.2604 13.5 76.2344 12.1719C76.2083 10.8177 76.1823 9.65885 76.1562 8.69531C76.1302 7.73177 76.1042 7.11979 76.0781 6.85938C76 6.39062 75.8307 5.92188 75.5703 5.45312C75.362 5.03646 75.0625 4.56771 74.6719 4.04688C74.2812 3.52604 73.7474 3.00521 73.0703 2.48438ZM87.8359 16.2344C88.0964 16.0781 88.3177 15.9219 88.5 15.7656C88.6823 15.6094 88.8385 15.362 88.9688 15.0234C89.099 14.6589 89.2031 14.151 89.2812 13.5C89.3854 12.849 89.5026 11.9635 89.6328 10.8438C89.737 9.72396 89.6589 8.79948 89.3984 8.07031C89.1641 7.34115 88.8385 6.76823 88.4219 6.35156C88.0312 5.90885 87.5885 5.60938 87.0938 5.45312C86.625 5.27083 86.2083 5.17969 85.8438 5.17969C85.1146 5.17969 84.3984 5.40104 83.6953 5.84375C82.9922 6.28646 82.4583 6.88542 82.0938 7.64062C81.9635 7.97917 81.8464 8.53906 81.7422 9.32031C81.6641 9.9974 81.612 10.9349 81.5859 12.1328C81.5599 13.3307 81.599 14.9062 81.7031 16.8594C82.6927 17.0156 83.5651 17.0807 84.3203 17.0547C85.0755 17.0026 85.7135 16.9115 86.2344 16.7812C86.8594 16.651 87.3932 16.4688 87.8359 16.2344ZM109.242 24.7109C109.971 24.7109 110.648 24.6328 111.273 24.4766C111.794 24.3464 112.289 24.138 112.758 23.8516C113.253 23.5391 113.578 23.0833 113.734 22.4844C114.255 22.5885 114.698 22.6797 115.062 22.7578C115.427 22.8099 115.74 22.862 116 22.9141C116.286 22.9922 116.534 23.0443 116.742 23.0703C116.951 23.1224 117.198 23.1745 117.484 23.2266C117.745 23.2786 118.057 23.3438 118.422 23.4219C118.812 23.474 119.268 23.5521 119.789 23.6562C119.398 23.6042 118.995 23.6432 118.578 23.7734C118.188 23.9036 117.81 24.0469 117.445 24.2031C117.029 24.3854 116.638 24.6068 116.273 24.8672C116.039 25.0234 115.766 25.2578 115.453 25.5703C115.167 25.8828 114.75 26.1823 114.203 26.4688C113.656 26.7552 112.927 27.0026 112.016 27.2109C111.13 27.3932 109.984 27.4583 108.578 27.4062C106.885 27.3542 105.466 27.0547 104.32 26.5078C103.174 25.9349 102.25 25.2448 101.547 24.4375C100.844 23.6042 100.336 22.7057 100.023 21.7422C99.7109 20.7786 99.5417 19.8802 99.5156 19.0469C99.4896 18.2135 99.737 17.3411 100.258 16.4297C100.779 15.5182 101.508 14.6849 102.445 13.9297C103.409 13.1745 104.568 12.5625 105.922 12.0938C107.276 11.599 108.76 11.3516 110.375 11.3516C111.312 11.3516 112.172 11.4688 112.953 11.7031C113.76 11.9115 114.49 12.1979 115.141 12.5625C115.818 12.9271 116.404 13.3438 116.898 13.8125C117.393 14.2552 117.81 14.7109 118.148 15.1797C118.487 15.6745 118.773 16.1953 119.008 16.7422C119.216 17.2109 119.385 17.7448 119.516 18.3438C119.646 18.9427 119.685 19.5547 119.633 20.1797C117.654 20.2318 116.052 20.2708 114.828 20.2969C113.63 20.3229 112.693 20.3359 112.016 20.3359H110.258H108.93C108.461 20.3359 107.849 20.349 107.094 20.375C106.339 20.401 105.414 20.4401 104.32 20.4922C104.451 21.5339 104.776 22.3411 105.297 22.9141C105.844 23.4609 106.417 23.8776 107.016 24.1641C107.693 24.4766 108.435 24.6589 109.242 24.7109ZM105.727 17.6797C106.56 17.7318 107.25 17.7708 107.797 17.7969C108.37 17.8229 108.839 17.849 109.203 17.875C109.594 17.901 109.906 17.9141 110.141 17.9141H111.117C111.768 17.9141 112.979 17.875 114.75 17.7969C114.672 16.651 114.424 15.7786 114.008 15.1797C113.617 14.5807 113.201 14.138 112.758 13.8516C112.237 13.5391 111.664 13.3568 111.039 13.3047C109.346 13.3307 108.083 13.6823 107.25 14.3594C106.443 15.0365 105.935 16.1432 105.727 17.6797ZM124.125 15.1797C124.255 15.0234 124.333 14.737 124.359 14.3203C124.411 13.8776 124.516 13.3828 124.672 12.8359C124.854 12.2891 125.154 11.7161 125.57 11.1172C125.987 10.5182 126.664 9.95833 127.602 9.4375C128.513 8.91667 129.398 8.60417 130.258 8.5C131.117 8.39583 131.938 8.4349 132.719 8.61719C133.5 8.79948 134.229 9.08594 134.906 9.47656C135.609 9.86719 136.247 10.2969 136.82 10.7656C137.211 11.0781 137.523 11.5339 137.758 12.1328C137.992 12.7057 138.174 13.3568 138.305 14.0859C138.435 14.8151 138.526 15.5833 138.578 16.3906C138.656 17.1719 138.708 17.9401 138.734 18.6953C138.76 19.4245 138.773 20.1016 138.773 20.7266C138.799 21.3255 138.852 21.8203 138.93 22.2109C139.034 22.7839 139.216 23.2786 139.477 23.6953C139.737 24.0859 140.023 24.4245 140.336 24.7109C140.648 24.9714 140.961 25.1797 141.273 25.3359C141.586 25.4922 141.859 25.6094 142.094 25.6875C142.25 25.7656 142.393 25.8177 142.523 25.8438C142.784 25.9479 142.966 25.9479 143.07 25.8438C142.914 26.2083 142.771 26.5208 142.641 26.7812C142.51 27.0417 142.406 27.263 142.328 27.4453C142.224 27.6536 142.133 27.8229 142.055 27.9531C141.977 28.1094 141.885 28.2526 141.781 28.3828C141.703 28.513 141.599 28.6562 141.469 28.8125C141.339 28.9688 141.208 29.138 141.078 29.3203C140.74 29.1901 140.414 29.0339 140.102 28.8516C139.815 28.6693 139.555 28.5 139.32 28.3438C139.034 28.1615 138.773 27.9792 138.539 27.7969C138.305 27.6146 138.083 27.4062 137.875 27.1719C137.693 26.9635 137.497 26.7422 137.289 26.5078C137.107 26.2734 136.951 26.013 136.82 25.7266C136.664 26.0651 136.286 26.5469 135.688 27.1719C135.115 27.7969 134.359 28.3698 133.422 28.8906C132.484 29.3854 131.391 29.737 130.141 29.9453C128.917 30.1536 127.562 30.0104 126.078 29.5156C125.427 29.3073 124.815 29.0078 124.242 28.6172C123.669 28.2005 123.174 27.7057 122.758 27.1328C122.367 26.5599 122.081 25.9089 121.898 25.1797C121.742 24.4245 121.755 23.5911 121.938 22.6797C122.12 21.7682 122.445 21 122.914 20.375C123.383 19.75 123.943 19.2422 124.594 18.8516C125.245 18.4609 125.974 18.1615 126.781 17.9531C127.589 17.7448 128.422 17.6016 129.281 17.5234C129.958 17.4974 130.635 17.5365 131.312 17.6406C131.885 17.7448 132.484 17.9401 133.109 18.2266C133.734 18.487 134.268 18.8906 134.711 19.4375C134.685 18.0573 134.633 16.9635 134.555 16.1562C134.503 15.3229 134.451 14.6849 134.398 14.2422C134.294 13.7214 134.203 13.3568 134.125 13.1484C133.995 12.9661 133.852 12.7578 133.695 12.5234C133.565 12.2891 133.396 12.0807 133.188 11.8984C132.979 11.6901 132.719 11.5208 132.406 11.3906C132.094 11.2604 131.729 11.2083 131.312 11.2344C130.87 11.2604 130.518 11.3776 130.258 11.5859C129.997 11.7943 129.789 12.0417 129.633 12.3281C129.503 12.5885 129.424 12.875 129.398 13.1875C129.372 13.5 129.385 13.7734 129.438 14.0078C129.49 14.1641 129.568 14.3333 129.672 14.5156C129.776 14.6719 129.919 14.8411 130.102 15.0234C130.284 15.2057 130.531 15.362 130.844 15.4922C130.245 15.5703 129.711 15.6354 129.242 15.6875C128.773 15.7135 128.37 15.7526 128.031 15.8047C127.641 15.8568 127.302 15.8958 127.016 15.9219C126.729 15.9479 126.391 16 126 16.0781C125.661 16.1302 125.245 16.1953 124.75 16.2734C124.255 16.3516 123.682 16.4557 123.031 16.5859C123.188 16.4036 123.331 16.2344 123.461 16.0781C123.591 15.8958 123.708 15.7396 123.812 15.6094C123.917 15.4531 124.021 15.3099 124.125 15.1797ZM129.984 19.8281C129.516 19.8542 129.047 19.9714 128.578 20.1797C128.109 20.362 127.693 20.6354 127.328 21C126.964 21.3385 126.651 21.7422 126.391 22.2109C126.156 22.6536 126.039 23.1484 126.039 23.6953C126.039 24.2422 126.169 24.724 126.43 25.1406C126.716 25.5312 127.081 25.8568 127.523 26.1172C127.992 26.3776 128.487 26.5339 129.008 26.5859C129.555 26.638 130.089 26.5859 130.609 26.4297C131.104 26.2474 131.573 25.9609 132.016 25.5703C132.458 25.1536 132.836 24.7109 133.148 24.2422C133.461 23.7474 133.682 23.2656 133.812 22.7969C133.943 22.3021 133.956 21.8984 133.852 21.5859C133.643 20.9089 133.174 20.4401 132.445 20.1797C131.716 19.8932 130.896 19.776 129.984 19.8281ZM161.859 1.07812C162.354 1.10417 162.888 1.11719 163.461 1.11719C163.956 1.11719 164.516 1.13021 165.141 1.15625C165.792 1.15625 166.469 1.13021 167.172 1.07812C166.547 1.36458 166 1.78125 165.531 2.32812C165.062 2.875 164.685 3.42188 164.398 3.96875C164.034 4.61979 163.734 5.29688 163.5 6C163.37 6.41667 163.266 7.15885 163.188 8.22656C163.109 9.26823 163.044 10.4922 162.992 11.8984C162.966 13.3047 162.953 14.7891 162.953 16.3516C162.953 17.9141 162.966 19.4115 162.992 20.8438C163.018 22.25 163.057 23.5 163.109 24.5938C163.161 25.6875 163.227 26.4557 163.305 26.8984C163.409 27.4193 163.539 27.9141 163.695 28.3828C163.826 28.7995 163.995 29.2292 164.203 29.6719C164.411 30.0885 164.672 30.4271 164.984 30.6875L161 32.4844C160.792 32.1979 160.622 31.8984 160.492 31.5859C160.362 31.2995 160.258 31.0391 160.18 30.8047C160.076 30.5182 160.01 30.2578 159.984 30.0234C159.932 29.7109 159.88 29.3724 159.828 29.0078C159.776 28.6172 159.711 28.2526 159.633 27.9141C159.581 27.5495 159.542 27.25 159.516 27.0156C159.49 26.7812 159.49 26.638 159.516 26.5859C159.542 26.5339 159.385 26.7682 159.047 27.2891C158.708 27.7839 158.201 28.3698 157.523 29.0469C156.872 29.6979 156.065 30.3359 155.102 30.9609C154.138 31.5599 153.057 31.9375 151.859 32.0938C150.635 32.25 149.503 32.0156 148.461 31.3906C147.445 30.7656 146.573 29.8932 145.844 28.7734C145.115 27.6276 144.555 26.3125 144.164 24.8281C143.799 23.3177 143.656 21.7812 143.734 20.2188C143.786 19.1771 144.021 18.2526 144.438 17.4453C144.854 16.612 145.375 15.8958 146 15.2969C146.651 14.6719 147.354 14.151 148.109 13.7344C148.891 13.2917 149.646 12.9271 150.375 12.6406C151.13 12.3542 151.833 12.1458 152.484 12.0156C153.135 11.8854 153.656 11.7943 154.047 11.7422C154.516 11.7161 155.049 11.7943 155.648 11.9766C156.169 12.1328 156.768 12.3932 157.445 12.7578C158.148 13.1224 158.93 13.6693 159.789 14.3984C159.633 11.7943 159.49 9.71094 159.359 8.14844C159.229 6.5599 159.099 5.34896 158.969 4.51562C158.839 3.52604 158.721 2.84896 158.617 2.48438C158.487 2.22396 158.318 1.96354 158.109 1.70312C157.927 1.49479 157.693 1.28646 157.406 1.07812C157.146 0.84375 156.833 0.661458 156.469 0.53125C157.146 0.661458 157.797 0.752604 158.422 0.804688C159.047 0.856771 159.62 0.908854 160.141 0.960938C160.74 1.01302 161.312 1.05208 161.859 1.07812ZM152.055 15.6484C151.56 15.8307 151.156 16.1432 150.844 16.5859C150.557 17.0286 150.323 17.5625 150.141 18.1875C149.958 18.7865 149.828 19.4375 149.75 20.1406C149.698 20.8177 149.659 21.4818 149.633 22.1328C149.633 22.7578 149.633 23.3307 149.633 23.8516C149.633 24.3724 149.633 24.763 149.633 25.0234C149.633 25.1797 149.659 25.4661 149.711 25.8828C149.789 26.2734 149.945 26.6901 150.18 27.1328C150.414 27.5495 150.74 27.9271 151.156 28.2656C151.599 28.6042 152.185 28.7734 152.914 28.7734C153.513 28.7214 154.151 28.513 154.828 28.1484C155.427 27.8359 156.104 27.3411 156.859 26.6641C157.641 25.9609 158.474 24.9583 159.359 23.6562C159.307 22.8229 159.268 22.1328 159.242 21.5859C159.242 21.0391 159.229 20.5964 159.203 20.2578C159.177 19.8672 159.164 19.5547 159.164 19.3203V18.7344C159.164 18.5781 159.164 18.4089 159.164 18.2266C159.164 18.0443 159.177 17.875 159.203 17.7188C158.474 17.1979 157.823 16.7552 157.25 16.3906C156.703 16 156.156 15.7135 155.609 15.5312C155.089 15.3229 154.542 15.2318 153.969 15.2578C153.422 15.2578 152.784 15.388 152.055 15.6484ZM164.359 11.0391C164.88 11.1172 165.349 11.1823 165.766 11.2344C166.156 11.2604 166.508 11.2865 166.82 11.3125C167.159 11.3385 167.484 11.3516 167.797 11.3516C168.083 11.3516 168.448 11.3385 168.891 11.3125C169.255 11.2865 169.724 11.2604 170.297 11.2344C170.896 11.1823 171.599 11.1172 172.406 11.0391C172.354 11.1432 172.25 11.4688 172.094 12.0156C171.938 12.5365 171.781 13.1875 171.625 13.9688C171.469 14.724 171.326 15.5703 171.195 16.5078C171.091 17.4193 171.039 18.3307 171.039 19.2422C171.065 20.1276 171.182 20.974 171.391 21.7812C171.599 22.5625 171.938 23.2005 172.406 23.6953C173.396 24.7109 174.268 25.3229 175.023 25.5312C175.805 25.7396 176.482 25.7135 177.055 25.4531C177.628 25.1927 178.096 24.8021 178.461 24.2812C178.826 23.7604 179.086 23.2786 179.242 22.8359C179.633 21.638 179.867 20.375 179.945 19.0469C179.997 17.901 179.906 16.625 179.672 15.2188C179.438 13.8125 178.878 12.3802 177.992 10.9219C178.669 10.974 179.255 11.013 179.75 11.0391C180.245 11.0651 180.674 11.0911 181.039 11.1172C181.456 11.1432 181.82 11.1693 182.133 11.1953C182.419 11.2214 182.758 11.2214 183.148 11.1953C183.487 11.1953 183.891 11.1823 184.359 11.1562C184.854 11.1042 185.401 11.0521 186 11C186.104 13.5521 186.195 15.8307 186.273 17.8359C186.352 19.8151 186.404 21.5729 186.43 23.1094C186.482 24.6198 186.508 25.9349 186.508 27.0547C186.508 28.1484 186.508 29.0729 186.508 29.8281C186.482 31.625 186.404 32.8099 186.273 33.3828C186.065 34.1901 185.688 34.9974 185.141 35.8047C184.62 36.612 183.956 37.3281 183.148 37.9531C182.341 38.6042 181.404 39.099 180.336 39.4375C179.294 39.8021 178.148 39.9323 176.898 39.8281C175.674 39.724 174.698 39.5547 173.969 39.3203C173.266 39.112 172.706 38.8646 172.289 38.5781C171.898 38.2917 171.612 37.9922 171.43 37.6797C171.273 37.3672 171.156 37.0417 171.078 36.7031C171 36.3906 170.922 36.0911 170.844 35.8047C170.766 35.5182 170.609 35.2708 170.375 35.0625C170.089 34.8281 169.789 34.5938 169.477 34.3594C169.19 34.151 168.878 33.9427 168.539 33.7344C168.227 33.526 167.914 33.3568 167.602 33.2266L175.922 32.7578C175.688 33.0703 175.518 33.3568 175.414 33.6172C175.31 33.8776 175.245 34.099 175.219 34.2812C175.193 34.5156 175.206 34.7109 175.258 34.8672C175.362 35.1797 175.544 35.5182 175.805 35.8828C176.091 36.2734 176.456 36.5729 176.898 36.7812C177.341 37.0156 177.862 37.0938 178.461 37.0156C179.086 36.9375 179.789 36.612 180.57 36.0391C181.221 35.5443 181.768 34.75 182.211 33.6562C182.576 32.7188 182.862 31.4036 183.07 29.7109C183.279 28.0182 183.24 25.7917 182.953 23.0312C182.484 24.6458 181.846 25.8828 181.039 26.7422C180.232 27.6016 179.424 28.2266 178.617 28.6172C177.68 29.0859 176.703 29.3333 175.688 29.3594C174.333 29.3073 173.174 29.138 172.211 28.8516C171.247 28.5391 170.453 28.1224 169.828 27.6016C169.203 27.0807 168.708 26.4688 168.344 25.7656C168.005 25.0365 167.758 24.2292 167.602 23.3438C167.445 22.4583 167.367 21.5729 167.367 20.6875C167.367 19.776 167.367 18.9297 167.367 18.1484C167.393 17.3672 167.406 16.6641 167.406 16.0391C167.406 15.388 167.341 14.8672 167.211 14.4766C167.055 14.0859 166.846 13.6953 166.586 13.3047C166.378 12.9661 166.091 12.6016 165.727 12.2109C165.336 11.7943 164.88 11.4036 164.359 11.0391ZM203.656 32.4062C204.177 32.0417 204.594 31.5599 204.906 30.9609C205.219 30.362 205.453 29.776 205.609 29.2031C205.792 28.526 205.909 27.8229 205.961 27.0938C205.961 26.651 205.935 25.9479 205.883 24.9844C205.831 24.1771 205.753 23.0703 205.648 21.6641C205.544 20.2318 205.388 18.3828 205.18 16.1172C204.893 16.1432 204.646 16.1693 204.438 16.1953C204.229 16.1953 204.06 16.1953 203.93 16.1953H203.5C203.37 16.1953 203.214 16.2083 203.031 16.2344C202.875 16.2604 202.667 16.2995 202.406 16.3516C202.172 16.4036 201.885 16.4688 201.547 16.5469C201.599 16.3385 201.625 16.1302 201.625 15.9219C201.651 15.6875 201.677 15.4792 201.703 15.2969C201.729 15.0885 201.742 14.8932 201.742 14.7109V14.125C201.742 13.9427 201.742 13.7474 201.742 13.5391C201.768 13.3307 201.794 13.1224 201.82 12.9141L204.906 12.9922C204.776 11.8724 204.724 10.8698 204.75 9.98438C204.776 9.07292 204.815 8.29167 204.867 7.64062C204.945 6.88542 205.049 6.22135 205.18 5.64844C205.362 4.94531 205.609 4.29427 205.922 3.69531C206.234 3.09635 206.664 2.58854 207.211 2.17188C207.758 1.75521 208.435 1.44271 209.242 1.23438C210.049 1 211.026 0.882812 212.172 0.882812C213.474 0.908854 214.503 1.07812 215.258 1.39062C216.013 1.67708 216.573 2.05469 216.938 2.52344C217.302 2.96615 217.51 3.47396 217.562 4.04688C217.615 4.61979 217.602 5.17969 217.523 5.72656C217.471 6.2474 217.38 6.72917 217.25 7.17188C217.146 7.61458 217.107 7.9401 217.133 8.14844C217.159 8.30469 217.224 8.51302 217.328 8.77344C217.406 8.98177 217.523 9.24219 217.68 9.55469C217.862 9.86719 218.122 10.2188 218.461 10.6094C218.044 10.5573 217.628 10.5182 217.211 10.4922C216.794 10.4401 216.404 10.401 216.039 10.375C215.622 10.349 215.219 10.3359 214.828 10.3359C214.438 10.362 214.034 10.388 213.617 10.4141C213.253 10.4661 212.862 10.5182 212.445 10.5703C212.029 10.5964 211.638 10.6745 211.273 10.8047C211.794 10.4401 212.198 10.0625 212.484 9.67188C212.771 9.28125 212.992 8.92969 213.148 8.61719C213.331 8.2526 213.448 7.88802 213.5 7.52344C213.526 7.08073 213.5 6.58594 213.422 6.03906C213.37 5.46615 213.253 4.94531 213.07 4.47656C212.888 4.00781 212.667 3.63021 212.406 3.34375C212.146 3.03125 211.833 2.91406 211.469 2.99219C210.922 3.20052 210.414 3.70833 209.945 4.51562C209.555 5.19271 209.177 6.22135 208.812 7.60156C208.448 8.95573 208.214 10.8438 208.109 13.2656C208.604 13.3177 209.06 13.3568 209.477 13.3828C209.919 13.3828 210.31 13.3958 210.648 13.4219C211.039 13.4479 211.404 13.4609 211.742 13.4609C212.081 13.4609 212.458 13.4479 212.875 13.4219C213.24 13.3958 213.669 13.3828 214.164 13.3828C214.659 13.3568 215.206 13.3177 215.805 13.2656L215.727 15.2969C215.258 15.349 214.802 15.388 214.359 15.4141C213.917 15.4401 213.526 15.4661 213.188 15.4922C212.797 15.5182 212.432 15.5443 212.094 15.5703C211.729 15.5964 211.352 15.6224 210.961 15.6484C210.622 15.6745 210.232 15.7135 209.789 15.7656C209.372 15.8177 208.93 15.8698 208.461 15.9219C208.826 18.8646 209.138 21.2474 209.398 23.0703C209.685 24.8672 209.932 26.2604 210.141 27.25C210.349 28.4219 210.531 29.2552 210.688 29.75C210.844 30.1667 211.026 30.5312 211.234 30.8438C211.417 31.1302 211.638 31.4036 211.898 31.6641C212.159 31.9245 212.458 32.0938 212.797 32.1719C211.964 32.0417 211.247 31.9375 210.648 31.8594C210.049 31.8073 209.542 31.7682 209.125 31.7422C208.656 31.7161 208.253 31.7031 207.914 31.7031C207.602 31.7292 207.224 31.7682 206.781 31.8203C206.026 31.8984 204.984 32.0938 203.656 32.4062ZM226.117 13.5C226.794 13.5 227.497 13.6302 228.227 13.8906C228.956 14.125 229.659 14.4375 230.336 14.8281C231.013 15.1927 231.625 15.5964 232.172 16.0391C232.745 16.4557 233.214 16.8594 233.578 17.25C234.229 17.9531 234.672 18.9036 234.906 20.1016C235.167 21.2734 235.219 22.4844 235.062 23.7344C234.906 24.9583 234.542 26.1172 233.969 27.2109C233.396 28.3047 232.602 29.112 231.586 29.6328C230.857 29.9974 230.141 30.2839 229.438 30.4922C228.734 30.7005 228.057 30.8568 227.406 30.9609C226.755 31.0651 226.143 31.1172 225.57 31.1172C224.997 31.1172 224.503 31.1042 224.086 31.0781C223.305 31.026 222.484 30.7526 221.625 30.2578C220.792 29.763 219.997 29.151 219.242 28.4219C218.513 27.6927 217.888 26.8984 217.367 26.0391C216.846 25.1536 216.534 24.3203 216.43 23.5391C216.273 22.4714 216.247 21.3516 216.352 20.1797C216.456 19.0078 216.833 17.9271 217.484 16.9375C218.161 15.9479 219.177 15.1276 220.531 14.4766C221.911 13.8255 223.773 13.5 226.117 13.5ZM224.828 28.6562C225.115 28.7083 225.505 28.6432 226 28.4609C226.495 28.2526 226.977 27.9271 227.445 27.4844C227.94 27.0417 228.37 26.4818 228.734 25.8047C229.125 25.1016 229.359 24.2552 229.438 23.2656C229.516 22.3021 229.516 21.4167 229.438 20.6094C229.385 19.8021 229.268 19.099 229.086 18.5C228.904 17.875 228.695 17.3672 228.461 16.9766C228.227 16.5859 227.979 16.3125 227.719 16.1562C227.276 15.9219 226.742 15.7396 226.117 15.6094C225.492 15.4531 224.958 15.4792 224.516 15.6875C224.307 15.7917 224.047 16.013 223.734 16.3516C223.422 16.6901 223.109 17.1198 222.797 17.6406C222.484 18.1354 222.198 18.7083 221.938 19.3594C221.703 20.0104 221.534 20.6875 221.43 21.3906C221.326 22.0938 221.299 22.849 221.352 23.6562C221.43 24.4635 221.599 25.2318 221.859 25.9609C222.12 26.6641 222.484 27.276 222.953 27.7969C223.448 28.2917 224.073 28.5781 224.828 28.6562ZM236.547 12.2891C237.042 12.3151 237.484 12.3281 237.875 12.3281C238.292 12.3021 238.643 12.276 238.93 12.25C239.268 12.224 239.568 12.1979 239.828 12.1719C240.219 12.1198 240.622 12.0547 241.039 11.9766C241.404 11.9245 241.781 11.8594 242.172 11.7812C242.589 11.6771 242.992 11.5599 243.383 11.4297C243.227 11.8203 243.096 12.1589 242.992 12.4453C242.888 12.7318 242.81 12.9792 242.758 13.1875C242.68 13.4219 242.641 13.6172 242.641 13.7734C242.615 13.9557 242.602 14.1771 242.602 14.4375C242.576 14.8802 242.576 15.5964 242.602 16.5859C243.956 15.4141 245.089 14.5026 246 13.8516C246.938 13.2005 247.68 12.6927 248.227 12.3281C248.878 11.9115 249.385 11.638 249.75 11.5078C250.714 11.3516 251.56 11.5729 252.289 12.1719C252.602 12.4323 252.901 12.7839 253.188 13.2266C253.474 13.6432 253.721 14.2031 253.93 14.9062C254.138 15.6094 254.294 16.4557 254.398 17.4453C254.503 18.4089 254.516 19.5677 254.438 20.9219C253.891 20.974 253.396 21.026 252.953 21.0781C252.536 21.1302 252.185 21.1693 251.898 21.1953C251.56 21.2474 251.247 21.2734 250.961 21.2734L249.906 21.3906C249.542 21.4427 249.086 21.4948 248.539 21.5469C248.018 21.5729 247.38 21.625 246.625 21.7031C247.719 20.8177 248.422 20.0495 248.734 19.3984C249.073 18.7214 249.216 18.1615 249.164 17.7188C249.112 17.224 248.878 16.7943 248.461 16.4297C247.966 16.1432 247.432 16.0391 246.859 16.1172C246.365 16.1693 245.792 16.3906 245.141 16.7812C244.49 17.1719 243.799 17.901 243.07 18.9688C243.122 20.6354 243.174 22.0156 243.227 23.1094C243.305 24.2031 243.37 25.0885 243.422 25.7656C243.5 26.5469 243.565 27.1589 243.617 27.6016C243.695 27.9922 243.852 28.4089 244.086 28.8516C244.268 29.2161 244.529 29.6198 244.867 30.0625C245.206 30.5052 245.648 30.9479 246.195 31.3906C245.049 31.3385 244.112 31.3385 243.383 31.3906C242.94 31.4167 242.549 31.4427 242.211 31.4688C241.846 31.5208 241.456 31.5729 241.039 31.625C240.674 31.6771 240.245 31.7292 239.75 31.7812C239.281 31.8594 238.76 31.9375 238.188 32.0156C238.396 31.7292 238.565 31.3906 238.695 31C238.826 30.6354 238.93 30.2839 239.008 29.9453C239.112 29.5547 239.19 29.151 239.242 28.7344C239.268 28.3698 239.281 27.8229 239.281 27.0938C239.307 26.3646 239.294 25.5443 239.242 24.6328C239.216 23.6953 239.177 22.7318 239.125 21.7422C239.073 20.7266 239.008 19.776 238.93 18.8906C238.852 18.0052 238.76 17.237 238.656 16.5859C238.578 15.9089 238.487 15.4401 238.383 15.1797C238.253 14.8672 238.096 14.5547 237.914 14.2422C237.758 13.9557 237.562 13.6562 237.328 13.3438C237.094 13.0052 236.833 12.6536 236.547 12.2891ZM268.422 6.39062C269.203 6.46875 269.854 6.53385 270.375 6.58594C270.922 6.63802 271.365 6.67708 271.703 6.70312C272.094 6.72917 272.406 6.74219 272.641 6.74219C272.875 6.76823 273.188 6.76823 273.578 6.74219C273.917 6.71615 274.359 6.6901 274.906 6.66406C275.453 6.61198 276.143 6.53385 276.977 6.42969C276.794 6.6901 276.651 6.92448 276.547 7.13281C276.443 7.3151 276.352 7.48438 276.273 7.64062L276.039 8.10938C275.987 8.26562 275.935 8.42188 275.883 8.57812C275.831 8.70833 275.779 8.86458 275.727 9.04688C275.701 9.22917 275.674 9.42448 275.648 9.63281H281.664L281.117 12.7969L275.609 12.4844C275.479 13.8125 275.388 14.8411 275.336 15.5703C275.284 16.2995 275.232 16.8333 275.18 17.1719L275.102 17.875C275.023 18.8646 274.945 19.9453 274.867 21.1172C274.789 22.263 274.763 23.3307 274.789 24.3203C274.815 25.3099 274.906 26.1432 275.062 26.8203C275.219 27.4714 275.492 27.7969 275.883 27.7969C276.273 27.7969 276.638 27.6927 276.977 27.4844C277.315 27.276 277.602 27.0286 277.836 26.7422C278.096 26.4557 278.292 26.1693 278.422 25.8828C278.552 25.5703 278.617 25.3359 278.617 25.1797C278.617 25.0234 278.578 24.8411 278.5 24.6328C278.37 24.2422 278.135 23.7474 277.797 23.1484C278.552 23.3307 279.216 23.513 279.789 23.6953C280.076 23.7995 280.336 23.9036 280.57 24.0078C280.831 24.112 281.13 24.2292 281.469 24.3594C281.755 24.4896 282.12 24.6458 282.562 24.8281C283.005 25.0104 283.526 25.2318 284.125 25.4922C283.552 25.5964 283.135 25.7656 282.875 26C282.719 26.1042 282.602 26.2214 282.523 26.3516C282.341 26.638 282.133 27.0286 281.898 27.5234C281.664 27.9922 281.312 28.4609 280.844 28.9297C280.375 29.3984 279.737 29.8151 278.93 30.1797C278.148 30.5443 277.094 30.7526 275.766 30.8047C274.385 30.8568 273.331 30.6224 272.602 30.1016C271.898 29.5807 271.378 28.9818 271.039 28.3047C270.727 27.6016 270.544 26.9115 270.492 26.2344C270.44 25.5573 270.401 25.1016 270.375 24.8672C270.349 24.6328 270.349 24.0469 270.375 23.1094C270.401 22.1719 270.44 21.1432 270.492 20.0234C270.544 18.8776 270.596 17.7839 270.648 16.7422C270.701 15.6745 270.727 14.8932 270.727 14.3984C270.727 14.138 270.74 13.8646 270.766 13.5781C270.766 13.3438 270.766 13.0964 270.766 12.8359C270.792 12.5495 270.805 12.276 270.805 12.0156L265.141 11.9766L264.906 9.75L270.609 9.90625C270.557 9.61979 270.492 9.35938 270.414 9.125C270.362 8.86458 270.31 8.65625 270.258 8.5C270.18 8.31771 270.102 8.16146 270.023 8.03125C269.919 7.90104 269.802 7.75781 269.672 7.60156C269.542 7.47135 269.372 7.30208 269.164 7.09375C268.956 6.88542 268.708 6.65104 268.422 6.39062ZM282.328 1.39062C282.927 1.49479 283.474 1.57292 283.969 1.625C284.464 1.65104 284.88 1.67708 285.219 1.70312C285.609 1.72917 285.948 1.74219 286.234 1.74219C286.625 1.71615 287.081 1.67708 287.602 1.625C288.044 1.57292 288.578 1.50781 289.203 1.42969C289.854 1.35156 290.596 1.2474 291.43 1.11719C291.039 1.32552 290.714 1.53385 290.453 1.74219C290.193 1.92448 289.984 2.11979 289.828 2.32812C289.646 2.5625 289.503 2.78385 289.398 2.99219C289.268 3.33073 289.125 4.03385 288.969 5.10156C288.812 6.01302 288.617 7.36719 288.383 9.16406C288.174 10.9609 287.901 13.3958 287.562 16.4688C288.5 15.5312 289.385 14.8281 290.219 14.3594C291.078 13.8646 291.833 13.513 292.484 13.3047C293.24 13.0703 293.943 12.9531 294.594 12.9531C295.401 13.0312 296.221 13.2917 297.055 13.7344C297.914 14.151 298.708 14.6458 299.438 15.2188C300.193 15.7917 300.844 16.4036 301.391 17.0547C301.964 17.7057 302.367 18.2786 302.602 18.7734C302.758 19.112 302.836 19.5547 302.836 20.1016C302.836 20.6224 302.784 21.1953 302.68 21.8203C302.576 22.4453 302.432 23.0833 302.25 23.7344C302.068 24.3854 301.885 24.9974 301.703 25.5703C301.547 26.1432 301.404 26.651 301.273 27.0938C301.143 27.5104 301.065 27.8099 301.039 27.9922C300.987 28.3828 301.013 28.7604 301.117 29.125C301.195 29.4375 301.352 29.776 301.586 30.1406C301.82 30.4792 302.172 30.7656 302.641 31C302.276 30.9479 301.885 30.9089 301.469 30.8828C301.078 30.8307 300.701 30.7917 300.336 30.7656C299.919 30.7396 299.503 30.7266 299.086 30.7266H297.68C297.237 30.7266 296.729 30.7396 296.156 30.7656C295.583 30.7656 294.958 30.7786 294.281 30.8047C294.646 30.6745 294.958 30.5052 295.219 30.2969C295.479 30.0625 295.701 29.8411 295.883 29.6328C296.091 29.3984 296.273 29.151 296.43 28.8906C296.534 28.6823 296.664 28.2917 296.82 27.7188C296.977 27.1198 297.12 26.4427 297.25 25.6875C297.38 24.9062 297.471 24.0859 297.523 23.2266C297.602 22.3672 297.615 21.5469 297.562 20.7656C297.536 19.9583 297.419 19.2422 297.211 18.6172C297.029 17.9922 296.742 17.5365 296.352 17.25C295.18 16.3646 294.112 15.9349 293.148 15.9609C292.211 15.9609 291.312 16.3385 290.453 17.0938C290.141 17.3802 289.841 17.6667 289.555 17.9531C289.294 18.2135 289.008 18.526 288.695 18.8906C288.383 19.2292 288.096 19.5807 287.836 19.9453C287.836 20.3359 287.849 20.7656 287.875 21.2344C287.901 21.7031 287.927 22.1589 287.953 22.6016C287.979 23.0964 288.018 23.5911 288.07 24.0859C288.122 24.8411 288.201 25.5833 288.305 26.3125C288.383 26.9375 288.487 27.6276 288.617 28.3828C288.747 29.112 288.917 29.776 289.125 30.375C288.786 30.3229 288.435 30.3099 288.07 30.3359C287.706 30.3359 287.354 30.3359 287.016 30.3359C286.625 30.362 286.247 30.375 285.883 30.375C285.544 30.401 285.193 30.4401 284.828 30.4922C284.516 30.5443 284.177 30.5964 283.812 30.6484C283.448 30.6745 283.096 30.7266 282.758 30.8047C283.07 30.2057 283.331 29.6198 283.539 29.0469C283.747 28.4479 283.917 27.9271 284.047 27.4844C284.203 26.9635 284.333 26.4557 284.438 25.9609C284.516 25.5703 284.568 24.8281 284.594 23.7344C284.646 22.6146 284.685 21.3385 284.711 19.9062C284.737 18.4479 284.75 16.9115 284.75 15.2969C284.75 13.6823 284.737 12.1458 284.711 10.6875C284.685 9.22917 284.633 7.95312 284.555 6.85938C284.503 5.76562 284.438 5.01042 284.359 4.59375C284.255 4.17708 284.112 3.76042 283.93 3.34375C283.773 2.97917 283.565 2.6276 283.305 2.28906C283.044 1.92448 282.719 1.625 282.328 1.39062ZM314.945 24.7109C315.674 24.7109 316.352 24.6328 316.977 24.4766C317.497 24.3464 317.992 24.138 318.461 23.8516C318.956 23.5391 319.281 23.0833 319.438 22.4844C319.958 22.5885 320.401 22.6797 320.766 22.7578C321.13 22.8099 321.443 22.862 321.703 22.9141C321.99 22.9922 322.237 23.0443 322.445 23.0703C322.654 23.1224 322.901 23.1745 323.188 23.2266C323.448 23.2786 323.76 23.3438 324.125 23.4219C324.516 23.474 324.971 23.5521 325.492 23.6562C325.102 23.6042 324.698 23.6432 324.281 23.7734C323.891 23.9036 323.513 24.0469 323.148 24.2031C322.732 24.3854 322.341 24.6068 321.977 24.8672C321.742 25.0234 321.469 25.2578 321.156 25.5703C320.87 25.8828 320.453 26.1823 319.906 26.4688C319.359 26.7552 318.63 27.0026 317.719 27.2109C316.833 27.3932 315.688 27.4583 314.281 27.4062C312.589 27.3542 311.169 27.0547 310.023 26.5078C308.878 25.9349 307.953 25.2448 307.25 24.4375C306.547 23.6042 306.039 22.7057 305.727 21.7422C305.414 20.7786 305.245 19.8802 305.219 19.0469C305.193 18.2135 305.44 17.3411 305.961 16.4297C306.482 15.5182 307.211 14.6849 308.148 13.9297C309.112 13.1745 310.271 12.5625 311.625 12.0938C312.979 11.599 314.464 11.3516 316.078 11.3516C317.016 11.3516 317.875 11.4688 318.656 11.7031C319.464 11.9115 320.193 12.1979 320.844 12.5625C321.521 12.9271 322.107 13.3438 322.602 13.8125C323.096 14.2552 323.513 14.7109 323.852 15.1797C324.19 15.6745 324.477 16.1953 324.711 16.7422C324.919 17.2109 325.089 17.7448 325.219 18.3438C325.349 18.9427 325.388 19.5547 325.336 20.1797C323.357 20.2318 321.755 20.2708 320.531 20.2969C319.333 20.3229 318.396 20.3359 317.719 20.3359H315.961H314.633C314.164 20.3359 313.552 20.349 312.797 20.375C312.042 20.401 311.117 20.4401 310.023 20.4922C310.154 21.5339 310.479 22.3411 311 22.9141C311.547 23.4609 312.12 23.8776 312.719 24.1641C313.396 24.4766 314.138 24.6589 314.945 24.7109ZM311.43 17.6797C312.263 17.7318 312.953 17.7708 313.5 17.7969C314.073 17.8229 314.542 17.849 314.906 17.875C315.297 17.901 315.609 17.9141 315.844 17.9141H316.82C317.471 17.9141 318.682 17.875 320.453 17.7969C320.375 16.651 320.128 15.7786 319.711 15.1797C319.32 14.5807 318.904 14.138 318.461 13.8516C317.94 13.5391 317.367 13.3568 316.742 13.3047C315.049 13.3307 313.786 13.6823 312.953 14.3594C312.146 15.0365 311.638 16.1432 311.43 17.6797ZM345.453 4.55469C346.755 4.63281 347.849 4.69792 348.734 4.75C349.646 4.77604 350.401 4.80208 351 4.82812C351.677 4.85417 352.25 4.85417 352.719 4.82812C353.188 4.80208 353.826 4.73698 354.633 4.63281C355.31 4.55469 356.208 4.4375 357.328 4.28125C358.474 4.09896 359.893 3.86458 361.586 3.57812C360.987 4.17708 360.518 4.72396 360.18 5.21875C359.867 5.6875 359.62 6.09115 359.438 6.42969C359.229 6.84635 359.086 7.19792 359.008 7.48438C358.956 7.74479 359.008 8.39583 359.164 9.4375C359.32 10.4792 359.542 11.7161 359.828 13.1484C360.115 14.5547 360.427 16.0651 360.766 17.6797C361.104 19.2682 361.443 20.7656 361.781 22.1719C362.12 23.5521 362.419 24.737 362.68 25.7266C362.966 26.6901 363.174 27.263 363.305 27.4453C363.695 27.9922 363.943 28.3568 364.047 28.5391C364.151 28.6953 364.333 28.8385 364.594 28.9688C364.698 29.0208 364.867 29.099 365.102 29.2031C365.31 29.3073 365.583 29.4375 365.922 29.5938C366.286 29.75 366.742 29.9323 367.289 30.1406C366.273 30.1927 365.401 30.2318 364.672 30.2578C363.943 30.2578 363.344 30.2708 362.875 30.2969C362.328 30.3229 361.859 30.349 361.469 30.375C361.078 30.375 360.609 30.401 360.062 30.4531C359.594 30.5052 358.982 30.5573 358.227 30.6094C357.497 30.6615 356.638 30.7135 355.648 30.7656C356.169 30.401 356.586 30.0755 356.898 29.7891C357.237 29.4766 357.497 29.2161 357.68 29.0078C357.888 28.7474 358.031 28.513 358.109 28.3047C358.161 28.0703 358.201 27.7188 358.227 27.25C358.253 26.8333 358.253 26.2865 358.227 25.6094C358.201 24.9062 358.135 23.9948 358.031 22.875L347.758 23.9297C347.497 24.3724 347.302 24.763 347.172 25.1016C347.042 25.4141 346.951 25.6875 346.898 25.9219C346.82 26.2083 346.794 26.4427 346.82 26.625C346.872 26.8333 346.964 27.0807 347.094 27.3672C347.224 27.6276 347.406 27.9401 347.641 28.3047C347.901 28.6432 348.279 29.0469 348.773 29.5156C348.122 29.4896 347.458 29.4766 346.781 29.4766C346.104 29.4766 345.479 29.4896 344.906 29.5156C344.229 29.5417 343.565 29.5677 342.914 29.5938C342.263 29.6198 341.521 29.6589 340.688 29.7109C339.984 29.763 339.164 29.8281 338.227 29.9062C337.263 29.9583 336.234 30.0365 335.141 30.1406C335.818 29.8281 336.391 29.5156 336.859 29.2031C337.328 28.8646 337.719 28.5521 338.031 28.2656C338.396 27.9531 338.708 27.6536 338.969 27.3672C339.151 27.1068 339.516 26.5078 340.062 25.5703C340.609 24.6068 341.221 23.474 341.898 22.1719C342.602 20.8698 343.331 19.4766 344.086 17.9922C344.867 16.5078 345.57 15.1146 346.195 13.8125C346.82 12.4844 347.328 11.3385 347.719 10.375C348.109 9.41146 348.305 8.78646 348.305 8.5C348.253 8.16146 348.122 7.78385 347.914 7.36719C347.732 7.0026 347.445 6.58594 347.055 6.11719C346.69 5.64844 346.156 5.1276 345.453 4.55469ZM357.562 19.9844C357.406 19.0729 357.263 18.2917 357.133 17.6406C357.003 16.9635 356.898 16.4036 356.82 15.9609C356.716 15.4401 356.638 14.9844 356.586 14.5938C356.508 14.2292 356.417 13.7604 356.312 13.1875C356.208 12.6927 356.078 12.0807 355.922 11.3516C355.792 10.5964 355.622 9.69792 355.414 8.65625C353.93 11.625 352.771 13.9297 351.938 15.5703C351.13 17.1849 350.544 18.3698 350.18 19.125C349.737 20.0104 349.49 20.5312 349.438 20.6875L357.562 19.9844ZM384.242 1.07812C384.737 1.10417 385.271 1.11719 385.844 1.11719C386.339 1.11719 386.898 1.13021 387.523 1.15625C388.174 1.15625 388.852 1.13021 389.555 1.07812C388.93 1.36458 388.383 1.78125 387.914 2.32812C387.445 2.875 387.068 3.42188 386.781 3.96875C386.417 4.61979 386.117 5.29688 385.883 6C385.753 6.41667 385.648 7.15885 385.57 8.22656C385.492 9.26823 385.427 10.4922 385.375 11.8984C385.349 13.3047 385.336 14.7891 385.336 16.3516C385.336 17.9141 385.349 19.4115 385.375 20.8438C385.401 22.25 385.44 23.5 385.492 24.5938C385.544 25.6875 385.609 26.4557 385.688 26.8984C385.792 27.4193 385.922 27.9141 386.078 28.3828C386.208 28.7995 386.378 29.2292 386.586 29.6719C386.794 30.0885 387.055 30.4271 387.367 30.6875L383.383 32.4844C383.174 32.1979 383.005 31.8984 382.875 31.5859C382.745 31.2995 382.641 31.0391 382.562 30.8047C382.458 30.5182 382.393 30.2578 382.367 30.0234C382.315 29.7109 382.263 29.3724 382.211 29.0078C382.159 28.6172 382.094 28.2526 382.016 27.9141C381.964 27.5495 381.924 27.25 381.898 27.0156C381.872 26.7812 381.872 26.638 381.898 26.5859C381.924 26.5339 381.768 26.7682 381.43 27.2891C381.091 27.7839 380.583 28.3698 379.906 29.0469C379.255 29.6979 378.448 30.3359 377.484 30.9609C376.521 31.5599 375.44 31.9375 374.242 32.0938C373.018 32.25 371.885 32.0156 370.844 31.3906C369.828 30.7656 368.956 29.8932 368.227 28.7734C367.497 27.6276 366.938 26.3125 366.547 24.8281C366.182 23.3177 366.039 21.7812 366.117 20.2188C366.169 19.1771 366.404 18.2526 366.82 17.4453C367.237 16.612 367.758 15.8958 368.383 15.2969C369.034 14.6719 369.737 14.151 370.492 13.7344C371.273 13.2917 372.029 12.9271 372.758 12.6406C373.513 12.3542 374.216 12.1458 374.867 12.0156C375.518 11.8854 376.039 11.7943 376.43 11.7422C376.898 11.7161 377.432 11.7943 378.031 11.9766C378.552 12.1328 379.151 12.3932 379.828 12.7578C380.531 13.1224 381.312 13.6693 382.172 14.3984C382.016 11.7943 381.872 9.71094 381.742 8.14844C381.612 6.5599 381.482 5.34896 381.352 4.51562C381.221 3.52604 381.104 2.84896 381 2.48438C380.87 2.22396 380.701 1.96354 380.492 1.70312C380.31 1.49479 380.076 1.28646 379.789 1.07812C379.529 0.84375 379.216 0.661458 378.852 0.53125C379.529 0.661458 380.18 0.752604 380.805 0.804688C381.43 0.856771 382.003 0.908854 382.523 0.960938C383.122 1.01302 383.695 1.05208 384.242 1.07812ZM374.438 15.6484C373.943 15.8307 373.539 16.1432 373.227 16.5859C372.94 17.0286 372.706 17.5625 372.523 18.1875C372.341 18.7865 372.211 19.4375 372.133 20.1406C372.081 20.8177 372.042 21.4818 372.016 22.1328C372.016 22.7578 372.016 23.3307 372.016 23.8516C372.016 24.3724 372.016 24.763 372.016 25.0234C372.016 25.1797 372.042 25.4661 372.094 25.8828C372.172 26.2734 372.328 26.6901 372.562 27.1328C372.797 27.5495 373.122 27.9271 373.539 28.2656C373.982 28.6042 374.568 28.7734 375.297 28.7734C375.896 28.7214 376.534 28.513 377.211 28.1484C377.81 27.8359 378.487 27.3411 379.242 26.6641C380.023 25.9609 380.857 24.9583 381.742 23.6562C381.69 22.8229 381.651 22.1328 381.625 21.5859C381.625 21.0391 381.612 20.5964 381.586 20.2578C381.56 19.8672 381.547 19.5547 381.547 19.3203V18.7344C381.547 18.5781 381.547 18.4089 381.547 18.2266C381.547 18.0443 381.56 17.875 381.586 17.7188C380.857 17.1979 380.206 16.7552 379.633 16.3906C379.086 16 378.539 15.7135 377.992 15.5312C377.471 15.3229 376.924 15.2318 376.352 15.2578C375.805 15.2578 375.167 15.388 374.438 15.6484ZM386.156 9.47656C386.599 9.55469 387.055 9.61979 387.523 9.67188C387.966 9.69792 388.37 9.72396 388.734 9.75C389.151 9.77604 389.555 9.78906 389.945 9.78906C390.336 9.78906 390.779 9.77604 391.273 9.75C391.69 9.72396 392.185 9.6849 392.758 9.63281C393.357 9.58073 394.008 9.5026 394.711 9.39844C394.294 9.63281 393.969 9.88021 393.734 10.1406C393.5 10.401 393.318 10.6354 393.188 10.8438C393.031 11.1042 392.927 11.3385 392.875 11.5469C392.823 11.7552 392.836 12.1849 392.914 12.8359C392.992 13.487 393.096 14.2422 393.227 15.1016C393.383 15.9609 393.552 16.8594 393.734 17.7969C393.917 18.7344 394.099 19.5938 394.281 20.375C394.49 21.1562 394.672 21.8073 394.828 22.3281C395.01 22.849 395.154 23.0964 395.258 23.0703C395.362 23.0703 395.518 22.8099 395.727 22.2891C395.961 21.7682 396.221 21.1302 396.508 20.375C396.794 19.5938 397.094 18.7474 397.406 17.8359C397.719 16.8984 397.992 16.026 398.227 15.2188C398.461 14.4115 398.643 13.7344 398.773 13.1875C398.93 12.6146 398.995 12.276 398.969 12.1719C398.891 12.0677 398.799 11.9245 398.695 11.7422C398.513 11.4557 398.109 10.9609 397.484 10.2578C398.24 10.3099 398.891 10.362 399.438 10.4141C399.984 10.4401 400.427 10.4792 400.766 10.5312C401.156 10.5833 401.469 10.6224 401.703 10.6484C401.938 10.6745 402.276 10.6745 402.719 10.6484C403.083 10.6484 403.565 10.6354 404.164 10.6094C404.789 10.5573 405.557 10.4792 406.469 10.375C405.792 10.7656 405.232 11.1172 404.789 11.4297C404.372 11.7161 404.047 11.9635 403.812 12.1719C403.526 12.4323 403.318 12.6536 403.188 12.8359C403.005 13.1745 402.68 13.9818 402.211 15.2578C402.003 15.8047 401.742 16.4818 401.43 17.2891C401.143 18.0964 400.792 19.0729 400.375 20.2188C399.984 21.3385 399.516 22.6536 398.969 24.1641C398.422 25.6745 397.81 27.4062 397.133 29.3594L393.344 29.75C392.849 28.1094 392.445 26.7422 392.133 25.6484C391.846 24.5286 391.612 23.6302 391.43 22.9531C391.221 22.1719 391.065 21.5599 390.961 21.1172C390.831 20.6224 390.674 19.9062 390.492 18.9688C390.31 18.0052 390.128 17.0286 389.945 16.0391C389.763 15.0495 389.581 14.1641 389.398 13.3828C389.216 12.5755 389.073 12.0807 388.969 11.8984C388.865 11.7682 388.682 11.5859 388.422 11.3516C388.214 11.1432 387.927 10.8958 387.562 10.6094C387.198 10.2969 386.729 9.91927 386.156 9.47656ZM414.633 24.7109C415.362 24.7109 416.039 24.6328 416.664 24.4766C417.185 24.3464 417.68 24.138 418.148 23.8516C418.643 23.5391 418.969 23.0833 419.125 22.4844C419.646 22.5885 420.089 22.6797 420.453 22.7578C420.818 22.8099 421.13 22.862 421.391 22.9141C421.677 22.9922 421.924 23.0443 422.133 23.0703C422.341 23.1224 422.589 23.1745 422.875 23.2266C423.135 23.2786 423.448 23.3438 423.812 23.4219C424.203 23.474 424.659 23.5521 425.18 23.6562C424.789 23.6042 424.385 23.6432 423.969 23.7734C423.578 23.9036 423.201 24.0469 422.836 24.2031C422.419 24.3854 422.029 24.6068 421.664 24.8672C421.43 25.0234 421.156 25.2578 420.844 25.5703C420.557 25.8828 420.141 26.1823 419.594 26.4688C419.047 26.7552 418.318 27.0026 417.406 27.2109C416.521 27.3932 415.375 27.4583 413.969 27.4062C412.276 27.3542 410.857 27.0547 409.711 26.5078C408.565 25.9349 407.641 25.2448 406.938 24.4375C406.234 23.6042 405.727 22.7057 405.414 21.7422C405.102 20.7786 404.932 19.8802 404.906 19.0469C404.88 18.2135 405.128 17.3411 405.648 16.4297C406.169 15.5182 406.898 14.6849 407.836 13.9297C408.799 13.1745 409.958 12.5625 411.312 12.0938C412.667 11.599 414.151 11.3516 415.766 11.3516C416.703 11.3516 417.562 11.4688 418.344 11.7031C419.151 11.9115 419.88 12.1979 420.531 12.5625C421.208 12.9271 421.794 13.3438 422.289 13.8125C422.784 14.2552 423.201 14.7109 423.539 15.1797C423.878 15.6745 424.164 16.1953 424.398 16.7422C424.607 17.2109 424.776 17.7448 424.906 18.3438C425.036 18.9427 425.076 19.5547 425.023 20.1797C423.044 20.2318 421.443 20.2708 420.219 20.2969C419.021 20.3229 418.083 20.3359 417.406 20.3359H415.648H414.32C413.852 20.3359 413.24 20.349 412.484 20.375C411.729 20.401 410.805 20.4401 409.711 20.4922C409.841 21.5339 410.167 22.3411 410.688 22.9141C411.234 23.4609 411.807 23.8776 412.406 24.1641C413.083 24.4766 413.826 24.6589 414.633 24.7109ZM411.117 17.6797C411.951 17.7318 412.641 17.7708 413.188 17.7969C413.76 17.8229 414.229 17.849 414.594 17.875C414.984 17.901 415.297 17.9141 415.531 17.9141H416.508C417.159 17.9141 418.37 17.875 420.141 17.7969C420.062 16.651 419.815 15.7786 419.398 15.1797C419.008 14.5807 418.591 14.138 418.148 13.8516C417.628 13.5391 417.055 13.3568 416.43 13.3047C414.737 13.3307 413.474 13.6823 412.641 14.3594C411.833 15.0365 411.326 16.1432 411.117 17.6797ZM427.797 26.7031C427.979 25.8438 428.109 25.0885 428.188 24.4375C428.292 23.7604 428.37 23.2005 428.422 22.7578C428.474 22.237 428.5 21.7943 428.5 21.4297C428.474 20.987 428.448 20.4661 428.422 19.8672C428.422 19.2422 428.396 18.6302 428.344 18.0312C428.318 17.4062 428.279 16.8594 428.227 16.3906C428.174 15.8958 428.109 15.5443 428.031 15.3359C427.927 15.1276 427.784 14.9062 427.602 14.6719C427.237 14.2292 426.703 13.7995 426 13.3828C426.599 13.2526 427.107 13.1484 427.523 13.0703C427.966 12.9661 428.331 12.875 428.617 12.7969C428.93 12.6927 429.203 12.6016 429.438 12.5234C429.646 12.4453 429.893 12.3672 430.18 12.2891C430.414 12.237 430.701 12.1719 431.039 12.0938C431.378 12.0156 431.768 11.9245 432.211 11.8203L432.094 15.375C432.927 14.3854 433.773 13.6432 434.633 13.1484C435.492 12.6536 436.299 12.3021 437.055 12.0938C437.914 11.8333 438.76 11.7031 439.594 11.7031C440.635 11.7552 441.599 11.9245 442.484 12.2109C443.396 12.4974 444.177 12.8359 444.828 13.2266C445.505 13.5911 446.052 13.9818 446.469 14.3984C446.885 14.8151 447.133 15.1797 447.211 15.4922C447.523 16.5078 447.602 17.4453 447.445 18.3047C447.289 19.138 447.081 19.9583 446.82 20.7656C446.586 21.5469 446.378 22.3281 446.195 23.1094C446.039 23.8906 446.104 24.737 446.391 25.6484C446.495 25.8828 446.599 26.1172 446.703 26.3516C446.807 26.5599 446.938 26.7682 447.094 26.9766C447.25 27.1849 447.432 27.3542 447.641 27.4844C447.354 27.4583 447.068 27.4453 446.781 27.4453C446.495 27.4193 446.234 27.3932 446 27.3672C445.714 27.3411 445.453 27.3151 445.219 27.2891C444.958 27.263 444.607 27.25 444.164 27.25C443.409 27.25 442.237 27.2891 440.648 27.3672C440.883 26.8203 441.065 26.3646 441.195 26C441.352 25.6094 441.482 25.2969 441.586 25.0625C441.69 24.776 441.768 24.5547 441.82 24.3984C442.133 23.6432 442.315 22.7839 442.367 21.8203C442.445 20.8568 442.38 19.8802 442.172 18.8906C442.094 18.5521 441.964 18.1484 441.781 17.6797C441.599 17.2109 441.352 16.7552 441.039 16.3125C440.753 15.8698 440.401 15.4922 439.984 15.1797C439.594 14.8672 439.138 14.6849 438.617 14.6328C438.096 14.5807 437.51 14.7109 436.859 15.0234C436.234 15.3359 435.557 15.9089 434.828 16.7422C434.281 17.4453 433.852 18.3047 433.539 19.3203C433.253 20.1797 433.057 21.2604 432.953 22.5625C432.849 23.8385 433.005 25.3359 433.422 27.0547C433.057 27.0026 432.719 26.9766 432.406 26.9766C432.094 26.9505 431.833 26.9245 431.625 26.8984C431.365 26.8724 431.13 26.8464 430.922 26.8203C430.688 26.8203 430.427 26.8073 430.141 26.7812C429.88 26.7812 429.555 26.7812 429.164 26.7812C428.773 26.7552 428.318 26.7292 427.797 26.7031ZM449.555 6.39062C450.336 6.46875 450.987 6.53385 451.508 6.58594C452.055 6.63802 452.497 6.67708 452.836 6.70312C453.227 6.72917 453.539 6.74219 453.773 6.74219C454.008 6.76823 454.32 6.76823 454.711 6.74219C455.049 6.71615 455.492 6.6901 456.039 6.66406C456.586 6.61198 457.276 6.53385 458.109 6.42969C457.927 6.6901 457.784 6.92448 457.68 7.13281C457.576 7.3151 457.484 7.48438 457.406 7.64062L457.172 8.10938C457.12 8.26562 457.068 8.42188 457.016 8.57812C456.964 8.70833 456.911 8.86458 456.859 9.04688C456.833 9.22917 456.807 9.42448 456.781 9.63281H462.797L462.25 12.7969L456.742 12.4844C456.612 13.8125 456.521 14.8411 456.469 15.5703C456.417 16.2995 456.365 16.8333 456.312 17.1719L456.234 17.875C456.156 18.8646 456.078 19.9453 456 21.1172C455.922 22.263 455.896 23.3307 455.922 24.3203C455.948 25.3099 456.039 26.1432 456.195 26.8203C456.352 27.4714 456.625 27.7969 457.016 27.7969C457.406 27.7969 457.771 27.6927 458.109 27.4844C458.448 27.276 458.734 27.0286 458.969 26.7422C459.229 26.4557 459.424 26.1693 459.555 25.8828C459.685 25.5703 459.75 25.3359 459.75 25.1797C459.75 25.0234 459.711 24.8411 459.633 24.6328C459.503 24.2422 459.268 23.7474 458.93 23.1484C459.685 23.3307 460.349 23.513 460.922 23.6953C461.208 23.7995 461.469 23.9036 461.703 24.0078C461.964 24.112 462.263 24.2292 462.602 24.3594C462.888 24.4896 463.253 24.6458 463.695 24.8281C464.138 25.0104 464.659 25.2318 465.258 25.4922C464.685 25.5964 464.268 25.7656 464.008 26C463.852 26.1042 463.734 26.2214 463.656 26.3516C463.474 26.638 463.266 27.0286 463.031 27.5234C462.797 27.9922 462.445 28.4609 461.977 28.9297C461.508 29.3984 460.87 29.8151 460.062 30.1797C459.281 30.5443 458.227 30.7526 456.898 30.8047C455.518 30.8568 454.464 30.6224 453.734 30.1016C453.031 29.5807 452.51 28.9818 452.172 28.3047C451.859 27.6016 451.677 26.9115 451.625 26.2344C451.573 25.5573 451.534 25.1016 451.508 24.8672C451.482 24.6328 451.482 24.0469 451.508 23.1094C451.534 22.1719 451.573 21.1432 451.625 20.0234C451.677 18.8776 451.729 17.7839 451.781 16.7422C451.833 15.6745 451.859 14.8932 451.859 14.3984C451.859 14.138 451.872 13.8646 451.898 13.5781C451.898 13.3438 451.898 13.0964 451.898 12.8359C451.924 12.5495 451.938 12.276 451.938 12.0156L446.273 11.9766L446.039 9.75L451.742 9.90625C451.69 9.61979 451.625 9.35938 451.547 9.125C451.495 8.86458 451.443 8.65625 451.391 8.5C451.312 8.31771 451.234 8.16146 451.156 8.03125C451.052 7.90104 450.935 7.75781 450.805 7.60156C450.674 7.47135 450.505 7.30208 450.297 7.09375C450.089 6.88542 449.841 6.65104 449.555 6.39062ZM463.852 13.0312C464.529 13.1615 465.115 13.2656 465.609 13.3438C466.13 13.3958 466.573 13.4479 466.938 13.5C467.354 13.5521 467.719 13.5911 468.031 13.6172C468.344 13.6432 468.708 13.6693 469.125 13.6953C469.828 13.7214 470.818 13.7214 472.094 13.6953C471.339 13.6432 470.74 13.8385 470.297 14.2812C469.88 14.6979 469.568 15.1797 469.359 15.7266C469.099 16.3776 468.956 17.1328 468.93 17.9922C468.878 19.138 468.904 20.1797 469.008 21.1172C469.138 22.0286 469.359 22.8099 469.672 23.4609C470.01 24.0859 470.453 24.5547 471 24.8672C471.547 25.1536 472.25 25.2318 473.109 25.1016C473.969 24.9714 474.62 24.6719 475.062 24.2031C475.531 23.7083 475.87 23.1094 476.078 22.4062C476.286 21.6771 476.404 20.8568 476.43 19.9453C476.482 19.0339 476.521 18.0833 476.547 17.0938C476.547 16.1042 476.534 15.401 476.508 14.9844C476.508 14.5417 476.495 14.2552 476.469 14.125C476.443 13.9948 476.404 13.9427 476.352 13.9688C476.299 13.9688 476.234 13.9036 476.156 13.7734C476.104 13.6693 476.026 13.5651 475.922 13.4609C475.844 13.3568 475.74 13.2396 475.609 13.1094C475.479 12.9531 475.336 12.7969 475.18 12.6406C475.857 12.6667 476.456 12.6927 476.977 12.7188C477.523 12.7188 477.979 12.7318 478.344 12.7578C478.76 12.7839 479.125 12.8099 479.438 12.8359C479.724 12.862 480.102 12.901 480.57 12.9531C480.961 13.0052 481.469 13.0573 482.094 13.1094C482.719 13.1615 483.461 13.2396 484.32 13.3438C483.721 13.474 483.24 13.6693 482.875 13.9297C482.51 14.1901 482.224 14.4505 482.016 14.7109C481.781 14.9974 481.612 15.3099 481.508 15.6484C481.43 16.0911 481.43 16.7682 481.508 17.6797C481.56 18.487 481.69 19.5938 481.898 21C482.107 22.4062 482.432 24.2552 482.875 26.5469L479.789 28.3828L479.164 23.1875C478.409 24.4635 477.602 25.4531 476.742 26.1562C475.909 26.8333 475.128 27.3281 474.398 27.6406C473.539 28.0052 472.706 28.2135 471.898 28.2656C470.831 28.2656 469.906 28.2005 469.125 28.0703C468.37 27.9141 467.719 27.7188 467.172 27.4844C466.625 27.25 466.182 26.9896 465.844 26.7031C465.531 26.3906 465.297 26.0781 465.141 25.7656C464.776 25.1146 464.581 24.2812 464.555 23.2656C464.529 22.224 464.568 21.1953 464.672 20.1797C464.776 19.138 464.893 18.1875 465.023 17.3281C465.154 16.4688 465.193 15.8828 465.141 15.5703C465.089 15.3359 465.01 15.0755 464.906 14.7891C464.802 14.5547 464.672 14.2943 464.516 14.0078C464.359 13.6953 464.138 13.3698 463.852 13.0312ZM484.516 12.2891C485.01 12.3151 485.453 12.3281 485.844 12.3281C486.26 12.3021 486.612 12.276 486.898 12.25C487.237 12.224 487.536 12.1979 487.797 12.1719C488.188 12.1198 488.591 12.0547 489.008 11.9766C489.372 11.9245 489.75 11.8594 490.141 11.7812C490.557 11.6771 490.961 11.5599 491.352 11.4297C491.195 11.8203 491.065 12.1589 490.961 12.4453C490.857 12.7318 490.779 12.9792 490.727 13.1875C490.648 13.4219 490.609 13.6172 490.609 13.7734C490.583 13.9557 490.57 14.1771 490.57 14.4375C490.544 14.8802 490.544 15.5964 490.57 16.5859C491.924 15.4141 493.057 14.5026 493.969 13.8516C494.906 13.2005 495.648 12.6927 496.195 12.3281C496.846 11.9115 497.354 11.638 497.719 11.5078C498.682 11.3516 499.529 11.5729 500.258 12.1719C500.57 12.4323 500.87 12.7839 501.156 13.2266C501.443 13.6432 501.69 14.2031 501.898 14.9062C502.107 15.6094 502.263 16.4557 502.367 17.4453C502.471 18.4089 502.484 19.5677 502.406 20.9219C501.859 20.974 501.365 21.026 500.922 21.0781C500.505 21.1302 500.154 21.1693 499.867 21.1953C499.529 21.2474 499.216 21.2734 498.93 21.2734L497.875 21.3906C497.51 21.4427 497.055 21.4948 496.508 21.5469C495.987 21.5729 495.349 21.625 494.594 21.7031C495.688 20.8177 496.391 20.0495 496.703 19.3984C497.042 18.7214 497.185 18.1615 497.133 17.7188C497.081 17.224 496.846 16.7943 496.43 16.4297C495.935 16.1432 495.401 16.0391 494.828 16.1172C494.333 16.1693 493.76 16.3906 493.109 16.7812C492.458 17.1719 491.768 17.901 491.039 18.9688C491.091 20.6354 491.143 22.0156 491.195 23.1094C491.273 24.2031 491.339 25.0885 491.391 25.7656C491.469 26.5469 491.534 27.1589 491.586 27.6016C491.664 27.9922 491.82 28.4089 492.055 28.8516C492.237 29.2161 492.497 29.6198 492.836 30.0625C493.174 30.5052 493.617 30.9479 494.164 31.3906C493.018 31.3385 492.081 31.3385 491.352 31.3906C490.909 31.4167 490.518 31.4427 490.18 31.4688C489.815 31.5208 489.424 31.5729 489.008 31.625C488.643 31.6771 488.214 31.7292 487.719 31.7812C487.25 31.8594 486.729 31.9375 486.156 32.0156C486.365 31.7292 486.534 31.3906 486.664 31C486.794 30.6354 486.898 30.2839 486.977 29.9453C487.081 29.5547 487.159 29.151 487.211 28.7344C487.237 28.3698 487.25 27.8229 487.25 27.0938C487.276 26.3646 487.263 25.5443 487.211 24.6328C487.185 23.6953 487.146 22.7318 487.094 21.7422C487.042 20.7266 486.977 19.776 486.898 18.8906C486.82 18.0052 486.729 17.237 486.625 16.5859C486.547 15.9089 486.456 15.4401 486.352 15.1797C486.221 14.8672 486.065 14.5547 485.883 14.2422C485.727 13.9557 485.531 13.6562 485.297 13.3438C485.062 13.0052 484.802 12.6536 484.516 12.2891ZM514.203 24.7109C514.932 24.7109 515.609 24.6328 516.234 24.4766C516.755 24.3464 517.25 24.138 517.719 23.8516C518.214 23.5391 518.539 23.0833 518.695 22.4844C519.216 22.5885 519.659 22.6797 520.023 22.7578C520.388 22.8099 520.701 22.862 520.961 22.9141C521.247 22.9922 521.495 23.0443 521.703 23.0703C521.911 23.1224 522.159 23.1745 522.445 23.2266C522.706 23.2786 523.018 23.3438 523.383 23.4219C523.773 23.474 524.229 23.5521 524.75 23.6562C524.359 23.6042 523.956 23.6432 523.539 23.7734C523.148 23.9036 522.771 24.0469 522.406 24.2031C521.99 24.3854 521.599 24.6068 521.234 24.8672C521 25.0234 520.727 25.2578 520.414 25.5703C520.128 25.8828 519.711 26.1823 519.164 26.4688C518.617 26.7552 517.888 27.0026 516.977 27.2109C516.091 27.3932 514.945 27.4583 513.539 27.4062C511.846 27.3542 510.427 27.0547 509.281 26.5078C508.135 25.9349 507.211 25.2448 506.508 24.4375C505.805 23.6042 505.297 22.7057 504.984 21.7422C504.672 20.7786 504.503 19.8802 504.477 19.0469C504.451 18.2135 504.698 17.3411 505.219 16.4297C505.74 15.5182 506.469 14.6849 507.406 13.9297C508.37 13.1745 509.529 12.5625 510.883 12.0938C512.237 11.599 513.721 11.3516 515.336 11.3516C516.273 11.3516 517.133 11.4688 517.914 11.7031C518.721 11.9115 519.451 12.1979 520.102 12.5625C520.779 12.9271 521.365 13.3438 521.859 13.8125C522.354 14.2552 522.771 14.7109 523.109 15.1797C523.448 15.6745 523.734 16.1953 523.969 16.7422C524.177 17.2109 524.346 17.7448 524.477 18.3438C524.607 18.9427 524.646 19.5547 524.594 20.1797C522.615 20.2318 521.013 20.2708 519.789 20.2969C518.591 20.3229 517.654 20.3359 516.977 20.3359H515.219H513.891C513.422 20.3359 512.81 20.349 512.055 20.375C511.299 20.401 510.375 20.4401 509.281 20.4922C509.411 21.5339 509.737 22.3411 510.258 22.9141C510.805 23.4609 511.378 23.8776 511.977 24.1641C512.654 24.4766 513.396 24.6589 514.203 24.7109ZM510.688 17.6797C511.521 17.7318 512.211 17.7708 512.758 17.7969C513.331 17.8229 513.799 17.849 514.164 17.875C514.555 17.901 514.867 17.9141 515.102 17.9141H516.078C516.729 17.9141 517.94 17.875 519.711 17.7969C519.633 16.651 519.385 15.7786 518.969 15.1797C518.578 14.5807 518.161 14.138 517.719 13.8516C517.198 13.5391 516.625 13.3568 516 13.3047C514.307 13.3307 513.044 13.6823 512.211 14.3594C511.404 15.0365 510.896 16.1432 510.688 17.6797ZM528.5 2.83594C528.995 2.96615 529.464 3.07031 529.906 3.14844C530.349 3.20052 530.74 3.2526 531.078 3.30469C531.469 3.35677 531.833 3.39583 532.172 3.42188C532.536 3.44792 532.966 3.47396 533.461 3.5C533.904 3.52604 534.438 3.53906 535.062 3.53906C535.688 3.53906 536.43 3.53906 537.289 3.53906C536.534 5.33594 535.922 6.85938 535.453 8.10938C534.984 9.33333 534.62 10.349 534.359 11.1562C534.073 12.0938 533.865 12.862 533.734 13.4609C533.63 14.0599 533.5 14.7891 533.344 15.6484C533.214 16.4036 533.031 17.3281 532.797 18.4219C532.562 19.5156 532.302 20.8177 532.016 22.3281L528.578 22.1719C528.786 20.7917 528.93 19.6198 529.008 18.6562C529.086 17.6667 529.151 16.8464 529.203 16.1953C529.255 15.4401 529.281 14.8151 529.281 14.3203C529.281 13.7995 529.242 13.0182 529.164 11.9766C529.112 11.1172 529.034 9.95833 528.93 8.5C528.826 7.01562 528.682 5.1276 528.5 2.83594ZM532.797 25.2969C532.979 25.5833 533.083 25.9089 533.109 26.2734C533.161 26.612 533.135 26.9635 533.031 27.3281C532.953 27.6667 532.784 27.9922 532.523 28.3047C532.289 28.6172 531.964 28.8646 531.547 29.0469C530.714 29.4375 529.971 29.5417 529.32 29.3594C528.669 29.151 528.188 28.8125 527.875 28.3438C527.693 28.0833 527.589 27.7969 527.562 27.4844C527.562 27.1458 527.628 26.8203 527.758 26.5078C527.888 26.1693 528.096 25.8568 528.383 25.5703C528.669 25.2839 529.034 25.0495 529.477 24.8672C530.336 24.5026 531.039 24.3724 531.586 24.4766C532.159 24.5807 532.562 24.8542 532.797 25.2969Z" fill="#F18264"/>
</svg>
