<svg width="99" height="85" viewBox="0 0 99 85" fill="none" xmlns="http://www.w3.org/2000/svg">
<path d="M38.0139 81.6436C38.2215 80.3111 37.4742 54.2988 17.2811 32.1308C17.2811 32.1308 37.0312 59.3449 30.6513 80.5189L38.0139 81.6436Z" fill="#C8483E"/>
<path d="M95.0076 40.6011C95.2329 39.822 86.2507 60.1618 69.0774 64.8072C51.9062 69.4544 30.6513 80.5189 30.6513 80.5189L38.014 81.6436C38.014 81.6436 61.1764 68.5978 70.1924 67.9313C79.2044 67.2633 92.0602 50.7128 95.0076 40.6011Z" fill="#C8483E"/>
<path d="M81.0967 44.8365C81.0967 44.8365 80.5185 58.8331 72.7166 64.9098L67.4282 66.6019C67.4282 66.6019 77.6314 61.2294 81.0967 44.8365Z" fill="#C8483E"/>
<path d="M85.6756 68.2524C85.6756 68.2524 78.2892 71.6678 58.7394 69.5897L52.7966 72.5428C52.7966 72.5428 77.8593 72.9664 85.6756 68.2524Z" fill="#C8483E"/>
<path d="M62.7436 2.78673C62.7436 2.78673 51.0848 30.7084 51.2268 42.9976C51.369 55.2887 37.0114 81.4902 37.0114 81.4902L30.6514 80.519C30.6514 80.519 44.8437 59.0616 47.3288 46.0366C49.8142 33.0134 57.677 11.8382 62.7436 2.78673Z" fill="#C8483E"/>
<path d="M77.787 15.479C77.787 15.479 66.8428 32.2071 49.7176 40.9495L48.7852 46.9408C48.7852 46.9408 72.6844 26.9662 77.787 15.479Z" fill="#C8483E"/>
<path d="M41.2499 27.8433C41.2499 27.8433 43.7262 42.7605 47.5071 55.1503L45.625 57.9207C45.625 57.9207 39.954 35.5954 41.2499 27.8433Z" fill="#C8483E"/>
<path d="M13.1706 36.5297C13.1706 36.5297 18.7226 46.721 31.1602 57.4248L33.0872 64.8745C33.0872 64.8745 17.0678 46.6949 13.1706 36.5297Z" fill="#C8483E"/>
<path d="M31.6924 30.9029C31.6924 30.9029 33.9772 42.8668 27.8571 46.794L29.9463 51.7438C29.9463 51.7438 34.608 41.8924 31.6924 30.9029Z" fill="#C8483E"/>
<path d="M44.7953 61.2122C44.7953 61.2122 49.7621 52.7699 61.2228 44.4674C61.2228 44.4674 46.6201 60.0728 42.304 69.8615L44.7953 61.2122Z" fill="#C8483E"/>
<path d="M9.5838 55.1513C9.5838 55.1513 19.0111 68.346 36.5661 74.437L34.8767 77.5861C34.8767 77.5861 13.5814 63.5969 9.5838 55.1513Z" fill="#C8483E"/>
<path d="M15.7658 55.0719C15.7658 55.0719 21.0418 61.9571 21.5051 67.7635L24.4699 68.5527C24.4699 68.5527 21.0657 60.6522 15.7658 55.0719Z" fill="#C8483E"/>
<path d="M6.0991 64.3283C6.0991 64.3283 15.4776 71.0458 26.2986 71.5069L30.3864 72.307C30.3864 72.307 15.9122 75.0299 6.0991 64.3283Z" fill="#C8483E"/>
</svg>
