<svg width="365" height="370" viewBox="0 0 365 370" fill="none" xmlns="http://www.w3.org/2000/svg">
<ellipse cx="120.06" cy="320.629" rx="120.042" ry="16.4525" fill="#771212"/>
<ellipse cx="127.981" cy="321.238" rx="104.809" ry="13.4057" fill="#66191A"/>
<ellipse cx="347.958" cy="353.122" rx="120.042" ry="16.4525" fill="#771212"/>
<ellipse cx="355.879" cy="353.731" rx="104.809" ry="13.4057" fill="#66191A"/>
<path d="M198.666 312.707C193.182 331.597 175.734 331.597 121.888 331.597C68.0422 331.597 55.4685 331.597 43.2815 312.707C62.1714 284.068 68.0422 257.866 121.888 257.866C175.734 257.866 198.666 282.419 198.666 312.707Z" fill="#897284"/>
<path d="M167.022 134.935C167.022 133.424 167.651 124.052 166.702 120.428C165.74 116.802 164.15 112.57 163.829 107.736C163.51 102.897 161.278 93.5251 159.047 89.9013C156.81 86.2706 157.765 80.2214 155.535 75.3917C153.297 70.5535 153.297 63.2961 152.663 57.2543C151.387 53.0218 155.214 45.1587 155.214 45.1587C152.022 47.8844 148.829 53.325 148.515 56.3493C148.194 59.3674 144.047 65.1168 141.816 72.0648C139.585 79.0138 132.88 99.5692 106.713 153.973C93.6832 181.083 79.2728 223.335 64.4627 257.143L61.0361 255.359C64.1095 257.105 69.4141 259.648 77.5435 262.16C78.9196 262.587 80.3797 263.008 81.9167 263.429C87.9513 265.071 95.2613 266.634 104.043 267.875C105.325 268.056 106.63 268.235 107.971 268.398L108.09 268.302L108.149 268.416C109.757 268.619 111.4 268.808 113.098 268.982C118.491 269.539 124.342 269.984 130.696 270.258C135.616 261.03 140.012 251.665 141.816 244.964C148.829 226.826 155.855 204.454 156.49 202.341C156.567 202.082 156.638 201.988 156.691 202.01C156.971 200.724 157.125 199.919 157.125 199.919C160.317 185.113 167.022 135.84 167.022 134.935Z" fill="#A32929"/>
<path d="M128.908 299.51C128.908 299.51 151.617 296.827 172.535 303.442C186.665 295.755 164.49 232.816 160.196 219.584C155.906 206.351 161.088 150.744 164.49 141.623C167.887 132.506 173.966 102.286 172.176 93.881C170.39 85.4761 165.922 69.4763 165.922 69.4763L156.081 46.858C156.081 46.858 144.998 67.416 144.459 69.0315C143.926 70.6395 137.672 85.4761 139.452 101.92C141.247 118.379 137.846 158.246 137.846 158.246C137.846 158.246 124.075 295.037 128.908 299.51Z" fill="#6B4C6A"/>
<path d="M164.31 132.32C164.31 132.32 156.799 61.3424 153.941 49.7099C151.792 43.4566 150.006 39.8793 150.006 39.8793C150.006 39.8793 149.113 39.5211 148.041 40.0647C146.963 40.5932 146.25 41.1312 146.25 41.1312L144.818 38.0934C144.818 38.0934 146.609 37.1957 147.502 37.1957C148.395 37.1957 146.784 33.626 146.784 32.548C146.784 31.4759 146.25 31.4759 147.502 31.2961C148.759 31.1162 148.938 33.2618 148.938 33.2618C148.938 33.2618 152.509 42.2047 153.757 43.6304C155.013 45.0722 161.986 89.0533 164.131 101.218C166.281 113.372 167.173 125.701 167.353 126.785C167.528 127.857 164.31 132.32 164.31 132.32Z" fill="#501F15"/>
<path d="M168.779 86.1899C168.779 86.1899 156.081 47.3861 155.906 45.7845C155.721 44.1685 156.978 44.5321 155.721 44.1685C154.475 43.8108 153.582 42.3886 153.582 42.3886L154.654 40.7771C154.654 40.7771 150.723 27.1803 149.467 23.4247C148.215 19.6696 143.566 16.4581 143.566 16.4581V12.3423L147.322 14.1342C147.322 14.1342 146.609 5.72928 148.569 4.30309C149.825 4.83709 151.078 5.72926 151.078 5.72926C151.078 5.72926 150.006 15.2057 150.365 17.5296C150.723 19.859 156.081 41.1312 156.619 43.2768C157.158 45.4208 166.096 69.0315 168.42 74.7488C170.744 80.4681 168.779 86.1899 168.779 86.1899Z" fill="#501F15"/>
<path d="M153.043 130.534C153.043 130.534 155.193 83.5059 155.193 79.9362C155.193 76.3549 156.081 47.7443 156.081 47.7443C156.081 47.7443 158.944 20.9276 158.944 16.632C158.944 12.3423 158.055 3.04176 158.055 1.97374C158.055 0.901215 157.877 0.183853 159.303 0.00752258C160.73 -0.175827 160.554 3.04176 160.919 4.83716C161.268 6.62704 161.986 3.76312 162.699 2.68759C163.418 1.61356 163.233 1.61356 163.772 2.33742C164.311 3.04175 164.669 3.57578 163.951 5.017C163.233 6.4472 162.165 10.024 161.986 11.2648C161.806 12.5282 161.806 21.1114 161.268 24.8625C160.73 28.6186 159.842 33.2619 159.662 35.0518C159.482 36.8417 158.41 44.8924 158.41 46.6783C158.41 48.4682 157.333 67.7757 157.333 72.2451C157.333 76.7186 156.799 114.799 156.619 119.094C156.44 123.383 153.941 141.797 153.941 144.485C153.941 147.164 153.043 130.534 153.043 130.534Z" fill="#501F15"/>
<path d="M149.468 217.974C149.468 217.974 144.46 256.946 143.567 264.104C142.674 271.256 137.672 295.575 137.313 297.182C136.959 298.798 137.488 297.904 139.099 298.084C140.709 298.258 141.248 298.084 141.248 297.541C141.248 297.003 148.215 246.583 148.395 242.647C148.569 238.712 150.899 221.196 150.899 219.943C150.899 218.686 149.468 217.974 149.468 217.974Z" fill="#501F15"/>
<path d="M157.334 243.191C157.334 243.191 159.662 283.6 159.662 287.526C159.662 291.466 159.303 298.084 160.555 298.258C161.807 298.435 164.006 298.055 162.974 285.92C162.166 276.532 159.662 245.156 159.662 245.156L157.334 243.191Z" fill="#501F15"/>
<path d="M147.502 110.509C147.502 110.509 156.081 52.0454 157.158 48.1045C158.231 44.1685 159.842 40.0648 160.555 40.0648C161.268 40.0648 162.52 38.9872 162.52 38.9872L163.234 37.555L161.986 36.3031C161.986 36.3031 165.562 28.9763 166.281 26.4685C166.994 23.9688 171.104 16.9921 171.643 16.8178C172.177 16.6319 175.035 15.5604 175.035 15.5604L178.616 11.9942L177.358 10.1988L174.86 12.3423C174.86 12.3423 173.428 8.58673 173.428 7.69505C173.428 6.80086 171.463 5.90365 171.463 5.90365C171.463 5.90365 170.571 10.7323 170.571 11.4446C170.571 12.1685 168.78 16.8178 167.353 18.9553C165.922 21.1114 163.951 26.4685 163.951 26.4685L163.054 25.7547L161.448 26.2927L162.52 30.7622C162.52 30.7622 160.73 35.4055 160.381 35.9555C160.021 36.4875 156.62 42.563 156.62 43.2768C156.62 43.9892 145.357 98.3445 145.357 99.7822C145.357 101.218 147.502 110.509 147.502 110.509Z" fill="#501F15"/>
<path d="M167.623 287.131C168.495 292.499 169.498 298.638 170.311 303.616L174.86 294.677L167.623 287.131Z" fill="#7D6AB6"/>
<path d="M146.341 207.065C145.807 208.94 139.902 228.792 134.006 244.886C130.246 259.639 113.083 288.873 109.058 295.037C105.038 301.207 97.527 307.916 96.1899 309.246C97.257 309.521 105.841 320.252 106.913 322.13C107.991 324.004 110.136 323.733 112.011 324.815C113.886 325.882 120.32 328.833 123.812 332.054C125.328 333.452 126.131 335.009 126.555 336.307C126.809 336.232 126.974 336.152 127.029 336.077C127.832 335.009 133.467 288.598 134.006 278.144C134.535 267.684 142.316 225.306 143.657 219.943C144.635 216.024 145.897 209.834 146.51 206.772C146.466 206.752 146.406 206.835 146.341 207.065Z" fill="#7C4A68"/>
<path d="M142.046 222.89C142.046 222.89 132.131 288.064 129.976 290.748C127.832 293.437 128.101 321.058 127.832 326.423C127.562 331.783 116.839 324.004 113.886 322.932C110.934 321.865 117.911 306.575 118.714 304.16C119.518 301.745 110.934 316.225 109.327 318.11C107.717 319.981 108.519 320.787 105.303 316.494C102.086 312.205 96.7235 310.059 103.701 305.497C110.669 300.942 119.518 285.111 121.398 281.361C123.273 277.61 140.979 234.962 142.046 222.89Z" fill="#7B5471"/>
<path d="M136.414 246.757C136.414 246.757 127.562 292.359 127.293 299.87C127.028 307.378 126.495 320.252 125.417 322.932C124.345 325.617 116.03 323.202 115.761 321.589C115.492 319.981 122.2 304.429 122.469 299.87C122.733 295.306 111.471 313.811 109.327 315.426C107.182 317.032 102.349 311.402 103.157 309.521C103.96 307.646 112.01 305.77 114.694 300.404C117.377 295.037 129.706 273.047 136.414 246.757Z" fill="#795B73"/>
<path d="M238.718 238.491C232.219 226.634 201.33 153.056 194.287 138.232C187.243 123.417 173.696 84.0703 171.53 77.6001C169.364 71.1303 166.381 65.4725 165.842 69.516C166.652 73.5601 158.249 97.4663 155.005 105.816C151.75 114.177 155.005 146.862 155.005 147.669C155.005 148.475 149.04 194.298 146.601 205.609C149.045 217.207 150.667 233.911 162.048 259.78C162.95 264.847 163.203 268.26 164.077 270.007C165.171 270.113 166.694 270.201 168.492 270.331C173.499 270.691 180.916 271.043 188.911 270.802C191.99 270.722 195.154 270.545 198.302 270.246C201.628 269.929 204.942 269.484 208.102 268.861C212.581 267.969 216.691 267.019 220.43 266.066C225.084 264.868 229.151 263.655 232.582 262.568C238.703 260.628 242.789 259.065 244.593 258.623C245.131 258.483 245.63 258.332 246.104 258.157C246.809 257.912 247.434 257.63 247.963 257.366C243.963 248.87 240.552 241.839 238.718 238.491Z" fill="#A32929"/>
<path d="M181.6 286.61L185.048 279.619L176.31 280.157L181.6 286.61Z" fill="#6CCCAF"/>
<path d="M212.053 281.81L215.125 275.306L206.875 277.167L212.053 281.81Z" fill="#6CCCAF"/>
<path d="M207.759 267.864C204.631 268.483 201.349 268.926 198.057 269.242L201.269 272.125C204.601 271.594 213.589 270.105 218.138 268.942L219.963 265.082C216.262 266.03 212.193 266.976 207.759 267.864Z" fill="#6CCCAF"/>
<path d="M206.874 277.167L215.124 275.306L218.137 268.942C213.588 270.105 204.6 271.595 201.268 272.125L206.874 277.167Z" fill="white"/>
<path d="M173.549 281.093L184.254 280.231L188.94 273.448C183.019 274.079 171.43 274.406 167.137 274.503L173.549 281.093Z" fill="white"/>
<path d="M234.536 264.029L237.319 266.682L243.105 264.772L244.162 261.266C241.768 261.959 237.25 263.271 234.536 264.029Z" fill="white"/>
<path d="M241.38 270.544L243.106 264.772L237.32 266.682L241.38 270.544Z" fill="#6CCCAF"/>
<path d="M245.379 257.211C244.911 257.385 244.417 257.536 243.883 257.675C242.098 258.115 238.053 259.67 231.993 261.601L234.536 264.029C237.25 263.271 241.769 261.959 244.162 261.267L245.379 257.211Z" fill="#6CCCAF"/>
<path d="M166.161 278.128C166.535 280.404 167.049 283.591 167.623 287.131L174.86 294.677L170.311 303.616C170.605 305.456 170.879 307.132 171.104 308.538L179.523 293.456L166.161 278.128Z" fill="#9B1B29"/>
<path d="M262.153 288.812C260.851 285.964 259.495 282.992 258.109 279.965L250.138 276.263L253.27 269.441C252.537 267.845 251.804 266.248 251.071 264.683L244.312 280.044L262.153 288.812Z" fill="#9B1B29"/>
<path d="M198.456 315.151L181.767 296.03L171.906 313.726C171.912 313.791 171.912 313.855 171.922 313.931C178.241 314.51 189.633 315.391 198.456 315.151Z" fill="#758A33"/>
<path d="M199.165 315.138C202.167 315.032 204.841 314.794 206.866 314.354C212.391 313.153 221.908 310.201 230.372 307.391L211.983 294.468L199.165 315.138Z" fill="#758A33"/>
<path d="M210.087 291.431L193.637 275.625L183.443 293.068L198.416 310.214L210.087 291.431Z" fill="#9B1B29"/>
<path d="M232.951 306.534C239.814 304.235 245.579 302.175 247.28 301.482C250.048 300.338 256.811 295.84 261.38 292.031L243.923 283.432L232.951 306.534Z" fill="#758A33"/>
<path d="M241.679 280.644L227.275 268.658L212.991 291.252L230.727 303.711L241.679 280.644Z" fill="#9B1B29"/>
<path d="M272.936 312.474C272.133 310.773 268.701 303.206 264.252 293.437C263.838 292.518 263.414 291.585 262.976 290.637C262.487 291.077 261.953 291.547 261.38 292.031C256.811 295.84 250.048 300.338 247.28 301.482C245.579 302.175 239.813 304.235 232.95 306.534C232.102 306.819 231.245 307.107 230.371 307.391C221.907 310.2 212.39 313.153 206.865 314.354C204.84 314.794 202.166 315.032 199.164 315.138C198.924 315.142 198.69 315.148 198.456 315.151C189.632 315.391 178.241 314.51 171.922 313.931C172.16 316.309 172.39 320.802 172.625 322.661C172.894 324.815 174.499 337.96 175.308 338.225C177.717 338.225 219.833 337.96 230.556 337.424C241.285 336.873 259.26 332.59 265.161 330.706C271.055 328.833 280.712 325.882 280.712 325.882C280.712 325.882 275.345 317.572 272.936 312.474Z" fill="#A32929"/>
<path d="M193.637 275.625L210.087 291.431L198.416 310.214L183.443 293.068L193.637 275.625ZM227.275 268.658L241.679 280.644L230.726 303.711L212.99 291.252L227.275 268.658ZM171.907 313.726L181.767 296.03L198.456 315.151C198.691 315.148 198.925 315.142 199.165 315.138L211.983 294.468L230.372 307.391C231.245 307.107 232.102 306.819 232.951 306.534L243.923 283.432L261.38 292.031C261.953 291.547 262.487 291.077 262.976 290.637C262.706 290.03 262.432 289.426 262.153 288.813L244.312 280.044L251.071 264.683C250.457 263.356 249.858 262.064 249.259 260.787L242.193 276.877L226.511 263.845L211.209 288.039L192.92 270.468L181.219 290.504L165.698 272.703L165.288 273.067C165.428 273.645 165.548 274.23 165.652 274.923C165.727 275.435 165.906 276.563 166.161 278.128L179.523 293.456L171.104 308.538C171.503 310.973 171.767 312.623 171.816 313.012C171.853 313.207 171.872 313.451 171.907 313.726Z" fill="#6CCCAF"/>
<path d="M194.351 280.562L189.164 292.359L197.388 302.368L204.361 291.641L194.351 280.562Z" fill="#7D6AB6"/>
<path d="M227.608 276.083L220.277 288.967L228.86 297.003L234.228 281.636L227.608 276.083Z" fill="#7D6AB6"/>
<path d="M258.109 279.965C256.513 276.484 254.887 272.941 253.271 269.441L250.138 276.263L258.109 279.965Z" fill="#7D6AB6"/>
<path d="M176.51 309.657C176.51 308.025 177.837 306.708 179.463 306.708C181.094 306.708 182.416 308.025 182.416 309.657C182.416 311.288 181.094 312.609 179.463 312.609C177.837 312.609 176.51 311.288 176.51 309.657Z" fill="white"/>
<path d="M185.633 309.657C185.633 307.806 187.134 306.31 188.98 306.31C190.84 306.31 192.342 307.806 192.342 309.657C192.342 311.513 190.84 313.012 188.98 313.012C187.134 313.012 185.633 311.513 185.633 309.657Z" fill="white"/>
<path d="M206.551 307.378C206.551 305.526 208.053 304.03 209.908 304.03C211.758 304.03 213.259 305.526 213.259 307.378C213.259 309.227 211.758 310.732 209.908 310.732C208.053 310.732 206.551 309.227 206.551 307.378Z" fill="white"/>
<path d="M239.544 296.918C239.544 295.062 241.041 293.571 242.896 293.571C244.752 293.571 246.248 295.062 246.248 296.918C246.248 298.767 244.752 300.269 242.896 300.269C241.041 300.269 239.544 298.767 239.544 296.918Z" fill="white"/>
<path d="M248.391 292.893C248.391 291.042 249.897 289.546 251.748 289.546C253.599 289.546 255.101 291.042 255.101 292.893C255.101 294.743 253.599 296.248 251.748 296.248C249.897 296.248 248.391 294.743 248.391 292.893Z" fill="white"/>
<path d="M216.077 305.367C216.077 303.961 217.214 302.823 218.626 302.823C220.033 302.823 221.169 303.961 221.169 305.367C221.169 306.774 220.033 307.916 218.626 307.916C217.214 307.916 216.077 306.774 216.077 305.367Z" fill="white"/>
<path d="M197.837 291.287C197.837 292.394 197.035 293.296 196.048 293.296C195.055 293.296 194.262 292.394 194.262 291.287C194.262 290.179 195.055 289.271 196.048 289.271C197.035 289.271 197.837 290.179 197.837 291.287Z" fill="white"/>
<path d="M229.399 286.189C229.399 287.301 228.596 288.199 227.608 288.199C226.62 288.199 225.818 287.301 225.818 286.189C225.818 285.072 226.62 284.179 227.608 284.179C228.596 284.179 229.399 285.072 229.399 286.189Z" fill="white"/>
<path d="M170.506 81.2671L170.476 81.2771C169.169 82.0646 177.877 143.482 189.808 176.013C188.312 172.726 184.99 166.097 181.06 159.478C175.509 150.136 168.73 140.795 164.077 140.795C161.228 140.795 159.174 144.285 158.675 153.424C158.675 153.424 152.51 257.49 175.035 266.337C176.261 266.893 177.318 267.146 178.227 267.146C185.579 267.146 183.154 250.528 180.162 237.595C181.464 248.502 181.309 257.865 176.965 257.865C176.471 257.865 175.912 257.745 175.309 257.49C171.698 255.969 170.476 250.452 169.573 247.171C165.912 233.964 165.069 219.874 164.247 206.256C163.489 193.583 163.079 180.89 162.975 168.202C162.954 165.184 161.917 157.912 163.583 154.201C164.206 152.814 165.199 151.922 166.765 151.922C167.563 151.922 168.506 152.157 169.618 152.675C176.93 156.061 182.097 164.476 186.432 170.981C189.598 175.723 192.257 181.144 195.868 185.573C195.654 184.675 195.265 183.793 194.886 182.924C188.182 167.374 174.771 107.024 174.771 104.072C174.771 103.971 174.785 103.921 174.81 103.921C175.574 103.921 186.796 142.629 200.516 170.591C214.737 199.558 232.702 241.405 222.517 243.27C222.317 243.311 222.128 243.33 221.928 243.33C211.694 243.33 195.424 196.337 195.424 196.337C195.424 196.337 199.135 208.276 202.083 221.24C208.556 237.147 218.337 255.469 229.041 255.469C229.539 255.469 230.048 255.431 230.557 255.346C250.138 252.124 212.861 191.513 200.252 162.81C187.738 134.33 172.052 81.2671 170.506 81.2671ZM173.698 204.117C173.698 204.117 177.553 219.255 179.613 233.464C183.972 245.574 191.993 263.486 201.22 263.486C201.609 263.486 201.998 263.46 202.397 263.39C209.12 262.268 207.813 248.138 204.471 233.316C206.212 244.048 206.367 253.041 202.127 253.465C202.013 253.475 201.903 253.48 201.788 253.48C191.03 253.48 173.698 204.117 173.698 204.117Z" fill="#DA3424"/>
<path d="M174.81 103.921C174.784 103.921 174.77 103.971 174.77 104.072C174.77 107.024 188.182 167.374 194.885 182.924C195.265 183.793 195.653 184.675 195.868 185.573C192.256 181.144 189.598 175.723 186.431 170.981C182.097 164.476 176.929 156.061 169.618 152.675C168.505 152.157 167.563 151.922 166.765 151.922C165.199 151.922 164.206 152.814 163.583 154.201C161.917 157.912 162.953 165.184 162.974 168.202C163.079 180.89 163.488 193.583 164.246 206.256C165.069 219.874 165.912 233.964 169.573 247.171C170.476 250.452 171.698 255.969 175.309 257.49C175.912 257.745 176.471 257.865 176.964 257.865C181.309 257.865 181.464 248.502 180.162 237.595C179.165 233.291 178.102 229.386 177.314 226.646C177.887 228.488 178.665 230.837 179.613 233.464C177.553 219.255 173.698 204.117 173.698 204.117C173.698 204.117 191.03 253.48 201.788 253.48C201.903 253.48 202.012 253.475 202.127 253.465C206.367 253.041 206.212 244.048 204.471 233.316C202.97 226.632 201.05 219.808 199.274 213.969C200.122 216.283 201.06 218.73 202.082 221.24C199.135 208.276 195.424 196.337 195.424 196.337C195.424 196.337 211.694 243.33 221.928 243.33C222.127 243.33 222.317 243.311 222.517 243.27C232.701 241.405 214.736 199.558 200.516 170.591C186.796 142.629 175.573 103.921 174.81 103.921Z" fill="#A32929"/>
<path d="M251.774 302.339C247.155 302.339 242.796 304.918 239.944 311.133C237.26 311.133 207.759 312.205 203.469 324.545C204.446 321.734 190.077 318.044 188.581 317.866C187.982 317.81 187.314 317.762 186.625 317.762C183.673 317.762 180.287 318.543 179.064 321.319C178.695 322.16 178.586 323.062 178.685 323.979C179.029 327.33 182.067 330.857 184.551 332.39C186.257 333.427 188.231 333.953 190.222 333.953C190.476 333.953 190.735 333.947 190.995 333.927C192.083 333.852 201.09 330.741 200.516 329.634C202.177 332.82 209.819 335.46 217.872 335.46C226.786 335.46 236.212 332.234 238.601 322.932C240.901 325.637 250.532 328.197 258.817 328.197C266.997 328.197 273.854 325.697 271.055 318.378C267.565 309.227 259.325 302.339 251.774 302.339ZM241.286 314.888C245.041 310.109 248.951 308.314 252.561 308.314C260.313 308.314 266.673 316.568 267.036 321.324C267.216 323.678 264.343 324.53 260.294 324.53C252.343 324.53 239.844 321.228 236.995 319.45C238.607 320.457 232.412 328.738 231.424 329.574C228.721 331.843 225.589 332.665 222.137 332.99C220.97 333.101 219.813 333.171 218.671 333.171C216.326 333.171 214.038 332.88 211.734 332.069C208.591 330.987 203.878 328.417 200.047 328.417C199.364 328.417 198.721 328.497 198.112 328.677C194.995 329.619 193.27 331.568 190.082 331.568C189.588 331.568 189.07 331.528 188.496 331.418C184.96 330.781 179.025 326.864 181.693 322.566C182.725 320.908 184.655 320.282 186.84 320.282C190.356 320.282 194.536 321.92 196.701 323.558C198.337 324.805 200.547 328.332 202.935 328.332C203.364 328.332 203.793 328.222 204.222 327.966C205.533 327.195 205.768 324.735 206.451 323.513C210.566 316.28 222.965 314.424 232.841 314.424C236.043 314.424 238.986 314.614 241.286 314.888Z" fill="#D03424"/>
<path d="M252.561 308.314C248.951 308.314 245.041 310.109 241.285 314.888C238.985 314.614 236.042 314.425 232.84 314.425C222.965 314.425 210.566 316.28 206.451 323.513C205.768 324.735 205.533 327.195 204.222 327.966C203.792 328.222 203.364 328.332 202.934 328.332C200.546 328.332 198.336 324.805 196.7 323.558C194.535 321.92 190.356 320.282 186.839 320.282C184.655 320.282 182.725 320.908 181.693 322.566C179.024 326.864 184.959 330.781 188.496 331.418C189.069 331.528 189.588 331.568 190.081 331.568C193.269 331.568 194.994 329.619 198.112 328.677C198.72 328.497 199.364 328.417 200.047 328.417C203.878 328.417 208.591 330.987 211.733 332.069C214.038 332.88 216.326 333.171 218.67 333.171C219.813 333.171 220.97 333.101 222.136 332.991C225.588 332.665 228.721 331.843 231.424 329.574C232.411 328.738 238.606 320.457 236.995 319.45C239.843 321.228 252.343 324.53 260.293 324.53C264.343 324.53 267.215 323.678 267.036 321.324C266.672 316.568 260.312 308.314 252.561 308.314Z" fill="#DA3424"/>
<path d="M123.811 332.054C120.319 328.833 113.886 325.882 112.01 324.815C110.135 323.733 107.99 324.004 106.913 322.13C105.841 320.251 97.2564 309.521 96.1894 309.246C96.9528 308.488 99.7406 305.959 102.733 302.788C99.98 301.577 96.7479 300.832 93.1371 300.373L93.0073 300.455L92.9773 300.354C89.0974 299.87 84.7728 299.696 80.0944 299.595C77.3758 299.541 74.3786 299.013 71.3409 298.195L71.0518 298.41L70.9521 298.094C63.2911 295.989 55.4704 292.204 51.2809 290.014L51.1312 290.154L51.1111 290.125C46.4428 301.73 43.4902 309.382 43.3504 310.324C42.8069 313.811 38.2483 321.324 38.2483 321.324C40.9314 326.959 57.5653 327.495 82.5035 333.121C104.429 338.356 123.332 337.339 126.554 336.307C126.13 335.009 125.327 333.452 123.811 332.054Z" fill="#A32929"/>
<path d="M61.7454 264.045C58.8725 271.006 56.209 277.525 53.8445 283.356L63.6305 274.489L61.7454 264.045Z" fill="#9B1B29"/>
<path d="M92.977 300.354L87.5703 286.16L71.3406 298.195C74.3783 299.013 77.3755 299.541 80.0941 299.595C84.7725 299.696 89.0971 299.87 92.977 300.354Z" fill="#758A33"/>
<path d="M64.4877 278.055L51.2808 290.014C55.4702 292.205 63.291 295.989 70.952 298.094L64.4877 278.055Z" fill="#758A33"/>
<path d="M82.3039 261.506L89.4659 279.75L105.556 265.679C104.429 265.535 103.332 265.376 102.254 265.215L89.9248 275.909L83.6554 261.27C82.3635 260.897 81.1362 260.524 79.9795 260.144L68.8269 268.218L66.1037 254.109C66.0341 254.074 65.964 254.024 65.8943 253.989C65.2657 255.516 64.6375 257.031 64.0188 258.528L66.4033 271.736L82.3039 261.506Z" fill="#C9ADDB"/>
<path d="M102.733 302.788C104.978 300.408 107.337 297.676 109.058 295.037C110.01 293.576 111.701 290.813 113.786 287.261L93.1372 300.373C96.748 300.832 99.9801 301.577 102.733 302.788Z" fill="#758A33"/>
<path d="M90.0146 283.54L94.6183 295.625L111.123 285.137L104.539 270.848L90.0146 283.54Z" fill="#9B1B29"/>
<path d="M66.9473 275.207L72.7377 293.152L87.0818 282.503L80.7378 266.337L66.9473 275.207Z" fill="#9B1B29"/>
<path d="M94.6186 295.625L90.0149 283.54L104.539 270.848L111.123 285.137L94.6186 295.625ZM72.7377 293.152L66.9472 275.207L80.7378 266.337L87.0818 282.503L72.7377 293.152ZM105.556 265.679L89.4663 279.75L82.3043 261.506L66.4037 271.736L64.0192 258.528C63.2412 260.388 62.4833 262.234 61.7454 264.045L63.6305 274.489L53.8445 283.356C52.9067 285.671 52.009 287.88 51.1709 289.97L51.2811 290.014L64.4881 278.055L70.9523 298.094C71.0821 298.125 71.2118 298.164 71.341 298.195L87.5707 286.16L92.9775 300.354C93.0275 300.363 93.0822 300.369 93.1373 300.373L113.786 287.261C114.125 286.679 114.465 286.09 114.823 285.475L105.706 265.695C105.656 265.689 105.606 265.689 105.556 265.679Z" fill="#6CCCAF"/>
<path d="M71.6401 276.13L74.9925 286.454L81.4311 280.562L78.3488 271.3L71.6401 276.13Z" fill="#7D6AB6"/>
<path d="M95.5112 282.703L98.8681 290.08L107.043 284.179L104.23 275.729L95.5112 282.703Z" fill="#7D6AB6"/>
<path d="M88.1247 271.695C89.2673 271.974 91.6012 272.543 93.312 272.966L98.2298 268.708C94.8534 268.085 87.8256 266.463 85.666 265.954L88.1247 271.695Z" fill="white"/>
<path d="M89.9254 275.909L93.3118 272.966C91.6011 272.543 89.2672 271.974 88.1245 271.695L89.9254 275.909Z" fill="#6CCCAF"/>
<path d="M83.656 261.27L85.6658 265.954C87.8254 266.463 94.8532 268.085 98.2296 268.708L102.255 265.215C94.8732 264.114 88.7286 262.727 83.656 261.27Z" fill="#6CCCAF"/>
<path d="M66.1042 254.11L66.7625 257.561C68.628 258.557 74.184 261.545 76.3642 262.768L79.98 260.144C73.1466 257.915 68.6876 255.659 66.1042 254.11Z" fill="#6CCCAF"/>
<path d="M68.8274 268.218L72.319 265.689C71.1418 265.111 69.0769 264.064 67.9097 263.476L68.8274 268.218Z" fill="#6CCCAF"/>
<path d="M67.9094 263.476C69.0766 264.064 71.1415 265.111 72.3187 265.689L76.3639 262.768C74.1837 261.545 68.6277 258.557 66.7622 257.561L67.9094 263.476Z" fill="white"/>
<path d="M111.522 269.959L114.105 275.83C115.482 275.845 118.414 275.881 120.17 275.905C121.118 274.144 122.075 272.349 123.023 270.532C120.379 270.453 113.666 270.074 111.522 269.959Z" fill="white"/>
<path d="M124.658 267.33C119.317 267.086 114.399 266.692 109.865 266.198L111.522 269.959C113.666 270.074 120.379 270.453 123.023 270.532C123.571 269.47 124.12 268.407 124.658 267.33Z" fill="#6CCCAF"/>
<path d="M116.813 281.979C117.895 280.054 119.028 278.014 120.17 275.905C118.414 275.881 115.482 275.845 114.105 275.83L116.813 281.979Z" fill="#6CCCAF"/>
<path d="M77.8546 278.543C77.8546 279.506 77.296 280.29 76.6077 280.29C75.9099 280.29 75.3508 279.506 75.3508 278.543C75.3508 277.581 75.9099 276.797 76.6077 276.797C77.296 276.797 77.8546 277.581 77.8546 278.543Z" fill="white"/>
<path d="M103.427 282.923C103.427 284.04 102.629 284.943 101.636 284.943C100.649 284.943 99.8506 284.04 99.8506 282.923C99.8506 281.814 100.649 280.913 101.636 280.913C102.629 280.913 103.427 281.814 103.427 282.923Z" fill="white"/>
<path d="M56.4875 289.407C56.4875 287.775 57.8095 286.454 59.4351 286.454C61.0662 286.454 62.3877 287.775 62.3877 289.407C62.3877 291.038 61.0662 292.359 59.4351 292.359C57.8095 292.359 56.4875 291.038 56.4875 289.407Z" fill="white"/>
<path d="M80.3591 295.846C80.3591 294.215 81.6856 292.893 83.3117 292.893C84.9423 292.893 86.2643 294.215 86.2643 295.846C86.2643 297.477 84.9423 298.798 83.3117 298.798C81.6856 298.798 80.3591 297.477 80.3591 295.846Z" fill="white"/>
<path d="M113.197 281.95C111.981 284.772 110.753 287.45 109.526 289.964L113.785 287.261C114.125 286.678 114.464 286.09 114.823 285.475L113.197 281.95Z" fill="#40A383"/>
<path d="M117.916 270.294C117.198 272.185 116.469 274.034 115.741 275.849C116.2 275.855 116.689 275.865 117.188 275.865C118.25 275.875 119.342 275.894 120.17 275.905C121.118 274.144 122.075 272.349 123.023 270.532C122.126 270.497 120.759 270.434 119.262 270.364C118.823 270.343 118.374 270.323 117.916 270.294Z" fill="#D9DAD7"/>
<path d="M119.163 267.017C118.754 268.123 118.335 269.216 117.917 270.294C118.375 270.323 118.824 270.343 119.263 270.364C120.759 270.434 122.126 270.497 123.024 270.532C123.572 269.47 124.121 268.407 124.659 267.33C124.54 267.326 124.42 267.32 124.3 267.32L124.261 267.316H124.25C122.515 267.231 120.814 267.131 119.163 267.017Z" fill="#40A383"/>
<path d="M115.741 275.849C115.482 276.493 115.222 277.132 114.958 277.771L116.813 281.979C117.895 280.054 119.028 278.014 120.17 275.905C119.341 275.894 118.249 275.875 117.187 275.865C116.688 275.865 116.199 275.855 115.741 275.849Z" fill="#40A383"/>
<path d="M146.406 60.7906C146.406 60.7906 130.071 114.086 128.635 120.166C127.208 126.245 79.1968 226.563 77.7661 253.022C77.5912 256.284 78.1097 257.71 79.1522 257.71C84.7733 257.71 105.587 216.388 115.442 195.613C116.829 189.967 117.911 186.148 117.911 186.148C117.911 186.148 91.1825 244.841 84.5344 244.841C83.9748 244.841 83.556 244.433 83.3121 243.545C80.095 232.014 123.543 141.083 123.543 141.083C129.996 128.176 137.727 96.9532 140.091 96.9532C140.38 96.9532 140.59 97.4176 140.709 98.445C141.068 101.626 139.493 109.867 137.248 119.378C139.522 113.069 146.266 77.6223 146.406 72.6013C146.765 59.723 146.406 60.7906 146.406 60.7906ZM146.406 72.6013C144.959 72.5973 145.034 93.4721 140.709 98.445C138.849 100.585 134.814 131.457 134.151 131.742C130.206 146.865 125.956 161.2 125.956 161.2C125.956 161.2 136.52 134.694 140.55 134.694C141.363 134.694 141.912 135.778 142.046 138.4C142.834 153.604 121.587 242.078 112.609 242.078C112.405 242.078 112.2 242.024 112.011 241.933C105.777 238.816 111.701 210.821 115.417 195.717C107.332 215.49 93.8059 254.039 104.23 261.601C105.148 262.268 106.085 262.587 107.023 262.587C120.704 262.587 136.161 195.259 142.854 156.108C147.383 129.607 148.905 72.6013 146.406 72.6013Z" fill="#A32929"/>
<path d="M140.091 96.9534C137.727 96.9534 129.996 128.176 123.543 141.083C123.543 141.083 80.095 232.014 83.3121 243.545C83.556 244.433 83.9748 244.841 84.5344 244.841C91.1825 244.841 117.911 186.148 117.911 186.148C117.911 186.148 116.829 189.967 115.442 195.613C115.487 195.518 115.527 195.435 115.567 195.35C115.522 195.474 115.472 195.588 115.417 195.718C111.701 210.821 105.777 238.816 112.011 241.933C112.2 242.024 112.405 242.078 112.609 242.078C121.587 242.078 142.834 153.604 142.046 138.4C141.912 135.778 141.363 134.694 140.55 134.694C136.52 134.694 125.956 161.2 125.956 161.2C125.956 161.2 130.206 146.865 134.151 131.742C134.036 131.796 133.932 131.821 133.847 131.821C132.55 131.821 134.774 126.225 137.248 119.378C139.493 109.867 141.068 101.626 140.709 98.4452C140.59 97.4177 140.38 96.9534 140.091 96.9534Z" fill="#DA3424"/>
<path d="M147.078 61.4853C144.714 61.4853 145.995 129.877 139.541 142.784C139.541 142.784 96.0938 233.715 99.3109 245.246C99.5548 246.134 99.9736 246.543 100.533 246.543C107.181 246.543 133.91 187.849 133.91 187.849C133.91 187.849 132.828 191.668 131.441 197.314C131.486 197.219 131.526 197.136 131.566 197.051C131.521 197.175 131.471 197.289 131.416 197.419C127.7 212.522 121.775 240.517 128.01 243.635C128.199 243.725 128.403 243.779 128.608 243.779C137.586 243.779 158.833 155.305 158.045 140.101C157.911 137.479 157.362 136.395 156.549 136.395C152.518 136.395 153.247 121.079 153.247 121.079C153.247 121.079 147.106 142.262 151.051 127.139C150.936 127.193 151.926 124.708 149.845 133.522C148.549 133.522 150.773 127.926 153.247 121.079C155.492 111.568 153.606 103.92 153.247 100.739C153.128 99.7112 147.367 61.4853 147.078 61.4853Z" fill="#A32929"/>
<path d="M88.454 300.813C84.1944 300.813 79.9203 304.773 77.7657 308.096C77.3064 308.804 76.6732 309.113 75.9002 309.113C75.2119 309.113 74.4134 308.864 73.5357 308.428C74.3087 310.918 75.4313 313.397 77.1065 313.397C78.1645 313.397 79.4359 312.42 80.9873 309.885C83.3513 306.135 85.3867 304.783 87.1024 304.783C91.6009 304.783 93.8552 314.175 93.8552 314.175C93.8552 314.175 91.3514 329.559 83.8502 329.91C83.7851 329.91 83.7205 329.91 83.6609 329.91C79.1919 329.91 75.1172 322.27 72.5834 316.185C72.9075 321.905 73.7652 329.795 78.8328 332.314C80.0395 332.585 81.2568 332.845 82.5037 333.121C97.7956 333.121 99.2223 319.891 99.2223 319.891C99.2223 319.891 100.504 321.258 102.444 323.162C102.35 322.105 102.17 321.048 101.935 320.006C100.18 317.702 98.7134 314.958 97.7956 311.671C97.6558 311.187 97.5216 310.719 97.3768 310.27C96.7977 309.676 96.3739 309.302 96.1896 309.246C96.3243 309.113 96.5387 308.912 96.8032 308.659C94.564 302.858 91.5112 300.813 88.454 300.813ZM69.8999 308.807C69.8999 308.807 65.236 312.859 60.4485 315.781C60.8773 317.63 61.2961 319.415 61.7054 321.128C64.9069 319.42 67.7804 316.827 69.5457 313.097C69.965 312.205 70.3237 311.522 70.6227 311.013C70.1543 309.657 69.8999 308.807 69.8999 308.807Z" fill="#D03424"/>
<path d="M59.8701 297.986C58.8727 298.268 57.8798 298.764 56.9075 299.516C58.0196 305.042 59.2514 310.638 60.4487 315.781C65.2362 312.859 69.9 308.807 69.9 308.807C69.9 308.807 70.1545 309.657 70.6229 311.013C71.0968 310.214 71.4364 309.865 71.6854 309.865C72.3787 309.865 72.3787 312.594 72.5836 316.185C75.1174 322.27 79.1921 329.91 83.6611 329.91C83.7207 329.91 83.7853 329.91 83.8504 329.91C91.3516 329.559 93.8553 314.175 93.8553 314.175C93.8553 314.175 91.6011 304.783 87.1026 304.783C85.3868 304.783 83.3515 306.135 80.9875 309.885C79.4361 312.42 78.1647 313.397 77.1067 313.397C75.4315 313.397 74.3089 310.918 73.5359 308.428C71.2421 307.297 68.4237 304.922 65.6054 302.548C65.2763 302.274 64.9472 302.001 64.6231 301.72C65.2568 302.978 66.2341 304.141 66.1645 304.141C66.1044 304.141 65.4511 303.487 63.6107 301.73C62.8923 301.047 62.214 300.2 61.5708 299.241C60.9922 298.798 60.4236 298.375 59.8701 297.986Z" fill="#DA3424"/>
<path d="M167.573 269.659L171.135 274.919C173.892 275.033 182.856 275.36 187.125 275.326L191.213 270.101C181.941 270.495 174.111 270.246 167.573 269.659Z" fill="#6CCCAF"/>
<path d="M181.219 290.504L192.92 270.468L211.21 288.039L226.512 263.845L242.193 276.877L249.26 260.786C248.567 259.296 247.884 257.833 247.22 256.423C246.697 256.686 246.078 256.967 245.38 257.211L241.38 270.544L231.993 261.601C228.597 262.682 224.571 263.89 219.963 265.082L212.053 281.81L198.057 269.241C194.941 269.54 191.808 269.715 188.76 269.795L181.299 286.274L168.446 269.795C166.666 269.665 165.16 269.9 164.077 269.795C164.541 271.691 165.029 271.964 165.288 273.067L165.698 272.703L181.219 290.504Z" fill="#C9ADDB"/>
<path d="M99.1925 312.274C100.07 314.134 101.237 316.972 101.936 320.006C109.726 330.271 123.242 331.999 120.32 334.914C120.011 335.23 119.587 335.375 119.083 335.375C115.372 335.375 107.048 327.711 102.444 323.162C102.963 329.068 100.723 334.734 90.21 334.739C100.22 336.562 109.202 337.144 115.791 337.144C119.781 337.144 122.894 336.933 124.823 336.653C125.597 336.547 126.185 336.427 126.555 336.307C126.131 335.009 125.327 333.452 123.812 332.054C120.32 328.833 113.886 325.882 112.011 324.815C110.136 323.733 107.991 324.004 106.913 322.13C106.195 320.873 102.13 315.67 99.1925 312.274Z" fill="#D03424"/>
<path d="M101.935 320.006C102.169 321.048 102.349 322.105 102.443 323.162C107.047 327.711 115.371 335.375 119.082 335.375C119.586 335.375 120.01 335.23 120.319 334.914C123.242 331.999 109.726 330.27 101.935 320.006Z" fill="#DA3424"/>
<path d="M155.293 144.232C146.245 210.707 125.667 255.102 119.621 267.045C120.898 267.131 122.195 267.216 123.521 267.276C123.896 267.301 124.28 267.32 124.659 267.33C128.794 259.142 132.489 250.832 134.006 244.886C139.901 228.792 145.806 208.94 146.34 207.065C146.395 206.86 146.449 206.771 146.5 206.771H146.505C146.744 205.63 146.874 204.916 146.874 204.916C149.557 191.778 155.193 148.056 155.193 147.253V147.244V147.238V147.234V147.228V147.224C155.193 146.944 155.213 146.4 155.243 145.673C155.258 145.249 155.273 144.759 155.293 144.235V144.232Z" fill="#D33825"/>
</svg>
