<svg width="99" height="96" viewBox="0 0 99 96" fill="none" xmlns="http://www.w3.org/2000/svg">
<path d="M58.5576 95.9333C58.5576 94.3561 64.1104 64.3967 91.4705 42.3207C91.4705 42.3207 63.7127 70.3081 67.2814 95.9333H58.5576Z" fill="#66191A"/>
<path d="M0.00161356 38.3783C-0.119947 37.4373 6.61092 62.5553 25.6449 70.9669C44.6788 79.3756 67.2815 95.9333 67.2815 95.9333H58.5577C58.5577 95.9333 34.1031 76.7478 23.7944 74.3826C13.4843 72.0175 1.5879 50.5988 0.00161356 38.3783Z" fill="#66191A"/>
<path d="M15.3346 45.7364C15.3346 45.7364 13.4842 62.0315 21.4141 70.4402L27.2295 73.3322C27.2295 73.3322 16.3926 65.3152 15.3346 45.7364Z" fill="#66191A"/>
<path d="M5.8186 72.0174C5.8186 72.0174 13.7485 77.273 36.7474 78.3251L43.0926 82.7928C43.0926 82.7928 14.0127 78.8503 5.8186 72.0174Z" fill="#66191A"/>
<path d="M44.1506 0.335854C44.1506 0.335854 52.6103 34.6984 50.2317 48.891C47.8515 63.082 59.7464 95.9333 59.7464 95.9333H67.2816C67.2816 95.9333 54.7248 68.6018 54.1951 53.0961C53.6683 37.5904 48.3797 11.704 44.1506 0.335854Z" fill="#66191A"/>
<path d="M24.4563 12.3599C24.4563 12.3599 34.1031 33.6479 52.3461 46.7869V53.884C52.3461 53.884 28.2877 26.5509 24.4563 12.3599Z" fill="#66191A"/>
<path d="M64.5052 33.1212C64.5052 33.1212 58.954 49.9415 52.3462 63.6073L54.0241 67.1431C54.0241 67.1431 64.6103 42.3207 64.5052 33.1212Z" fill="#66191A"/>
<path d="M95.437 48.1346C95.437 48.1346 87.1753 58.9415 70.8502 69.1256L67.2815 77.4052C67.2815 77.4052 89.0918 59.2056 95.437 48.1346Z" fill="#66191A"/>
<path d="M75.0135 38.3513C75.0135 38.3513 70.2156 51.789 76.5907 57.4137L73.2816 62.7699C73.2816 62.7699 69.6618 50.5463 75.0135 38.3513Z" fill="#66191A"/>
<path d="M54.3945 71.0975C54.3945 71.0975 50.1655 60.4542 38.4011 48.8249C38.4011 48.8249 52.4871 69.4587 55.7167 81.5442L54.3945 71.0975Z" fill="#66191A"/>
<path d="M96.2293 70.3081C96.2293 70.3081 82.9446 83.9094 61.532 87.8519L62.9202 91.7943C62.9202 91.7943 90.0822 79.3756 96.2293 70.3081Z" fill="#66191A"/>
<path d="M89.0921 69.1255C89.0921 69.1255 81.7444 76.1565 80.1641 82.7928L76.5908 83.183C76.5908 83.183 81.953 74.6453 89.0921 69.1255Z" fill="#66191A"/>
<path d="M98.608 81.5443C98.608 81.5443 86.5466 87.6568 73.9388 86.2761L69.0659 86.4787C69.0659 86.4787 85.3234 92.1876 98.608 81.5443Z" fill="#66191A"/>
</svg>
