<svg width="242" height="129" viewBox="0 0 242 129" fill="none" xmlns="http://www.w3.org/2000/svg">
<path d="M12.0453 16.9621C12.0453 16.9621 33.0868 30.6597 40.1115 47.3667L35.9606 53.1562C35.9606 53.1562 32.0352 34.5946 12.0453 16.9621Z" fill="#A32929"/>
<path d="M29.2972 8.3659C29.2972 8.3659 42.5933 29.5891 41.8973 47.6823L35.6814 51.2023C35.6814 51.2023 39.9738 32.721 29.2972 8.3659Z" fill="#A32929"/>
<path d="M42.0771 6.71778C42.0771 6.71778 49.075 30.7363 43.4594 47.9615L36.517 49.6689C36.517 49.6689 45.6965 33.0422 42.0771 6.71778Z" fill="#A32929"/>
<path d="M69.5065 20.8128C69.5065 20.8128 46.6964 31.346 37.3199 46.8715L40.5856 53.1983C40.5856 53.1983 47.1648 35.3918 69.5065 20.8128Z" fill="#A32929"/>
<path d="M77.43 32.5181C77.43 32.5181 52.4383 35.3269 38.5973 47.0971L39.6795 54.1276C39.6795 54.1276 51.5951 39.3115 77.43 32.5181Z" fill="#A32929"/>
<path d="M81.7548 45.7052C81.7548 45.7052 57.0002 41.2751 40.3486 48.6095L39.3582 55.6533C39.3582 55.6533 55.0423 44.8543 81.7548 45.7052Z" fill="#A32929"/>
<path d="M0.76062 30.1281C0.76062 30.1281 25.5268 34.4875 38.5972 47.0971L37.0752 54.0453C37.0752 54.0453 26.1176 38.518 0.76062 30.1281Z" fill="#A32929"/>
<path d="M1.36682 43.4318C1.36682 43.4318 25.4351 44.0799 30.8862 54.1504L45.4556 56.7355C45.4556 56.7355 54.9659 49.1429 75.0782 54.9458C75.0782 54.9458 57.6618 48.4202 42.2435 51.5234C42.2435 51.5234 17.1944 39.0456 1.36682 43.4318Z" fill="#A32929"/>
<path d="M231.56 56.7665C233.101 46.2084 232.466 22.295 231.96 9.15961C231.765 4.09663 227.581 0.0948334 222.486 0.0948334C217.031 0.0948334 212.7 4.66068 213.025 10.0755C214.006 26.5206 215.708 58.9041 214.822 73.1657C213.608 92.6987 220.887 128.872 220.887 128.872H229.134C239.323 96.7999 229.377 71.7183 231.56 56.7665Z" fill="#A32929"/>
<path d="M220.887 37.958C220.887 42.4856 217.193 46.1566 212.639 46.1566C208.082 46.1566 204.39 42.4856 204.39 37.958C204.39 33.4303 208.082 29.7593 212.639 29.7593C217.193 29.7593 220.887 33.4303 220.887 37.958Z" fill="#A32929"/>
<path d="M236.411 50.2577C236.411 51.8561 235.109 53.1505 233.501 53.1505C231.893 53.1505 230.589 51.8561 230.589 50.2577C230.589 48.6592 231.893 47.3629 233.501 47.3629C235.109 47.3629 236.411 48.6592 236.411 50.2577Z" fill="#A32929"/>
<path d="M241.506 89.686C241.506 93.3475 238.52 96.3187 234.833 96.3187C231.151 96.3187 228.164 93.3475 228.164 89.686C228.164 86.0226 231.151 83.0533 234.833 83.0533C238.52 83.0533 241.506 86.0226 241.506 89.686Z" fill="#A32929"/>
<path d="M179.116 27.6336C177.605 22.9779 172.504 20.5076 167.885 22.192C163.61 23.7503 161.281 28.3296 162.541 32.6794C175.37 76.9211 204.467 120.41 204.467 120.41L212.639 117.433C202.312 97.8002 185.641 47.7287 179.116 27.6336Z" fill="#A32929"/>
<path d="M161.793 62.7042C160.057 59.7024 156.39 58.3926 153.119 59.5857C149 61.0866 147.163 65.8953 149.296 69.7059C159.401 87.7724 184.485 82.1033 184.485 82.1033L181.175 73.1246C171.33 75.7651 165.004 68.2509 161.793 62.7042Z" fill="#A32929"/>
<path d="M195.035 41.8829C192.739 42.7185 191.343 45.0186 191.628 47.4334C192.064 51.1255 191.59 56.4294 186.422 59.5727L187.999 63.848C187.999 63.848 200.406 61.4675 202.068 47.3856C202.525 43.5215 198.706 40.5445 195.035 41.8829Z" fill="#A32929"/>
</svg>
