<svg width="127" height="227" viewBox="0 0 127 227" fill="none" xmlns="http://www.w3.org/2000/svg">
<path d="M111.507 212.631C108.004 221.344 99.4741 220.562 73.1497 218.149C46.8253 215.736 40.6783 215.172 35.5415 205.667C46.0216 192.931 50.0309 180.768 76.3553 183.181C102.68 185.594 112.824 198.267 111.507 212.631Z" fill="#897284"/>
<path d="M93.0118 92.6979C93.0987 91.7498 94.0325 85.9044 93.6452 83.5755C93.2505 81.2442 92.4962 78.497 92.5727 75.4447C92.6506 72.3896 91.7895 66.38 90.5977 63.9774C89.4026 61.5702 90.3501 57.8289 89.2281 54.6696C88.1024 51.5045 88.5199 46.9501 88.4692 43.1219C87.9123 40.3924 90.7661 35.6779 90.7661 35.6779C88.6062 37.2048 86.2897 40.4355 85.9186 42.3154C85.5434 44.191 82.6099 47.5605 80.8103 51.7925C79.0102 56.0251 73.6202 68.5393 54.0683 101.176C44.3318 117.44 33.8273 141.786 22.588 162.151C24.4163 163.424 24.5815 165.348 29.5387 167.392C30.3777 167.74 31.2698 168.088 32.2102 168.44C35.9028 169.818 40.4004 171.219 45.84 172.503C46.634 172.691 47.4428 172.878 48.2749 173.057L48.3552 173.004L48.3857 173.079C49.3831 173.299 50.4037 173.512 51.4589 173.719C54.8116 174.379 58.4575 174.994 62.4297 175.532C66.048 170.024 69.3458 164.4 70.8634 160.298C76.3081 149.319 82.0039 135.683 82.5242 134.394C82.5877 134.236 82.6376 134.181 82.6696 134.198C82.9191 133.406 83.0618 132.91 83.0618 132.91C85.9168 123.802 92.9597 93.2659 93.0118 92.6979Z" fill="#E49A40"/>
<path d="M59.6253 193.787C59.6253 193.787 74.031 193.409 86.7779 198.765C96.0878 194.753 85.7921 153.979 83.8585 145.428C81.9278 136.877 88.3791 102.278 91.0384 96.7495C93.6948 91.2232 99.2486 72.6078 98.6089 67.2302C97.9713 61.8528 96.0875 51.5549 96.0875 51.5549L91.2131 36.7942C91.2131 36.7942 83.0752 49.0581 82.6443 50.041C82.2169 51.0194 77.4384 59.9705 77.6096 70.3927C77.7895 80.8252 73.3613 105.648 73.3613 105.648C73.3613 105.648 56.8495 190.702 59.6253 193.787Z" fill="#6B4C6A"/>
<path d="M91.461 90.9008C91.461 90.9008 90.8303 45.9254 89.706 38.4608C88.717 34.4128 87.8021 32.0651 87.8021 32.0651C87.8021 32.0651 87.2622 31.7889 86.5584 32.0684C85.8515 32.3381 85.3732 32.6347 85.3732 32.6347L84.6491 30.6459C84.6491 30.6459 85.8247 30.1856 86.3852 30.2369C86.9454 30.2883 86.1401 27.9554 86.2021 27.2789C86.2638 26.6061 85.9286 26.5754 86.7246 26.5345C87.5234 26.4939 87.5128 27.8508 87.5128 27.8508C87.5128 27.8508 89.2392 33.6685 89.94 34.6349C90.6459 35.612 92.4914 63.6143 93.1378 71.3717C93.7875 79.1231 93.6385 86.9116 93.6887 87.602C93.7367 88.2848 91.461 90.9008 91.461 90.9008Z" fill="#501F15"/>
<path d="M96.9189 62.2081C96.9189 62.2081 91.1821 37.1256 91.1645 36.1105C91.1418 35.0857 91.9097 35.3862 91.1418 35.0857C90.3799 34.7895 89.9015 33.8456 89.9015 33.8456L90.667 32.8959C90.667 32.8959 88.9826 24.137 88.4102 21.7078C87.8403 19.2792 85.1076 16.9962 85.1076 16.9962L85.3444 14.4133L87.5985 15.7539C87.5985 15.7539 87.6344 10.4383 88.9466 9.656C89.7043 10.0634 90.4393 10.6954 90.4393 10.6954C90.4393 10.6954 89.221 16.5808 89.3127 18.0598C89.4038 19.5423 91.542 33.2003 91.7565 34.5777C91.9711 35.9542 96.2219 51.2857 97.3517 55.0074C98.4811 58.7303 96.9189 62.2081 96.9189 62.2081Z" fill="#501F15"/>
<path d="M84.4925 89.1319C84.4925 89.1319 88.5473 59.7421 88.7527 57.5018C88.9587 55.2544 91.1618 37.3504 91.1618 37.3504C91.1618 37.3504 94.5012 20.6858 94.7483 17.99C94.9951 15.298 94.9725 9.41014 95.0339 8.73988C95.0956 8.0668 95.025 7.60635 95.9298 7.57771C96.836 7.54475 96.5409 9.55392 96.6662 10.7016C96.7823 11.845 97.3979 10.089 97.9074 9.45506C98.42 8.82236 98.3044 8.81175 98.6004 9.29697C98.8981 9.77 99.0925 10.1258 98.5587 10.9889C98.0263 11.8452 97.1503 14.0284 96.9663 14.7968C96.7808 15.5793 96.287 20.9659 95.7332 23.2889C95.1795 25.6152 94.355 28.4781 94.1391 29.591C93.9236 30.7039 92.7874 35.6946 92.6846 36.8154C92.5817 37.9386 90.7953 49.9934 90.5382 52.7983C90.2808 55.6057 87.7546 79.4727 87.395 82.1579C87.0354 84.8395 84.4079 96.2517 84.2533 97.9383C84.0991 99.6199 84.4925 89.1319 84.4925 89.1319Z" fill="#501F15"/>
<path d="M77.2186 143.8C77.2186 143.8 71.8337 167.97 70.8613 172.411C69.89 176.847 65.3515 191.821 65.0336 192.81C64.7184 193.803 65.1022 193.273 66.1025 193.478C67.1029 193.68 67.4512 193.602 67.4825 193.261C67.5134 192.923 74.7868 161.682 75.126 159.223C75.4618 156.763 77.9314 145.904 78.0034 145.118C78.0758 144.329 77.2186 143.8 77.2186 143.8Z" fill="#501F15"/>
<path d="M80.704 160.078C80.704 160.078 79.8404 185.572 79.6146 188.035C79.3879 190.508 78.7818 194.641 79.5574 194.822C80.3329 195.005 81.7351 194.893 81.7856 187.218C81.8183 181.28 82.0521 161.446 82.0521 161.446L80.704 160.078Z" fill="#501F15"/>
<path d="M82.1672 76.2458C82.1672 76.2458 90.9143 40.0496 91.817 37.6383C92.7165 35.2299 93.9636 32.7472 94.411 32.7882C94.8586 32.8293 95.7063 32.2251 95.7063 32.2251L96.2367 31.3673L95.5259 30.51C95.5259 30.51 98.1914 26.1176 98.7868 24.5852C99.378 23.0574 102.359 18.9155 102.707 18.8371C103.053 18.7512 104.908 18.2432 104.908 18.2432L107.36 16.2111L106.675 15.0121L104.983 16.2136C104.983 16.2136 104.301 13.7743 104.352 13.2147C104.404 12.6536 103.222 11.9774 103.222 11.9774C103.222 11.9774 102.384 14.9564 102.343 15.4034C102.302 15.8577 100.91 18.6724 99.8918 19.9318C98.8696 21.2025 97.3246 24.4511 97.3246 24.4511L96.8027 23.9515L95.7638 24.1968L96.1795 27.0633C96.1795 27.0633 94.7891 29.8743 94.5383 30.1994C94.282 30.5126 91.7978 34.1297 91.7567 34.5777C91.7158 35.0247 81.5209 68.4883 81.4382 69.3906C81.3556 70.2916 82.1672 76.2458 82.1672 76.2458Z" fill="#501F15"/>
<path d="M84.6327 188.246C84.8716 191.664 85.1474 195.575 85.3716 198.746L88.7404 193.397L84.6327 188.246Z" fill="#7D6AB6"/>
<path d="M75.8831 136.774C75.4401 137.92 70.5922 150.039 65.9667 159.8C62.7579 168.842 50.3052 186.201 47.4249 189.838C44.547 193.479 39.4473 197.257 38.5317 198.015C39.1855 198.249 43.9553 205.476 44.52 206.717C45.0885 207.955 46.4502 207.908 47.5647 208.695C48.6803 209.473 52.5481 211.695 54.554 213.917C55.4249 214.881 55.8395 215.905 56.0309 216.744C56.1949 216.712 56.3026 216.671 56.3415 216.627C56.9069 216.003 63.1136 187.201 64.0533 180.672C64.9868 174.138 72.3077 147.99 73.4581 144.702C74.2969 142.299 75.4456 138.487 76.0063 136.6C75.9794 136.585 75.9372 136.634 75.8831 136.774Z" fill="#7C4A68"/>
<path d="M72.2776 146.459C72.2776 146.459 62.3057 186.789 60.7988 188.349C59.2986 189.914 57.8786 207.263 57.4008 210.615C56.9233 213.963 50.6413 208.464 48.8501 207.621C47.0585 206.782 52.3168 197.588 52.9597 196.119C53.6029 194.649 47.3829 203.243 46.2663 204.333C45.1479 205.415 45.6052 205.967 43.8335 203.088C42.0614 200.211 38.8197 198.556 43.4612 196.094C48.0959 193.636 54.5598 184.21 55.9554 181.965C57.3479 179.719 70.9131 153.973 72.2776 146.459Z" fill="#7B5471"/>
<path d="M67.3708 161.113C67.3708 161.113 59.1916 189.222 58.5907 193.92C57.9928 198.616 56.9174 206.665 56.0866 208.285C55.2597 209.908 50.1806 207.914 50.1042 206.887C50.0279 205.862 55.1325 196.488 55.5635 193.643C55.9921 190.793 47.8597 201.758 46.4209 202.649C44.9827 203.533 42.2738 199.722 42.8888 198.588C43.5006 197.458 48.6606 196.743 50.6534 193.53C52.646 190.316 61.6485 177.226 67.3708 161.113Z" fill="#795B73"/>
<path d="M132.048 161.811C128.652 153.996 113.5 106.044 109.933 96.3355C106.365 86.6328 100.127 61.1608 99.139 56.9757C98.152 52.7909 96.6055 49.0686 96.0347 51.5752C96.3104 54.1597 89.6617 68.6791 87.1455 73.7325C84.622 78.792 84.7841 99.4913 84.7377 99.9977C84.6913 100.504 78.3114 128.918 76.1303 135.876C76.9966 143.294 77.0538 153.871 82.7077 170.76C82.9822 173.992 82.9452 176.148 83.393 177.295C84.0732 177.424 85.0237 177.567 86.1448 177.753C89.2667 178.266 93.9006 178.914 98.9323 179.223C100.869 179.349 102.865 179.421 104.858 179.414C106.963 179.406 109.069 179.318 111.087 179.109C113.949 178.806 116.584 178.447 118.985 178.064C121.974 177.58 124.596 177.052 126.812 176.568C130.766 175.702 133.419 174.956 134.577 174.783C134.923 174.726 135.245 174.66 135.552 174.577C136.009 174.464 136.417 174.323 136.764 174.188C134.742 168.626 133.006 164.018 132.048 161.811Z" fill="#E49A40"/>
<path d="M93.4346 188.722L96.0011 184.534L90.4864 184.369L93.4346 188.722Z" fill="#D02E4B"/>
<path d="M112.822 187.462L115.125 183.557L109.84 184.25L112.822 187.462Z" fill="#D02E4B"/>
<path d="M110.929 178.463C108.931 178.672 106.846 178.761 104.762 178.77L106.611 180.764C108.733 180.623 114.459 180.205 117.381 179.737L118.748 177.419C116.371 177.801 113.763 178.161 110.929 178.463Z" fill="#D02E4B"/>
<path d="M109.839 184.25L115.124 183.557L117.381 179.737C114.459 180.205 108.733 180.623 106.611 180.764L109.839 184.25Z" fill="white"/>
<path d="M88.6997 184.797L95.4673 184.872L98.7983 180.885C95.046 180.94 87.7544 180.479 85.0547 180.293L88.6997 184.797Z" fill="white"/>
<path d="M135.152 173.942C134.848 174.024 134.529 174.09 134.186 174.147C133.041 174.32 130.413 175.064 126.498 175.927L127.955 177.597C129.702 177.277 132.613 176.714 134.155 176.417L135.152 173.942Z" fill="#D02E4B"/>
<path d="M84.2331 182.512C84.3371 183.961 84.4763 185.991 84.6325 188.246L88.7402 193.397L85.3714 198.746C85.4501 199.917 85.5257 200.985 85.5856 201.88L91.737 192.9L84.2331 182.512Z" fill="#9B1B29"/>
<path d="M102.371 207.604L92.9976 194.644L85.7914 205.182C85.7907 205.223 85.7871 205.264 85.7893 205.312C89.7216 206.038 96.8198 207.247 102.371 207.604Z" fill="#33368A"/>
<path d="M102.816 207.637C104.706 207.742 106.398 207.747 107.694 207.588C111.231 207.152 117.373 205.846 122.846 204.57L112.05 195.402L102.816 207.637Z" fill="#33368A"/>
<path d="M111.035 193.387L101.621 182.521L94.2198 192.881L102.63 204.503L111.035 193.387Z" fill="#9B1B29"/>
<path d="M124.514 204.18C128.953 203.133 132.69 202.171 133.798 201.834C135.6 201.276 140.104 198.842 143.19 196.714L132.729 190.314L124.514 204.18Z" fill="#33368A"/>
<path d="M131.481 188.435L123.131 180.084L112.867 193.442L123.28 202.281L131.481 188.435Z" fill="#9B1B29"/>
<path d="M149.267 210.208C148.861 209.095 147.142 204.148 144.912 197.762C144.705 197.161 144.493 196.552 144.272 195.931C143.94 196.179 143.578 196.443 143.191 196.714C140.104 198.842 135.601 201.276 133.798 201.834C132.691 202.171 128.954 203.133 124.515 204.18C123.966 204.31 123.412 204.442 122.847 204.57C117.373 205.846 111.231 207.151 107.695 207.587C106.398 207.747 104.707 207.742 102.817 207.636C102.666 207.625 102.519 207.615 102.371 207.604C96.8202 207.247 89.722 206.038 85.7897 205.312C85.8026 206.817 85.6884 209.651 85.7286 210.831C85.7735 212.198 86.0248 220.54 86.5173 220.753C88.0291 220.891 114.475 223.148 121.235 223.428C128 223.7 139.526 222.046 143.338 221.203C147.145 220.366 153.375 219.07 153.375 219.07C153.375 219.07 150.485 213.546 149.267 210.208Z" fill="#E49A40"/>
<path d="M101.621 182.521L111.036 193.387L102.63 204.503L94.2202 192.881L101.621 182.521ZM123.132 180.084L131.482 188.435L123.281 202.281L112.868 193.442L123.132 180.084ZM85.792 205.182L92.9982 194.644L102.371 207.604C102.519 207.615 102.666 207.625 102.817 207.637L112.05 195.402L122.847 204.57C123.412 204.442 123.966 204.31 124.515 204.18L132.73 190.314L143.191 196.714C143.578 196.443 143.94 196.179 144.272 195.931C144.138 195.535 144.001 195.14 143.861 194.739L133.169 188.21L138.294 178.959C137.985 178.09 137.684 177.245 137.382 176.409L132.021 186.1L122.93 177.02L111.935 191.323L101.468 179.244L92.9719 191.144L84.2556 179.08L83.9775 179.285C84.0319 179.656 84.0735 180.03 84.099 180.471C84.117 180.797 84.1643 181.515 84.234 182.512L91.7379 192.9L85.5865 201.88C85.6973 203.431 85.7677 204.482 85.7765 204.729C85.7879 204.853 85.7858 205.008 85.792 205.182Z" fill="#D02E4B"/>
<path d="M101.785 185.661L97.851 192.766L102.436 199.52L107.43 193.19L101.785 185.661Z" fill="#7D6AB6"/>
<path d="M122.914 184.763L117.571 192.427L122.496 197.963L126.748 188.629L122.914 184.763Z" fill="#7D6AB6"/>
<path d="M88.9147 202.893C89.0086 201.869 89.9169 201.119 90.9373 201.212C91.961 201.306 92.7145 202.209 92.6206 203.233C92.5268 204.257 91.6214 205.01 90.5978 204.916C89.5774 204.823 88.8209 203.917 88.9147 202.893Z" fill="white"/>
<path d="M94.639 203.418C94.7456 202.256 95.7738 201.404 96.9323 201.51C98.0996 201.617 98.9557 202.642 98.8492 203.804C98.7424 204.968 97.714 205.823 96.5467 205.716C95.3882 205.61 94.5323 204.583 94.639 203.418Z" fill="white"/>
<path d="M107.898 203.191C108.004 202.029 109.033 201.176 110.197 201.283C111.358 201.39 112.214 202.415 112.107 203.577C112.001 204.738 110.973 205.596 109.812 205.49C108.647 205.383 107.791 204.352 107.898 203.191Z" fill="white"/>
<path d="M113.992 202.477C114.073 201.595 114.852 200.946 115.738 201.027C116.621 201.108 117.269 201.888 117.188 202.77C117.107 203.653 116.328 204.304 115.445 204.223C114.559 204.142 113.911 203.36 113.992 202.477Z" fill="white"/>
<path d="M103.355 192.592C103.291 193.286 102.736 193.806 102.116 193.749C101.494 193.692 101.048 193.081 101.111 192.386C101.175 191.691 101.725 191.167 102.348 191.224C102.967 191.281 103.419 191.896 103.355 192.592Z" fill="white"/>
<path d="M123.456 191.208C123.392 191.906 122.837 192.424 122.217 192.367C121.597 192.31 121.145 191.7 121.209 191.002C121.273 190.302 121.828 189.787 122.448 189.844C123.068 189.9 123.521 190.508 123.456 191.208Z" fill="white"/>
<path d="M98.2853 59.218L98.2662 59.2226C97.4007 59.6416 99.3322 98.6862 104.948 119.788C104.198 117.639 102.495 113.288 100.409 108.908C97.463 102.726 93.7462 96.4736 90.8259 96.2059C89.0384 96.0421 87.5483 98.1142 86.7095 103.82C86.7095 103.82 76.8535 168.774 90.4805 175.622C91.2182 176.041 91.8669 176.261 92.4372 176.314C97.051 176.737 96.4855 166.168 95.3517 157.88C95.5413 164.8 94.9055 170.666 92.1789 170.417C91.8693 170.388 91.5253 170.281 91.1615 170.086C88.9829 168.924 88.5335 165.391 88.1555 163.28C86.6178 154.781 86.8993 145.89 87.1665 137.297C87.42 129.3 87.893 121.311 88.5576 113.342C88.718 111.447 88.4859 106.824 89.745 104.591C90.2156 103.756 90.89 103.253 91.8731 103.344C92.3739 103.389 92.9517 103.591 93.6198 103.98C98.0137 106.526 100.772 112.104 103.118 116.435C104.833 119.594 106.189 123.149 108.201 126.136C108.118 125.56 107.925 124.984 107.737 124.417C104.424 114.273 99.4798 75.6274 99.6497 73.7748C99.6555 73.7116 99.6671 73.6809 99.6832 73.6824C100.162 73.7263 104.978 98.6639 111.98 117.001C119.238 135.998 128.104 163.293 121.606 163.878C121.478 163.892 121.358 163.893 121.233 163.882C114.81 163.293 107.303 132.865 107.303 132.865C107.303 132.865 108.945 140.572 110.049 148.877C113.197 159.232 118.281 171.293 124.998 171.909C125.311 171.938 125.632 171.943 125.957 171.919C138.43 171.023 118.523 130.841 112.262 112.103C106.047 93.5101 99.2555 59.3069 98.2853 59.218ZM93.221 136.498C93.221 136.498 94.7695 146.22 95.2448 155.256C97.2838 163.106 101.287 174.808 107.077 175.339C107.321 175.362 107.567 175.368 107.821 175.347C112.105 175.03 112.098 166.087 110.853 156.593C111.329 163.428 110.908 169.081 108.223 169.103C108.151 169.102 108.082 169.099 108.01 169.093C101.258 168.474 93.221 136.498 93.221 136.498Z" fill="#F5AB50"/>
<path d="M99.6836 73.6824C99.6676 73.681 99.6559 73.7116 99.6501 73.7748C99.4802 75.6274 104.425 114.273 107.737 124.417C107.925 124.984 108.118 125.56 108.202 126.136C106.19 123.149 104.833 119.594 103.119 116.436C100.773 112.104 98.0141 106.526 93.6202 103.98C92.9521 103.591 92.3743 103.39 91.8735 103.344C90.8904 103.253 90.216 103.756 89.7454 104.591C88.4863 106.824 88.7184 111.447 88.558 113.342C87.8934 121.311 87.4204 129.3 87.167 137.297C86.8997 145.89 86.6182 154.781 88.1559 163.28C88.5339 165.391 88.9834 168.924 91.1619 170.086C91.5257 170.281 91.8697 170.388 92.1793 170.417C94.9059 170.667 95.5417 164.8 95.3521 157.88C94.9738 155.121 94.5314 152.609 94.1948 150.845C94.4485 152.034 94.8016 153.552 95.2452 155.256C94.77 146.22 93.2214 136.498 93.2214 136.498C93.2214 136.498 101.258 168.474 108.01 169.093C108.082 169.099 108.151 169.102 108.224 169.103C110.909 169.081 111.329 163.428 110.854 156.593C110.296 152.312 109.484 147.919 108.705 144.152C109.105 145.654 109.553 147.243 110.05 148.877C108.946 140.572 107.304 132.865 107.304 132.865C107.304 132.865 114.81 163.293 121.233 163.882C121.358 163.893 121.478 163.892 121.606 163.878C128.105 163.293 119.238 135.998 111.98 117.002C104.979 98.6639 100.163 73.7264 99.6836 73.6824Z" fill="#FAB45E"/>
<path d="M136.568 202.631C133.669 202.365 130.785 203.733 128.638 207.469C126.953 207.314 108.378 206.29 104.975 213.787C105.751 212.08 96.9452 208.937 96.0167 208.74C95.6443 208.67 95.2276 208.601 94.7954 208.561C92.9428 208.392 90.7726 208.687 89.8459 210.359C89.5654 210.865 89.4453 211.425 89.4548 212.006C89.478 214.129 91.1812 216.517 92.652 217.622C93.6628 218.371 94.8718 218.815 96.1212 218.929C96.2805 218.944 96.4437 218.955 96.6077 218.958C97.2945 218.973 103.126 217.539 102.83 216.811C103.689 218.906 108.333 221.003 113.387 221.466C118.981 221.979 125.082 220.497 127.117 214.796C128.404 216.626 134.301 218.786 139.5 219.263C144.634 219.734 149.081 218.559 147.745 213.805C146.082 207.862 141.306 203.065 136.568 202.631ZM129.264 209.903C131.896 207.12 134.453 206.218 136.718 206.426C141.583 206.871 145.099 212.417 145.054 215.423C145.031 216.911 143.179 217.28 140.638 217.047C135.648 216.589 127.994 213.799 126.309 212.519C127.262 213.243 122.898 218.084 122.23 218.552C120.403 219.82 118.39 220.156 116.205 220.161C115.467 220.164 114.737 220.141 114.02 220.075C112.548 219.94 111.129 219.626 109.73 218.985C107.82 218.125 105.01 216.241 102.606 216.02C102.177 215.981 101.768 215.994 101.376 216.073C99.3655 216.484 98.171 217.608 96.1703 217.424C95.8607 217.396 95.5376 217.341 95.184 217.239C93.0011 216.636 89.502 213.836 91.4239 211.293C92.167 210.311 93.4143 210.029 94.785 210.155C96.9919 210.357 99.5205 211.626 100.785 212.778C101.74 213.655 102.924 215.996 104.422 216.133C104.692 216.158 104.967 216.113 105.251 215.978C106.119 215.569 106.408 214.039 106.907 213.311C109.905 209.009 117.793 208.558 123.991 209.126C126 209.31 127.836 209.598 129.264 209.903Z" fill="#F5AB50"/>
<path d="M136.718 206.426C134.453 206.218 131.896 207.12 129.264 209.903C127.836 209.598 126 209.31 123.991 209.126C117.793 208.558 109.905 209.009 106.907 213.311C106.408 214.039 106.119 215.569 105.252 215.978C104.967 216.113 104.692 216.158 104.423 216.133C102.924 215.996 101.74 213.655 100.785 212.778C99.5206 211.626 96.992 210.357 94.7851 210.155C93.4144 210.029 92.1671 210.311 91.4241 211.293C89.5021 213.836 93.0012 216.636 95.1841 217.239C95.5377 217.341 95.8608 217.396 96.1705 217.425C98.1712 217.608 99.3657 216.484 101.377 216.073C101.769 215.994 102.177 215.981 102.606 216.02C105.01 216.241 107.82 218.125 109.73 218.985C111.129 219.626 112.548 219.94 114.02 220.075C114.737 220.141 115.467 220.164 116.205 220.161C118.39 220.156 120.404 219.82 122.23 218.552C122.898 218.084 127.262 213.243 126.309 212.519C127.994 213.799 135.648 216.589 140.638 217.047C143.179 217.28 145.031 216.911 145.054 215.423C145.099 212.417 141.583 206.871 136.718 206.426Z" fill="#FAB45E"/>
<path d="M54.5541 213.917C52.5482 211.695 48.6804 209.473 47.5647 208.695C46.4503 207.908 45.0885 207.955 44.5201 206.717C43.9554 205.476 39.1855 198.249 38.5317 198.015C39.0545 197.583 40.9494 196.156 43.01 194.338C41.3518 193.42 39.3663 192.766 37.1267 192.271L37.0406 192.314L37.0275 192.25C34.6205 191.723 31.9165 191.364 28.9863 191.032C27.2833 190.842 25.4327 190.338 23.5734 189.65L23.3797 189.768L23.3353 189.564C18.6486 187.802 13.9583 184.977 11.4551 183.361L11.3531 183.44L11.3422 183.421C7.74486 190.436 5.45169 195.068 5.30977 195.651C4.76809 197.808 1.47505 202.261 1.47505 202.261C2.83464 205.952 13.2427 207.245 28.5694 212.21C42.0279 216.757 53.9495 217.206 56.0309 216.744C55.8396 215.905 55.425 214.881 54.5541 213.917Z" fill="#E49A40"/>
<path d="M19.5159 167.666C17.3124 171.87 15.2659 175.807 13.4465 179.331L20.098 174.329L19.5159 167.666Z" fill="#9B1B29"/>
<path d="M37.028 192.25L34.4515 183.031L23.5739 189.65C25.4332 190.338 27.2838 190.842 28.9868 191.032C31.917 191.365 34.621 191.723 37.028 192.25Z" fill="#33368A"/>
<path d="M20.4316 176.616L11.4553 183.361C13.9584 184.977 18.6488 187.802 23.3355 189.564L20.4316 176.616Z" fill="#33368A"/>
<path d="M32.564 167.256L36.0091 179.117L46.9161 171.212C46.217 171.057 45.5377 170.894 44.8707 170.731L36.518 176.733L33.4258 167.185C32.6364 166.877 31.8877 166.572 31.1836 166.267L23.7201 170.693L22.8228 161.682C22.7812 161.656 22.7401 161.62 22.6984 161.594C22.216 162.516 21.7346 163.431 21.2602 164.335L21.9968 172.761L32.564 167.256Z" fill="#C9ADDB"/>
<path d="M43.0095 194.338C44.5552 192.974 46.1924 191.395 47.4245 189.838C48.1061 188.976 49.3261 187.339 50.8389 185.229L37.1262 192.271C39.3659 192.766 41.3514 193.42 43.0095 194.338Z" fill="#33368A"/>
<path d="M36.1357 181.527L38.3296 189.376L49.2904 183.743L45.9806 174.397L36.1357 181.527Z" fill="#9B1B29"/>
<path d="M22.1384 174.97L24.7398 186.565L34.3544 180.708L31.3031 170.197L22.1384 174.97Z" fill="#9B1B29"/>
<path d="M38.3295 189.376L36.1356 181.527L45.9806 174.397L49.2904 183.743L38.3295 189.376ZM24.7401 186.565L22.1386 174.97L31.3034 170.197L34.3546 180.708L24.7401 186.565ZM46.9164 171.212L36.0094 179.117L32.5644 167.256L21.9972 172.761L21.2605 164.335C20.6653 165.457 20.0835 166.572 19.5162 167.666L20.0984 174.329L13.4469 179.331C12.7252 180.729 12.0348 182.064 11.3886 183.328L11.4552 183.362L20.4315 176.616L23.3353 189.564C23.415 189.591 23.4942 189.623 23.5735 189.65L34.4511 183.031L37.0275 192.25C37.0584 192.258 37.0924 192.265 37.1267 192.271L50.8394 185.23C51.0861 184.884 51.3327 184.534 51.5932 184.169L47.0095 171.231C46.9787 171.224 46.9473 171.222 46.9164 171.212Z" fill="#D02E4B"/>
<path d="M25.0305 175.819L26.5403 182.492L30.92 179.165L29.5185 173.175L25.0305 175.819Z" fill="#7D6AB6"/>
<path d="M39.6329 181.318L41.3151 186.141L46.7846 182.908L45.5055 177.443L39.6329 181.318Z" fill="#7D6AB6"/>
<path d="M35.6305 173.985C36.3316 174.225 37.7635 174.717 38.8128 175.081L42.144 172.691C40.0609 172.106 35.7438 170.684 34.4178 170.241L35.6305 173.985Z" fill="white"/>
<path d="M36.5181 176.733L38.8126 175.081C37.7634 174.717 36.3314 174.225 35.6304 173.985L36.5181 176.733Z" fill="#D02E4B"/>
<path d="M33.4259 167.185L34.4177 170.241C35.7437 170.684 40.0608 172.106 42.1439 172.691L44.8709 170.731C40.3018 169.616 36.5255 168.392 33.4259 167.185Z" fill="#D02E4B"/>
<path d="M22.8226 161.682L23.0371 163.886C24.1505 164.618 27.4654 166.813 28.7632 167.706L31.1833 166.267C27.0232 164.475 24.3547 162.803 22.8226 161.682Z" fill="#D02E4B"/>
<path d="M23.7205 170.693L26.0572 169.306C25.3517 168.876 24.116 168.1 23.4173 167.664L23.7205 170.693Z" fill="#D02E4B"/>
<path d="M23.4171 167.664C24.1158 168.1 25.3514 168.876 26.0569 169.306L28.7636 167.706C27.4658 166.813 24.1509 164.618 23.0374 163.886L23.4171 167.664Z" fill="white"/>
<path d="M50.4138 174.242L51.6973 178.074C52.5604 178.163 54.3987 178.354 55.4992 178.47C56.1953 177.42 56.8994 176.348 57.5987 175.263C55.9443 175.061 51.7528 174.437 50.4138 174.242Z" fill="white"/>
<path d="M58.8096 173.347C55.4714 172.887 52.4078 172.357 49.5911 171.786L50.4141 174.242C51.753 174.437 55.9445 175.061 57.5989 175.263C58.0043 174.628 58.41 173.993 58.8096 173.347Z" fill="#D02E4B"/>
<path d="M53.0433 182.089C53.8331 180.943 54.6612 179.728 55.4993 178.47C54.3988 178.354 52.5605 178.163 51.6975 178.074L53.0433 182.089Z" fill="#D02E4B"/>
<path d="M28.7919 177.691C28.7365 178.296 28.3408 178.756 27.9089 178.716C27.471 178.676 27.1652 178.152 27.2206 177.547C27.276 176.944 27.6719 176.484 28.1098 176.524C28.5418 176.564 28.8472 177.088 28.7919 177.691Z" fill="white"/>
<path d="M44.5873 181.911C44.5231 182.612 43.9703 183.133 43.3476 183.076C42.7276 183.019 42.2788 182.406 42.343 181.706C42.4068 181.01 42.9595 180.49 43.5794 180.547C44.2022 180.604 44.6511 181.216 44.5873 181.911Z" fill="white"/>
<path d="M14.7575 183.28C14.8514 182.256 15.757 181.503 16.7772 181.597C17.8008 181.69 18.5541 182.595 18.4603 183.619C18.3664 184.643 17.4611 185.396 16.4374 185.303C15.4173 185.209 14.6637 184.304 14.7575 183.28Z" fill="white"/>
<path d="M29.3681 188.694C29.4619 187.671 30.3704 186.918 31.3909 187.011C32.4142 187.105 33.1678 188.01 33.074 189.034C32.9801 190.058 32.0745 190.811 31.0512 190.717C30.0307 190.623 29.2742 189.718 29.3681 188.694Z" fill="white"/>
<path d="M54.4073 174.819C53.8477 175.965 53.2842 177.083 52.7227 178.18C53.0103 178.211 53.3166 178.245 53.6297 178.273C54.2956 178.341 54.9799 178.416 55.4992 178.47C56.1953 177.42 56.8994 176.348 57.5987 175.263C57.0373 175.189 56.1834 175.071 55.248 174.941C54.9739 174.902 54.6933 174.864 54.4073 174.819Z" fill="#D9DAD7"/>
<path d="M55.3777 172.835C55.0575 173.505 54.7318 174.167 54.407 174.819C54.693 174.864 54.9735 174.902 55.2477 174.941C56.1831 175.071 57.037 175.189 57.5984 175.263C58.0037 174.628 58.4094 173.992 58.8091 173.347C58.7344 173.338 58.6596 173.327 58.5842 173.321L58.5596 173.316L58.5533 173.315C57.4689 173.162 56.4073 173.001 55.3777 172.835Z" fill="#D02E4B"/>
<path d="M52.7227 178.18C52.5231 178.57 52.3232 178.956 52.1207 179.341L53.0431 182.089C53.8329 180.943 54.6611 179.728 55.4992 178.47C54.9799 178.416 54.2956 178.341 53.6297 178.273C53.3166 178.245 53.0103 178.211 52.7227 178.18Z" fill="#D02E4B"/>
<path d="M84.3387 44.9811C84.3387 44.9811 71.0214 77.4879 69.7703 81.2206C68.5252 84.9535 32.6237 145.148 30.2036 161.67C29.9062 163.707 30.1495 164.632 30.8038 164.692C34.3314 165.016 49.7705 140.28 57.1507 127.81C58.3457 124.346 59.2445 122.012 59.2445 122.012C59.2445 122.012 39.0939 157.308 34.9218 156.926C34.5706 156.894 34.3313 156.613 34.2293 156.042C32.8737 148.62 65.3713 94.0548 65.3713 94.0548C70.1636 86.3258 76.8117 67.1763 78.2955 67.3123C78.4769 67.329 78.5816 67.6324 78.5973 68.2841C78.6397 70.3011 77.1769 75.3819 75.221 81.2216C77.0113 77.3931 83.2823 55.5361 83.6592 52.3932C84.6252 44.3318 84.3387 44.9811 84.3387 44.9811ZM83.6592 52.3932C82.7515 52.3074 81.5974 65.4121 78.5973 68.2841C77.3069 69.5201 72.9988 88.6625 72.566 88.8025C69.2202 98.0663 65.7286 106.818 65.7286 106.818C65.7286 106.818 73.8828 90.7918 76.412 91.0236C76.9225 91.0704 77.2044 91.7823 77.1378 93.4352C76.7576 103.022 58.3337 157.323 52.6994 156.807C52.5712 156.795 52.446 156.749 52.3324 156.682C48.5993 154.367 53.928 137.139 57.129 127.874C50.9177 139.817 40.2111 163.231 46.318 168.577C46.8555 169.048 47.4254 169.302 48.0139 169.356C56.5999 170.143 70.1734 128.78 76.6262 104.595C80.9927 88.2245 85.2273 52.5369 83.6592 52.3932Z" fill="#F5AB50"/>
<path d="M78.2958 67.3123C76.8119 67.1763 70.1639 86.3257 65.3715 94.0547C65.3715 94.0547 32.874 148.62 34.2295 156.042C34.3315 156.613 34.5709 156.894 34.922 156.926C39.0941 157.308 59.2447 122.012 59.2447 122.012C59.2447 122.012 58.3459 124.346 57.1509 127.81C57.1847 127.753 57.2143 127.703 57.2443 127.652C57.2089 127.727 57.1712 127.796 57.1292 127.874C53.9282 137.139 48.5995 154.366 52.3326 156.682C52.4462 156.749 52.5714 156.795 52.6996 156.807C58.3339 157.323 76.7579 103.022 77.138 93.4351C77.2046 91.7822 76.9227 91.0704 76.4122 91.0236C73.883 90.7917 65.7289 106.818 65.7289 106.818C65.7289 106.818 69.2204 98.0663 72.5662 88.8025C72.4911 88.8298 72.4242 88.8399 72.3708 88.835C71.5572 88.7604 73.2749 85.3764 75.2213 81.2215C77.1772 75.3819 78.64 70.301 78.5976 68.284C78.5818 67.6324 78.4771 67.3289 78.2958 67.3123Z" fill="#FAB45E"/>
<path d="M84.7215 45.4559C83.2376 45.3199 80.1067 88.3139 75.3144 96.0429C75.3144 96.0429 42.8168 150.608 44.1724 158.03C44.2744 158.601 44.5137 158.882 44.8649 158.914C49.037 159.296 69.1876 124 69.1876 124C69.1876 124 68.2888 126.335 67.0938 129.798C67.1275 129.741 67.1572 129.691 67.1872 129.64C67.1518 129.715 67.1141 129.784 67.0721 129.862C63.8711 139.127 58.5424 156.355 62.2755 158.67C62.3891 158.737 62.5143 158.783 62.6425 158.795C68.2768 159.311 86.7007 105.01 87.0809 95.4233C87.1475 93.7704 86.8656 93.0586 86.355 93.0117C83.8259 92.7799 85.1641 83.2097 85.1641 83.2097C85.1641 83.2097 80.0918 96.1505 83.4375 86.8867C83.3624 86.914 84.1264 85.411 82.3136 90.8232C81.5 90.7486 83.2178 87.3646 85.1641 83.2097C87.12 77.3701 86.3767 72.4619 86.3343 70.4449C86.3186 69.7932 84.9029 45.4725 84.7215 45.4559Z" fill="#F5AB50"/>
<path d="M34.1627 192.277C31.4896 192.032 28.5795 194.272 27.0362 196.233C26.7072 196.651 26.292 196.808 25.8069 196.764C25.375 196.724 24.8882 196.522 24.3624 196.198C24.7043 197.805 25.2662 199.425 26.3175 199.521C26.9815 199.582 27.8356 199.042 28.955 197.541C30.6543 195.324 32.0094 194.592 33.0861 194.691C35.9093 194.95 36.7836 200.973 36.7836 200.973C36.7836 200.973 34.3273 210.484 29.5996 210.273C29.5588 210.269 29.5182 210.265 29.4808 210.262C26.6762 210.005 24.5586 204.976 23.3186 201.011C23.1929 204.619 23.2772 209.62 26.3125 211.493C27.0543 211.732 27.8032 211.966 28.5699 212.21C38.1666 213.09 39.823 204.869 39.823 204.869C39.823 204.869 40.5485 205.801 41.6566 207.108C41.6583 206.439 41.6063 205.765 41.5191 205.098C40.5497 203.551 39.7874 201.744 39.4006 199.629C39.3407 199.317 39.2834 199.016 39.2183 198.726C38.8891 198.319 38.6446 198.06 38.5322 198.015C38.6244 197.939 38.7705 197.825 38.9511 197.681C37.8796 193.912 36.0814 192.453 34.1627 192.277ZM22.0589 196.227C22.0589 196.227 18.8989 198.501 15.7263 200.059C15.8891 201.245 16.0492 202.389 16.2075 203.488C18.3149 202.6 20.2674 201.138 21.5899 198.898C21.9043 198.363 22.1687 197.955 22.3856 197.653C22.1697 196.775 22.0589 196.227 22.0589 196.227Z" fill="#F5AB50"/>
<path d="M16.386 188.859C15.7438 188.978 15.0922 189.232 14.4387 189.649C14.8187 193.18 15.2699 196.763 15.7254 200.059C18.898 198.501 22.0579 196.227 22.0579 196.227C22.0579 196.227 22.1687 196.775 22.3847 197.653C22.728 197.178 22.9612 196.979 23.1175 196.993C23.5526 197.033 23.3956 198.746 23.3176 201.011C24.5576 204.976 26.6753 210.005 29.4798 210.262C29.5173 210.265 29.5578 210.269 29.5987 210.272C34.3263 210.484 36.7827 200.973 36.7827 200.973C36.7827 200.973 35.9083 194.95 33.0852 194.691C32.0084 194.592 30.6533 195.324 28.954 197.541C27.8346 199.042 26.9805 199.582 26.3165 199.521C25.2652 199.425 24.7033 197.805 24.3615 196.198C22.987 195.356 21.355 193.704 19.7228 192.052C19.5321 191.86 19.3413 191.67 19.154 191.475C19.4793 192.301 20.0258 193.087 19.9821 193.083C19.9443 193.08 19.572 192.632 18.5181 191.423C18.1065 190.953 17.7296 190.383 17.3811 189.744C17.0435 189.433 16.711 189.134 16.386 188.859Z" fill="#FAB45E"/>
<path d="M85.6067 177.278L87.5394 180.784C89.263 181.014 94.8696 181.735 97.551 181.959L100.417 178.915C94.5754 178.629 89.6758 178.022 85.6067 177.278Z" fill="#D02E4B"/>
<path d="M92.9716 191.144L101.467 179.244L111.935 191.323L122.929 177.02L132.021 186.1L137.381 176.409C137.032 175.434 136.688 174.477 136.352 173.554C136.009 173.688 135.604 173.829 135.152 173.942L131.875 182.079L126.498 175.927C124.305 176.41 121.709 176.936 118.748 177.419L112.822 187.462L104.762 178.769C102.789 178.777 100.813 178.707 98.8956 178.582L93.2649 188.494L86.1471 177.413C85.0373 177.229 84.0786 177.29 83.4052 177.162C83.587 178.379 83.8781 178.578 83.9772 179.285L84.2553 179.08L92.9716 191.144Z" fill="#C9ADDB"/>
<path d="M40.2421 200.088C40.686 201.305 41.2552 203.154 41.5189 205.098C45.8176 211.988 54.2004 213.85 52.1986 215.511C51.9864 215.692 51.7118 215.758 51.3955 215.729C49.0669 215.516 44.2839 210.227 41.6564 207.108C41.6423 210.844 39.9108 214.271 33.3126 213.669C39.4896 215.389 45.0933 216.271 49.2283 216.65C51.732 216.879 53.6977 216.926 54.9248 216.861C55.4163 216.84 55.7926 216.798 56.0312 216.744C55.8399 215.905 55.4252 214.881 54.5543 213.917C52.5484 211.695 48.6806 209.473 47.565 208.695C46.4505 207.908 45.0888 207.955 44.5203 206.717C44.1422 205.887 41.8903 202.388 40.2421 200.088Z" fill="#FAB45E"/>
<path d="M41.5187 205.098C41.6059 205.765 41.6579 206.439 41.6562 207.108C44.2837 210.227 49.0668 215.516 51.3954 215.729C51.7116 215.758 51.9863 215.692 52.1984 215.511C54.2002 213.85 45.8174 211.988 41.5187 205.098Z" fill="#F5AB50"/>
<path d="M85.116 97.8572C75.614 139.054 60.1453 165.731 55.6643 172.879C56.4607 173.006 57.2698 173.134 58.0988 173.248C58.3325 173.285 58.5722 173.319 58.8093 173.347C61.8756 168.447 64.6728 163.444 65.9665 159.8C70.592 150.039 75.44 137.92 75.883 136.774C75.9293 136.649 75.9684 136.596 76.0001 136.599L76.0033 136.6C76.2192 135.897 76.3414 135.456 76.3414 135.456C78.781 127.366 84.8337 100.252 84.8799 99.7478L84.8805 99.7419L84.8808 99.7384L84.881 99.7356L84.8814 99.7321L84.8816 99.7296C84.8977 99.5535 84.9413 99.2136 85.002 98.7588C85.0358 98.4937 85.0734 98.1871 85.1158 97.8591L85.116 97.8572Z" fill="#FAB45E"/>
</svg>
