<svg width="115" height="159" viewBox="0 0 115 159" fill="none" xmlns="http://www.w3.org/2000/svg">
<path d="M107.865 96.7826C105.883 100.309 104.263 99.8293 103.634 99.8066C107.093 95.474 103.371 90.2553 100.923 84.0173C98.468 77.7781 100.825 75.3221 103.532 74.3555C99.8582 73.5953 96.4278 77.4992 95.6038 77.4694C101.032 69.6088 96.2315 60.1079 91.3516 58.4383C97.0529 65.8575 88.7301 74.0348 90.7211 70.0779C92.7181 66.1295 89.6021 61.3384 85.8974 61.2045C82.2019 61.0709 80.3267 61.6462 81.1554 55.9471C81.9701 50.2567 81.0563 47.0384 78.333 48.4323C75.6183 49.8127 70.7152 48.7853 72.8766 45.6856C75.0539 42.5782 74.3062 40.4379 74.0793 41.0654C73.7955 43.7238 68.7875 48.7627 68.2401 49.3149C70.7855 46.8408 71.9098 38.0069 65.2894 33.7471C60.3592 30.5814 60.2311 26.6523 60.4794 25.0008C59.1349 28.9089 54.7202 30.7831 55.1313 30.202C58.9589 26.7338 57.3752 19.2518 57.4592 16.9263C57.291 21.5802 51.2688 23.0636 44.6234 24.7371C37.9785 26.3957 32.1383 34.2414 36.9916 42.4727C41.8354 50.7129 37.0063 53.2865 35.1212 48.7699C33.2187 44.2519 30.58 43.0994 30.58 43.0994C35.1212 48.7699 36.2833 56.2404 25.3128 58.1714C14.3329 60.1105 16.2387 70.1351 17.0015 71.6559C10.6486 64.8082 15.2293 58.9989 17.9122 57.4834C-1.3873 64.6512 -0.0620276 82.3993 10.39 89.4368C21.0394 96.6145 23.6394 98.6083 19.1598 102.911C18.1884 103.845 17.3101 105.291 16.5507 106.972C15.568 106.316 14.3604 104.842 14.4751 101.669C14.6661 96.384 5.71369 116.407 12.8759 123.031C13.0588 123.189 13.2262 123.322 13.3871 123.455C13.9108 124.951 14.5309 127.961 14.7507 133.912C15.17 145.162 49.1716 149.358 71.9896 150.183C94.7922 151.007 100.266 130.64 97.5013 127.362C94.7439 124.076 91.8431 124.401 101.993 116.918C112.145 109.443 108.861 97.6605 107.865 96.7826Z" fill="#FBAD49"/>
<path d="M28.4021 137.583C28.4021 137.583 15.6614 130.932 19.2264 120.797C22.7911 110.669 27.2782 106.16 24.2864 97.7807C24.2864 97.7807 28.1378 99.1998 29.7834 105.202C31.4222 111.188 41.2916 98.1728 26.9975 91.1017C17.2981 86.2935 18.949 74.6981 25.2583 70.8983C24.8227 71.7244 22.4848 79.2753 31.7612 78.7605C30.7559 78.3019 23.8083 65.5382 34.2945 59.9821C33.2518 60.5801 31.1541 67.2887 38.3457 67.7556C45.529 68.2223 32.1829 55.8769 41.8279 50.9188C51.4753 45.9691 45.7683 38.5552 45.7683 38.5552C45.7683 38.5552 53.474 41.7981 51.2762 51.4747C49.0666 61.1519 49.7633 70.2974 53.9112 69.5973C58.0499 68.8968 58.4441 52.3696 66.5132 51.1838C66.5132 51.1838 59.0242 58.9698 64.9133 66.8172C68.959 72.2075 69.1389 80.9619 64.1249 88.6222C59.1244 96.2912 77.3532 75.5307 72.3135 67.0848C72.3135 67.0848 88.9243 85.7052 76.2859 99.4537C68.7592 108.51 87.0551 108.964 88.2388 99.044C89.4164 89.1151 96.9354 91.723 100.509 95.4514C99.2958 94.7717 93.1006 95.3905 96.4761 104.427C99.8583 113.455 86.8142 123.304 74.2773 130.519C61.7332 137.732 28.4021 137.583 28.4021 137.583Z" fill="#ED7A16"/>
<path d="M34.1768 125.923C34.1768 125.923 34.6555 118.304 40.3428 114.689C46.0289 111.079 43.1994 103.985 36.2652 102.25C29.3365 100.515 32.6189 94.9041 35.3484 93.5169C38.0721 92.1379 17.6768 81.6444 35.5117 66.3817C34.4627 66.9795 33.2349 72.2429 37.477 74.3035C37.719 73.4612 37.0928 68.1391 43.7522 66.0522C48.1476 63.8751 41.0335 61.2902 45.6778 58.2803C50.3069 55.2615 49.6577 50.5744 49.6577 50.5744C49.6577 50.5744 51.5588 54.8771 49.5995 57.985C47.6325 61.1 51.214 64.4156 54.8499 66.4534C58.4778 68.4835 60.7721 78.7522 53.3833 84.1975C55.4444 84.0734 58.9765 82.9296 60.4132 77.4604C61.0971 75.7931 59.8939 80.6277 61.7722 85.3593C63.6652 90.0914 62.088 93.847 54.9777 96.983C47.8662 100.126 56.6141 102.986 61.5458 97.2205C63.9106 94.5496 66.3234 96.1227 66.3234 96.1227C66.3234 96.1227 61.1568 96.7851 60.9348 102.927C60.7127 109.069 59.0545 120.664 50.3931 121.415C41.7237 122.159 68.2385 122.911 69.4451 112.356C70.6456 101.793 67.6373 94.0476 72.7806 94.0284C73.4182 93.4157 69.662 94.7575 71.3612 99.2756C73.0432 103.787 81.33 102.179 77.6115 91.2313C73.893 80.2837 76.7701 74.6595 76.7701 74.6595C76.7701 74.6595 77.2732 83.5911 79.2881 84.721C81.3058 85.8502 81.4054 83.0973 80.424 81.7987C79.4413 80.4843 91.5708 86.4366 88.8164 100.114C88.7856 100.964 92.0923 100.66 90.8203 95.9512C92.2529 96.2183 97.9501 109.144 86.436 114.663C74.9211 120.182 69.0442 117.847 74.1836 123.333C79.3391 128.826 80.9383 124.434 87.9664 123.624C94.9933 122.822 94.2383 138.056 84.9974 143.237C75.7474 148.415 60.0849 154.853 45.0545 149.431C30.0241 144.009 24.9848 135.552 27.6132 130.984C30.2483 126.409 34.1768 125.923 34.1768 125.923Z" fill="#E05F3D"/>
<path d="M32.5653 120.52C32.2562 120.508 31.7856 120.432 31.1243 120.259C28.5346 119.576 25.82 119.082 23.0777 118.721C20.3284 118.351 18.8369 118.067 20.8618 117.703C20.8618 117.703 24.5511 118.264 25.9081 118.52C27.2645 118.767 30.3991 119.525 31.8912 119.817C32.9959 120.035 33.4689 120.552 32.5653 120.52Z" fill="#723C29"/>
<path d="M43.4288 125.238C40.1463 124.469 38.3482 124 37.0216 123.665C36.8536 123.624 36.6766 123.583 36.494 123.542C36.648 123.335 36.7954 123.132 36.9363 122.934C36.9902 122.939 37.0404 122.943 37.087 122.944C37.9668 122.976 37.6973 122.528 37.3875 122.282C37.4717 122.156 37.5522 122.033 37.6279 121.914C37.847 122.008 38.1362 122.165 38.5092 122.409C38.5092 122.409 39.2358 122.626 40.8699 123.4C42.3666 124.097 43.6712 124.814 46.0808 125.184C45.4136 125.224 44.8506 125.244 44.4894 125.231C44.205 125.221 43.8395 125.224 43.4288 125.238ZM33.8593 123.016C32.928 122.839 32.0969 122.677 31.6348 122.541C31.1085 122.383 31.6638 122.296 32.6616 122.332C33.1536 122.35 33.7525 122.398 34.3832 122.482C34.2733 122.609 34.1495 122.739 34.0101 122.873C33.9617 122.92 33.9115 122.967 33.8593 123.016Z" fill="#723C29"/>
<path d="M12.892 136.28C12.892 136.28 16.9186 131.813 18.9735 130.962C21.0213 130.12 28.6435 128.547 30.1937 127.68C31.7359 126.819 33.0771 126.859 37.2657 127.322C41.4565 127.784 46.9718 128.752 49.0352 127.445C51.107 126.127 59.522 125.818 61.3487 126.497C63.1742 127.177 69.5467 127.876 72.3712 128.434C73.6496 128.691 75.2555 128.397 76.9824 128.108C79.0923 127.754 81.3826 127.407 83.4847 128.076C87.305 129.285 90.5002 129.246 91.9793 130.379C93.4572 131.513 94.7426 133.097 96.0362 134.518C97.3369 135.955 99.8236 141.263 99.8236 141.263C99.8236 141.263 94.0675 147.206 92.5296 147.763C90.9995 148.321 86.3277 152 79.6086 151.758C72.8896 151.515 68.5161 151.507 58.6063 151.149C48.6964 150.791 38.7376 151.817 29.962 148.124C21.1767 144.42 9.5691 139.849 12.892 136.28Z" fill="#4E2513"/>
<path d="M56.9595 127.516C55.9325 127.479 58.7012 126.73 61.1725 126.684C62.6718 126.652 62.9686 126.395 62.8662 126.163L65.5232 125.971C65.7115 126.005 65.9153 126.042 66.1336 126.084C67.263 126.303 68.3098 126.551 69.6733 126.601C70.4433 126.629 71.3146 126.593 72.3589 126.453C75.2575 126.064 76.3539 126.033 76.3539 126.033C76.3539 126.033 78.2474 127.022 72.5447 127.167C66.8392 127.309 64.2355 127.295 62.4563 127.294C60.6685 127.302 57.9947 127.553 56.9595 127.516Z" fill="#723C29"/>
<path d="M50.1692 133.027L35.1898 130.552L30.9771 129.803C31.2058 129.607 31.4664 129.364 31.7513 129.082L35.4736 129.743L54.2254 132.836C52.9076 132.915 51.7293 132.985 51.3424 132.971C51.1394 132.964 50.7201 132.987 50.1692 133.027ZM26.4806 129.003L20.6056 127.959L13.8265 126.895L14.0456 124.789L14.2309 124.829L14.1037 126.094L20.882 127.151L27.3239 128.295C27.053 128.519 26.7848 128.743 26.5222 128.967C26.5089 128.979 26.4947 128.992 26.4806 129.003Z" fill="#4E2513"/>
<path d="M58.4875 131.973L68.6739 130.379L75.6387 128.811L87.8334 124.398L88.137 125.347L85.2917 126.594L90.6264 126.041L98.4684 123.869L99.0138 126.233L77.3183 130.502L62.7379 133.2L56.0214 134.586L55.5254 132.526L58.4875 131.973Z" fill="#613014"/>
<path d="M61.5818 133.438C60.8933 133.256 60.2789 133.079 59.8041 132.94L62.7325 132.333L64.0397 132.093C65.127 132.21 66.1788 132.32 67.0862 132.395L62.7378 133.2L61.5818 133.438ZM55.5802 132.755L55.5253 132.526L55.7143 132.49L55.7747 132.745C55.7095 132.748 55.6453 132.752 55.5802 132.755ZM80.1404 129.946C79.0648 129.833 77.9837 129.723 77.2312 129.665L77.3123 129.651L96.021 125.961C95.7825 126.275 95.5267 126.612 95.2463 126.974L80.1404 129.946Z" fill="#4E2513"/>
<path d="M76.8424 129.192C76.6385 129.185 76.9533 129.011 78.1326 128.561C78.1326 128.561 81.746 127.674 83.1099 127.104C83.6101 126.895 84.0249 126.845 84.4163 126.859C84.6751 126.869 84.9247 126.906 85.1807 126.943C85.4375 126.981 85.7008 127.019 85.9907 127.03C86.1644 127.036 86.3477 127.033 86.5444 127.013C86.709 126.994 86.8063 126.986 86.8484 126.988C87.1474 126.999 84.6214 127.467 83.1169 127.747C81.8539 127.982 77.4012 129.212 76.8424 129.192Z" fill="#733717"/>
<path d="M32.7736 128.215L32.7533 128.041C32.9496 127.829 33.1509 127.607 33.3551 127.378L39.7066 126.869L54.4858 125.967L76.3305 124.412L76.4224 125.186L65.5227 125.971L62.8657 126.163L54.3962 126.774L50.5015 127.007L39.6102 127.66L39.4302 127.674L32.7736 128.215Z" fill="#4E2513"/>
<path d="M36.154 118.995L36.1393 118.994C35.3269 118.821 35.4036 116.703 35.5005 114.022C35.5447 112.799 35.6258 112.023 35.7092 111.542L36.4726 111.65C36.4726 111.65 36.1822 112.21 36.0853 114.892C36.0809 115.012 36.0767 115.13 36.0724 115.247C36.0722 115.255 36.0719 115.262 36.0716 115.269C36.071 115.288 36.0703 115.307 36.0696 115.326C36.0695 115.329 36.0693 115.333 36.0692 115.338C36.0655 115.44 36.0618 115.542 36.0582 115.642C36.0144 116.979 35.9977 118.126 36.1322 118.887C36.1391 118.924 36.1461 118.959 36.154 118.995Z" fill="#46201A"/>
<path d="M24.8594 136.772C26.9765 134.62 29.3371 132.038 30.3776 131.297C32.066 130.086 36.9364 124.319 37.979 122.101C39.0201 119.874 43.4908 117.486 44.0499 117.371C44.6041 117.24 47.507 116.503 47.5325 115.796C47.5391 115.615 47.4993 115.423 47.4324 115.247C47.4667 115.236 47.4852 115.23 47.4852 115.23C47.4852 115.23 48.1474 115.961 48.1219 116.667C48.0964 117.373 45.188 118.111 44.6265 118.241C44.0818 118.365 39.6121 120.746 38.5695 122.964C38.4356 123.249 38.2392 123.592 37.9946 123.975C37.9188 124.094 37.8384 124.217 37.7542 124.343C37.6147 124.552 37.4631 124.77 37.303 124.995C37.1621 125.193 37.0147 125.395 36.8607 125.602C36.5701 125.992 36.2587 126.397 35.9354 126.804C35.8039 126.971 35.6706 127.137 35.5355 127.304C34.9412 128.037 34.3196 128.768 33.7221 129.438C33.5179 129.668 33.3166 129.889 33.1203 130.101C32.7659 130.484 32.4281 130.836 32.1175 131.143C31.8326 131.424 31.572 131.668 31.3433 131.864C31.2063 131.981 31.0819 132.08 30.97 132.16C30.28 132.654 29.023 133.938 27.6407 135.37C26.7016 135.841 25.762 136.324 24.8594 136.772Z" fill="#46201A"/>
<path d="M71.2655 141.2C71.2655 141.2 77.2254 141.645 80.7003 141.271C84.182 140.911 88.1025 140.878 90.2028 140.533C92.3177 140.189 92.629 139.023 92.629 139.023C92.629 139.023 93.6346 135.93 94.6303 134.757C95.6271 133.579 97.4183 131.776 97.4183 131.776L98.3344 132.628C98.3344 132.628 97.7825 132.925 96.248 135.095C94.7124 137.272 93.5089 138.977 94.0882 139.593C94.6739 140.21 96.4224 139.415 96.4224 139.415C96.4224 139.415 99.8649 138.849 100.934 138.776C102.002 138.711 106.326 140.019 106.326 140.019C106.326 140.019 106.477 141.002 106.074 141.576C105.671 142.148 102.856 141.093 102.332 140.869C101.811 140.659 96.8122 140.057 94.7389 141.301C92.6745 142.553 85.5143 144.535 83.4575 144.564C81.4062 144.593 73.8605 146.65 71.5836 146.512C69.3054 146.384 71.2655 141.2 71.2655 141.2Z" fill="#613327"/>
<path d="M70.7807 139.77C69.9384 139.739 69.1998 139.628 68.6695 139.404C67.4866 138.917 67.6854 138.813 68.6103 138.584C68.6103 138.584 74.7535 138.338 75.9887 138.215C77.0749 138.108 80.9905 137.881 82.2818 137.928C82.4583 137.934 82.5861 137.946 82.6505 137.963C83.1848 138.102 81.0321 138.453 78.5053 138.791C75.9785 139.129 76.2274 139.312 74.1373 139.579C72.9865 139.725 71.8059 139.807 70.7807 139.77Z" fill="#723C29"/>
<path d="M43.6746 135.665C43.4439 135.486 43.2138 135.314 42.9872 135.151C45.4101 135 48.0397 134.831 49.2207 134.737C51.6975 134.541 58.5691 134.082 58.5691 134.082C58.5691 134.082 53.6119 134.753 50.5821 135.072C50.0567 135.117 49.4178 135.212 48.7258 135.33C48.6221 135.338 48.5128 135.346 48.3981 135.354C47.2037 135.439 45.4267 135.554 43.6746 135.665Z" fill="#411E18"/>
<path d="M49.2973 140.891C49.1956 140.793 49.0929 140.695 48.9902 140.597C50.1442 139.63 52.5761 137.811 54.8873 137.485C58.0572 137.035 63.423 136.665 66.4308 136.774C68.9722 136.866 74.2669 136.256 77.1714 136.361C77.7137 136.38 78.1719 136.425 78.5143 136.503C78.7222 136.55 78.8999 136.574 79.0508 136.579C79.4815 136.595 79.6926 136.457 79.7832 136.256C79.8808 136.697 79.8086 137.172 79.0322 137.144C78.8804 137.139 78.7027 137.115 78.4939 137.067C78.1515 136.989 77.6925 136.943 77.1511 136.924C75.6906 136.871 73.6275 136.999 71.6137 137.127C69.6193 137.255 67.6743 137.382 66.4104 137.337C63.4026 137.228 58.0368 137.598 54.8669 138.048C52.7564 138.346 50.5451 139.888 49.2973 140.891Z" fill="#411E18"/>
<path d="M43.428 134.431C42.7888 134.408 42.8093 134.22 43.8343 133.755C43.8343 133.755 47.5495 133.397 48.9346 133.304C50.3037 133.227 53.534 133.184 55.0451 133.105C55.1836 133.097 55.3137 133.096 55.4344 133.1C56.6251 133.143 56.827 133.739 54.4003 133.716C51.7282 133.692 48.9734 133.878 46.2208 134.208C44.9628 134.353 43.9639 134.45 43.428 134.431Z" fill="#723C29"/>
<path d="M55.4275 135.812C54.3932 135.775 57.1674 135.024 59.6411 134.964C62.1052 134.917 61.3115 134.253 60.8356 134.092C60.5181 133.984 60.3567 133.686 60.8625 133.704C61.1011 133.713 61.4884 133.792 62.0781 133.994C62.0781 133.994 62.8289 134.021 64.6028 134.372C65.722 134.593 66.7589 134.838 68.106 134.886C68.8843 134.914 69.7665 134.877 70.8285 134.732C73.7185 134.352 74.8148 134.32 74.8148 134.32C74.8148 134.32 76.702 135.31 71.0069 135.446C65.3094 135.597 62.705 135.574 60.9182 135.581C59.1369 135.588 56.4554 135.849 55.4275 135.812Z" fill="#723C29"/>
<path d="M86.3263 136.785C86.3263 136.785 85.0846 135.799 83.3909 134.926C83.1185 134.786 82.8341 134.648 82.5412 134.518C82.1447 134.342 81.732 134.18 81.313 134.043C81.1383 133.987 80.9626 133.935 80.7866 133.887C80.5209 133.816 80.2548 133.756 79.9881 133.712C79.8142 133.683 79.6339 133.655 79.4472 133.627C78.8253 133.53 78.1374 133.432 77.4102 133.336C74.4256 132.94 70.799 132.569 68.5145 132.487C68.1021 132.472 67.6179 132.439 67.0857 132.395C66.1782 132.32 65.1264 132.21 64.0391 132.093C61.8079 131.853 59.4212 131.585 57.7878 131.526C57.2583 131.507 56.8077 131.51 56.4677 131.543C56.2526 131.565 56.0701 131.572 55.9174 131.566C55.1501 131.539 55.1141 131.194 55.2369 130.887C55.3155 131.043 55.5176 131.151 55.9429 131.166C56.0928 131.172 56.2716 131.165 56.482 131.146C56.8276 131.11 57.2874 131.108 57.8279 131.127C60.7306 131.232 65.9747 131.996 68.5289 132.089C71.5359 132.197 76.8678 132.789 80.0024 133.316C83.1374 133.834 86.341 136.38 86.341 136.38L87.0039 136.103L87.4311 136.317L86.3263 136.785Z" fill="#3F1E13"/>
<path d="M75.4452 145.549C75.4452 145.549 68.6286 144.286 64.9358 144.051C61.2362 143.825 63.5411 144.61 63.5411 144.61L68.6661 147.226L67.5435 147.703C67.5435 147.703 64.3476 145.148 61.2069 144.637C58.0723 144.108 52.7468 143.518 49.7326 143.409C46.7174 143.3 39.8946 142.231 37.6939 142.465C35.4926 142.691 36.773 141.319 36.773 141.319C36.773 141.319 35.8614 140.165 37.1033 139.908C38.3435 139.643 40.9342 140.046 41.6137 140.373C42.2774 140.706 46.6611 141.16 49.54 141.264C52.4189 141.368 56.8239 140.62 57.5245 140.543C58.2041 140.463 64.0779 141.185 65.0381 141.22C65.9975 141.254 71.727 142.066 73.3695 142.125C75.0184 142.185 79.3904 142.755 79.3904 142.755L78.2344 144.236C78.2344 144.236 69.4898 143.31 67.032 143.009C64.578 142.726 57.7438 141.972 57.7438 141.972C57.7438 141.972 62.6475 142.758 65.651 143.162C68.6539 143.585 75.3252 145.147 75.4452 145.549Z" fill="#613014"/>
<path d="M76.0741 150.129C76.0741 150.129 69.2575 148.866 65.5647 148.631C61.8651 148.405 64.17 149.19 64.17 149.19L69.295 151.806L68.1725 152.283C68.1725 152.283 64.9765 149.728 61.8358 149.217C58.7012 148.688 53.3757 148.098 50.3615 147.989C47.3463 147.88 40.5235 146.811 38.3228 147.045C36.1215 147.271 37.4019 145.899 37.4019 145.899C37.4019 145.899 36.4903 144.745 37.7322 144.487C38.9725 144.223 41.5631 144.626 42.2426 144.953C42.9064 145.286 47.29 145.74 50.1689 145.844C53.0478 145.948 57.4528 145.2 58.1534 145.123C58.833 145.043 64.7068 145.765 65.667 145.8C66.6264 145.834 72.3559 146.646 73.9984 146.705C75.6473 146.765 80.0193 147.335 80.0193 147.335L78.8633 148.816C78.8633 148.816 70.1187 147.89 67.6609 147.589C65.2069 147.306 58.3728 146.552 58.3728 146.552C58.3728 146.552 63.2764 147.338 66.2799 147.742C69.2828 148.165 75.9541 149.727 76.0741 150.129Z" fill="#613014"/>
<path d="M59.8576 136.908C59.8576 136.908 53.0409 135.645 49.3481 135.41C45.6486 135.184 47.9534 135.969 47.9534 135.969L53.0784 138.585L51.9559 139.062C51.9559 139.062 48.76 136.506 45.6192 135.996C42.4847 135.466 37.1592 134.877 34.1449 134.768C31.1298 134.659 24.3069 133.59 22.1063 133.824C19.905 134.05 21.1853 132.677 21.1853 132.677C21.1853 132.677 20.2738 131.524 21.5156 131.266C22.7559 131.002 25.3465 131.405 26.0261 131.732C26.6898 132.065 31.0734 132.518 33.9523 132.622C36.8312 132.726 41.2363 131.979 41.9368 131.902C42.6164 131.822 48.4902 132.544 49.4505 132.578C50.4098 132.613 56.1394 133.425 57.7818 133.484C59.4307 133.544 63.8028 134.114 63.8028 134.114L62.6467 135.595C62.6467 135.595 53.9022 134.669 51.4443 134.367C48.9904 134.085 42.1562 133.331 42.1562 133.331C42.1562 133.331 47.0598 134.116 50.0634 134.521C53.0663 134.943 59.7375 136.506 59.8576 136.908Z" fill="#4E2513"/>
<path d="M80.0269 136.553C80.0269 136.553 73.1718 137.592 69.6026 138.58C66.03 139.579 68.4633 139.566 68.4633 139.566L74.1533 140.36L73.2449 141.179C73.2449 141.179 69.3992 139.81 66.2636 140.356C63.128 140.883 57.9001 142.07 55.0135 142.955C52.126 143.84 45.3275 145.065 43.3211 146.008C41.3112 146.942 42.0809 145.225 42.0809 145.225C42.0809 145.225 40.8472 144.433 41.9392 143.783C43.0274 143.126 45.6079 142.658 46.3559 142.744C47.0911 142.842 51.384 141.834 54.141 140.99C56.8979 140.145 60.8247 137.995 61.4626 137.692C62.0798 137.394 67.8687 136.151 68.7883 135.869C69.707 135.588 75.3884 134.478 76.9613 133.996C78.5404 133.512 82.8599 132.618 82.8599 132.618L82.2429 134.397C82.2429 134.397 73.6724 136.387 71.2502 136.908C68.8378 137.444 62.13 138.971 62.13 138.971C62.13 138.971 67.0217 138.107 69.9932 137.505C72.97 136.921 79.784 136.212 80.0269 136.553Z" fill="#613014"/>
<path d="M103.328 147.623C103.328 147.623 96.3997 147.842 92.7405 148.399C89.0766 148.966 91.4942 149.243 91.4942 149.243L97.0518 150.707L96.0542 151.412C96.0542 151.412 92.3951 149.596 89.2179 149.766C86.0428 149.917 80.7133 150.476 77.7438 151.012C74.7734 151.548 67.8798 151.957 65.7776 152.656C63.6729 153.345 64.6373 151.731 64.6373 151.731C64.6373 151.731 63.5046 150.798 64.6648 150.282C65.8219 149.759 68.4388 149.601 69.1715 149.775C69.8902 149.96 74.2704 149.468 77.1065 148.956C79.9426 148.445 84.0925 146.775 84.7612 146.551C85.4088 146.328 91.302 145.781 92.2479 145.61C93.193 145.44 98.9639 145.011 100.582 144.719C102.206 144.426 106.6 144.052 106.6 144.052L105.78 145.745C105.78 145.745 97.0374 146.704 94.5715 146.934C92.1134 147.18 85.2748 147.901 85.2748 147.901C85.2748 147.901 90.2328 147.623 93.2537 147.378C96.2777 147.151 103.126 147.256 103.328 147.623Z" fill="#613014"/>
<path d="M67.8072 129.126C67.8072 129.126 60.9595 130.215 57.3973 131.228C53.8317 132.251 56.2648 132.222 56.2648 132.222L61.9603 132.975L61.0576 133.8C61.0576 133.8 57.2025 132.459 54.0707 133.027C50.9388 133.576 45.7194 134.801 42.839 135.706C39.9578 136.611 33.1679 137.884 31.1681 138.842C29.1648 139.79 29.9224 138.068 29.9224 138.068C29.9224 138.068 28.6833 137.284 29.7707 136.626C30.8543 135.962 33.4315 135.476 34.1801 135.557C34.916 135.65 39.2017 134.611 41.9527 133.747C44.7038 132.882 48.6155 130.704 49.2512 130.397C49.8663 130.095 55.6465 128.811 56.5641 128.523C57.4808 128.235 63.1543 127.084 64.7238 126.591C66.2995 126.096 70.6127 125.172 70.6127 125.172L70.0081 126.955C70.0081 126.955 61.4517 129.006 59.0332 129.543C56.6245 130.097 49.9276 131.672 49.9276 131.672C49.9276 131.672 54.8131 130.773 57.7803 130.15C60.753 129.544 67.5619 128.788 67.8072 129.126Z" fill="#613014"/>
<path d="M57.6213 141.038C57.6213 141.038 50.8046 139.775 47.1118 139.54C43.4123 139.314 45.7171 140.1 45.7171 140.1L50.8421 142.715L49.7196 143.192C49.7196 143.192 46.5237 140.637 43.3829 140.126C40.2483 139.597 34.9228 139.007 31.9086 138.898C28.8934 138.789 22.0706 137.72 19.8699 137.955C17.6687 138.18 18.949 136.808 18.949 136.808C18.949 136.808 18.0374 135.654 19.2793 135.397C20.5196 135.132 23.1102 135.535 23.7897 135.862C24.4535 136.196 28.8371 136.649 31.716 136.753C34.5949 136.857 38.9999 136.11 39.7005 136.033C40.3801 135.953 46.2539 136.674 47.2142 136.709C48.1735 136.744 53.903 137.555 55.5455 137.614C57.1944 137.674 61.5664 138.244 61.5664 138.244L60.4104 139.725C60.4104 139.725 51.6659 138.799 49.208 138.498C46.754 138.215 39.9199 137.462 39.9199 137.462C39.9199 137.462 44.8235 138.247 47.8271 138.651C50.83 139.074 57.5012 140.637 57.6213 141.038Z" fill="#613014"/>
<path d="M17.4791 130.205C17.4791 130.205 23.6754 133.335 27.1562 134.6C30.6459 135.858 28.6499 134.455 28.6499 134.455L24.4515 130.501L25.6611 130.358C25.6611 130.358 28.0239 133.712 30.8984 135.086C33.762 136.476 38.7125 138.54 41.5766 139.493C44.4416 140.446 50.6974 143.392 52.8752 143.786C55.0511 144.188 53.4427 145.146 53.4427 145.146C53.4427 145.146 53.9992 146.511 52.7358 146.409C51.4717 146.314 49.0957 145.198 48.5334 144.693C47.9883 144.186 43.9044 142.517 41.1689 141.608C38.4334 140.698 33.9974 140.177 33.3034 140.054C32.6288 139.939 27.1882 137.594 26.2758 137.29C25.3642 136.987 20.087 134.596 18.5263 134.077C16.9596 133.556 12.9192 131.779 12.9192 131.779L14.4383 130.681C14.4383 130.681 22.5788 134.03 24.8555 135.011C27.1336 135.973 33.4875 138.619 33.4875 138.619C33.4875 138.619 28.9961 136.486 26.2238 135.252C23.4573 134.002 17.4834 130.624 17.4791 130.205Z" fill="#613014"/>
<path d="M15.0263 138.474C15.0263 138.474 21.2869 141.472 24.7934 142.662C28.3087 143.845 26.2837 142.485 26.2837 142.485L22.0035 138.621L23.2099 138.453C23.2099 138.453 25.6423 141.755 28.545 143.068C31.4371 144.397 36.4297 146.355 39.3131 147.247C42.1974 148.138 48.5135 150.951 50.6992 151.298C52.883 151.654 51.2949 152.646 51.2949 152.646C51.2949 152.646 51.8799 153.999 50.6145 153.923C49.3488 153.856 46.9499 152.79 46.3772 152.297C45.8216 151.802 41.7037 150.221 38.9497 149.37C36.1958 148.518 31.7498 148.092 31.0533 147.984C30.3765 147.884 24.888 145.655 23.9694 145.371C23.0517 145.087 17.7256 142.809 16.1544 142.323C14.5771 141.836 10.5003 140.144 10.5003 140.144L11.9962 139.015C11.9962 139.015 20.205 142.19 22.5018 143.122C24.7995 144.035 31.2074 146.546 31.2074 146.546C31.2074 146.546 26.6724 144.508 23.8749 143.334C21.0827 142.143 15.0395 138.893 15.0263 138.474Z" fill="#613014"/>
<path d="M47.0488 144.868C47.0488 144.868 40.2321 143.605 36.5393 143.37C32.8397 143.144 35.1446 143.929 35.1446 143.929L40.2696 146.545L39.1471 147.022C39.1471 147.022 35.9511 144.467 32.8104 143.956C29.6758 143.427 24.3503 142.837 21.3361 142.728C18.3209 142.619 11.4981 141.55 9.29742 141.784C7.09614 142.01 8.37649 140.638 8.37649 140.638C8.37649 140.638 7.46493 139.484 8.70678 139.226C9.94706 138.962 12.5377 139.365 13.2172 139.692C13.881 140.025 18.2646 140.478 21.1435 140.583C24.0224 140.687 28.4274 139.939 29.128 139.862C29.8076 139.782 35.6814 140.504 36.6416 140.539C37.601 140.573 43.3305 141.385 44.973 141.444C46.6219 141.504 50.9939 142.074 50.9939 142.074L49.8379 143.555C49.8379 143.555 41.0933 142.629 38.6355 142.327C36.1815 142.045 29.3474 141.291 29.3474 141.291C29.3474 141.291 34.251 142.077 37.2545 142.481C40.2574 142.904 46.9287 144.466 47.0488 144.868Z" fill="#613014"/>
<path d="M46.9806 148.15C46.9806 148.15 40.164 146.887 36.4712 146.652C32.7716 146.426 35.0765 147.212 35.0765 147.212L40.2015 149.827L39.0789 150.304C39.0789 150.304 35.883 147.749 32.7423 147.238C29.6077 146.709 24.2822 146.119 21.268 146.01C18.2528 145.901 11.43 144.832 9.2293 145.067C7.02803 145.292 8.30837 143.92 8.30837 143.92C8.30837 143.92 7.39681 142.766 8.63866 142.509C9.87895 142.244 12.4696 142.647 13.1491 142.974C13.8128 143.308 18.1965 143.761 21.0754 143.865C23.9543 143.969 28.3593 143.222 29.0599 143.145C29.7395 143.065 35.6133 143.786 36.5735 143.821C37.5329 143.856 43.2624 144.667 44.9049 144.727C46.5538 144.786 50.9258 145.356 50.9258 145.356L49.7698 146.837C49.7698 146.837 41.0252 145.911 38.5674 145.61C36.1134 145.327 29.2792 144.574 29.2792 144.574C29.2792 144.574 34.1829 145.359 37.1864 145.763C40.1893 146.186 46.8606 147.749 46.9806 148.15Z" fill="#613014"/>
<path d="M97.5236 134.057C97.5236 134.057 90.7069 132.795 87.0141 132.559C83.3146 132.333 85.6195 133.119 85.6195 133.119L90.7444 135.734L89.6219 136.211C89.6219 136.211 86.426 133.656 83.2853 133.145C80.1507 132.616 74.8252 132.026 71.8109 131.917C68.7958 131.808 61.973 130.739 59.7723 130.974C57.571 131.199 58.8513 129.827 58.8513 129.827C58.8513 129.827 57.9398 128.673 59.1816 128.416C60.4219 128.151 63.0125 128.555 63.6921 128.881C64.3558 129.215 68.7394 129.668 71.6183 129.772C74.4972 129.876 78.9023 129.129 79.6028 129.052C80.2824 128.972 86.1563 129.693 87.1165 129.728C88.0758 129.763 93.8054 130.574 95.4479 130.634C97.0967 130.693 101.469 131.263 101.469 131.263L100.313 132.744C100.313 132.744 91.5682 131.818 89.1103 131.517C86.6564 131.234 79.8222 130.481 79.8222 130.481C79.8222 130.481 84.7258 131.266 87.7294 131.67C90.7323 132.093 97.4035 133.656 97.5236 134.057Z" fill="#613014"/>
<path d="M65.5778 151.855C65.5778 151.855 58.7611 150.592 55.0683 150.357C51.3688 150.131 53.6737 150.916 53.6737 150.916L58.7986 153.532L57.6761 154.009C57.6761 154.009 54.4802 151.454 51.3395 150.943C48.2049 150.414 42.8794 149.824 39.8651 149.715C36.85 149.606 30.0272 148.537 27.8265 148.771C25.6252 148.997 26.9055 147.625 26.9055 147.625C26.9055 147.625 25.994 146.471 27.2358 146.213C28.4761 145.949 31.0667 146.352 31.7463 146.679C32.41 147.012 36.7936 147.466 39.6725 147.57C42.5514 147.674 46.9565 146.926 47.657 146.849C48.3366 146.769 54.2105 147.491 55.1707 147.526C56.13 147.56 61.8596 148.372 63.5021 148.431C65.1509 148.491 69.523 149.061 69.523 149.061L68.367 150.542C68.367 150.542 59.6224 149.616 57.1645 149.315C54.7106 149.032 47.8764 148.278 47.8764 148.278C47.8764 148.278 52.78 149.064 55.7836 149.468C58.7865 149.891 65.4577 151.453 65.5778 151.855Z" fill="#613014"/>
<path d="M105.48 144.874C105.48 144.874 98.663 143.611 94.9702 143.376C91.2707 143.15 93.5755 143.936 93.5755 143.936L98.7005 146.551L97.578 147.028C97.578 147.028 94.3821 144.473 91.2413 143.962C88.1067 143.433 82.7812 142.843 79.767 142.734C76.7518 142.625 69.929 141.556 67.7283 141.791C65.527 142.016 66.8074 140.644 66.8074 140.644C66.8074 140.644 65.8958 139.49 67.1377 139.233C68.378 138.968 70.9686 139.371 71.6481 139.698C72.3119 140.032 76.6955 140.485 79.5744 140.589C82.4533 140.693 86.8583 139.946 87.5589 139.869C88.2385 139.789 94.1123 140.51 95.0726 140.545C96.0319 140.58 101.761 141.391 103.404 141.45C105.053 141.51 109.425 142.08 109.425 142.08L108.269 143.561C108.269 143.561 99.5243 142.635 97.0664 142.334C94.6124 142.051 87.7783 141.298 87.7783 141.298C87.7783 141.298 92.6819 142.083 95.6854 142.487C98.6884 142.91 105.36 144.473 105.48 144.874Z" fill="#613014"/>
<path d="M89.111 135.859C89.111 135.859 82.2943 134.597 78.6015 134.361C74.902 134.135 77.2069 134.921 77.2069 134.921L82.3319 137.536L81.2093 138.013C81.2093 138.013 78.0134 135.458 74.8727 134.947C71.7381 134.418 66.4126 133.828 63.3983 133.719C60.3832 133.61 53.5604 132.541 51.3597 132.776C49.1584 133.001 50.4387 131.629 50.4387 131.629C50.4387 131.629 49.5272 130.475 50.769 130.218C52.0093 129.953 54.5999 130.357 55.2795 130.683C55.9432 131.017 60.3268 131.47 63.2057 131.574C66.0846 131.678 70.4897 130.931 71.1902 130.854C71.8698 130.774 77.7437 131.495 78.7039 131.53C79.6632 131.565 85.3928 132.376 87.0353 132.436C88.6841 132.495 93.0562 133.065 93.0562 133.065L91.9002 134.547C91.9002 134.547 83.1556 133.621 80.6977 133.319C78.2438 133.036 71.4096 132.283 71.4096 132.283C71.4096 132.283 76.3132 133.068 79.3168 133.472C82.3197 133.895 88.9909 135.458 89.111 135.859Z" fill="#613014"/>
<path d="M78.2342 144.236C78.2342 144.236 75.4885 143.943 72.6408 143.636C70.6406 143.416 68.5901 143.194 67.4085 143.05C66.7662 142.934 66.1629 142.829 65.6652 142.765C62.6621 142.35 57.7586 141.561 57.7586 141.561C57.7586 141.561 64.5924 142.324 67.0462 142.611C69.5044 142.904 78.2489 143.83 78.2489 143.83L79.1168 142.72C79.2909 142.742 79.3903 142.755 79.3903 142.755L78.2342 144.236Z" fill="#3F1E13"/>
<path d="M72.8371 142.751C72.3012 142.732 71.3123 142.601 70.0699 142.418C67.3448 142.011 64.6149 141.713 61.9401 141.561C59.5212 141.422 59.7548 141.015 60.9409 141.058C61.0625 141.062 61.195 141.072 61.3355 141.086C62.8453 141.244 66.0579 141.464 67.4269 141.616C68.7964 141.753 72.4799 142.244 72.4799 142.244C73.4711 142.639 73.4772 142.774 72.8371 142.751Z" fill="#733717"/>
<path d="M68.4689 150.945C67.933 150.926 66.9442 150.795 65.7017 150.612C62.9766 150.205 60.2467 149.907 57.572 149.754C55.1531 149.616 55.3866 149.209 56.5727 149.252C56.6944 149.256 56.8268 149.265 56.9673 149.28C58.4771 149.438 61.6897 149.658 63.0587 149.81C64.4282 149.947 68.1118 150.438 68.1118 150.438C69.1029 150.833 69.1091 150.968 68.4689 150.945Z" fill="#733717"/>
<path d="M60.7931 142.986C59.7579 142.949 57.0962 142.612 55.3222 142.493C54.2252 142.416 52.8106 142.337 50.5501 142.172C50.3629 141.957 50.1655 141.742 49.9562 141.529C50.5581 141.495 51.1279 141.44 51.7194 141.39C53.5117 141.256 54.2616 141.283 54.2616 141.283C54.858 141.173 55.2503 141.139 55.4908 141.148C56.002 141.166 55.8296 141.375 55.4958 141.439C55.0125 141.509 54.1698 141.948 56.6338 142.132C59.1038 142.324 61.8119 143.023 60.7931 142.986Z" fill="#733717"/>
<path d="M48.3559 129.398C48.3559 129.398 50.9576 128.905 50.3126 129.262C48.5274 130.255 46.7946 129.771 47.9311 129.495L48.3559 129.398Z" fill="#ED7A16"/>
<path d="M111.566 51.3268C111.566 51.3268 107.464 50.9641 110.167 55.9316C112.862 60.9163 108.303 62.0138 108.303 62.0138C108.303 62.0138 111.072 59.3565 108.3 56.5082C105.52 53.6503 108.484 51.4224 111.566 51.3268Z" fill="#ED7A16"/>
<path d="M89.0302 3.0166C89.0302 3.0166 85.7303 3.31312 87.8724 6.57391C90.0229 9.82854 87.2539 12.2844 87.2539 12.2844C87.2539 12.2844 89.1827 10.2232 86.9945 8.23781C84.7979 6.25578 84.9204 2.86802 89.0302 3.0166Z" fill="#ED7A16"/>
<path d="M80.9993 14.8065C80.9993 14.8065 78.0193 17.2445 80.9784 20.9553C83.9312 24.6649 80.741 27.5213 80.741 27.5213C80.741 27.5213 81.682 24.1632 79.734 21.3345C77.7722 18.5071 78.8758 16.4263 80.9993 14.8065Z" fill="#ED7A16"/>
<path d="M10.1691 21.5777C10.1691 21.5777 13.4234 22.5445 13.9767 24.4635C14.5221 26.3978 16.5779 26.4721 16.5779 26.4721C16.5779 26.4721 13.659 27.4237 12.9187 25.2827C12.1713 23.135 10.9876 21.6073 10.1691 21.5777Z" fill="#ED7A16"/>
<path d="M20.0667 4.12252C20.0667 4.12252 17.8744 7.64521 20.6388 10.7132C23.4113 13.7852 21.5131 15.2015 21.5131 15.2015C21.5131 15.2015 21.0043 12.0016 19.3942 11.096C17.7824 10.1886 17.1019 6.14065 20.0667 4.12252Z" fill="#ED7A16"/>
</svg>
