<svg width="233" height="420" viewBox="0 0 233 420" fill="none" xmlns="http://www.w3.org/2000/svg">
<path d="M170.934 36.5891C171.705 17.0541 155.978 0.804077 136.314 0.804077C118.11 0.804077 103.031 14.8075 101.744 32.8587C88.6563 216.437 137.667 419.453 137.667 419.453H172.456C160.873 331.653 167.607 120.929 170.934 36.5891Z" fill="#411516"/>
<path d="M57.383 144.512C55.0185 130.87 43.0677 120.937 29.1437 120.937C11.6063 120.937 -1.94117 136.47 0.786491 153.692C13.7118 235.317 115.695 248.353 115.695 248.353V210.128C75.0968 206.568 61.7539 169.716 57.383 144.512Z" fill="#411516"/>
<path d="M210.954 111.836C201.178 111.836 192.759 118.553 190.486 128.006C187.01 142.457 177.894 161.722 154.147 166.443V184.645C154.147 184.645 204.004 192.683 229.736 142.105C236.793 128.233 226.59 111.836 210.954 111.836Z" fill="#411516"/>
<path d="M94.0626 309.775C103.311 307.096 112.903 312.824 114.84 322.203C122.012 356.942 124.305 399.331 124.305 399.331L112.355 402.796C100.275 378.331 89.3495 348.829 83.0896 330.891C79.9979 322.031 85.0055 312.4 94.0626 309.775Z" fill="#411516"/>
<path d="M64.0631 330.971C68.2981 329.744 72.778 331.864 74.5046 335.898C77.4204 342.716 83.5292 351.632 95.2268 349.995L97.07 356.286C97.07 356.286 73.7799 366.215 59.2124 343.996C56.027 339.135 58.459 332.594 64.0631 330.971Z" fill="#411516"/>
</svg>
