<svg width="395" height="40" viewBox="0 0 395 40" fill="none" xmlns="http://www.w3.org/2000/svg">
<path d="M14.5996 1.25781C16.097 1.22526 17.6107 1.56706 19.1406 2.2832C20.6706 2.99935 22.054 4.08984 23.291 5.55469C24.528 6.98698 25.5371 8.79362 26.3184 10.9746C27.0996 13.1556 27.5065 15.7109 27.5391 18.6406C27.5716 20.5938 27.4251 22.3678 27.0996 23.9629C26.7741 25.5579 26.3346 26.9902 25.7812 28.2598C25.2279 29.4967 24.5931 30.6035 23.877 31.5801C23.1934 32.5241 22.4935 33.3379 21.7773 34.0215C21.0612 34.6725 20.3776 35.1934 19.7266 35.584C19.0755 35.9746 18.5221 36.235 18.0664 36.3652C17.4805 36.5605 16.7806 36.7396 15.9668 36.9023C15.153 37.0326 14.3066 37.1139 13.4277 37.1465C12.5488 37.2116 11.6699 37.1628 10.791 37C9.94466 36.8698 9.19596 36.6094 8.54492 36.2188C7.89388 35.8281 7.12891 35.2747 6.25 34.5586C5.40365 33.8099 4.58984 32.8008 3.80859 31.5312C3.02734 30.2292 2.36003 28.6016 1.80664 26.6484C1.25326 24.6953 0.976562 22.3027 0.976562 19.4707C0.976562 16.6387 1.30208 14.0996 1.95312 11.8535C2.63672 9.60742 3.56445 7.70312 4.73633 6.14062C5.94076 4.57812 7.37305 3.38997 9.0332 2.57617C10.7259 1.72982 12.5814 1.29036 14.5996 1.25781ZM7.71484 19.4219C7.68229 21.3424 7.79622 23.0189 8.05664 24.4512C8.31706 25.8835 8.6263 27.0879 8.98438 28.0645C9.34245 29.041 9.70052 29.8223 10.0586 30.4082C10.4492 30.9616 10.7422 31.3522 10.9375 31.5801C11.1328 31.873 11.4909 32.0684 12.0117 32.166C12.5326 32.2637 13.0859 32.3125 13.6719 32.3125C14.2578 32.2799 14.8275 32.1986 15.3809 32.0684C15.9342 31.9056 16.3574 31.694 16.6504 31.4336C16.8132 31.2708 17.041 30.8639 17.334 30.2129C17.6595 29.5618 17.9688 28.7155 18.2617 27.6738C18.5872 26.6322 18.8802 25.4277 19.1406 24.0605C19.401 22.6608 19.5801 21.1634 19.6777 19.5684C19.7754 17.778 19.7754 16.1341 19.6777 14.6367C19.5801 13.1068 19.4336 11.7721 19.2383 10.6328C19.043 9.49349 18.8151 8.54948 18.5547 7.80078C18.2943 7.05208 18.0176 6.54753 17.7246 6.28711C17.3014 5.89648 16.7806 5.61979 16.1621 5.45703C15.5762 5.29427 14.974 5.22917 14.3555 5.26172C13.7695 5.29427 13.1999 5.4082 12.6465 5.60352C12.1257 5.79883 11.7188 6.05924 11.4258 6.38477C10.8398 7.03581 10.319 7.7194 9.86328 8.43555C9.40755 9.15169 9.0332 10.0143 8.74023 11.0234C8.44727 12.0326 8.20312 13.2207 8.00781 14.5879C7.84505 15.9225 7.7474 17.5339 7.71484 19.4219ZM48.8281 0.720703L49.7559 13.0254C49.4954 11.8861 49.0885 11.0397 48.5352 10.4863C48.0143 9.93294 47.4772 9.55859 46.9238 9.36328C46.2728 9.13542 45.5566 9.07031 44.7754 9.16797C42.9525 9.6237 41.3411 10.5026 39.9414 11.8047C39.3555 12.3581 38.7695 13.0254 38.1836 13.8066C37.5977 14.5879 37.0768 15.5319 36.6211 16.6387C36.1979 17.7129 35.8561 18.9499 35.5957 20.3496C35.3353 21.7493 35.2051 23.3444 35.2051 25.1348C35.7259 23.735 36.3118 22.5632 36.9629 21.6191C37.6139 20.6426 38.2975 19.8613 39.0137 19.2754C39.7624 18.6569 40.5111 18.1849 41.2598 17.8594C42.0085 17.5339 42.7409 17.3223 43.457 17.2246C45.1172 16.9642 46.8262 17.1595 48.584 17.8105C49.9837 18.429 51.1068 19.3568 51.9531 20.5938C52.7995 21.7982 53.3529 23.1654 53.6133 24.6953C53.8737 26.1927 53.8574 27.7552 53.5645 29.3828C53.304 30.9779 52.7669 32.459 51.9531 33.8262C51.1719 35.1934 50.1139 36.349 48.7793 37.293C47.4447 38.2695 45.8659 38.8555 44.043 39.0508C41.3086 39.3438 38.8672 38.9206 36.7188 37.7812C34.6029 36.6745 32.9264 35.0632 31.6895 32.9473C30.4525 30.8314 29.7526 28.3249 29.5898 25.4277C29.4271 22.498 29.9316 19.3893 31.1035 16.1016C31.6243 14.6367 32.2103 13.2207 32.8613 11.8535C33.5124 10.4538 34.4564 9.11914 35.6934 7.84961C36.9303 6.58008 38.5742 5.35938 40.625 4.1875C42.7083 2.98307 45.4427 1.82747 48.8281 0.720703ZM38.3789 28.9922C38.4766 30.0013 38.6882 30.929 39.0137 31.7754C39.3392 32.6217 39.7135 33.3542 40.1367 33.9727C40.5924 34.5911 41.0645 35.0794 41.5527 35.4375C42.0736 35.763 42.5618 35.9095 43.0176 35.877C43.9616 35.8118 44.7591 35.1934 45.4102 34.0215C46.0938 32.8171 46.5007 31.222 46.6309 29.2363C46.696 28.2598 46.5658 27.2832 46.2402 26.3066C45.9473 25.2975 45.5729 24.4023 45.1172 23.6211C44.6615 22.8398 44.1569 22.2214 43.6035 21.7656C43.0827 21.2773 42.6107 21.0495 42.1875 21.082C41.5365 21.1797 40.9505 21.4564 40.4297 21.9121C39.9414 22.3678 39.5182 22.9538 39.1602 23.6699C38.8346 24.3861 38.5905 25.2161 38.4277 26.1602C38.2975 27.0716 38.2812 28.0156 38.3789 28.9922ZM55.5176 19.0801C56.7871 19.1126 57.9427 19.1289 58.9844 19.1289C60.0586 19.1289 60.9863 19.1289 61.7676 19.1289C62.679 19.1289 63.5091 19.1126 64.2578 19.0801C65.0391 19.0801 66.0319 19.0475 67.2363 18.9824C68.278 18.9499 69.5801 18.901 71.1426 18.8359C72.7376 18.7708 74.6745 18.6895 76.9531 18.5918L76.709 23.5723C74.8861 23.4421 73.3561 23.3607 72.1191 23.3281C70.9147 23.263 69.9382 23.2142 69.1895 23.1816C68.3105 23.1491 67.5944 23.1491 67.041 23.1816C66.4876 23.2142 65.7064 23.263 64.6973 23.3281C63.8509 23.3932 62.6953 23.4746 61.2305 23.5723C59.7982 23.6374 57.9753 23.7513 55.7617 23.9141L55.5176 19.0801ZM92.2852 1.25781C93.7826 1.22526 95.2962 1.56706 96.8262 2.2832C98.3561 2.99935 99.7396 4.08984 100.977 5.55469C102.214 6.98698 103.223 8.79362 104.004 10.9746C104.785 13.1556 105.192 15.7109 105.225 18.6406C105.257 20.5938 105.111 22.3678 104.785 23.9629C104.46 25.5579 104.02 26.9902 103.467 28.2598C102.913 29.4967 102.279 30.6035 101.562 31.5801C100.879 32.5241 100.179 33.3379 99.4629 34.0215C98.7467 34.6725 98.0632 35.1934 97.4121 35.584C96.7611 35.9746 96.2077 36.235 95.752 36.3652C95.166 36.5605 94.4661 36.7396 93.6523 36.9023C92.8385 37.0326 91.9922 37.1139 91.1133 37.1465C90.2344 37.2116 89.3555 37.1628 88.4766 37C87.6302 36.8698 86.8815 36.6094 86.2305 36.2188C85.5794 35.8281 84.8145 35.2747 83.9355 34.5586C83.0892 33.8099 82.2754 32.8008 81.4941 31.5312C80.7129 30.2292 80.0456 28.6016 79.4922 26.6484C78.9388 24.6953 78.6621 22.3027 78.6621 19.4707C78.6621 16.6387 78.9876 14.0996 79.6387 11.8535C80.3223 9.60742 81.25 7.70312 82.4219 6.14062C83.6263 4.57812 85.0586 3.38997 86.7188 2.57617C88.4115 1.72982 90.2669 1.29036 92.2852 1.25781ZM85.4004 19.4219C85.3678 21.3424 85.4818 23.0189 85.7422 24.4512C86.0026 25.8835 86.3118 27.0879 86.6699 28.0645C87.028 29.041 87.3861 29.8223 87.7441 30.4082C88.1348 30.9616 88.4277 31.3522 88.623 31.5801C88.8184 31.873 89.1764 32.0684 89.6973 32.166C90.2181 32.2637 90.7715 32.3125 91.3574 32.3125C91.9434 32.2799 92.513 32.1986 93.0664 32.0684C93.6198 31.9056 94.043 31.694 94.3359 31.4336C94.4987 31.2708 94.7266 30.8639 95.0195 30.2129C95.3451 29.5618 95.6543 28.7155 95.9473 27.6738C96.2728 26.6322 96.5658 25.4277 96.8262 24.0605C97.0866 22.6608 97.2656 21.1634 97.3633 19.5684C97.4609 17.778 97.4609 16.1341 97.3633 14.6367C97.2656 13.1068 97.1191 11.7721 96.9238 10.6328C96.7285 9.49349 96.5007 8.54948 96.2402 7.80078C95.9798 7.05208 95.7031 6.54753 95.4102 6.28711C94.987 5.89648 94.4661 5.61979 93.8477 5.45703C93.2617 5.29427 92.6595 5.22917 92.041 5.26172C91.4551 5.29427 90.8854 5.4082 90.332 5.60352C89.8112 5.79883 89.4043 6.05924 89.1113 6.38477C88.5254 7.03581 88.0046 7.7194 87.5488 8.43555C87.0931 9.15169 86.7188 10.0143 86.4258 11.0234C86.1328 12.0326 85.8887 13.2207 85.6934 14.5879C85.5306 15.9225 85.4329 17.5339 85.4004 19.4219ZM119.629 2.57617C120.736 2.67383 121.875 2.9668 123.047 3.45508C124.219 3.94336 125.309 4.65951 126.318 5.60352C127.327 6.51497 128.19 7.67057 128.906 9.07031C129.655 10.4701 130.127 12.1139 130.322 14.002C130.648 17.2572 130.436 20.0729 129.688 22.4492C128.971 24.8255 127.913 26.9089 126.514 28.6992C125.146 30.4896 123.535 32.0846 121.68 33.4844C119.857 34.8516 117.969 36.1536 116.016 37.3906C115.039 36.4466 114.274 35.6816 113.721 35.0957L112.842 34.2168C112.614 33.9238 112.321 33.5983 111.963 33.2402C111.67 32.9147 111.312 32.5241 110.889 32.0684C110.465 31.6126 109.993 31.0918 109.473 30.5059C110.482 31.0592 111.393 31.4173 112.207 31.5801C113.053 31.7428 113.77 31.8079 114.355 31.7754C115.039 31.7428 115.658 31.6289 116.211 31.4336C117.676 30.7174 118.994 29.8223 120.166 28.748C121.175 27.804 122.087 26.6322 122.9 25.2324C123.747 23.8001 124.202 22.1074 124.268 20.1543C123.226 21.6517 122.087 22.7259 120.85 23.377C119.645 24.028 118.522 24.4674 117.48 24.6953C116.243 24.9557 115.007 25.0046 113.77 24.8418C113.151 24.7441 112.484 24.4186 111.768 23.8652C111.051 23.3118 110.368 22.612 109.717 21.7656C109.066 20.8867 108.48 19.9102 107.959 18.8359C107.471 17.7617 107.129 16.6387 106.934 15.4668C106.738 14.2624 106.722 13.0579 106.885 11.8535C107.08 10.6165 107.552 9.42839 108.301 8.28906C109.408 6.62891 110.449 5.37565 111.426 4.5293C112.402 3.68294 113.346 3.11328 114.258 2.82031C115.169 2.49479 116.064 2.34831 116.943 2.38086C117.822 2.41341 118.717 2.47852 119.629 2.57617ZM114.453 12.4395C114.193 13.3509 114.062 14.2624 114.062 15.1738C114.062 16.0853 114.176 16.9154 114.404 17.6641C114.665 18.4128 115.023 19.0638 115.479 19.6172C115.934 20.138 116.504 20.4635 117.188 20.5938C117.871 20.7565 118.538 20.6589 119.189 20.3008C119.873 19.9102 120.492 19.373 121.045 18.6895C121.631 18.0059 122.119 17.2083 122.51 16.2969C122.933 15.3529 123.21 14.3926 123.34 13.416C123.438 12.7324 123.438 12 123.34 11.2188C123.275 10.4049 123.112 9.65625 122.852 8.97266C122.624 8.25651 122.314 7.6543 121.924 7.16602C121.566 6.67773 121.143 6.38477 120.654 6.28711C120.003 6.18945 119.352 6.28711 118.701 6.58008C118.083 6.84049 117.497 7.26367 116.943 7.84961C116.39 8.40299 115.885 9.08659 115.43 9.90039C115.007 10.6816 114.681 11.528 114.453 12.4395ZM147.949 3.30859C149.902 3.47135 151.611 3.56901 153.076 3.60156C154.574 3.63411 155.843 3.65039 156.885 3.65039C158.089 3.65039 159.131 3.61784 160.01 3.55273C160.921 3.45508 162.109 3.32487 163.574 3.16211C164.811 2.99935 166.406 2.78776 168.359 2.52734C170.312 2.23438 172.689 1.86003 175.488 1.4043C175.13 1.95768 174.821 2.54362 174.561 3.16211C174.333 3.74805 174.137 4.28516 173.975 4.77344C173.812 5.35938 173.665 5.92904 173.535 6.48242C173.438 7.10091 173.324 7.86589 173.193 8.77734C173.063 9.55859 172.9 10.5514 172.705 11.7559C172.542 12.9277 172.331 14.3275 172.07 15.9551C171.094 13.416 170.101 11.4629 169.092 10.0957C168.115 8.72852 167.204 7.7194 166.357 7.06836C165.381 6.31966 164.453 5.89648 163.574 5.79883C162.305 5.79883 161.263 6.04297 160.449 6.53125C159.635 7.01953 158.968 7.6543 158.447 8.43555C157.959 9.18424 157.585 10.0143 157.324 10.9258C157.064 11.8047 156.885 12.6673 156.787 13.5137C156.689 14.3275 156.624 15.0599 156.592 15.7109C156.559 16.3294 156.527 16.7526 156.494 16.9805C157.633 16.9154 158.594 16.834 159.375 16.7363C160.156 16.6387 160.775 16.541 161.23 16.4434C161.784 16.3132 162.223 16.1829 162.549 16.0527C163.037 15.7923 163.525 15.4831 164.014 15.125C164.437 14.7995 164.876 14.4089 165.332 13.9531C165.82 13.4974 166.243 12.944 166.602 12.293C166.406 13.4648 166.227 14.4414 166.064 15.2227C165.934 16.0039 165.82 16.6224 165.723 17.0781C165.592 17.6315 165.511 18.0547 165.479 18.3477C165.413 18.6406 165.332 19.0475 165.234 19.5684C165.137 20.0241 165.023 20.61 164.893 21.3262C164.762 22.0423 164.616 22.9375 164.453 24.0117C164.062 23.3281 163.656 22.7747 163.232 22.3516C162.809 21.8958 162.419 21.5378 162.061 21.2773C161.637 20.9844 161.23 20.7565 160.84 20.5938C160.417 20.4635 159.961 20.3333 159.473 20.2031C159.049 20.1055 158.545 20.0078 157.959 19.9102C157.406 19.7799 156.803 19.666 156.152 19.5684C156.217 21.3262 156.315 22.8398 156.445 24.1094C156.576 25.3464 156.689 26.388 156.787 27.2344C156.917 28.2109 157.048 29.0247 157.178 29.6758C157.34 30.3268 157.601 31.0267 157.959 31.7754C158.252 32.4264 158.659 33.1751 159.18 34.0215C159.733 34.8353 160.433 35.7142 161.279 36.6582C160.628 36.4954 159.945 36.3815 159.229 36.3164C158.512 36.2513 157.878 36.2025 157.324 36.1699C156.641 36.1374 155.99 36.1374 155.371 36.1699C154.72 36.2025 154.004 36.2676 153.223 36.3652C152.572 36.4303 151.823 36.528 150.977 36.6582C150.13 36.7884 149.235 36.9349 148.291 37.0977C148.844 36.5443 149.3 35.9909 149.658 35.4375C150.016 34.8841 150.277 34.3958 150.439 33.9727C150.635 33.4844 150.765 33.0124 150.83 32.5566C150.863 32.166 150.879 31.3197 150.879 30.0176C150.879 28.6829 150.863 27.1367 150.83 25.3789C150.798 23.5885 150.749 21.7005 150.684 19.7148C150.618 17.7292 150.553 15.8737 150.488 14.1484C150.423 12.3906 150.342 10.8932 150.244 9.65625C150.179 8.41927 150.098 7.67057 150 7.41016C149.87 7.08464 149.723 6.71029 149.561 6.28711C149.3 5.60352 148.763 4.61068 147.949 3.30859ZM170.752 3.65039C173.031 3.71549 174.919 3.76432 176.416 3.79688C177.946 3.79688 179.183 3.79688 180.127 3.79688H182.715H197.266C197.331 4.44792 197.38 5.08268 197.412 5.70117C197.477 6.28711 197.51 6.80794 197.51 7.26367C197.51 7.81706 197.493 8.32161 197.461 8.77734C197.428 9.23307 197.38 9.72135 197.314 10.2422C197.249 10.6979 197.184 11.1862 197.119 11.707C197.054 12.2279 196.94 12.765 196.777 13.3184C196.322 11.5605 195.703 10.2259 194.922 9.31445C194.173 8.40299 193.408 7.73568 192.627 7.3125C191.715 6.82422 190.755 6.5638 189.746 6.53125C188.411 6.59635 187.37 6.71029 186.621 6.87305C185.872 7.03581 185.286 7.26367 184.863 7.55664C184.44 7.84961 184.115 8.19141 183.887 8.58203C183.691 8.9401 183.48 9.34701 183.252 9.80273C183.057 10.1934 182.878 10.7956 182.715 11.6094C182.552 12.293 182.389 13.2207 182.227 14.3926C182.096 15.5645 181.95 17.0781 181.787 18.9336C182.666 18.6732 183.366 18.429 183.887 18.2012C184.44 17.9733 184.88 17.778 185.205 17.6152C185.563 17.4199 185.824 17.2409 185.986 17.0781C186.117 16.8828 186.312 16.5247 186.572 16.0039C186.768 15.5482 187.028 14.9297 187.354 14.1484C187.712 13.3672 188.135 12.293 188.623 10.9258C188.688 12.4232 188.721 13.6764 188.721 14.6855C188.721 15.6621 188.737 16.4596 188.77 17.0781C188.77 17.7943 188.786 18.3639 188.818 18.7871V20.6426C188.818 21.3262 188.818 22.2539 188.818 23.4258C188.851 24.5651 188.9 26.0137 188.965 27.7715C188.574 26.5671 188.216 25.623 187.891 24.9395C187.598 24.2233 187.337 23.6862 187.109 23.3281C186.849 22.9049 186.621 22.612 186.426 22.4492C186.198 22.3841 185.889 22.319 185.498 22.2539C185.14 22.2214 184.684 22.2051 184.131 22.2051C183.61 22.2051 182.943 22.2865 182.129 22.4492C182.031 24.2396 182.015 25.6882 182.08 26.7949C182.178 27.8691 182.308 28.6992 182.471 29.2852C182.633 29.9688 182.829 30.457 183.057 30.75C183.35 31.043 183.936 31.2871 184.814 31.4824C185.693 31.6452 186.686 31.7103 187.793 31.6777C188.932 31.6126 190.088 31.4173 191.26 31.0918C192.432 30.7663 193.473 30.2292 194.385 29.4805C195.068 28.862 195.801 28.0807 196.582 27.1367C197.233 26.3229 197.949 25.2975 198.73 24.0605C199.544 22.8236 200.342 21.3262 201.123 19.5684C200.993 21.0332 200.895 22.2539 200.83 23.2305C200.798 24.1745 200.749 24.9395 200.684 25.5254C200.618 26.209 200.57 26.7298 200.537 27.0879C200.537 27.4785 200.488 28.0319 200.391 28.748C200.326 29.3665 200.212 30.2129 200.049 31.2871C199.919 32.3288 199.74 33.6634 199.512 35.291C197.982 35.3236 196.533 35.3561 195.166 35.3887C193.799 35.3887 192.594 35.4049 191.553 35.4375C190.316 35.4701 189.176 35.5026 188.135 35.5352C187.061 35.5352 185.872 35.584 184.57 35.6816C183.431 35.7467 182.08 35.8444 180.518 35.9746C178.988 36.1048 177.295 36.2839 175.439 36.5117C175.602 34.2982 175.716 32.2148 175.781 30.2617C175.879 28.276 175.944 26.5345 175.977 25.0371C176.009 23.2793 176.009 21.6517 175.977 20.1543C176.139 16.4108 176.074 13.3835 175.781 11.0723C175.488 8.76107 175.146 7.27995 174.756 6.62891C174.561 6.40104 174.284 6.12435 173.926 5.79883C173.633 5.53841 173.226 5.22917 172.705 4.87109C172.184 4.51302 171.533 4.10612 170.752 3.65039ZM201.416 2.08789C202.458 2.34831 203.451 2.54362 204.395 2.67383C205.339 2.80404 206.169 2.90169 206.885 2.9668C207.731 3.06445 208.512 3.09701 209.229 3.06445C210.14 3.06445 211.279 2.98307 212.646 2.82031C214.046 2.65755 215.479 2.51107 216.943 2.38086C218.408 2.2181 219.808 2.12044 221.143 2.08789C222.51 2.02279 223.617 2.10417 224.463 2.33203C225.309 2.52734 226.172 2.83659 227.051 3.25977C227.962 3.65039 228.792 4.15495 229.541 4.77344C230.29 5.35938 230.908 6.05924 231.396 6.87305C231.885 7.6543 232.161 8.54948 232.227 9.55859C232.194 10.8281 231.901 12.0163 231.348 13.123C230.892 14.0671 230.127 15.0436 229.053 16.0527C227.979 17.0293 226.432 17.778 224.414 18.2988C225.423 18.429 226.286 18.6569 227.002 18.9824C227.751 19.2754 228.385 19.6335 228.906 20.0566C229.46 20.4473 229.899 20.8867 230.225 21.375C230.583 21.8633 230.859 22.3516 231.055 22.8398C231.543 23.9792 231.771 25.2487 231.738 26.6484C231.543 28.4714 231.169 29.9199 230.615 30.9941C230.094 32.0684 229.492 32.8984 228.809 33.4844C228.125 34.0703 227.425 34.4772 226.709 34.7051C225.993 34.9329 225.342 35.112 224.756 35.2422C224.17 35.3724 223.454 35.4375 222.607 35.4375C221.761 35.4375 220.85 35.4212 219.873 35.3887C218.929 35.3236 217.952 35.2747 216.943 35.2422C215.934 35.1771 214.974 35.1771 214.062 35.2422C213.314 35.3073 212.402 35.3724 211.328 35.4375C210.417 35.5026 209.277 35.584 207.91 35.6816C206.543 35.7467 204.948 35.8281 203.125 35.9258C203.483 35.6654 203.776 35.3724 204.004 35.0469C204.264 34.6888 204.476 34.3796 204.639 34.1191C204.801 33.7936 204.948 33.4844 205.078 33.1914C205.176 32.931 205.257 32.2148 205.322 31.043C205.387 29.8711 205.436 28.4714 205.469 26.8438C205.501 25.1836 205.518 23.4095 205.518 21.5215C205.55 19.6009 205.534 17.7617 205.469 16.0039C205.436 14.2135 205.371 12.6348 205.273 11.2676C205.208 9.86784 205.111 8.85872 204.98 8.24023C204.785 7.55664 204.525 6.85677 204.199 6.14062C203.939 5.52214 203.564 4.85482 203.076 4.13867C202.62 3.42253 202.067 2.73893 201.416 2.08789ZM211.719 7.06836C211.719 7.19857 211.735 7.63802 211.768 8.38672C211.8 9.03776 211.833 10.0469 211.865 11.4141C211.93 12.7487 212.012 14.653 212.109 17.127C212.923 17.485 213.721 17.6803 214.502 17.7129C215.283 17.7129 215.983 17.6803 216.602 17.6152C217.318 17.5176 218.001 17.3548 218.652 17.127C219.531 16.7689 220.215 16.1829 220.703 15.3691C221.224 14.5553 221.566 13.709 221.729 12.8301C221.924 11.9186 221.973 11.0723 221.875 10.291C221.777 9.47721 221.566 8.89128 221.24 8.5332C220.622 7.97982 219.857 7.52409 218.945 7.16602C218.164 6.87305 217.171 6.67773 215.967 6.58008C214.795 6.44987 213.379 6.61263 211.719 7.06836ZM211.475 30.2129C212.679 30.8314 213.737 31.2383 214.648 31.4336C215.56 31.6289 216.325 31.7266 216.943 31.7266C217.66 31.7266 218.278 31.6289 218.799 31.4336C219.417 31.1406 220.02 30.75 220.605 30.2617C221.224 29.7409 221.68 29.1387 221.973 28.4551C222.298 27.7389 222.428 26.9577 222.363 26.1113C222.298 25.2324 221.924 24.2721 221.24 23.2305C220.622 22.4818 219.873 21.8958 218.994 21.4727C218.213 21.1146 217.22 20.8867 216.016 20.7891C214.844 20.6914 213.395 20.9681 211.67 21.6191L211.475 30.2129ZM231.982 1.35547C233.024 1.51823 233.968 1.66471 234.814 1.79492C235.661 1.89258 236.393 1.97396 237.012 2.03906C237.728 2.13672 238.363 2.2181 238.916 2.2832C239.6 2.38086 240.625 2.26693 241.992 1.94141C243.359 1.58333 244.857 1.25781 246.484 0.964844C248.145 0.639323 249.837 0.460286 251.562 0.427734C253.288 0.36263 254.867 0.671875 256.299 1.35547C257.731 2.03906 258.903 2.72266 259.814 3.40625C260.726 4.08984 261.442 4.82227 261.963 5.60352C262.516 6.35221 262.907 7.14974 263.135 7.99609C263.363 8.84245 263.493 9.77018 263.525 10.7793C263.493 12.2767 263.135 13.7253 262.451 15.125C262.158 15.7109 261.768 16.3294 261.279 16.9805C260.824 17.599 260.254 18.2012 259.57 18.7871C258.887 19.373 258.073 19.9264 257.129 20.4473C256.217 20.9681 255.143 21.4238 253.906 21.8145C255.111 22.1725 256.104 22.5957 256.885 23.084C257.699 23.5723 258.35 24.028 258.838 24.4512C259.424 24.972 259.863 25.4766 260.156 25.9648C260.514 26.6484 260.758 27.2344 260.889 27.7227C261.019 28.2109 261.1 28.6829 261.133 29.1387C261.198 29.5618 261.279 30.0013 261.377 30.457C261.475 30.9128 261.686 31.4336 262.012 32.0195C262.272 32.4753 262.581 32.9473 262.939 33.4355C263.265 33.8587 263.639 34.3145 264.062 34.8027C264.518 35.291 265.072 35.763 265.723 36.2188C264.811 36.2513 263.965 36.2676 263.184 36.2676C262.435 36.2676 261.784 36.2676 261.23 36.2676C260.579 36.2676 259.961 36.2513 259.375 36.2188C258.789 36.1862 258.057 36.1699 257.178 36.1699C256.429 36.1699 255.469 36.1699 254.297 36.1699C253.158 36.1699 251.774 36.1862 250.146 36.2188C250.863 35.6654 251.449 35.112 251.904 34.5586C252.36 34.0052 252.718 33.5007 252.979 33.0449C253.271 32.5241 253.483 32.0195 253.613 31.5312C253.776 30.6523 253.792 29.7409 253.662 28.7969C253.564 27.9831 253.304 27.0879 252.881 26.1113C252.458 25.1022 251.774 24.0931 250.83 23.084C249.886 23.2467 249.089 23.377 248.438 23.4746C247.819 23.5397 247.282 23.6048 246.826 23.6699C246.305 23.735 245.882 23.7839 245.557 23.8164C245.264 23.849 244.938 23.8815 244.58 23.9141C244.287 23.9466 243.962 23.9954 243.604 24.0605C243.278 24.0931 242.969 24.1419 242.676 24.207C242.611 25.6068 242.611 26.8275 242.676 27.8691C242.741 28.8783 242.822 29.7246 242.92 30.4082C243.05 31.222 243.197 31.9219 243.359 32.5078C243.522 33.0938 243.75 33.6634 244.043 34.2168C244.271 34.6725 244.564 35.1608 244.922 35.6816C245.28 36.1699 245.687 36.5768 246.143 36.9023C245.296 36.9023 244.482 36.9023 243.701 36.9023C242.952 36.9023 242.269 36.8861 241.65 36.8535C240.934 36.8535 240.251 36.8372 239.6 36.8047C238.949 36.7721 238.216 36.7559 237.402 36.7559C236.719 36.7559 235.905 36.7559 234.961 36.7559C234.049 36.7559 233.057 36.7721 231.982 36.8047C232.829 35.9258 233.496 35.1771 233.984 34.5586C234.473 33.9401 234.847 33.4193 235.107 32.9961C235.4 32.5404 235.579 32.1497 235.645 31.8242C235.71 31.3034 235.758 30.3757 235.791 29.041C235.856 27.6738 235.905 26.1113 235.938 24.3535C235.97 22.5957 235.986 20.7565 235.986 18.8359C235.986 16.9154 235.97 15.125 235.938 13.4648C235.905 11.7721 235.872 10.3236 235.84 9.11914C235.807 7.91471 235.775 7.14974 235.742 6.82422C235.645 6.23828 235.433 5.65234 235.107 5.06641C234.847 4.54557 234.473 3.95964 233.984 3.30859C233.496 2.65755 232.829 2.00651 231.982 1.35547ZM250.439 18.543C250.765 18.3477 251.042 18.1523 251.27 17.957C251.497 17.7617 251.693 17.4525 251.855 17.0293C252.018 16.5736 252.148 15.9388 252.246 15.125C252.376 14.3112 252.523 13.2044 252.686 11.8047C252.816 10.4049 252.718 9.24935 252.393 8.33789C252.1 7.42643 251.693 6.71029 251.172 6.18945C250.684 5.63607 250.13 5.26172 249.512 5.06641C248.926 4.83854 248.405 4.72461 247.949 4.72461C247.038 4.72461 246.143 5.0013 245.264 5.55469C244.385 6.10807 243.717 6.85677 243.262 7.80078C243.099 8.22396 242.952 8.92383 242.822 9.90039C242.725 10.7467 242.66 11.9186 242.627 13.416C242.594 14.9134 242.643 16.8828 242.773 19.3242C244.01 19.5195 245.101 19.6009 246.045 19.5684C246.989 19.5033 247.786 19.3893 248.438 19.2266C249.219 19.0638 249.886 18.8359 250.439 18.543ZM264.746 2.67383C265.723 2.86914 266.553 3.01562 267.236 3.11328C267.92 3.21094 268.49 3.29232 268.945 3.35742C269.466 3.42253 269.906 3.45508 270.264 3.45508C270.622 3.45508 271.11 3.4388 271.729 3.40625C272.282 3.3737 272.982 3.35742 273.828 3.35742C274.674 3.32487 275.749 3.27604 277.051 3.21094C276.302 3.73177 275.7 4.17122 275.244 4.5293C274.788 4.88737 274.447 5.19661 274.219 5.45703C273.926 5.75 273.747 5.99414 273.682 6.18945C273.617 6.31966 273.551 6.80794 273.486 7.6543C273.421 8.4681 273.356 9.50977 273.291 10.7793C273.258 12.0163 273.258 13.416 273.291 14.9785C273.324 16.5085 273.405 18.071 273.535 19.666C273.698 21.2611 273.926 22.8073 274.219 24.3047C274.512 25.7695 274.902 27.0553 275.391 28.1621C275.911 29.2689 276.53 30.1315 277.246 30.75C277.995 31.3685 278.89 31.5964 279.932 31.4336C281.299 31.2383 282.406 30.571 283.252 29.4316C284.098 28.2923 284.733 26.9089 285.156 25.2812C285.612 23.6536 285.889 21.9121 285.986 20.0566C286.117 18.1686 286.133 16.4108 286.035 14.7832C285.97 13.123 285.84 11.6908 285.645 10.4863C285.449 9.2819 285.27 8.5332 285.107 8.24023C284.912 7.91471 284.652 7.54036 284.326 7.11719C284.066 6.75911 283.724 6.35221 283.301 5.89648C282.878 5.4082 282.389 4.88737 281.836 4.33398C282.845 4.36654 283.757 4.39909 284.57 4.43164C285.384 4.43164 286.068 4.44792 286.621 4.48047C287.272 4.51302 287.858 4.54557 288.379 4.57812C288.9 4.61068 289.551 4.65951 290.332 4.72461C290.983 4.78971 291.813 4.85482 292.822 4.91992C293.864 4.98503 295.101 5.08268 296.533 5.21289C295.98 5.3431 295.524 5.52214 295.166 5.75C294.84 5.97786 294.58 6.22201 294.385 6.48242C294.157 6.77539 293.994 7.06836 293.896 7.36133C293.799 7.62174 293.717 8.40299 293.652 9.70508C293.62 10.9746 293.555 12.5208 293.457 14.3438C293.392 16.1341 293.278 18.0872 293.115 20.2031C292.952 22.2865 292.692 24.2721 292.334 26.1602C292.008 28.0482 291.569 29.7246 291.016 31.1895C290.495 32.6543 289.811 33.6634 288.965 34.2168C287.728 35.0306 286.426 35.6165 285.059 35.9746C283.691 36.3001 282.308 36.4792 280.908 36.5117C279.508 36.5117 278.125 36.3978 276.758 36.1699C275.423 35.9095 274.137 35.6003 272.9 35.2422C271.631 34.8516 270.573 33.9727 269.727 32.6055C268.913 31.2383 268.262 29.627 267.773 27.7715C267.318 25.8835 266.976 23.8652 266.748 21.7168C266.553 19.5358 266.423 17.4362 266.357 15.418C266.325 13.3997 266.325 11.5768 266.357 9.94922C266.423 8.28906 266.471 7.03581 266.504 6.18945C266.504 5.76628 266.439 5.35938 266.309 4.96875C266.211 4.61068 266.032 4.23633 265.771 3.8457C265.544 3.42253 265.202 3.0319 264.746 2.67383ZM302.686 3.94336C304.313 4.04102 305.68 4.1224 306.787 4.1875C307.926 4.22005 308.87 4.2526 309.619 4.28516C310.465 4.31771 311.182 4.31771 311.768 4.28516C312.354 4.2526 313.151 4.17122 314.16 4.04102C315.007 3.94336 316.13 3.79688 317.529 3.60156C318.962 3.3737 320.736 3.08073 322.852 2.72266C322.103 3.47135 321.517 4.15495 321.094 4.77344C320.703 5.35938 320.394 5.86393 320.166 6.28711C319.906 6.80794 319.727 7.2474 319.629 7.60547C319.564 7.93099 319.629 8.74479 319.824 10.0469C320.02 11.349 320.296 12.8952 320.654 14.6855C321.012 16.4434 321.403 18.3314 321.826 20.3496C322.249 22.3353 322.673 24.207 323.096 25.9648C323.519 27.6901 323.893 29.1712 324.219 30.4082C324.577 31.6126 324.837 32.3288 325 32.5566C325.488 33.2402 325.798 33.696 325.928 33.9238C326.058 34.1191 326.286 34.2982 326.611 34.4609C326.742 34.526 326.953 34.6237 327.246 34.7539C327.507 34.8841 327.848 35.0469 328.271 35.2422C328.727 35.4375 329.297 35.6654 329.98 35.9258C328.711 35.9909 327.62 36.0397 326.709 36.0723C325.798 36.0723 325.049 36.0885 324.463 36.1211C323.779 36.1536 323.193 36.1862 322.705 36.2188C322.217 36.2188 321.631 36.2513 320.947 36.3164C320.361 36.3815 319.596 36.4466 318.652 36.5117C317.741 36.5768 316.667 36.6419 315.43 36.707C316.081 36.2513 316.602 35.8444 316.992 35.4863C317.415 35.0957 317.741 34.7702 317.969 34.5098C318.229 34.1842 318.408 33.8913 318.506 33.6309C318.571 33.3379 318.62 32.8984 318.652 32.3125C318.685 31.7917 318.685 31.1081 318.652 30.2617C318.62 29.3828 318.538 28.2435 318.408 26.8438L305.566 28.1621C305.241 28.7155 304.997 29.2038 304.834 29.627C304.671 30.0176 304.557 30.3594 304.492 30.6523C304.395 31.0104 304.362 31.3034 304.395 31.5312C304.46 31.7917 304.574 32.1009 304.736 32.459C304.899 32.7845 305.127 33.1751 305.42 33.6309C305.745 34.054 306.217 34.5586 306.836 35.1445C306.022 35.112 305.192 35.0957 304.346 35.0957C303.499 35.0957 302.718 35.112 302.002 35.1445C301.156 35.1771 300.326 35.2096 299.512 35.2422C298.698 35.2747 297.77 35.3236 296.729 35.3887C295.85 35.4538 294.824 35.5352 293.652 35.6328C292.448 35.6979 291.162 35.7956 289.795 35.9258C290.641 35.5352 291.357 35.1445 291.943 34.7539C292.529 34.3307 293.018 33.9401 293.408 33.582C293.864 33.1914 294.255 32.8171 294.58 32.459C294.808 32.1335 295.264 31.3848 295.947 30.2129C296.631 29.0085 297.396 27.5924 298.242 25.9648C299.121 24.3372 300.033 22.5957 300.977 20.7402C301.953 18.8848 302.832 17.1432 303.613 15.5156C304.395 13.8555 305.029 12.4232 305.518 11.2188C306.006 10.0143 306.25 9.23307 306.25 8.875C306.185 8.45182 306.022 7.97982 305.762 7.45898C305.534 7.00326 305.176 6.48242 304.688 5.89648C304.232 5.31055 303.564 4.65951 302.686 3.94336ZM317.822 23.2305C317.627 22.0911 317.448 21.1146 317.285 20.3008C317.122 19.4544 316.992 18.7546 316.895 18.2012C316.764 17.5501 316.667 16.9805 316.602 16.4922C316.504 16.0365 316.39 15.4505 316.26 14.7344C316.13 14.1159 315.967 13.3509 315.771 12.4395C315.609 11.4954 315.397 10.3724 315.137 9.07031C313.281 12.7812 311.833 15.6621 310.791 17.7129C309.782 19.7311 309.049 21.2122 308.594 22.1562C308.04 23.263 307.731 23.9141 307.666 24.1094L317.822 23.2305ZM325.684 1.35547C326.725 1.51823 327.669 1.66471 328.516 1.79492C329.362 1.89258 330.094 1.97396 330.713 2.03906C331.429 2.13672 332.064 2.2181 332.617 2.2832C333.301 2.38086 334.326 2.26693 335.693 1.94141C337.061 1.58333 338.558 1.25781 340.186 0.964844C341.846 0.639323 343.538 0.460286 345.264 0.427734C346.989 0.36263 348.568 0.671875 350 1.35547C351.432 2.03906 352.604 2.72266 353.516 3.40625C354.427 4.08984 355.143 4.82227 355.664 5.60352C356.217 6.35221 356.608 7.14974 356.836 7.99609C357.064 8.84245 357.194 9.77018 357.227 10.7793C357.194 12.2767 356.836 13.7253 356.152 15.125C355.859 15.7109 355.469 16.3294 354.98 16.9805C354.525 17.599 353.955 18.2012 353.271 18.7871C352.588 19.373 351.774 19.9264 350.83 20.4473C349.919 20.9681 348.844 21.4238 347.607 21.8145C348.812 22.1725 349.805 22.5957 350.586 23.084C351.4 23.5723 352.051 24.028 352.539 24.4512C353.125 24.972 353.564 25.4766 353.857 25.9648C354.215 26.6484 354.46 27.2344 354.59 27.7227C354.72 28.2109 354.801 28.6829 354.834 29.1387C354.899 29.5618 354.98 30.0013 355.078 30.457C355.176 30.9128 355.387 31.4336 355.713 32.0195C355.973 32.4753 356.283 32.9473 356.641 33.4355C356.966 33.8587 357.34 34.3145 357.764 34.8027C358.219 35.291 358.773 35.763 359.424 36.2188C358.512 36.2513 357.666 36.2676 356.885 36.2676C356.136 36.2676 355.485 36.2676 354.932 36.2676C354.281 36.2676 353.662 36.2513 353.076 36.2188C352.49 36.1862 351.758 36.1699 350.879 36.1699C350.13 36.1699 349.17 36.1699 347.998 36.1699C346.859 36.1699 345.475 36.1862 343.848 36.2188C344.564 35.6654 345.15 35.112 345.605 34.5586C346.061 34.0052 346.419 33.5007 346.68 33.0449C346.973 32.5241 347.184 32.0195 347.314 31.5312C347.477 30.6523 347.493 29.7409 347.363 28.7969C347.266 27.9831 347.005 27.0879 346.582 26.1113C346.159 25.1022 345.475 24.0931 344.531 23.084C343.587 23.2467 342.79 23.377 342.139 23.4746C341.52 23.5397 340.983 23.6048 340.527 23.6699C340.007 23.735 339.583 23.7839 339.258 23.8164C338.965 23.849 338.639 23.8815 338.281 23.9141C337.988 23.9466 337.663 23.9954 337.305 24.0605C336.979 24.0931 336.67 24.1419 336.377 24.207C336.312 25.6068 336.312 26.8275 336.377 27.8691C336.442 28.8783 336.523 29.7246 336.621 30.4082C336.751 31.222 336.898 31.9219 337.061 32.5078C337.223 33.0938 337.451 33.6634 337.744 34.2168C337.972 34.6725 338.265 35.1608 338.623 35.6816C338.981 36.1699 339.388 36.5768 339.844 36.9023C338.997 36.9023 338.184 36.9023 337.402 36.9023C336.654 36.9023 335.97 36.8861 335.352 36.8535C334.635 36.8535 333.952 36.8372 333.301 36.8047C332.65 36.7721 331.917 36.7559 331.104 36.7559C330.42 36.7559 329.606 36.7559 328.662 36.7559C327.751 36.7559 326.758 36.7721 325.684 36.8047C326.53 35.9258 327.197 35.1771 327.686 34.5586C328.174 33.9401 328.548 33.4193 328.809 32.9961C329.102 32.5404 329.281 32.1497 329.346 31.8242C329.411 31.3034 329.46 30.3757 329.492 29.041C329.557 27.6738 329.606 26.1113 329.639 24.3535C329.671 22.5957 329.688 20.7565 329.688 18.8359C329.688 16.9154 329.671 15.125 329.639 13.4648C329.606 11.7721 329.574 10.3236 329.541 9.11914C329.508 7.91471 329.476 7.14974 329.443 6.82422C329.346 6.23828 329.134 5.65234 328.809 5.06641C328.548 4.54557 328.174 3.95964 327.686 3.30859C327.197 2.65755 326.53 2.00651 325.684 1.35547ZM344.141 18.543C344.466 18.3477 344.743 18.1523 344.971 17.957C345.199 17.7617 345.394 17.4525 345.557 17.0293C345.719 16.5736 345.85 15.9388 345.947 15.125C346.077 14.3112 346.224 13.2044 346.387 11.8047C346.517 10.4049 346.419 9.24935 346.094 8.33789C345.801 7.42643 345.394 6.71029 344.873 6.18945C344.385 5.63607 343.831 5.26172 343.213 5.06641C342.627 4.83854 342.106 4.72461 341.65 4.72461C340.739 4.72461 339.844 5.0013 338.965 5.55469C338.086 6.10807 337.419 6.85677 336.963 7.80078C336.8 8.22396 336.654 8.92383 336.523 9.90039C336.426 10.7467 336.361 11.9186 336.328 13.416C336.296 14.9134 336.344 16.8828 336.475 19.3242C337.712 19.5195 338.802 19.6009 339.746 19.5684C340.69 19.5033 341.488 19.3893 342.139 19.2266C342.92 19.0638 343.587 18.8359 344.141 18.543ZM351.465 2.33203C352.865 2.46224 354.102 2.5599 355.176 2.625C356.25 2.6901 357.145 2.75521 357.861 2.82031C358.708 2.88542 359.424 2.93424 360.01 2.9668C360.596 2.99935 361.312 3.01562 362.158 3.01562C362.874 3.04818 363.77 3.06445 364.844 3.06445C365.918 3.06445 367.188 3.06445 368.652 3.06445C367.708 3.52018 366.976 3.94336 366.455 4.33398C365.967 4.72461 365.592 5.06641 365.332 5.35938C365.007 5.71745 364.811 6.04297 364.746 6.33594C364.714 6.59635 364.779 7.03581 364.941 7.6543C365.104 8.27279 365.332 8.97266 365.625 9.75391C365.918 10.5026 366.276 11.3001 366.699 12.1465C367.122 12.9928 367.562 13.7578 368.018 14.4414C368.506 15.0924 368.994 15.6296 369.482 16.0527C369.971 16.4759 370.443 16.6712 370.898 16.6387C371.354 16.6061 371.908 16.3945 372.559 16.0039C373.21 15.5807 373.877 15.0599 374.561 14.4414C375.277 13.8229 375.977 13.1556 376.66 12.4395C377.344 11.7233 377.946 11.0234 378.467 10.3398C379.02 9.65625 379.46 9.03776 379.785 8.48438C380.143 7.89844 380.322 7.47526 380.322 7.21484C380.29 6.88932 380.16 6.51497 379.932 6.0918C379.736 5.73372 379.411 5.31055 378.955 4.82227C378.499 4.30143 377.865 3.71549 377.051 3.06445C379.72 3.16211 381.673 3.21094 382.91 3.21094H384.717H386.768C387.516 3.21094 388.509 3.21094 389.746 3.21094C390.983 3.17839 392.529 3.12956 394.385 3.06445C393.115 3.91081 392.008 4.67578 391.064 5.35938C390.153 6.01042 389.372 6.5638 388.721 7.01953C387.972 7.57292 387.354 8.0612 386.865 8.48438C386.312 8.9401 385.547 9.65625 384.57 10.6328C383.724 11.4792 382.601 12.6185 381.201 14.0508C379.801 15.4505 378.044 17.2734 375.928 19.5195C375.635 21.8958 375.439 23.8164 375.342 25.2812C375.277 26.7461 375.244 27.9017 375.244 28.748C375.244 29.7246 375.309 30.457 375.439 30.9453C375.602 31.3359 375.879 31.7917 376.27 32.3125C376.595 32.7682 377.051 33.3053 377.637 33.9238C378.255 34.5423 379.069 35.2259 380.078 35.9746C379.004 35.7142 377.995 35.5189 377.051 35.3887C376.139 35.2585 375.326 35.1608 374.609 35.0957C373.763 34.998 372.998 34.9492 372.314 34.9492C371.598 34.9492 370.752 34.9818 369.775 35.0469C368.929 35.112 367.92 35.1934 366.748 35.291C365.576 35.3887 364.209 35.5352 362.646 35.7305C363.46 35.1771 364.128 34.6237 364.648 34.0703C365.169 33.5169 365.576 33.0124 365.869 32.5566C366.227 32.0358 366.488 31.5475 366.65 31.0918C366.781 30.571 366.878 29.8223 366.943 28.8457C367.008 27.9993 367.008 26.8763 366.943 25.4766C366.911 24.0768 366.813 22.3027 366.65 20.1543C364.697 17.0293 363.102 14.5716 361.865 12.7812C360.628 10.9583 359.668 9.57487 358.984 8.63086C358.171 7.55664 357.585 6.84049 357.227 6.48242C356.901 6.22201 356.462 5.89648 355.908 5.50586C355.452 5.14779 354.867 4.72461 354.15 4.23633C353.402 3.71549 352.507 3.08073 351.465 2.33203Z" fill="#F69296"/>
</svg>
